<?xml version="1.0" encoding="UTF-8"?>
<svg width="227.99" height="304.4" version="1.1" viewBox="0 0 227.99 304.4" xml:space="preserve" xmlns="http://www.w3.org/2000/svg"><g transform="matrix(1.8352 0 0 -1.8352 -1056.3 860.92)"><g transform="translate(683.1 371.57)"><path d="m0 0-7.293 21.2 7.203-5.571-4.528 16.143-5.471 4.173h4.05l-10.584 13.566 7.277-0.776-9.48 9.576 8.817 0.094 0.016 0.205-18.93 3.219 5.068 2.143-15.37 1.389-6.428-1.561 5.649 6.038-19.683-7.14 4.318 4.82-16.712-9.889v5.968l-7.245-15.359-0.299 8.271-4.147-15.677 3.487-3.016-2.317-0.926v-3.515l-1.81-3.428-2.794-2.217-5.714-10.362 1.357-10.463 4.125-7.546 0.606 6.872 2.333 4.199 1.668-1.668h1.9l1.664 0.881 9.417 5.573 4.041-0.643-5.437-7.822 2.225-4.062-5.768-14.673 6.934 9.447-0.097-27.002 6.911 13.238 2.702-11.773 6.125 12.638 8.246-11.641 0.968 7.554 7.408-8.467 2.882 14.024 6.42-10.349 10.632 21.747 9.906-6.992-0.767 17.166zm-0.548 0.957-6.005 7.006-16.412 25.842 15.375-12.38zm-10.154 35.195 5.904-4.502 4.34-15.475-7.124 5.509-15.655 12.605-0.246 0.332-0.021 0.033 1e-3 -7e-3 -10.973 14.778 27.769-13.273zm-28.426-4.93-16.535-0.755-1.211 1.549 9.644 3.374 1.342 4.603 22.113-5.762-15.069-2.996-0.255-0.011zm-0.72-0.239-13.544-3.42-2.115 2.705zm-13.039 4.013c1.092 0 1.976 0.885 1.976 1.976 0 1.092-0.884 1.976-1.976 1.976-0.035 0-0.069-3e-3 -0.103-5e-3l3.482 2.002-2e-3 -8e-3 3.422-0.892-1.311-4.495-9.61-3.362-2.399 3.067 4.867 2.797c-0.203-0.31-0.322-0.681-0.322-1.08 0-1.091 0.885-1.976 1.976-1.976m3.625 6.09 14.523 8.346 11.169-15.041zm-4.459-2.325c-0.105-0.048-0.204-0.105-0.297-0.17l-8.905-5.118-3.983 2.964 17.296 17.878 14.734-4.723zm-13.259-2.104-0.567 17.22 17.686 0.476zm-0.204-0.105-5.902 0.75-6.207 10.179 11.541 6.325zm0.195-0.311 4.051-3.015 3.349 1.925 5.978-7.643-14.505-3.662zm27.819-5.301-9.155-9.155-0.295-0.027-19.023 1.994zm-8.96-9.252 0.056 0.013-0.039 4e-3 9.112 9.112 9.184-29.437-18.319 20.302zm9.349 9.349 15.392 3.059 7.393-35.68zm32.179 5.294-28.047 13.406-13.85 4.439 31.589-4.632zm-32.531 28.814 14.436-1.304-4.958-2.098 18.492-3.143-8.153-0.087 9.414-9.51-6.939 0.74-32.572 4.776zm-7.144-1.71 6.801 1.652-10.189-10.531-0.053 7e-3 -17.528-0.471 26.327 15.071zm4.81 5.652-25.681-14.7 7.169 7.985zm-14.951-2.43-3.711-4.142-7.59-8.455-6.33-3.469 1.953 6.789zm-15.87-3.983v-5.211l-2.017-7.012-5.055-2.771zm-11.251-21.77 3.758 14.205 0.271-7.511-0.073-0.04 0.079-0.129 2e-3 -0.049 0.012 0.026 6.147-10.081-6.704 0.559zm-1.057-30.221-2.438-4.39-0.55-6.236-3.779 6.913-1.343 10.358 5.661 10.266 2.796 2.218 1.854 3.512v3.426l2.322 0.928 6.914-0.576 5.971-0.758-1.157-12.726 18.662-1.956-16.646-1.513-4.756-1.942-3.855-3.662zm14.704 4.749-9.476-5.609-1.614-0.854h-1.763l-1.594 1.593 9.512 3.806 3.856 3.663 4.691 1.914 16.069 1.461-7.776-1.847-2.786-5.092-4.845 0.285zm11.998 3.866 18.643-18.737-21.454 8.374 0.094 5.397zm-3.212-35.277-6.636-12.711 0.096 26.787-6.368-8.676 5.188 13.2 6e-3 -7e-3 7.905 6.041zm0.197 25.43-4e-3 -0.534-7.954-6.079-2.136 3.9 5.425 7.804 4.759-0.28-0.084-4.826zm2.64-36.906-2.63 11.462 0.188 24.272 8.368-23.506zm15.138 8.396-0.016 0.018-0.959-7.484-8.032 11.34-8.498 23.872 21.684-8.465zm10.325 5.64-2e-3 3e-3 -2.902-14.124-7.251 8.287 4.249 19.603-0.062 0.025-18.941 19.036 8.954 2.127 0.44 0.04 18.631-20.647zm0.157-0.253 3.046 14.029 3.138-23.997zm6.406-10.076-3.23 24.704 7e-3 0.035-0.02 0.022-9.189 29.493 22.923-32.796zm20.265 14.601-9.651 6.813-7.443 35.921 16.334-25.718z" fill="#231f20"/></g><g transform="translate(683.1 371.57)"><path d="m0 0-7.293 21.2 7.203-5.571-4.528 16.143-5.471 4.173h4.05l-10.584 13.566 7.277-0.776-9.48 9.576 8.817 0.094 0.016 0.205-18.93 3.219 5.068 2.143-15.37 1.389-6.428-1.561 5.649 6.038-19.683-7.14 4.318 4.82-16.712-9.889v5.968l-7.245-15.359-0.299 8.271-4.147-15.677 3.487-3.016-2.317-0.926v-3.515l-1.81-3.428-2.794-2.217-5.714-10.362 1.357-10.463 4.125-7.546 0.606 6.872 2.333 4.199 1.668-1.668h1.9l1.664 0.881 9.417 5.573 4.041-0.643-5.437-7.822 2.225-4.062-5.768-14.673 6.934 9.447-0.097-27.002 6.911 13.238 2.702-11.773 6.125 12.638 8.246-11.641 0.968 7.554 7.408-8.467 2.882 14.024 6.42-10.349 10.632 21.747 9.906-6.992-0.767 17.166zm-0.548 0.957-6.005 7.006-16.412 25.842 15.375-12.38zm-10.154 35.195 5.904-4.502 4.34-15.475-7.124 5.509-15.655 12.605-0.246 0.332-0.021 0.033 1e-3 -7e-3 -10.973 14.778 27.769-13.273zm-28.426-4.93-16.535-0.755-1.211 1.549 9.644 3.374 1.342 4.603 22.113-5.762-15.069-2.996-0.255-0.011zm-0.72-0.239-13.544-3.42-2.115 2.705zm-13.039 4.013c1.092 0 1.976 0.885 1.976 1.976 0 1.092-0.884 1.976-1.976 1.976-0.035 0-0.069-3e-3 -0.103-5e-3l3.482 2.002-2e-3 -8e-3 3.422-0.892-1.311-4.495-9.61-3.362-2.399 3.067 4.867 2.797c-0.203-0.31-0.322-0.681-0.322-1.08 0-1.091 0.885-1.976 1.976-1.976zm3.625 6.09 14.523 8.346 11.169-15.041zm-4.459-2.325c-0.105-0.048-0.204-0.105-0.297-0.17l-8.905-5.118-3.983 2.964 17.296 17.878 14.734-4.723zm-13.259-2.104-0.567 17.22 17.686 0.476zm-0.204-0.105-5.902 0.75-6.207 10.179 11.541 6.325zm0.195-0.311 4.051-3.015 3.349 1.925 5.978-7.643-14.505-3.662zm27.819-5.301-9.155-9.155-0.295-0.027-19.023 1.994zm-8.96-9.252 0.056 0.013-0.039 4e-3 9.112 9.112 9.184-29.437-18.319 20.302zm9.349 9.349 15.392 3.059 7.393-35.68zm32.179 5.294-28.047 13.406-13.85 4.439 31.589-4.632zm-32.531 28.814 14.436-1.304-4.958-2.098 18.492-3.143-8.153-0.087 9.414-9.51-6.939 0.74-32.572 4.776zm-7.144-1.71 6.801 1.652-10.189-10.531-0.053 7e-3 -17.528-0.471 26.327 15.071zm4.81 5.652-25.681-14.7 7.169 7.985zm-14.951-2.43-3.711-4.142-7.59-8.455-6.33-3.469 1.953 6.789zm-15.87-3.983v-5.211l-2.017-7.012-5.055-2.771zm-11.251-21.77 3.758 14.205 0.271-7.511-0.073-0.04 0.079-0.129 2e-3 -0.049 0.012 0.026 6.147-10.081-6.704 0.559zm-1.057-30.221-2.438-4.39-0.55-6.236-3.779 6.913-1.343 10.358 5.661 10.266 2.796 2.218 1.854 3.512v3.426l2.322 0.928 6.914-0.576 5.971-0.758-1.157-12.726 18.662-1.956-16.646-1.513-4.756-1.942-3.855-3.662zm14.704 4.749-9.476-5.609-1.614-0.854h-1.763l-1.594 1.593 9.512 3.806 3.856 3.663 4.691 1.914 16.069 1.461-7.776-1.847-2.786-5.092-4.845 0.285zm11.998 3.866 18.643-18.737-21.454 8.374 0.094 5.397zm-3.212-35.277-6.636-12.711 0.096 26.787-6.368-8.676 5.188 13.2 6e-3 -7e-3 7.905 6.041zm0.197 25.43-4e-3 -0.534-7.954-6.079-2.136 3.9 5.425 7.804 4.759-0.28-0.084-4.826zm2.64-36.906-2.63 11.462 0.188 24.272 8.368-23.506zm15.138 8.396-0.016 0.018-0.959-7.484-8.032 11.34-8.498 23.872 21.684-8.465zm10.325 5.64-2e-3 3e-3 -2.902-14.124-7.251 8.287 4.249 19.603-0.062 0.025-18.941 19.036 8.954 2.127 0.44 0.04 18.631-20.647zm0.157-0.253 3.046 14.029 3.138-23.997zm6.406-10.076-3.23 24.704 7e-3 0.035-0.02 0.022-9.189 29.493 22.923-32.796zm20.265 14.601-9.651 6.813-7.443 35.921 16.334-25.718z" fill="none" stroke="#231f20" stroke-miterlimit="10" stroke-width=".675"/></g></g></svg>
