<?xml version="1.0" encoding="UTF-8"?>
<svg width="227.99" height="304.4" version="1.1" viewBox="0 0 227.99 304.4" xml:space="preserve" xmlns="http://www.w3.org/2000/svg"><defs><clipPath id="b"><path d="m0 0h841.89v595.28h-841.89z"/></clipPath><clipPath id="a"><path d="m0 0h841.89v595.28h-841.89z"/></clipPath></defs><g transform="matrix(1.8686 0 0 -1.8686 -819.01 862.02)"><g clip-path="url(#b)"><g transform="translate(490.58 361.77)"><path d="m0 0c0.019 0 0.039-1e-3 0.058-3e-3 0.132-0.018 0.249-0.091 0.321-0.203l8.343-12.934 10.261 12.665c0.084 0.104 0.211 0.165 0.346 0.167 0.144 0.014 0.263-0.057 0.35-0.16l4.789-5.67 6.732 7.337 3.284 4.903c0.117 0.174 0.339 0.245 0.534 0.171l2.424-0.909 1.421 7.153c0.028 0.135 0.116 0.251 0.24 0.312 0.125 0.062 0.271 0.064 0.396 4e-3l1.527-0.719 2.034 8.772c0.03 0.133 0.121 0.246 0.247 0.303 0.125 0.059 0.269 0.057 0.392-4e-3l2.575-1.281-1.835 18.77-5.289 5.784c-0.087 0.096-0.129 0.224-0.113 0.352l0.713 6-2.419 3.561c-0.069 0.102-0.093 0.228-0.065 0.349l0.392 1.701-0.399 2.934c-0.03 0.214 0.1 0.418 0.307 0.484l3.25 1.048 7.125 10.782 2.564 7.161h-20.362l-2.557-7.369c-0.046-0.133-0.153-0.237-0.289-0.28l-8.229-2.603c-0.044-0.014-0.09-0.021-0.136-0.021h-22.359c-0.057 0-0.114 0.011-0.167 0.031l-6.606 2.603c-0.113 0.045-0.203 0.134-0.249 0.246l-3.063 7.393h-19.514l2.563-7.161 7.128-10.787 4.263-1.459c0.156-0.054 0.27-0.188 0.297-0.35 0.027-0.161-0.038-0.324-0.169-0.425l-2.961-2.27 1.624-1.423c0.161-0.141 0.2-0.374 0.093-0.558l-2.092-3.582 0.373-6.03c8e-3 -0.132-0.042-0.26-0.14-0.351l-5.001-4.714-1.532-19.825 2.591 1.29c0.124 0.061 0.27 0.063 0.394 4e-3 0.125-0.057 0.216-0.17 0.247-0.303l2.034-8.772 1.527 0.719c0.123 0.06 0.271 0.059 0.395-4e-3 0.124-0.061 0.213-0.177 0.239-0.312l1.422-7.153 2.423 0.909c0.197 0.074 0.418 2e-3 0.535-0.171l3.278-4.893 7.031-6.928 6.16 5.602c0.083 0.076 0.192 0.117 0.304 0.117m8.68-14.351c-8e-3 0-0.017 0-0.024 1e-3 -0.144 7e-3 -0.277 0.084-0.355 0.205l-8.392 13.011-6.081-5.531c-0.177-0.162-0.451-0.156-0.622 0.012l-7.368 7.26c-0.021 0.022-0.041 0.045-0.058 0.07l-3.104 4.634-2.586-0.969c-0.124-0.047-0.262-0.036-0.378 0.027-0.116 0.064-0.197 0.175-0.224 0.304l-1.411 7.108-1.511-0.712c-0.122-0.059-0.266-0.058-0.388 0-0.123 0.06-0.213 0.171-0.243 0.302l-2.031 8.762-2.792-1.389c-0.144-0.072-0.317-0.061-0.452 0.028-0.135 0.09-0.211 0.244-0.198 0.404l1.605 20.784c0.01 0.11 0.059 0.212 0.139 0.288l4.976 4.69-0.369 5.957c-6e-3 0.087 0.015 0.175 0.059 0.251l1.975 3.382-1.756 1.538c-0.1 0.089-0.156 0.216-0.152 0.349 5e-3 0.133 0.069 0.258 0.175 0.339l2.733 2.095-3.621 1.24c-0.093 0.032-0.175 0.094-0.229 0.177l-7.241 10.959c-0.02 0.029-0.036 0.061-0.048 0.095l-2.795 7.807c-0.049 0.137-0.028 0.289 0.056 0.407 0.085 0.119 0.221 0.189 0.367 0.189h20.454c0.183 0 0.347-0.11 0.416-0.277l3.105-7.495 6.348-2.501h22.202l7.947 2.513 2.589 7.459c0.061 0.18 0.233 0.301 0.425 0.301h21.32c0.146 0 0.283-0.07 0.367-0.189 0.085-0.118 0.106-0.27 0.057-0.407l-2.795-7.807c-0.012-0.034-0.028-0.066-0.047-0.095l-7.242-10.959c-0.056-0.084-0.14-0.148-0.237-0.179l-3.044-0.981 0.36-2.645c7e-3 -0.053 5e-3 -0.107-7e-3 -0.16l-0.367-1.592 2.403-3.538c0.06-0.088 0.086-0.195 0.074-0.301l-0.709-5.963 5.25-5.743c0.066-0.072 0.105-0.162 0.114-0.257l1.92-19.621c0.016-0.045 0.024-0.093 0.024-0.144 0-0.246-0.202-0.446-0.451-0.446h-0.011c-0.069 0-0.139 0.015-0.202 0.048l-2.791 1.389-2.032-8.762c-0.03-0.131-0.119-0.242-0.242-0.302-0.123-0.058-0.267-0.059-0.39 0l-1.509 0.712-1.413-7.108c-0.025-0.129-0.107-0.24-0.222-0.304-0.116-0.064-0.255-0.074-0.379-0.027l-2.585 0.969-3.105-4.634c-0.013-0.018-0.027-0.036-0.042-0.053l-7.103-7.74c-0.087-0.095-0.185-0.142-0.342-0.146-0.129 3e-3 -0.252 0.061-0.336 0.16l-4.767 5.644-10.31-12.726c-0.086-0.106-0.215-0.167-0.351-0.167" fill="#231f20"/></g><g transform="translate(483.89 422.25)"><path d="m0 0c-0.109 0-0.219 0.039-0.305 0.119l-10.718 9.823-16.154 8.465c-0.22 0.115-0.304 0.385-0.187 0.603 0.116 0.218 0.386 0.3 0.607 0.186l16.206-8.492c0.035-0.019 0.066-0.042 0.095-0.068l10.761-9.862c0.183-0.168 0.194-0.45 0.026-0.631-0.089-0.095-0.21-0.143-0.331-0.143" fill="#231f20"/></g><g transform="translate(513.67 422.94)"><path d="m0 0c-0.131 0-0.262 0.057-0.351 0.167-0.155 0.192-0.125 0.473 0.069 0.627l11.5 9.167c0.017 0.013 0.035 0.025 0.055 0.036l14.581 8.494c0.214 0.125 0.49 0.054 0.616-0.16 0.126-0.212 0.054-0.485-0.16-0.61l-14.554-8.476-11.474-9.147c-0.083-0.066-0.183-0.098-0.282-0.098" fill="#231f20"/></g><g transform="translate(502.93 407.32)"><path d="m0 0h-7.579c-0.105 0-0.207 0.036-0.288 0.104l-10.957 9.04c-0.092 0.076-0.15 0.186-0.16 0.305l-0.514 5.89c-6e-3 0.07 4e-3 0.139 0.031 0.204l3.268 8.082c0.093 0.229 0.354 0.339 0.586 0.248 0.231-0.092 0.343-0.351 0.25-0.58l-3.229-7.983 0.488-5.599 10.688-8.819h7.253l10.663 8.798-0.214 6.26-4.1 7.292c-0.121 0.215-0.043 0.486 0.174 0.607s0.491 0.042 0.612-0.173l4.154-7.385c0.034-0.063 0.053-0.132 0.056-0.202l0.225-6.587c4e-3 -0.138-0.055-0.27-0.162-0.358l-10.958-9.04c-0.08-0.068-0.182-0.104-0.287-0.104" fill="#231f20"/></g><g transform="translate(471.63 392.21)"><path d="m0 0c-0.04 0-0.079 6e-3 -0.118 0.016-0.141 0.038-0.253 0.14-0.304 0.275l-3.049 8.116c-0.015 0.041-0.024 0.084-0.027 0.128l-0.357 5.753c-0.015 0.246 0.174 0.458 0.422 0.473 0.245 0.02 0.461-0.173 0.477-0.418l0.352-5.687 2.807-7.472 11.768 9.471c0.029 0.024 0.061 0.044 0.095 0.06l11.471 5.239c0.224 0.101 0.491 6e-3 0.597-0.219 0.104-0.224 5e-3 -0.489-0.221-0.592l-11.419-5.216-12.211-9.827c-0.08-0.066-0.181-0.1-0.283-0.1" fill="#231f20"/></g><g transform="translate(484.4 416.36)"><path d="m0 0c-0.043 0-0.088 6e-3 -0.132 0.02l-14.395 4.383c-0.238 0.072-0.371 0.323-0.298 0.558s0.322 0.369 0.562 0.296l14.395-4.385c0.238-0.072 0.371-0.321 0.298-0.557-0.059-0.192-0.238-0.315-0.43-0.315" fill="#231f20"/></g></g><g transform="translate(483.26 413)"><path d="m0 0 6.479-4.519-6.05-4.418-5.479 8.322z" fill="#231f20"/></g><g clip-path="url(#a)"><g transform="translate(483.89 402.08)"><path d="m0 0c-0.248 0-0.45 0.199-0.45 0.447v4.519c0 0.247 0.202 0.447 0.45 0.447s0.45-0.2 0.45-0.447v-4.519c0-0.248-0.202-0.447-0.45-0.447" fill="#231f20"/></g><g transform="translate(495.36 407.32)"><path d="m0 0c-0.021 0-0.041 1e-3 -0.062 4e-3l-7.527 1.028c-0.246 0.033-0.418 0.258-0.385 0.502 0.035 0.244 0.258 0.415 0.508 0.382l7.527-1.028c0.246-0.034 0.418-0.259 0.384-0.502-0.031-0.224-0.224-0.386-0.445-0.386" fill="#231f20"/></g><g transform="translate(479.92 411.22)"><path d="m0 0c-0.065 0-0.131 0.014-0.195 0.044l-9.916 4.726c-0.223 0.107-0.318 0.373-0.211 0.596 0.108 0.222 0.375 0.317 0.602 0.208l9.916-4.725c0.224-0.108 0.318-0.374 0.21-0.596-0.077-0.16-0.238-0.253-0.406-0.253" fill="#231f20"/></g><g transform="translate(483.26 412.55)"><path d="m0 0c-0.042 0-0.085 6e-3 -0.129 0.018-0.237 0.071-0.373 0.319-0.302 0.555l1.143 3.803c0.07 0.236 0.32 0.373 0.56 0.3 0.238-0.07 0.373-0.319 0.302-0.554l-1.143-3.803c-0.057-0.194-0.237-0.319-0.431-0.319" fill="#231f20"/></g><g transform="translate(468.53 401.25)"><path d="m0 0c-0.168 0-0.331 0.095-0.408 0.256-0.106 0.223-9e-3 0.489 0.216 0.594l15.159 7.092c0.226 0.106 0.494 9e-3 0.599-0.213 0.106-0.223 9e-3 -0.489-0.215-0.594l-15.159-7.092c-0.063-0.03-0.128-0.043-0.192-0.043" fill="#231f20"/></g><g transform="translate(468.23 406.08)"><path d="m0 0c-0.21 0-0.398 0.146-0.441 0.359-0.048 0.241 0.11 0.476 0.353 0.525l15.03 2.979c0.242 0.049 0.481-0.108 0.53-0.349 0.048-0.242-0.11-0.478-0.353-0.525l-15.03-2.98c-0.03-6e-3 -0.059-9e-3 -0.089-9e-3" fill="#231f20"/></g><g transform="translate(481.79 410.6)"><path d="m0 0c-0.018 0-0.036 1e-3 -0.054 3e-3l-13.947 1.645c-0.246 0.028-0.423 0.25-0.393 0.495s0.247 0.417 0.5 0.391l13.947-1.644c0.246-0.029 0.423-0.251 0.393-0.497-0.027-0.226-0.221-0.393-0.446-0.393" fill="#231f20"/></g><g transform="translate(496.51 392.05)"><path d="m0 0 2.632-4.913 2.632 4.913v8.034l-2.632 4.297-2.632-4.297zm2.632-6.31c-0.166 0-0.319 0.091-0.397 0.236l-3.082 5.753c-0.034 0.065-0.053 0.137-0.053 0.21v8.27c0 0.082 0.023 0.162 0.066 0.232l3.082 5.032c0.082 0.133 0.227 0.215 0.384 0.215 0.158 0 0.303-0.082 0.384-0.215l3.082-5.032c0.043-0.07 0.066-0.15 0.066-0.232v-8.27c0-0.073-0.019-0.145-0.053-0.21l-3.081-5.753c-0.078-0.145-0.232-0.236-0.398-0.236" fill="#231f20"/></g><g transform="translate(496.06 394.72)"><path d="m0 0c-0.08 0-0.16 0.021-0.234 0.065l-12.178 7.355c-0.212 0.13-0.279 0.403-0.15 0.614 0.129 0.21 0.406 0.277 0.619 0.149l12.178-7.356c0.212-0.128 0.279-0.403 0.15-0.613-0.085-0.138-0.233-0.214-0.385-0.214" fill="#231f20"/></g><g transform="translate(499.26 404.8)"><path d="m0 0c-0.248 0-0.45 0.199-0.45 0.446v25.532c0 0.246 0.202 0.446 0.45 0.446s0.45-0.2 0.45-0.446v-25.532c0-0.247-0.202-0.446-0.45-0.446" fill="#231f20"/></g><g transform="translate(499.26 418.82)"><path d="m0 0c-0.065 0-0.133 0.014-0.196 0.045l-14.037 6.736c-0.224 0.107-0.317 0.373-0.208 0.596 0.107 0.221 0.376 0.313 0.601 0.207l14.037-6.736c0.223-0.107 0.317-0.375 0.209-0.596-0.078-0.159-0.238-0.252-0.406-0.252" fill="#231f20"/></g><g transform="translate(499.26 418.82)"><path d="m0 0c-0.168 0-0.328 0.093-0.406 0.253-0.108 0.221-0.014 0.488 0.21 0.596l13.173 6.31c0.225 0.106 0.494 0.014 0.601-0.208 0.108-0.222 0.014-0.488-0.21-0.596l-13.173-6.311c-0.063-0.03-0.13-0.044-0.195-0.044" fill="#231f20"/></g><g transform="translate(499.26 347.42)"><path d="m0 0c-0.248 0-0.45 0.199-0.45 0.447v38.32c0 0.246 0.202 0.446 0.45 0.446s0.45-0.2 0.45-0.446v-38.32c0-0.248-0.202-0.447-0.45-0.447" fill="#231f20"/></g><g transform="translate(499.26 379.24)"><path d="m0 0c-0.077 0-0.155 0.02-0.227 0.061l-14.689 8.529-9.607-3.089c-0.226-0.071-0.471 0.042-0.558 0.261l-2.968 7.5c-0.091 0.229 0.023 0.488 0.254 0.578 0.232 0.089 0.492-0.022 0.583-0.251l2.815-7.11 9.395 3.022c0.122 0.039 0.255 0.024 0.367-0.04l14.863-8.63c0.214-0.125 0.286-0.398 0.161-0.61-0.084-0.142-0.234-0.221-0.389-0.221" fill="#231f20"/></g><g transform="translate(484.4 387.87)"><path d="m0 0c-0.081 0-0.162 0.021-0.236 0.066-0.212 0.13-0.277 0.405-0.146 0.615l6.183 9.918c0.13 0.21 0.407 0.275 0.62 0.145 0.211-0.13 0.276-0.405 0.146-0.614l-6.184-9.919c-0.084-0.136-0.232-0.211-0.383-0.211" fill="#231f20"/></g><g transform="translate(473.12 432.11)"><path d="m0 0c-0.226 0-0.421 0.169-0.446 0.397-0.028 0.244 0.15 0.465 0.397 0.493l7.425 0.822c0.245 0.023 0.468-0.148 0.496-0.395 0.027-0.244-0.15-0.464-0.397-0.492l-7.425-0.822c-0.016-2e-3 -0.033-3e-3 -0.05-3e-3" fill="#231f20"/></g><g transform="translate(470 415.95)"><path d="m0 0c-0.106 0-0.212 0.037-0.299 0.112-0.186 0.164-0.202 0.446-0.038 0.63l3.366 3.77c0.062 0.068 0.141 0.115 0.231 0.138l10.515 2.531c0.241 0.059 0.485-0.088 0.543-0.328 0.059-0.24-0.089-0.481-0.33-0.539l-10.378-2.498-3.273-3.666c-0.09-0.099-0.212-0.15-0.337-0.15" fill="#231f20"/></g><g transform="translate(480.55 411.43)"><path d="m0 0c-0.127 0-0.252 0.053-0.342 0.156l-7.178 8.29c-0.161 0.187-0.14 0.468 0.049 0.629 0.189 0.16 0.473 0.139 0.634-0.048l7.179-8.29c0.161-0.187 0.139-0.469-0.049-0.629-0.085-0.072-0.189-0.108-0.293-0.108" fill="#231f20"/></g><g transform="translate(526.66 392.21)"><path d="m0 0c-0.102 0-0.203 0.034-0.283 0.1l-12.21 9.827-11.42 5.216c-0.226 0.103-0.325 0.368-0.221 0.592 0.106 0.225 0.374 0.32 0.597 0.219l11.472-5.239c0.034-0.016 0.065-0.036 0.095-0.06l11.767-9.471 2.807 7.472 0.352 5.687c0.016 0.245 0.233 0.439 0.478 0.418 0.248-0.015 0.437-0.227 0.421-0.473l-0.356-5.753c-4e-3 -0.044-0.012-0.087-0.028-0.128l-3.049-8.116c-0.051-0.135-0.163-0.237-0.304-0.275-0.039-0.01-0.079-0.016-0.118-0.016" fill="#231f20"/></g><g transform="translate(513.89 416.36)"><path d="m0 0c-0.192 0-0.371 0.123-0.43 0.315-0.073 0.236 0.06 0.485 0.298 0.557l14.395 4.385c0.24 0.073 0.489-0.061 0.562-0.296s-0.06-0.486-0.298-0.558l-14.395-4.383c-0.044-0.014-0.089-0.02-0.132-0.02" fill="#231f20"/></g></g><g transform="translate(515.04 413)"><path d="m0 0-6.479-4.519 5.907-4.418 5.622 8.322z" fill="#231f20"/></g><g transform="translate(514.41 402.08)"><path d="m0 0c-0.248 0-0.45 0.199-0.45 0.447v4.519c0 0.247 0.202 0.447 0.45 0.447s0.45-0.2 0.45-0.447v-4.519c0-0.248-0.202-0.447-0.45-0.447" fill="#231f20"/></g><g transform="translate(502.93 407.32)"><path d="m0 0c-0.221 0-0.414 0.162-0.445 0.386-0.034 0.243 0.138 0.468 0.384 0.502l7.528 1.028c0.247 0.032 0.473-0.138 0.507-0.382s-0.139-0.469-0.384-0.502l-7.528-1.028c-0.021-3e-3 -0.041-4e-3 -0.062-4e-3" fill="#231f20"/></g><g transform="translate(518.37 411.22)"><path d="m0 0c-0.168 0-0.329 0.093-0.406 0.253-0.108 0.222-0.013 0.488 0.21 0.596l9.916 4.725c0.227 0.109 0.494 0.014 0.602-0.208 0.107-0.223 0.012-0.489-0.211-0.596l-9.916-4.726c-0.064-0.03-0.13-0.044-0.195-0.044" fill="#231f20"/></g><g transform="translate(515.04 412.55)"><path d="m0 0c-0.194 0-0.374 0.125-0.431 0.319l-1.144 3.803c-0.071 0.235 0.064 0.484 0.303 0.554 0.239 0.072 0.489-0.064 0.56-0.3l1.143-3.803c0.071-0.236-0.065-0.484-0.302-0.555-0.044-0.012-0.087-0.018-0.129-0.018" fill="#231f20"/></g><g transform="translate(534.08 382.11)"><path d="m0 0c-0.186 0-0.36 0.115-0.425 0.298l-5.39 15.229-14.62 9.494c-0.207 0.135-0.266 0.411-0.129 0.618 0.135 0.206 0.413 0.263 0.622 0.128l14.748-9.577c0.083-0.053 0.145-0.132 0.178-0.226l5.441-15.37c0.082-0.233-0.041-0.487-0.277-0.569-0.048-0.017-0.099-0.025-0.148-0.025" fill="#231f20"/></g><g transform="translate(529.77 401.25)"><path d="m0 0c-0.064 0-0.129 0.013-0.192 0.043l-15.159 7.092c-0.224 0.105-0.321 0.371-0.214 0.594 0.106 0.222 0.373 0.319 0.599 0.213l15.158-7.092c0.226-0.105 0.322-0.371 0.216-0.594-0.077-0.161-0.24-0.256-0.408-0.256" fill="#231f20"/></g><g transform="translate(530.07 406.08)"><path d="m0 0c-0.03 0-0.059 3e-3 -0.089 9e-3l-15.03 2.98c-0.243 0.047-0.401 0.283-0.353 0.525 0.049 0.241 0.286 0.398 0.53 0.349l15.03-2.979c0.243-0.049 0.401-0.284 0.353-0.525-0.043-0.213-0.231-0.359-0.441-0.359" fill="#231f20"/></g><g transform="translate(516.5 410.6)"><path d="m0 0c-0.226 0-0.42 0.167-0.446 0.395-0.029 0.245 0.147 0.466 0.395 0.495l14.298 1.644c0.245 0.022 0.471-0.147 0.499-0.392 0.029-0.245-0.148-0.466-0.395-0.494l-14.299-1.645c-0.018-2e-3 -0.034-3e-3 -0.052-3e-3" fill="#231f20"/></g><g transform="translate(502.38 394.72)"><path d="m0 0c-0.151 0-0.299 0.075-0.384 0.212-0.13 0.21-0.064 0.485 0.148 0.615l12.023 7.355c0.211 0.129 0.488 0.064 0.62-0.146 0.13-0.209 0.064-0.485-0.148-0.614l-12.023-7.355c-0.074-0.046-0.155-0.067-0.236-0.067" fill="#231f20"/></g><g transform="translate(499.03 379.24)"><path d="m0 0c-0.155 0-0.305 0.079-0.389 0.221-0.125 0.212-0.053 0.485 0.161 0.61l14.863 8.63c0.112 0.064 0.246 0.079 0.367 0.04l9.395-3.022 2.815 7.11c0.091 0.229 0.351 0.341 0.583 0.251 0.231-0.09 0.345-0.349 0.254-0.578l-2.968-7.5c-0.087-0.219-0.332-0.333-0.558-0.261l-9.607 3.089-14.689-8.529c-0.071-0.041-0.15-0.061-0.227-0.061" fill="#231f20"/></g><g transform="translate(513.89 387.87)"><path d="m0 0c-0.153 0-0.303 0.078-0.386 0.217l-5.991 9.917c-0.128 0.213-0.058 0.486 0.155 0.613 0.214 0.127 0.49 0.058 0.617-0.153l5.991-9.918c0.127-0.212 0.058-0.486-0.155-0.613-0.073-0.042-0.153-0.063-0.231-0.063" fill="#231f20"/></g><g transform="translate(525.17 432.11)"><path d="m0 0c-0.017 0-0.034 1e-3 -0.05 3e-3l-7.425 0.822c-0.247 0.028-0.424 0.248-0.397 0.492 0.028 0.247 0.255 0.418 0.496 0.395l7.425-0.822c0.247-0.028 0.425-0.249 0.397-0.493-0.025-0.228-0.22-0.397-0.446-0.397" fill="#231f20"/></g><g transform="translate(528.29 415.95)"><path d="m0 0c-0.125 0-0.247 0.051-0.337 0.15l-3.28 3.673-11.128 3.191c-0.238 0.069-0.377 0.317-0.307 0.553 0.069 0.237 0.316 0.372 0.557 0.305l11.254-3.227c0.082-0.024 0.155-0.07 0.212-0.133l3.366-3.77c0.164-0.184 0.148-0.466-0.038-0.63-0.087-0.075-0.193-0.112-0.299-0.112" fill="#231f20"/></g><g transform="translate(517.74 411.43)"><path d="m0 0c-0.104 0-0.208 0.036-0.293 0.108-0.188 0.16-0.21 0.441-0.049 0.629l7.178 8.29c0.163 0.187 0.447 0.208 0.635 0.048 0.189-0.161 0.21-0.442 0.048-0.629l-7.177-8.29c-0.09-0.103-0.215-0.156-0.342-0.156" fill="#231f20"/></g><g transform="translate(499.26 347.42)"><path d="m0 0c-0.186 0-0.36 0.115-0.425 0.299l-12.052 34.22-7.82-4.398c-0.164-0.092-0.371-0.073-0.516 0.051l-3.874 3.301-4.512-3.22-0.632-3.549c-0.043-0.243-0.27-0.407-0.522-0.362-0.244 0.042-0.408 0.274-0.364 0.517l0.664 3.729c0.02 0.114 0.084 0.216 0.179 0.284l4.949 3.531c0.169 0.12 0.398 0.111 0.556-0.024l3.903-3.326 8.013 4.506c0.117 0.065 0.257 0.076 0.381 0.03 0.125-0.046 0.222-0.146 0.267-0.271l12.23-34.725c0.082-0.232-0.042-0.487-0.277-0.568-0.049-0.017-0.099-0.025-0.148-0.025" fill="#231f20"/></g><g transform="translate(499.45 347.42)"><path d="m0 0c-0.05 0-0.099 8e-3 -0.148 0.025-0.235 0.081-0.359 0.336-0.277 0.568l12.231 34.725c0.043 0.124 0.139 0.222 0.262 0.269 0.122 0.048 0.261 0.039 0.377-0.023l8.433-4.522 3.472 3.32c0.157 0.15 0.399 0.166 0.575 0.041l4.949-3.531c0.089-0.064 0.152-0.159 0.176-0.266l0.826-3.729c0.054-0.24-0.099-0.478-0.342-0.531-0.243-0.05-0.483 0.099-0.536 0.339l-0.79 3.562-4.503 3.214-3.439-3.288c-0.142-0.135-0.354-0.163-0.526-0.072l-8.259 4.428-12.056-34.23c-0.065-0.184-0.239-0.299-0.425-0.299" fill="#231f20"/></g><g transform="translate(484.11 354.99)"><path d="m0 0c-0.204 0-0.389 0.139-0.437 0.344l-5.362 22.495c-0.058 0.239 0.092 0.48 0.333 0.536 0.242 0.057 0.485-0.091 0.542-0.331l5.362-22.495c0.058-0.24-0.092-0.48-0.333-0.537-0.036-8e-3 -0.071-0.012-0.105-0.012" fill="#231f20"/></g><g transform="translate(490.58 360.88)"><path d="m0 0c-0.152 0-0.299 0.075-0.384 0.213l-10.662 17.267c-0.13 0.211-0.064 0.486 0.149 0.614 0.212 0.13 0.489 0.062 0.618-0.147l10.662-17.268c0.13-0.21 0.063-0.484-0.148-0.613-0.074-0.045-0.155-0.066-0.235-0.066" fill="#231f20"/></g><g transform="translate(515.04 354.51)"><path d="m0 0c-0.044 0-0.089 6e-3 -0.134 0.021-0.237 0.072-0.369 0.323-0.296 0.559l8.011 25.485c0.074 0.235 0.322 0.367 0.563 0.293 0.238-0.072 0.37-0.323 0.296-0.559l-8.01-25.485c-0.06-0.191-0.238-0.314-0.43-0.314" fill="#231f20"/></g><g transform="translate(509.92 360.57)"><path d="m0 0c-0.081 0-0.162 0.021-0.236 0.066-0.211 0.13-0.277 0.404-0.146 0.614l10.488 16.898c0.129 0.209 0.406 0.275 0.619 0.146 0.211-0.129 0.277-0.404 0.147-0.614l-10.488-16.898c-0.085-0.137-0.233-0.212-0.384-0.212" fill="#231f20"/></g><g transform="translate(464.8 382.11)"><path d="m0 0c-0.045 0-0.089 6e-3 -0.135 0.021-0.236 0.073-0.369 0.323-0.295 0.558l4.857 15.372c0.03 0.098 0.096 0.183 0.183 0.239l14.746 9.577c0.209 0.135 0.487 0.078 0.623-0.128 0.137-0.207 0.079-0.483-0.129-0.618l-14.613-9.49-4.807-15.218c-0.061-0.191-0.238-0.313-0.43-0.313" fill="#231f20"/></g><g transform="translate(468.58 400.33)"><path d="m0 0c-0.026 0-0.05 2e-3 -0.076 6e-3l-5.483 0.921c-0.245 0.041-0.411 0.272-0.369 0.515 0.041 0.243 0.279 0.41 0.519 0.365l5.483-0.921c0.245-0.041 0.411-0.272 0.369-0.514-0.037-0.218-0.227-0.372-0.443-0.372" fill="#231f20"/></g><g transform="translate(535.45 400.19)"><path d="m0 0h-0.011l-5.745 0.141c-0.249 6e-3 -0.445 0.211-0.439 0.457 7e-3 0.246 0.196 0.425 0.461 0.435l5.745-0.141c0.249-6e-3 0.445-0.21 0.439-0.457-6e-3 -0.243-0.206-0.435-0.45-0.435" fill="#231f20"/></g><g transform="translate(473.43 367.18)"><path d="m0 0c-0.013 0-0.025 1e-3 -0.038 2e-3 -0.248 0.02-0.432 0.235-0.411 0.482l1.166 13.834c0.021 0.247 0.245 0.429 0.486 0.408 0.248-0.02 0.432-0.236 0.411-0.482l-1.166-13.835c-0.02-0.233-0.216-0.409-0.448-0.409" fill="#231f20"/></g><g transform="translate(525.44 367.18)"><path d="m0 0c-0.229 0-0.426 0.173-0.448 0.404l-1.328 13.835c-0.024 0.245 0.158 0.463 0.405 0.487 0.253 0.018 0.467-0.157 0.491-0.402l1.329-13.836c0.024-0.245-0.158-0.463-0.406-0.486-0.014-1e-3 -0.029-2e-3 -0.043-2e-3" fill="#231f20"/></g><g transform="translate(499.26 418.82)"><path d="m0 0c-0.196 0-0.375 0.127-0.433 0.322-0.068 0.238 0.07 0.485 0.308 0.553l14.405 4.121c0.24 0.068 0.488-0.069 0.557-0.305 0.069-0.238-0.069-0.485-0.307-0.553l-14.405-4.121c-0.042-0.011-0.084-0.017-0.125-0.017" fill="#231f20"/></g><g transform="translate(499.26 418.82)"><path d="m0 0c-0.033 0-0.066 3e-3 -0.099 0.011l-15.377 3.425c-0.242 0.054-0.394 0.292-0.34 0.533 0.054 0.24 0.299 0.392 0.537 0.337l15.377-3.425c0.242-0.054 0.395-0.292 0.34-0.533-0.047-0.207-0.232-0.348-0.438-0.348" fill="#231f20"/></g><g transform="translate(485.22 425.56)"><path d="m0 0c-0.073 0-0.147 0.017-0.215 0.055l-12.101 6.551c-0.218 0.118-0.298 0.389-0.179 0.605 0.118 0.216 0.391 0.297 0.61 0.179l12.101-6.552c0.218-0.118 0.298-0.389 0.179-0.605-0.081-0.149-0.235-0.233-0.395-0.233" fill="#231f20"/></g><g transform="translate(512.44 425.13)"><path d="m0 0c-0.159 0-0.312 0.083-0.394 0.23-0.12 0.217-0.042 0.487 0.176 0.607l12.732 6.976c0.216 0.12 0.491 0.041 0.611-0.175 0.12-0.215 0.041-0.487-0.177-0.606l-12.731-6.977c-0.069-0.037-0.144-0.055-0.217-0.055" fill="#231f20"/></g><g transform="translate(499.17 407.32)"><path d="m0 0c-0.114 0-0.228 0.043-0.316 0.128l-15.281 14.931c-0.178 0.174-0.18 0.456-5e-3 0.631 0.175 0.177 0.459 0.178 0.636 5e-3l15.282-14.931c0.177-0.173 0.179-0.455 4e-3 -0.631-0.088-0.089-0.204-0.133-0.32-0.133" fill="#231f20"/></g><g transform="translate(499.17 407.32)"><path d="m0 0c-0.109 0-0.218 0.039-0.305 0.118-0.183 0.167-0.194 0.449-0.026 0.63l14.499 15.627c0.169 0.182 0.454 0.193 0.637 0.026 0.182-0.166 0.194-0.449 0.026-0.63l-14.5-15.627c-0.088-0.096-0.21-0.144-0.331-0.144" fill="#231f20"/></g></g></svg>
