<?xml version="1.0" encoding="UTF-8"?>
<svg width="227.99" height="304.4" version="1.1" viewBox="0 0 227.99 304.4" xml:space="preserve" xmlns="http://www.w3.org/2000/svg"><defs><clipPath id="a"><path d="m0 0h841.89v595.28h-841.89z"/></clipPath></defs><g transform="matrix(1.5884 0 0 -1.5884 -523.16 456.88)"><g clip-path="url(#a)"><g transform="translate(451.55 181.12)"><path d="m0 0c-0.085 0.58-0.454 2.472-0.804 4.231-0.181 0.913-0.357 1.786-0.484 2.415l6.512-9.716-7.158 24.472 5.081-6.789-11.75 26.541 2.855 7.668 0.075 0.039-0.061-2e-3 2.12 5.696 0.296 15.391-4.076 11.93-4.315 1.13-4.136-1.916-21.339-22.567 0.035 0.114-5.244 1.583-9.25-0.787-9.257 0.886-4.945-1.745c-4.233 4.593-21.275 22.386-21.276 22.388l-0.019 0.019-3.647 2.33-4.421-1.543-4.371-11.723 0.69-16.182 4.888-12.513-12.291-26.894 5.342 7.09c-0.561-1.973-1.824-6.422-3.088-10.899-0.847-3.001-1.695-6.014-2.33-8.301-0.318-1.143-0.583-2.105-0.769-2.794-0.092-0.344-0.165-0.62-0.215-0.817-0.026-0.099-0.045-0.178-0.058-0.237l-0.017-0.076c-3e-3 -0.024-7e-3 -0.035-8e-3 -0.076l8e-3 -0.063 0.045-0.084c0.028-0.039 0.102-0.082 0.169-0.079 0.099 5e-3 0.134 0.046 0.153 0.061l0.03 0.035 2e-3 3e-3 2e-3 2e-3c0.029 0.044 0.242 0.379 0.603 0.945 0.93 1.461 2.818 4.432 4.83 7.599l-1.318-7.097-1.97-9.964 3.601 5.129 6.456-16.885 1.503 4.61 2.857-4.727-6e-3 -0.016 4.637-8.749 1.112 4.41 6.463-10.141 0.522 4.765c0.021-0.035 0.041-0.067 0.064-0.106 1.216-1.962 5.143-7.548 5.226-7.666 0.04-0.064 1.495-2.434 2.974-4.809 0.75-1.204 1.505-2.408 2.084-3.312 0.29-0.452 0.536-0.829 0.716-1.095 0.09-0.133 0.163-0.238 0.22-0.314l0.076-0.095 0.043-0.042 0.04-0.029c0.021-0.01 0.049-0.029 0.115-0.031l0.108 0.028c0.057 0.031 0.091 0.084 0.103 0.119l0.014 0.081c0 0.105-0.03 3.169-0.069 7.105l14.475-13.989 0.02 0.019 0.011-0.053 0.018 0.08 14.488 13.817-0.144-8.138 6.51 10.006 0.033 2e-3 -3e-3 0.044 5.419 8.33 0.489-4.697 6.504 9.656 1.04-3.803 4.656 8.023 5e-3 -0.012 3.11 5.639 1.528-4.989 2.959 9.302 3.465 7.679 3.759-5.529-2.303 10.53c-3e-3 0.042-8e-3 0.085-0.017 0.149m-1.682 6.361c0.211-1.042 0.526-2.615 0.789-3.964 0.132-0.674 0.25-1.293 0.335-1.76 0.024-0.132 0.045-0.248 0.063-0.354-0.182 0.149-0.415 0.348-0.699 0.597-1.626 1.423-4.729 4.291-7.423 6.802-1.347 1.255-2.592 2.422-3.501 3.274-0.454 0.427-0.824 0.774-1.081 1.015-0.18 0.17-0.301 0.284-0.359 0.338l-9e-3 0.027-9e-3 5e-3 -6.02 13.938 0.044 0.106-0.161 0.166-4.432 10.261 9.241-6.222 6.945-13.986 0.122 0.048-0.108-0.073 6.069-9.055-0.04-8e-3c0-1e-3 0.094-0.459 0.234-1.155m-6.361-10.594-1.939 5.816 8.276-6.249-3.385-7.502zm-0.796 0.988-7.048 8.564-8.746 1.822 10.75 4.745zm-16.548 10.543-2e-3 -7e-3 -2.71-1.196-0.021-0.017c-2e-3 -1e-3 -0.546-0.423-1.381-1.067-1.251-0.967-3.151-2.43-4.83-3.706-0.84-0.638-1.624-1.23-2.243-1.689-0.549-0.407-0.974-0.713-1.177-0.844l-0.01 0.01c-0.102 0.129-0.259 0.484-0.415 0.97-0.56 1.713-1.25 5.111-1.795 8.067-0.273 1.479-0.511 2.85-0.68 3.851-0.091 0.533-0.161 0.956-0.207 1.24l3.719-1.542 5.699 1.08 9.589-3.596-3.526-1.556zm0.44-6.317 4.797-20.659-11.192 17.683 3.257 7.137zm-6.894-13.689 0.506 9.524 10.949-16.965zm-4.906-14.515-14.278-26.619 4.88 22.309 9.398 6.623zm-45.535 7.393 11.01 16.985 0.445-9.659zm7.534 25.083 3.413-7.382-11.841-18.266 5.471 21.697zm-16.951-2.717 2.408 9.442 7.678-3.327 4e-3 -0.01 0.011 4e-3 3.376-1.463-9.35-1.964-6.103-8.673 1.969 5.986zm3.461 28.65-0.026-0.052c-1e-3 0-0.105-0.208-0.288-0.574-0.64-1.28-2.243-4.483-3.708-7.399-0.705-1.404-1.377-2.739-1.895-3.762 0.618 2.121 1.644 5.563 2.625 8.835 0.671 2.238 1.32 4.395 1.801 5.992 0.24 0.799 0.439 1.458 0.578 1.917 0.098 0.326 0.164 0.546 0.195 0.649l9.115 6.787 14.41 0.604-13.126-6.477zm-5.204 25.582-0.215 18.423 4.234 3.539 8.736-7.765-9.019 3.07 0.594-0.641s2.611-2.822 5.852-6.321l-7.14-0.196 7.294-6.463-6.865-0.648 13.064-8.968-4.393-2.53zm28.244 0.26 4.304-7.992 0.655-9.078-3.132 4.741-6e-3 4e-3 0.019 0.01-0.03-1e-3 -9.91 7.601-0.035 0.032zm-11.284-5.985-12.233 8.397 6.062 0.573 8.566-7.592zm-12.786 15.423 6.407 0.175c0.837-0.903 1.709-1.844 2.584-2.789 2.228-2.403 4.473-4.826 6.199-6.684 0.863-0.929 1.596-1.717 2.132-2.291 0.327-0.351 0.578-0.62 0.744-0.795l-2.481-1.428zm18.46-12.157c-0.156 0.164-0.436 0.463-0.815 0.87-1.874 2.009-6.165 6.638-9.988 10.764-1.911 2.064-3.705 4.001-5.022 5.423-0.653 0.706-1.187 1.283-1.561 1.687l8.342-2.84 11.932-14.241zm-14.395-11.131-9.81 5.187 13.483-0.313zm4.084 4.684 7.381 4.25 0.158-0.14 9.503-7.289-0.327-0.014-15.592-0.653-9.164-6.825zm2.844-10.51 14.456 7.133 0.119-0.092 3.526-5.336 0.83-11.512-9.528 6.67-8.009-1.502-5.779-5.423zm26.736-2.221c0.199-0.202 0.57-0.578 1.052-1.068 0.764-0.777 1.798-1.831 2.83-2.889l-2.04-27.498-1.851-2.149-1.545 1.747-1.767 28.168-0.023-2e-3zm37.818 43.905-9.22-8.185-12.275-14.711-2.332 1.354 21.856 23.113zm-7.695-30.911-4.501 2.614 13.167 8.91-6.898 0.9 7.374 6.654-7.608-0.195 6.373 7.12-8.297-2.861 8.436 7.489 4.18-3.332-0.361-18.868zm-3.117-10.519-12.276 6.522 13.663-0.842 9.109-5.718 5.377-18.558-5.9 11.882zm1.526 6.114-15.233 0.939 9.163 7.404 7.422-4.311 6.888-9.203zm0.356 26.788 7.678 2.647-5.516-6.163-0.041-1e-3 1e-3 -0.043-11.388-12.724-2.911 1.691zm2.364-3.953 6.829 0.175-15.653-14.125-7e-3 -6e-3 -2.408 1.398zm0.207-6.396 6.116-0.798-12.378-8.375-2.374 1.379zm-1.135-12.257 13.624 0.453-10.027-5.259zm-16.592 9.231 8.32-4.832-9.367-7.57-3.685-5.953 0.635 10.066zm-4.78-19.13 0.064-0.04 4.006 6.472 0.074 0.06 0.525-0.279 13.099-6.959 4.239-9.816-4.838 4.974-8.105 1.801-7.231-4.519-0.04 0.045-0.291-0.252-0.176-0.11 0.046-3e-3 -2.027-1.756zm21.314-28.895-9.828 3.685 3.887 6.848 12.974-7.429zm-16.634-10.771 1.549-16.261-2.307-6.441-6.375-2.718-0.06 1e-3 -1e-3 -0.027-0.109-0.047h-12.283l-6.162 2.407-3.078 6.637 1.857 16.912 2.95 13.795 1.718-1.943h-2e-3c0-0.635-0.074-7.029-0.148-13.258-0.073-6.23-0.147-12.301-0.147-12.301v1e-3l-0.099-5.846 0.024-0.048c0.011-0.021 0.544-1.081 1.929-2.139 1.384-1.058 3.623-2.108 7.006-2.107 3.378 0 5.635 0.922 7.043 1.853 1.41 0.931 1.97 1.866 1.983 1.888l0.027 0.046 0.397 6.443-0.196 26.292 1.109 1.287c0.181-1.101 0.667-4 1.233-6.91 0.36-1.846 0.751-3.691 1.117-5.082 0.184-0.696 0.361-1.277 0.529-1.696 0.084-0.21 0.165-0.379 0.253-0.51 0.045-0.065 0.091-0.122 0.15-0.171 0.026-0.021 0.058-0.04 0.093-0.057m-8.506-29.518h-9.777l-5.063 3.469 3.493 0.186 0.183-0.072h12.457l0.167 0.071 3.637-0.062zm-0.205-0.442-4.885-22.338-4.607 22.338zm-19.19 43.352-5.621 1.048-3.852 7.147-0.39-0.21 3.782-7.016-9.696-3.577-7.358 3.188 16.101 8.994c0.438-0.8 1.009-1.835 1.445-2.589 0.418-0.721 1.023-1.478 1.791-2.07s1.706-1.02 2.773-1.059c0.041-1e-3 0.082-2e-3 0.123-2e-3 1.058 2e-3 2.012 0.487 2.705 0.96 0.693 0.475 1.127 0.946 1.135 0.954l0.042 0.046 0.181 0.917 0.363-5.228c-0.043-0.016-0.088-0.033-0.144-0.054-0.826-0.318-3.001-1.281-3.38-1.449m3.868 2.944-0.379 5.451 0.025 0.126-0.101 0.058-4.13 5.212-3.465 1.584-2.588 1.837 9.834 0.444 3.392-2.374zm-1.297 3.081c-0.125-0.128-0.546-0.54-1.143-0.93-0.638-0.417-1.469-0.8-2.33-0.799l-0.107 2e-3c-0.957 0.035-1.805 0.418-2.519 0.967-0.47 0.362-0.872 0.797-1.208 1.245-6e-3 0.12-0.01 0.238-0.01 0.352 1e-3 1.533 0.464 2.514 0.919 3.119 0.227 0.302 0.454 0.51 0.621 0.641 0.042 0.033 0.08 0.061 0.114 0.084l1.907 0.033 4.204-2.442zm-10.646 11.571 3.397-2.411-9.728-6.734-2.68 6.284 6.222 5.838 7.698 1.444 5.636-3.945zm3.804-2.667 3.274-1.496 3.364-4.246-3.436 1.997-2.048-0.036-0.025 0.047c-4e-3 -2e-3 -0.037-0.019-0.085-0.049l-4.275-0.074-5.334-2.073zm0.481-4.235c-0.125-0.123-0.258-0.27-0.391-0.447-0.476-0.631-0.938-1.63-0.996-3.086-9e-3 0.015-0.02 0.031-0.029 0.046-0.403 0.696-0.927 1.644-1.35 2.416-0.224 0.409-0.418 0.765-0.552 1.013zm18.054-21.568 3.075 3.569 2.457-15.872h-10.773l2.438 15.472zm8.714 10.112 0.192-25.708-2.908 3.172-2.542 16.426-8e-3 -1e-3zm-5.362-32.191c-0.552 0.545-0.704 1.352-0.703 2.031 0 0.321 0.032 0.607 0.065 0.813 0.01 0.061 0.019 0.112 0.028 0.157h1.971c0.035-0.624 0.208-1.136 0.48-1.532 0.435-0.635 1.083-0.978 1.686-1.168-0.403-0.048-0.842-0.098-1.273-0.143-0.854-0.09-1.684-0.161-2.117-0.161-0.053 0-0.098 1e-3 -0.137 3e-3m5.191 0.509h-9e-3c-0.022-1e-3 -0.055-1e-3 -0.097-1e-3 -0.316-1e-3 -1.169 0.042-1.912 0.405-0.373 0.182-0.716 0.439-0.967 0.806s-0.417 0.848-0.418 1.503v0.222h-2.748l-0.043-0.166c-2e-3 -0.011-0.142-0.546-0.143-1.247 1e-3 -0.756 0.162-1.727 0.894-2.407l0.052-0.048 0.071-9e-3c0.075-9e-3 0.162-0.012 0.266-0.012 0.629 0 1.896 0.129 3.022 0.258 0.896 0.103 1.687 0.204 1.973 0.241-0.175-0.251-0.755-1-1.913-1.737-1.302-0.827-3.34-1.63-6.352-1.686v8.8h-0.442v-8.808c-3.222 0.026-5.317 1.023-6.615 2.014-0.658 0.502-1.111 1.003-1.398 1.376-0.041 0.054-0.072 0.098-0.106 0.146 0.389-0.049 0.987-0.124 1.643-0.199 1.126-0.129 2.393-0.258 3.021-0.258 0.105 0 0.192 3e-3 0.267 0.012l0.07 9e-3 0.052 0.048c0.733 0.68 0.894 1.652 0.895 2.408-1e-3 0.7-0.14 1.235-0.143 1.246l-0.043 0.166h-2.749v-0.221c0-0.656-0.166-1.137-0.417-1.504-0.375-0.55-0.964-0.856-1.535-1.022-0.56-0.164-1.092-0.189-1.333-0.189l0.094 5.567 3.112 3.111h11.1l3.175-3.462 6e-3 6e-3zm-13.444 2.639h1.972c0.038-0.198 0.093-0.554 0.092-0.969 1e-3 -0.679-0.151-1.486-0.704-2.032-0.039-2e-3 -0.083-3e-3 -0.137-3e-3 -0.578-1e-3 -1.854 0.127-2.97 0.255-0.144 0.017-0.284 0.033-0.421 0.049 0.182 0.058 0.367 0.126 0.55 0.215 0.424 0.206 0.834 0.509 1.138 0.953 0.272 0.396 0.445 0.908 0.48 1.532m-0.806 6.512-2.805-2.805c0.04 3.342 0.256 21.166 0.285 24.527l5.044-5.704zm26.811 40.359-5.437-2.982-4.506-4.702-0.099-0.04 4e-3 -0.138-0.704-6.102-2.075 12.192 2.678 2.32zm0.448-6.912c-0.403-0.539-0.95-1.211-1.396-1.746-0.17-0.204-0.316-0.377-0.443-0.527-0.13 1.102-0.532 1.884-0.932 2.397-0.132 0.17-0.261 0.307-0.381 0.422l3.503-0.052c-0.093-0.141-0.214-0.311-0.351-0.494m-8.412-5.238c-0.754 0.689-1.173 1.761-1.391 2.665-0.109 0.451-0.169 0.859-0.202 1.152-0.015 0.132-0.024 0.236-0.029 0.315l4.229 1.692 1.934-0.029c0.113-0.07 0.45-0.302 0.789-0.755 0.397-0.531 0.797-1.362 0.842-2.613-0.031-0.17-0.197-0.945-0.762-1.685-0.592-0.768-1.589-1.503-3.385-1.507-0.877 2e-3 -1.521 0.304-2.025 0.765m9.183 6.168-6.659 0.099-3.509-1.404 3.785 3.95 2.553 1.401 8.987-5.888zm-11.008-3.586c0.077-0.323 0.178-0.668 0.311-1.015 0.26-0.679 0.642-1.367 1.215-1.893 0.115-0.106 0.239-0.202 0.369-0.292l-2.521-2.215zm2.295-3.438c0.443-0.22 0.959-0.352 1.555-0.351 1.923-4e-3 3.085 0.82 3.736 1.681 0.6 0.787 0.789 1.588 0.839 1.84 0.14 0.163 0.669 0.782 1.229 1.469 0.212 0.26 0.422 0.524 0.622 0.781l2.355-1.348-3.965-6.986-5.528-1.048-3.636 1.508zm8.254 5.774c0.013 0.018 0.029 0.038 0.042 0.055 0.204 0.275 0.371 0.51 0.483 0.702l6.667-2.381 0.201-0.132 2.455 5.904 5.616-13.003zm7.189-1.094-10.12 6.631 3.744 2.053-10.974 0.593 6.399 3.999 7.799-1.733 5.556-5.712 0.011-0.024zm-21.215 6.553 2.327-13.671-0.174-0.153 0.046-0.019-7.704-8.94 1.967 26.511c0.309-0.318 0.617-0.634 0.912-0.939 0.703-0.726 1.344-1.394 1.822-1.902 0.24-0.254 0.438-0.468 0.582-0.629 0.072-0.08 0.131-0.147 0.173-0.198 0.02-0.024 0.037-0.045 0.049-0.06m-11.57 3.985 1.706-27.193-8.241 9.319 2.91 13.871zm-27.924-4.954 2.792-6.546 0.202 0.14 6.823 2.651c0.078-0.145 0.192-0.354 0.329-0.607l-15.922-8.894zm2.203-17.187 9.443 3.484 5.8-1.081 0.062 0.028c1e-3 0 0.221 0.098 0.555 0.245 0.501 0.221 1.258 0.552 1.906 0.827 0.324 0.138 0.621 0.262 0.845 0.35 0.013 6e-3 0.024 0.01 0.037 0.015l-2.89-13.518-9.365 6.88zm10.133-10.959-3.426 7.409 8.962-6.584-1.858-16.918 3.205-6.911 5.222-2.039-3.094-0.165-4.836 3.314-3.488 6.975zm4.698-25.635 0.064 0.024zm0.06 0.034-1e-3 1e-3 -0.059-0.027c-0.013 1.325-0.023 2.336-0.029 2.858l9.679-6.632-0.07-0.014 4.663-22.606c-0.02 0.037-0.039 0.071-0.06 0.11-1.406 2.615-4.923 9.153-8.096 15.06-1.587 2.953-3.087 5.748-4.195 7.816-0.554 1.034-1.01 1.886-1.33 2.484-0.159 0.299-0.285 0.535-0.371 0.699-0.043 0.082-0.077 0.145-0.1 0.189l-0.026 0.051zm25.349 0.5 1e-3 0.038-3.2 0.054 5.642 2.406 2.406 6.716-1.563 16.407c0.142 0.094 0.342 0.236 0.596 0.42 1.875 1.361 6.547 4.964 8.323 6.338l-3.292-7.214 0.118-0.186-0.797-14.989-3.682-6.783zm44.75 26.755-11.552 17.236-5.729 19.775 10.598-14.159zm-13.073 41.579 10.242-23.136-3.45 4.61-9e-3 0.028-0.01-3e-3 -11.33 15.138-0.022 0.076-0.066 0.042-3.625 4.843 11.015 5.776zm2.868 7.703-14.088-0.468 16.348 11.617-0.103-5.354zm2.45 21.034-0.179-9.334-5.162-3.668 0.476 24.866 0.891-0.233zm-7.905 12.661 2.6-0.681-0.112-5.876-3.855 3.073 0.02 0.018-0.293 0.331-0.078-0.069-1.911 1.523zm-26.586-25.145 0.063-0.037-4.15-8.395-1.267-20.1c-0.113 0.504-0.248 1.096-0.4 1.756-1.113 4.816-3.102 13.012-3.284 13.761l5.018 15.344 4.841-1.462zm-9.177-12.017-1.851 13.814 6.551 0.557zm-2.292 13.776 1.975-14.745-4e-3 -0.011 0.014-0.058 3.825-16.42c-0.839 0.903-2.428 2.541-3.931 4.08-1.841 1.884-3.546 3.61-3.546 3.61l-0.164 0.167-7.35-8.113 4.151 17.13-5e-3 0.013c0.052 0.432 0.44 3.655 0.829 6.956 0.208 1.773 0.417 3.568 0.573 4.963 0.079 0.698 0.144 1.295 0.19 1.741 0.023 0.222 0.041 0.407 0.053 0.548 4e-3 0.046 6e-3 0.079 9e-3 0.115l1.457-0.14zm-5.37-13.428-5.135 14.086 6.684-0.64c-3e-3 -0.035-6e-3 -0.073-0.01-0.118-0.09-1.035-0.503-4.602-0.893-7.903-0.195-1.651-0.384-3.237-0.524-4.41-0.047-0.39-0.087-0.729-0.122-1.015m-5.753 14.145 0.13-0.012 5.502-15.09-3.799-15.677-0.726 10.068 0.019 0.012-0.022 0.034-0.718 9.958-4.395 8.161 6e-3 0.036c-1e-3 0.049-0.011 0.069-0.017 0.085-0.023 0.054-0.034 0.062-0.052 0.088-0.064 0.085-0.195 0.235-0.399 0.462-0.061 0.068-0.131 0.145-0.204 0.225zm-25.641 19.79c2.125-2.221 7.439-7.778 12.222-12.807 2.391-2.515 4.65-4.897 6.31-6.665 0.83-0.884 1.51-1.614 1.983-2.13 0.236-0.257 0.42-0.462 0.543-0.603 0.011-0.012 0.018-0.021 0.027-0.032l-2.13-1.226-12.032 14.361-9.517 8.46 1.782 1.489c0.155-0.162 0.433-0.451 0.812-0.847m-1.169 1.126-6.009-5.023-0.071 6.052 2.891 1.008zm-7.211 0.634 0.691 0.241 0.287-24.58-4.84 3.388-0.406 9.506zm-3.838-21.508 16.28-11.396-14.028 0.326-1.998 5.115zm5.184-18.574-2.826 7.233 10.873-5.75-18.729-24.855zm-12.245-40.313c-0.346-0.543-0.648-1.018-0.896-1.408 0.633 2.337 2.056 7.398 3.403 12.165 0.784 2.775 1.543 5.451 2.105 7.432 0.282 0.991 0.514 1.809 0.676 2.378 0.162 0.57 0.253 0.891 0.253 0.892l-0.016 5e-3 10.851 14.4c-0.214-0.71-1.54-5.105-2.868-9.539-0.725-2.421-1.449-4.853-1.993-6.701-0.272-0.924-0.498-1.702-0.657-2.26-0.055-0.192-0.098-0.348-0.136-0.485-0.066-0.104-0.141-0.223-0.226-0.356-1.194-1.881-4.183-6.588-6.895-10.856-1.356-2.135-2.643-4.159-3.601-5.667m10.783 16.15c0.014-3e-3 0.027-0.01 0.04-9e-3 0.051 0 0.087 0.016 0.11 0.029 0.064 0.041 0.063 0.058 0.074 0.068l1e-3 2e-3 2e-3 3e-3 0.048 0.082c0.29 0.536 1.996 3.925 3.634 7.191 1.52 3.029 2.976 5.94 3.178 6.344l8.944 6.023-10.663-24.466-0.018-0.01-8e-3 -0.031-12.712-12.147 1.395 7.513c2.404 3.785 4.858 7.649 5.975 9.408m-9.06-25.504 1.551 7.839 12.645 12.082-2.245-8.8-9.396-7.417 0.016-0.042zm11.707 10.365-2.221-6.752-3.476-7.704-2.925 7.649zm-2.522-22.761-2.989 7.817 0.066-0.03 3.623 8.031 6.847 9.729 9.732 2.044-9e-3 0.041 2.41-1.044-14.058-9.34-4.359-13.374-0.061-0.037 0.031-0.053zm1.717 3.84 4.278 13.125 13.556 9.006-8.537-11.405-6.411-15.501zm7.159-12.825-3.983 7.514 0.025 0.015-0.03 0.05 6.514 15.752 5.062 6.762zm7.421-5.656-5.982 9.385-0.051-0.032 1.257 4.986 6.823 4.363zm2.674 1.45c-0.489 0.723-0.929 1.386-1.245 1.883-0.158 0.248-0.286 0.456-0.371 0.606-0.043 0.075-0.075 0.136-0.094 0.177l-0.018 0.042-5e-3 -2e-3 5e-3 1e-3 -0.047-0.011 1.626 14.862 5.231 3.345 0.185-4.016c-1e-3 -2e-3 -1e-3 -4e-3 -2e-3 -7e-3 -0.03-0.098-0.053-0.24-0.083-0.46-0.221-1.623-0.664-7.122-1.054-12.229-0.305-3.998-0.576-7.748-0.679-9.188-0.139 0.199-0.313 0.447-0.513 0.734-0.783 1.123-1.958 2.816-2.936 4.263m6.412-9.723c-0.68 1.094-1.33 2.145-1.809 2.923-0.387 0.628-0.66 1.071-0.752 1.222 9e-3 0.129 0.031 0.432 0.063 0.879 0.152 2.116 0.537 7.413 0.916 12.223 0.189 2.404 0.377 4.688 0.534 6.39 0.078 0.851 0.149 1.557 0.207 2.058 8e-3 0.066 0.015 0.118 0.022 0.176l3.26-6.519 0.393-0.269c2e-3 -0.146 5e-3 -0.478 0.01-0.963 0.042-4.176 0.196-19.562 0.229-22.978-0.628 0.943-1.898 2.966-3.073 4.858m3.446 2.179c-0.043 4.275-0.094 9.415-0.13 12.916 2.079-3.906 12.866-23.959 14.267-26.562l-14.129 13.654zm14.819-13.66 14.446 26.932-0.236-13.381zm14.903 27.785 1e-3 1e-3v2.737l0.44 0.31 3.388 6.243 1.412-22.115-5.619-8.638zm4.223 10.072 0.215 4.046 5.219-3.391 1.382-14.639-5.394-8.292zm7.691-18.123-0.428 4.104h1e-3l-1.356 14.367 6.344-4.121 1.475-5.389zm7.378 5.731-2.412 8.813-4.865 20.955 5.046-6.689 6.525-15.679zm4.568 7.892-6.412 15.408-8.642 11.458 13.566-8.767 4.361-12.892zm3.353 5.161 2e-3 3e-3 -4.474 13.223-14.162 9.152 2.398 1.059 9.2-1.917 7.683-9.336 3.102-8.336-2.511-7.891zm7.734 12.122 0.051 0.068-0.201 0.152-9e-3 0.013-2e-3 -5e-3 -8.709 6.577-3.034 9.1c1.114-1.046 3.532-3.315 5.983-5.589 1.668-1.548 3.348-3.096 4.637-4.258 0.645-0.581 1.192-1.065 1.592-1.406 0.2-0.171 0.364-0.305 0.487-0.4 0.062-0.047 0.114-0.085 0.159-0.114l0.013-7e-3 1.791-8.187z" fill="#9e2475"/></g><g transform="translate(451.55 181.12)"><path d="m0 0c-0.085 0.58-0.454 2.472-0.804 4.231-0.181 0.913-0.357 1.786-0.484 2.415l6.512-9.716-7.158 24.472 5.081-6.789-11.75 26.541 2.855 7.668 0.075 0.039-0.061-2e-3 2.12 5.696 0.296 15.391-4.076 11.93-4.315 1.13-4.136-1.916-21.339-22.567 0.035 0.114-5.244 1.583-9.25-0.787-9.257 0.886-4.945-1.745c-4.233 4.593-21.275 22.386-21.276 22.388l-0.019 0.019-3.647 2.33-4.421-1.543-4.371-11.723 0.69-16.182 4.888-12.513-12.291-26.894 5.342 7.09c-0.561-1.973-1.824-6.422-3.088-10.899-0.847-3.001-1.695-6.014-2.33-8.301-0.318-1.143-0.583-2.105-0.769-2.794-0.092-0.344-0.165-0.62-0.215-0.817-0.026-0.099-0.045-0.178-0.058-0.237l-0.017-0.076c-3e-3 -0.024-7e-3 -0.035-8e-3 -0.076l8e-3 -0.063 0.045-0.084c0.028-0.039 0.102-0.082 0.169-0.079 0.099 5e-3 0.134 0.046 0.153 0.061l0.03 0.035 2e-3 3e-3 2e-3 2e-3c0.029 0.044 0.242 0.379 0.603 0.945 0.93 1.461 2.818 4.432 4.83 7.599l-1.318-7.097-1.97-9.964 3.601 5.129 6.456-16.885 1.503 4.61 2.857-4.727-6e-3 -0.016 4.637-8.749 1.112 4.41 6.463-10.141 0.522 4.765c0.021-0.035 0.041-0.067 0.064-0.106 1.216-1.962 5.143-7.548 5.226-7.666 0.04-0.064 1.495-2.434 2.974-4.809 0.75-1.204 1.505-2.408 2.084-3.312 0.29-0.452 0.536-0.829 0.716-1.095 0.09-0.133 0.163-0.238 0.22-0.314l0.076-0.095 0.043-0.042 0.04-0.029c0.021-0.01 0.049-0.029 0.115-0.031l0.108 0.028c0.057 0.031 0.091 0.084 0.103 0.119l0.014 0.081c0 0.105-0.03 3.169-0.069 7.105l14.475-13.989 0.02 0.019 0.011-0.053 0.018 0.08 14.488 13.817-0.144-8.138 6.51 10.006 0.033 2e-3 -3e-3 0.044 5.419 8.33 0.489-4.697 6.504 9.656 1.04-3.803 4.656 8.023 5e-3 -0.012 3.11 5.639 1.528-4.989 2.959 9.302 3.465 7.679 3.759-5.529-2.303 10.53c-3e-3 0.042-8e-3 0.085-0.017 0.149zm-1.682 6.361c0.211-1.042 0.526-2.615 0.789-3.964 0.132-0.674 0.25-1.293 0.335-1.76 0.024-0.132 0.045-0.248 0.063-0.354-0.182 0.149-0.415 0.348-0.699 0.597-1.626 1.423-4.729 4.291-7.423 6.802-1.347 1.255-2.592 2.422-3.501 3.274-0.454 0.427-0.824 0.774-1.081 1.015-0.18 0.17-0.301 0.284-0.359 0.338l-9e-3 0.027-9e-3 5e-3 -6.02 13.938 0.044 0.106-0.161 0.166-4.432 10.261 9.241-6.222 6.945-13.986 0.122 0.048-0.108-0.073 6.069-9.055-0.04-8e-3c0-1e-3 0.094-0.459 0.234-1.155zm-6.361-10.594-1.939 5.816 8.276-6.249-3.385-7.502zm-0.796 0.988-7.048 8.564-8.746 1.822 10.75 4.745zm-16.548 10.543-2e-3 -7e-3 -2.71-1.196-0.021-0.017c-2e-3 -1e-3 -0.546-0.423-1.381-1.067-1.251-0.967-3.151-2.43-4.83-3.706-0.84-0.638-1.624-1.23-2.243-1.689-0.549-0.407-0.974-0.713-1.177-0.844l-0.01 0.01c-0.102 0.129-0.259 0.484-0.415 0.97-0.56 1.713-1.25 5.111-1.795 8.067-0.273 1.479-0.511 2.85-0.68 3.851-0.091 0.533-0.161 0.956-0.207 1.24l3.719-1.542 5.699 1.08 9.589-3.596-3.526-1.556zm0.44-6.317 4.797-20.659-11.192 17.683 3.257 7.137zm-6.894-13.689 0.506 9.524 10.949-16.965zm-4.906-14.515-14.278-26.619 4.88 22.309 9.398 6.623zm-45.535 7.393 11.01 16.985 0.445-9.659zm7.534 25.083 3.413-7.382-11.841-18.266 5.471 21.697zm-16.951-2.717 2.408 9.442 7.678-3.327 4e-3 -0.01 0.011 4e-3 3.376-1.463-9.35-1.964-6.103-8.673 1.969 5.986zm3.461 28.65-0.026-0.052c-1e-3 0-0.105-0.208-0.288-0.574-0.64-1.28-2.243-4.483-3.708-7.399-0.705-1.404-1.377-2.739-1.895-3.762 0.618 2.121 1.644 5.563 2.625 8.835 0.671 2.238 1.32 4.395 1.801 5.992 0.24 0.799 0.439 1.458 0.578 1.917 0.098 0.326 0.164 0.546 0.195 0.649l9.115 6.787 14.41 0.604-13.126-6.477zm-5.204 25.582-0.215 18.423 4.234 3.539 8.736-7.765-9.019 3.07 0.594-0.641s2.611-2.822 5.852-6.321l-7.14-0.196 7.294-6.463-6.865-0.648 13.064-8.968-4.393-2.53zm28.244 0.26 4.304-7.992 0.655-9.078-3.132 4.741-6e-3 4e-3 0.019 0.01-0.03-1e-3 -9.91 7.601-0.035 0.032zm-11.284-5.985-12.233 8.397 6.062 0.573 8.566-7.592zm-12.786 15.423 6.407 0.175c0.837-0.903 1.709-1.844 2.584-2.789 2.228-2.403 4.473-4.826 6.199-6.684 0.863-0.929 1.596-1.717 2.132-2.291 0.327-0.351 0.578-0.62 0.744-0.795l-2.481-1.428zm18.46-12.157c-0.156 0.164-0.436 0.463-0.815 0.87-1.874 2.009-6.165 6.638-9.988 10.764-1.911 2.064-3.705 4.001-5.022 5.423-0.653 0.706-1.187 1.283-1.561 1.687l8.342-2.84 11.932-14.241zm-14.395-11.131-9.81 5.187 13.483-0.313zm4.084 4.684 7.381 4.25 0.158-0.14 9.503-7.289-0.327-0.014-15.592-0.653-9.164-6.825zm2.844-10.51 14.456 7.133 0.119-0.092 3.526-5.336 0.83-11.512-9.528 6.67-8.009-1.502-5.779-5.423zm26.736-2.221c0.199-0.202 0.57-0.578 1.052-1.068 0.764-0.777 1.798-1.831 2.83-2.889l-2.04-27.498-1.851-2.149-1.545 1.747-1.767 28.168-0.023-2e-3zm37.818 43.905-9.22-8.185-12.275-14.711-2.332 1.354 21.856 23.113zm-7.695-30.911-4.501 2.614 13.167 8.91-6.898 0.9 7.374 6.654-7.608-0.195 6.373 7.12-8.297-2.861 8.436 7.489 4.18-3.332-0.361-18.868zm-3.117-10.519-12.276 6.522 13.663-0.842 9.109-5.718 5.377-18.558-5.9 11.882zm1.526 6.114-15.233 0.939 9.163 7.404 7.422-4.311 6.888-9.203zm0.356 26.788 7.678 2.647-5.516-6.163-0.041-1e-3 1e-3 -0.043-11.388-12.724-2.911 1.691zm2.364-3.953 6.829 0.175-15.653-14.125-7e-3 -6e-3 -2.408 1.398zm0.207-6.396 6.116-0.798-12.378-8.375-2.374 1.379zm-1.135-12.257 13.624 0.453-10.027-5.259zm-16.592 9.231 8.32-4.832-9.367-7.57-3.685-5.953 0.635 10.066zm-4.78-19.13 0.064-0.04 4.006 6.472 0.074 0.06 0.525-0.279 13.099-6.959 4.239-9.816-4.838 4.974-8.105 1.801-7.231-4.519-0.04 0.045-0.291-0.252-0.176-0.11 0.046-3e-3 -2.027-1.756zm21.314-28.895-9.828 3.685 3.887 6.848 12.974-7.429zm-16.634-10.771 1.549-16.261-2.307-6.441-6.375-2.718-0.06 1e-3 -1e-3 -0.027-0.109-0.047h-12.283l-6.162 2.407-3.078 6.637 1.857 16.912 2.95 13.795 1.718-1.943h-2e-3c0-0.635-0.074-7.029-0.148-13.258-0.073-6.23-0.147-12.301-0.147-12.301v1e-3l-0.099-5.846 0.024-0.048c0.011-0.021 0.544-1.081 1.929-2.139 1.384-1.058 3.623-2.108 7.006-2.107 3.378 0 5.635 0.922 7.043 1.853 1.41 0.931 1.97 1.866 1.983 1.888l0.027 0.046 0.397 6.443-0.196 26.292 1.109 1.287c0.181-1.101 0.667-4 1.233-6.91 0.36-1.846 0.751-3.691 1.117-5.082 0.184-0.696 0.361-1.277 0.529-1.696 0.084-0.21 0.165-0.379 0.253-0.51 0.045-0.065 0.091-0.122 0.15-0.171 0.026-0.021 0.058-0.04 0.093-0.057zm-8.506-29.518h-9.777l-5.063 3.469 3.493 0.186 0.183-0.072h12.457l0.167 0.071 3.637-0.062zm-0.205-0.442-4.885-22.338-4.607 22.338zm-19.19 43.352-5.621 1.048-3.852 7.147-0.39-0.21 3.782-7.016-9.696-3.577-7.358 3.188 16.101 8.994c0.438-0.8 1.009-1.835 1.445-2.589 0.418-0.721 1.023-1.478 1.791-2.07s1.706-1.02 2.773-1.059c0.041-1e-3 0.082-2e-3 0.123-2e-3 1.058 2e-3 2.012 0.487 2.705 0.96 0.693 0.475 1.127 0.946 1.135 0.954l0.042 0.046 0.181 0.917 0.363-5.228c-0.043-0.016-0.088-0.033-0.144-0.054-0.826-0.318-3.001-1.281-3.38-1.449zm3.868 2.944-0.379 5.451 0.025 0.126-0.101 0.058-4.13 5.212-3.465 1.584-2.588 1.837 9.834 0.444 3.392-2.374zm-1.297 3.081c-0.125-0.128-0.546-0.54-1.143-0.93-0.638-0.417-1.469-0.8-2.33-0.799l-0.107 2e-3c-0.957 0.035-1.805 0.418-2.519 0.967-0.47 0.362-0.872 0.797-1.208 1.245-6e-3 0.12-0.01 0.238-0.01 0.352 1e-3 1.533 0.464 2.514 0.919 3.119 0.227 0.302 0.454 0.51 0.621 0.641 0.042 0.033 0.08 0.061 0.114 0.084l1.907 0.033 4.204-2.442zm-10.646 11.571 3.397-2.411-9.728-6.734-2.68 6.284 6.222 5.838 7.698 1.444 5.636-3.945zm3.804-2.667 3.274-1.496 3.364-4.246-3.436 1.997-2.048-0.036-0.025 0.047c-4e-3 -2e-3 -0.037-0.019-0.085-0.049l-4.275-0.074-5.334-2.073zm0.481-4.235c-0.125-0.123-0.258-0.27-0.391-0.447-0.476-0.631-0.938-1.63-0.996-3.086-9e-3 0.015-0.02 0.031-0.029 0.046-0.403 0.696-0.927 1.644-1.35 2.416-0.224 0.409-0.418 0.765-0.552 1.013zm18.054-21.568 3.075 3.569 2.457-15.872h-10.773l2.438 15.472zm8.714 10.112 0.192-25.708-2.908 3.172-2.542 16.426-8e-3 -1e-3zm-5.362-32.191c-0.552 0.545-0.704 1.352-0.703 2.031 0 0.321 0.032 0.607 0.065 0.813 0.01 0.061 0.019 0.112 0.028 0.157h1.971c0.035-0.624 0.208-1.136 0.48-1.532 0.435-0.635 1.083-0.978 1.686-1.168-0.403-0.048-0.842-0.098-1.273-0.143-0.854-0.09-1.684-0.161-2.117-0.161-0.053 0-0.098 1e-3 -0.137 3e-3zm5.191 0.509h-9e-3c-0.022-1e-3 -0.055-1e-3 -0.097-1e-3 -0.316-1e-3 -1.169 0.042-1.912 0.405-0.373 0.182-0.716 0.439-0.967 0.806s-0.417 0.848-0.418 1.503v0.222h-2.748l-0.043-0.166c-2e-3 -0.011-0.142-0.546-0.143-1.247 1e-3 -0.756 0.162-1.727 0.894-2.407l0.052-0.048 0.071-9e-3c0.075-9e-3 0.162-0.012 0.266-0.012 0.629 0 1.896 0.129 3.022 0.258 0.896 0.103 1.687 0.204 1.973 0.241-0.175-0.251-0.755-1-1.913-1.737-1.302-0.827-3.34-1.63-6.352-1.686v8.8h-0.442v-8.808c-3.222 0.026-5.317 1.023-6.615 2.014-0.658 0.502-1.111 1.003-1.398 1.376-0.041 0.054-0.072 0.098-0.106 0.146 0.389-0.049 0.987-0.124 1.643-0.199 1.126-0.129 2.393-0.258 3.021-0.258 0.105 0 0.192 3e-3 0.267 0.012l0.07 9e-3 0.052 0.048c0.733 0.68 0.894 1.652 0.895 2.408-1e-3 0.7-0.14 1.235-0.143 1.246l-0.043 0.166h-2.749v-0.221c0-0.656-0.166-1.137-0.417-1.504-0.375-0.55-0.964-0.856-1.535-1.022-0.56-0.164-1.092-0.189-1.333-0.189l0.094 5.567 3.112 3.111h11.1l3.175-3.462 6e-3 6e-3zm-13.444 2.639h1.972c0.038-0.198 0.093-0.554 0.092-0.969 1e-3 -0.679-0.151-1.486-0.704-2.032-0.039-2e-3 -0.083-3e-3 -0.137-3e-3 -0.578-1e-3 -1.854 0.127-2.97 0.255-0.144 0.017-0.284 0.033-0.421 0.049 0.182 0.058 0.367 0.126 0.55 0.215 0.424 0.206 0.834 0.509 1.138 0.953 0.272 0.396 0.445 0.908 0.48 1.532zm-0.806 6.512-2.805-2.805c0.04 3.342 0.256 21.166 0.285 24.527l5.044-5.704zm26.811 40.359-5.437-2.982-4.506-4.702-0.099-0.04 4e-3 -0.138-0.704-6.102-2.075 12.192 2.678 2.32zm0.448-6.912c-0.403-0.539-0.95-1.211-1.396-1.746-0.17-0.204-0.316-0.377-0.443-0.527-0.13 1.102-0.532 1.884-0.932 2.397-0.132 0.17-0.261 0.307-0.381 0.422l3.503-0.052c-0.093-0.141-0.214-0.311-0.351-0.494zm-8.412-5.238c-0.754 0.689-1.173 1.761-1.391 2.665-0.109 0.451-0.169 0.859-0.202 1.152-0.015 0.132-0.024 0.236-0.029 0.315l4.229 1.692 1.934-0.029c0.113-0.07 0.45-0.302 0.789-0.755 0.397-0.531 0.797-1.362 0.842-2.613-0.031-0.17-0.197-0.945-0.762-1.685-0.592-0.768-1.589-1.503-3.385-1.507-0.877 2e-3 -1.521 0.304-2.025 0.765zm9.183 6.168-6.659 0.099-3.509-1.404 3.785 3.95 2.553 1.401 8.987-5.888zm-11.008-3.586c0.077-0.323 0.178-0.668 0.311-1.015 0.26-0.679 0.642-1.367 1.215-1.893 0.115-0.106 0.239-0.202 0.369-0.292l-2.521-2.215zm2.295-3.438c0.443-0.22 0.959-0.352 1.555-0.351 1.923-4e-3 3.085 0.82 3.736 1.681 0.6 0.787 0.789 1.588 0.839 1.84 0.14 0.163 0.669 0.782 1.229 1.469 0.212 0.26 0.422 0.524 0.622 0.781l2.355-1.348-3.965-6.986-5.528-1.048-3.636 1.508zm8.254 5.774c0.013 0.018 0.029 0.038 0.042 0.055 0.204 0.275 0.371 0.51 0.483 0.702l6.667-2.381 0.201-0.132 2.455 5.904 5.616-13.003zm7.189-1.094-10.12 6.631 3.744 2.053-10.974 0.593 6.399 3.999 7.799-1.733 5.556-5.712 0.011-0.024zm-21.215 6.553 2.327-13.671-0.174-0.153 0.046-0.019-7.704-8.94 1.967 26.511c0.309-0.318 0.617-0.634 0.912-0.939 0.703-0.726 1.344-1.394 1.822-1.902 0.24-0.254 0.438-0.468 0.582-0.629 0.072-0.08 0.131-0.147 0.173-0.198 0.02-0.024 0.037-0.045 0.049-0.06zm-11.57 3.985 1.706-27.193-8.241 9.319 2.91 13.871zm-27.924-4.954 2.792-6.546 0.202 0.14 6.823 2.651c0.078-0.145 0.192-0.354 0.329-0.607l-15.922-8.894zm2.203-17.187 9.443 3.484 5.8-1.081 0.062 0.028c1e-3 0 0.221 0.098 0.555 0.245 0.501 0.221 1.258 0.552 1.906 0.827 0.324 0.138 0.621 0.262 0.845 0.35 0.013 6e-3 0.024 0.01 0.037 0.015l-2.89-13.518-9.365 6.88zm10.133-10.959-3.426 7.409 8.962-6.584-1.858-16.918 3.205-6.911 5.222-2.039-3.094-0.165-4.836 3.314-3.488 6.975zm4.698-25.635 0.064 0.024zm0.06 0.034-1e-3 1e-3 -0.059-0.027c-0.013 1.325-0.023 2.336-0.029 2.858l9.679-6.632-0.07-0.014 4.663-22.606c-0.02 0.037-0.039 0.071-0.06 0.11-1.406 2.615-4.923 9.153-8.096 15.06-1.587 2.953-3.087 5.748-4.195 7.816-0.554 1.034-1.01 1.886-1.33 2.484-0.159 0.299-0.285 0.535-0.371 0.699-0.043 0.082-0.077 0.145-0.1 0.189l-0.026 0.051zm25.349 0.5 1e-3 0.038-3.2 0.054 5.642 2.406 2.406 6.716-1.563 16.407c0.142 0.094 0.342 0.236 0.596 0.42 1.875 1.361 6.547 4.964 8.323 6.338l-3.292-7.214 0.118-0.186-0.797-14.989-3.682-6.783zm44.75 26.755-11.552 17.236-5.729 19.775 10.598-14.159zm-13.073 41.579 10.242-23.136-3.45 4.61-9e-3 0.028-0.01-3e-3 -11.33 15.138-0.022 0.076-0.066 0.042-3.625 4.843 11.015 5.776zm2.868 7.703-14.088-0.468 16.348 11.617-0.103-5.354zm2.45 21.034-0.179-9.334-5.162-3.668 0.476 24.866 0.891-0.233zm-7.905 12.661 2.6-0.681-0.112-5.876-3.855 3.073 0.02 0.018-0.293 0.331-0.078-0.069-1.911 1.523zm-26.586-25.145 0.063-0.037-4.15-8.395-1.267-20.1c-0.113 0.504-0.248 1.096-0.4 1.756-1.113 4.816-3.102 13.012-3.284 13.761l5.018 15.344 4.841-1.462zm-9.177-12.017-1.851 13.814 6.551 0.557zm-2.292 13.776 1.975-14.745-4e-3 -0.011 0.014-0.058 3.825-16.42c-0.839 0.903-2.428 2.541-3.931 4.08-1.841 1.884-3.546 3.61-3.546 3.61l-0.164 0.167-7.35-8.113 4.151 17.13-5e-3 0.013c0.052 0.432 0.44 3.655 0.829 6.956 0.208 1.773 0.417 3.568 0.573 4.963 0.079 0.698 0.144 1.295 0.19 1.741 0.023 0.222 0.041 0.407 0.053 0.548 4e-3 0.046 6e-3 0.079 9e-3 0.115l1.457-0.14zm-5.37-13.428-5.135 14.086 6.684-0.64c-3e-3 -0.035-6e-3 -0.073-0.01-0.118-0.09-1.035-0.503-4.602-0.893-7.903-0.195-1.651-0.384-3.237-0.524-4.41-0.047-0.39-0.087-0.729-0.122-1.015zm-5.753 14.145 0.13-0.012 5.502-15.09-3.799-15.677-0.726 10.068 0.019 0.012-0.022 0.034-0.718 9.958-4.395 8.161 6e-3 0.036c-1e-3 0.049-0.011 0.069-0.017 0.085-0.023 0.054-0.034 0.062-0.052 0.088-0.064 0.085-0.195 0.235-0.399 0.462-0.061 0.068-0.131 0.145-0.204 0.225zm-25.641 19.79c2.125-2.221 7.439-7.778 12.222-12.807 2.391-2.515 4.65-4.897 6.31-6.665 0.83-0.884 1.51-1.614 1.983-2.13 0.236-0.257 0.42-0.462 0.543-0.603 0.011-0.012 0.018-0.021 0.027-0.032l-2.13-1.226-12.032 14.361-9.517 8.46 1.782 1.489c0.155-0.162 0.433-0.451 0.812-0.847zm-1.169 1.126-6.009-5.023-0.071 6.052 2.891 1.008zm-7.211 0.634 0.691 0.241 0.287-24.58-4.84 3.388-0.406 9.506zm-3.838-21.508 16.28-11.396-14.028 0.326-1.998 5.115zm5.184-18.574-2.826 7.233 10.873-5.75-18.729-24.855zm-12.245-40.313c-0.346-0.543-0.648-1.018-0.896-1.408 0.633 2.337 2.056 7.398 3.403 12.165 0.784 2.775 1.543 5.451 2.105 7.432 0.282 0.991 0.514 1.809 0.676 2.378 0.162 0.57 0.253 0.891 0.253 0.892l-0.016 5e-3 10.851 14.4c-0.214-0.71-1.54-5.105-2.868-9.539-0.725-2.421-1.449-4.853-1.993-6.701-0.272-0.924-0.498-1.702-0.657-2.26-0.055-0.192-0.098-0.348-0.136-0.485-0.066-0.104-0.141-0.223-0.226-0.356-1.194-1.881-4.183-6.588-6.895-10.856-1.356-2.135-2.643-4.159-3.601-5.667zm10.783 16.15c0.014-3e-3 0.027-0.01 0.04-9e-3 0.051 0 0.087 0.016 0.11 0.029 0.064 0.041 0.063 0.058 0.074 0.068l1e-3 2e-3 2e-3 3e-3 0.048 0.082c0.29 0.536 1.996 3.925 3.634 7.191 1.52 3.029 2.976 5.94 3.178 6.344l8.944 6.023-10.663-24.466-0.018-0.01-8e-3 -0.031-12.712-12.147 1.395 7.513c2.404 3.785 4.858 7.649 5.975 9.408zm-9.06-25.504 1.551 7.839 12.645 12.082-2.245-8.8-9.396-7.417 0.016-0.042zm11.707 10.365-2.221-6.752-3.476-7.704-2.925 7.649zm-2.522-22.761-2.989 7.817 0.066-0.03 3.623 8.031 6.847 9.729 9.732 2.044-9e-3 0.041 2.41-1.044-14.058-9.34-4.359-13.374-0.061-0.037 0.031-0.053zm1.717 3.84 4.278 13.125 13.556 9.006-8.537-11.405-6.411-15.501zm7.159-12.825-3.983 7.514 0.025 0.015-0.03 0.05 6.514 15.752 5.062 6.762zm7.421-5.656-5.982 9.385-0.051-0.032 1.257 4.986 6.823 4.363zm2.674 1.45c-0.489 0.723-0.929 1.386-1.245 1.883-0.158 0.248-0.286 0.456-0.371 0.606-0.043 0.075-0.075 0.136-0.094 0.177l-0.018 0.042-5e-3 -2e-3 5e-3 1e-3 -0.047-0.011 1.626 14.862 5.231 3.345 0.185-4.016c-1e-3 -2e-3 -1e-3 -4e-3 -2e-3 -7e-3 -0.03-0.098-0.053-0.24-0.083-0.46-0.221-1.623-0.664-7.122-1.054-12.229-0.305-3.998-0.576-7.748-0.679-9.188-0.139 0.199-0.313 0.447-0.513 0.734-0.783 1.123-1.958 2.816-2.936 4.263zm6.412-9.723c-0.68 1.094-1.33 2.145-1.809 2.923-0.387 0.628-0.66 1.071-0.752 1.222 9e-3 0.129 0.031 0.432 0.063 0.879 0.152 2.116 0.537 7.413 0.916 12.223 0.189 2.404 0.377 4.688 0.534 6.39 0.078 0.851 0.149 1.557 0.207 2.058 8e-3 0.066 0.015 0.118 0.022 0.176l3.26-6.519 0.393-0.269c2e-3 -0.146 5e-3 -0.478 0.01-0.963 0.042-4.176 0.196-19.562 0.229-22.978-0.628 0.943-1.898 2.966-3.073 4.858zm3.446 2.179c-0.043 4.275-0.094 9.415-0.13 12.916 2.079-3.906 12.866-23.959 14.267-26.562l-14.129 13.654zm14.819-13.66 14.446 26.932-0.236-13.381zm14.903 27.785 1e-3 1e-3v2.737l0.44 0.31 3.388 6.243 1.412-22.115-5.619-8.638zm4.223 10.072 0.215 4.046 5.219-3.391 1.382-14.639-5.394-8.292zm7.691-18.123-0.428 4.104h1e-3l-1.356 14.367 6.344-4.121 1.475-5.389zm7.378 5.731-2.412 8.813-4.865 20.955 5.046-6.689 6.525-15.679zm4.568 7.892-6.412 15.408-8.642 11.458 13.566-8.767 4.361-12.892zm3.353 5.161 2e-3 3e-3 -4.474 13.223-14.162 9.152 2.398 1.059 9.2-1.917 7.683-9.336 3.102-8.336-2.511-7.891zm7.734 12.122 0.051 0.068-0.201 0.152-9e-3 0.013-2e-3 -5e-3 -8.709 6.577-3.034 9.1c1.114-1.046 3.532-3.315 5.983-5.589 1.668-1.548 3.348-3.096 4.637-4.258 0.645-0.581 1.192-1.065 1.592-1.406 0.2-0.171 0.364-0.305 0.487-0.4 0.062-0.047 0.114-0.085 0.159-0.114l0.013-7e-3 1.791-8.187z" fill="none" stroke="#9e2475" stroke-miterlimit="10" stroke-width=".309"/></g><g transform="translate(384.67 202.36)"><path d="m0 0c-0.982-2e-3 -1.784-0.778-1.785-1.748 1e-3 -0.97 0.803-1.746 1.785-1.748 0.982 2e-3 1.784 0.778 1.785 1.748-1e-3 0.969-0.803 1.746-1.785 1.748m0.951-2.67c-0.243-0.237-0.578-0.384-0.951-0.384s-0.708 0.147-0.952 0.384c-0.243 0.238-0.391 0.562-0.391 0.922s0.148 0.684 0.391 0.921c0.244 0.238 0.579 0.385 0.952 0.385s0.708-0.147 0.951-0.385c0.243-0.237 0.391-0.561 0.392-0.921-1e-3 -0.36-0.149-0.684-0.392-0.922" fill="#9e2475"/></g><g transform="translate(384.67 202.36)"><path d="m0 0c-0.982-2e-3 -1.784-0.778-1.785-1.748 1e-3 -0.97 0.803-1.746 1.785-1.748 0.982 2e-3 1.784 0.778 1.785 1.748-1e-3 0.969-0.803 1.746-1.785 1.748zm0.951-2.67c-0.243-0.237-0.578-0.384-0.951-0.384s-0.708 0.147-0.952 0.384c-0.243 0.238-0.391 0.562-0.391 0.922s0.148 0.684 0.391 0.921c0.244 0.238 0.579 0.385 0.952 0.385s0.708-0.147 0.951-0.385c0.243-0.237 0.391-0.561 0.392-0.921-1e-3 -0.36-0.149-0.684-0.392-0.922z" fill="none" stroke="#9e2475" stroke-miterlimit="10" stroke-width=".309"/></g><g transform="translate(417.33 200.61)"><path d="m0 0c-1e-3 0.97-0.803 1.746-1.785 1.748-0.982-2e-3 -1.784-0.778-1.785-1.748 1e-3 -0.97 0.803-1.746 1.785-1.748 0.982 2e-3 1.784 0.778 1.785 1.748m-3.128 0c0 0.36 0.149 0.684 0.392 0.922 0.243 0.237 0.578 0.384 0.951 0.384s0.708-0.147 0.951-0.384c0.243-0.238 0.392-0.562 0.392-0.922s-0.149-0.684-0.392-0.922c-0.243-0.237-0.578-0.384-0.951-0.384s-0.708 0.147-0.951 0.384c-0.243 0.238-0.392 0.562-0.392 0.922" fill="#9e2475"/></g><g transform="translate(417.33 200.61)"><path d="m0 0c-1e-3 0.97-0.803 1.746-1.785 1.748-0.982-2e-3 -1.784-0.778-1.785-1.748 1e-3 -0.97 0.803-1.746 1.785-1.748 0.982 2e-3 1.784 0.778 1.785 1.748zm-3.128 0c0 0.36 0.149 0.684 0.392 0.922 0.243 0.237 0.578 0.384 0.951 0.384s0.708-0.147 0.951-0.384c0.243-0.238 0.392-0.562 0.392-0.922s-0.149-0.684-0.392-0.922c-0.243-0.237-0.578-0.384-0.951-0.384s-0.708 0.147-0.951 0.384c-0.243 0.238-0.392 0.562-0.392 0.922z" fill="none" stroke="#9e2475" stroke-miterlimit="10" stroke-width=".309"/></g></g></g></svg>
