<?xml version="1.0" encoding="UTF-8"?>
<svg width="227.99" height="304.4" version="1.1" viewBox="0 0 227.99 304.4" xml:space="preserve" xmlns="http://www.w3.org/2000/svg"><g transform="matrix(1.3333 0 0 -1.3333 -1125.2 563.95)"><g transform="matrix(-1.3929 0 0 -1.3929 1556.4 337.99)"><g transform="matrix(-.78152 0 0 -.78152 444.86 21.216)"><path d="m0 0 0.014 9e-3c0.01 7e-3 0.186 0.128 0.368 0.337 0.181 0.209 0.38 0.514 0.383 0.9 2e-3 0.29-0.125 0.603-0.411 0.886-0.249 0.25-0.579 0.345-0.902 0.343-0.595-4e-3 -1.217-0.283-1.708-0.551-0.464-0.256-0.8-0.506-0.839-0.535-0.046-0.03-0.402-0.263-0.809-0.67-0.43-0.431-0.919-1.056-1.128-1.845-0.187-0.713-0.551-1.71-0.866-2.523-0.159-0.407-0.305-0.768-0.411-1.028-0.107-0.26-0.173-0.416-0.173-0.417l-0.532-1.251 0.915 1.006 3.816 4.198zm-5.566-4.066c0.338 0.858 0.764 1.998 0.981 2.823 0.176 0.671 0.61 1.239 1.007 1.635 0.198 0.198 0.385 0.353 0.522 0.457 0.068 0.052 0.123 0.092 0.161 0.118l0.043 0.029 0.013 8e-3 7e-3 4e-3 9e-3 7e-3 0.057 0.042c0.132 0.095 0.486 0.34 0.91 0.556 0.423 0.218 0.921 0.402 1.308 0.4 0.243-2e-3 0.429-0.063 0.575-0.208 0.218-0.22 0.274-0.399 0.276-0.559 2e-3 -0.212-0.124-0.431-0.269-0.596-0.071-0.082-0.144-0.149-0.198-0.194l-0.064-0.052-9e-3 -6e-3 -2.329-1.165z" fill="#41b8bc"/></g><g transform="matrix(-.78152 0 0 -.78152 444.86 21.216)"><path d="m0 0 0.014 9e-3c0.01 7e-3 0.186 0.128 0.368 0.337 0.181 0.209 0.38 0.514 0.383 0.9 2e-3 0.29-0.125 0.603-0.411 0.886-0.249 0.25-0.579 0.345-0.902 0.343-0.595-4e-3 -1.217-0.283-1.708-0.551-0.464-0.256-0.8-0.506-0.839-0.535-0.046-0.03-0.402-0.263-0.809-0.67-0.43-0.431-0.919-1.056-1.128-1.845-0.187-0.713-0.551-1.71-0.866-2.523-0.159-0.407-0.305-0.768-0.411-1.028-0.107-0.26-0.173-0.416-0.173-0.417l-0.532-1.251 0.915 1.006 3.816 4.198zm-5.566-4.066c0.338 0.858 0.764 1.998 0.981 2.823 0.176 0.671 0.61 1.239 1.007 1.635 0.198 0.198 0.385 0.353 0.522 0.457 0.068 0.052 0.123 0.092 0.161 0.118l0.043 0.029 0.013 8e-3 7e-3 4e-3 9e-3 7e-3 0.057 0.042c0.132 0.095 0.486 0.34 0.91 0.556 0.423 0.218 0.921 0.402 1.308 0.4 0.243-2e-3 0.429-0.063 0.575-0.208 0.218-0.22 0.274-0.399 0.276-0.559 2e-3 -0.212-0.124-0.431-0.269-0.596-0.071-0.082-0.144-0.149-0.198-0.194l-0.064-0.052-9e-3 -6e-3 -2.329-1.165z" fill="none" stroke="#41b8bc" stroke-miterlimit="10" stroke-width=".563"/></g><g transform="matrix(-.78152 0 0 -.78152 452.95 24.871)"><path d="m0 0c-0.319 0.777-0.996 2.48-1.277 3.551-0.209 0.789-0.697 1.414-1.127 1.845-0.409 0.408-0.766 0.642-0.811 0.67-0.04 0.031-0.375 0.28-0.838 0.535-0.491 0.268-1.114 0.547-1.708 0.551-0.323 2e-3 -0.653-0.093-0.902-0.343-0.286-0.283-0.413-0.597-0.411-0.886 2e-3 -0.387 0.202-0.691 0.382-0.9 0.183-0.209 0.359-0.33 0.369-0.337l0.013-9e-3 2.283-1.141 4.733-5.207-0.533 1.254c0 1e-3 -0.067 0.157-0.173 0.417m-6.071 5.075c-0.035 0.024-0.172 0.13-0.299 0.283-0.134 0.161-0.244 0.366-0.242 0.565 2e-3 0.16 0.058 0.338 0.276 0.559 0.147 0.145 0.332 0.206 0.575 0.208 0.443 3e-3 1.028-0.239 1.485-0.494 0.229-0.126 0.428-0.253 0.569-0.348 0.071-0.047 0.126-0.087 0.165-0.114l0.064-0.048 8e-3 -5e-3 0.013-8e-3c0.071-0.047 0.426-0.289 0.801-0.68s0.767-0.93 0.932-1.559c0.218-0.825 0.643-1.965 0.981-2.824l-3 3.3z" fill="#41b8bc"/></g><g transform="matrix(-.78152 0 0 -.78152 452.95 24.871)"><path d="m0 0c-0.319 0.777-0.996 2.48-1.277 3.551-0.209 0.789-0.697 1.414-1.127 1.845-0.409 0.408-0.766 0.642-0.811 0.67-0.04 0.031-0.375 0.28-0.838 0.535-0.491 0.268-1.114 0.547-1.708 0.551-0.323 2e-3 -0.653-0.093-0.902-0.343-0.286-0.283-0.413-0.597-0.411-0.886 2e-3 -0.387 0.202-0.691 0.382-0.9 0.183-0.209 0.359-0.33 0.369-0.337l0.013-9e-3 2.283-1.141 4.733-5.207-0.533 1.254c0 1e-3 -0.067 0.157-0.173 0.417zm-6.071 5.075c-0.035 0.024-0.172 0.13-0.299 0.283-0.134 0.161-0.244 0.366-0.242 0.565 2e-3 0.16 0.058 0.338 0.276 0.559 0.147 0.145 0.332 0.206 0.575 0.208 0.443 3e-3 1.028-0.239 1.485-0.494 0.229-0.126 0.428-0.253 0.569-0.348 0.071-0.047 0.126-0.087 0.165-0.114l0.064-0.048 8e-3 -5e-3 0.013-8e-3c0.071-0.047 0.426-0.289 0.801-0.68s0.767-0.93 0.932-1.559c0.218-0.825 0.643-1.965 0.981-2.824l-3 3.3z" fill="none" stroke="#41b8bc" stroke-miterlimit="10" stroke-width=".563"/></g><g transform="matrix(-.89445 0 0 -.89445 405.56 -6.4016)"><path d="m0 0c2.584-1.792 5.067-3.535 7.575-5.24 0.576-0.39 0.857-0.839 0.97-1.538 1.971-12.153 3.982-24.299 5.939-36.454 0.109-0.676-0.01-1.494-0.302-2.114-4.089-8.662-8.218-17.307-12.375-25.937-0.254-0.526-0.755-1.04-1.271-1.317-4.665-2.507-9.362-4.954-14.039-7.439-0.529-0.28-1.036-0.637-1.476-1.041-2.909-2.67-5.781-5.38-8.711-8.026-0.429-0.387-1.097-0.681-1.669-0.707-3.809-0.176-7.621-0.282-11.433-0.369-0.633-0.015-1.035-0.192-1.19-0.81-0.232-0.925-0.931-1.23-1.747-1.598-4.415-1.996-9.072-1.948-13.777-2.01-3.575-0.048-6.718 1.273-9.962 2.35-0.402 0.133-0.722 0.753-0.916 1.216-0.26 0.62-0.606 0.841-1.285 0.856-3.813 0.082-7.625 0.193-11.434 0.364-0.541 0.024-1.174 0.305-1.58 0.672-2.855 2.577-5.648 5.224-8.495 7.81-0.64 0.581-1.372 1.094-2.134 1.501-4.552 2.432-9.133 4.809-13.681 7.25-0.491 0.264-0.971 0.748-1.212 1.247-4.197 8.723-8.362 17.462-12.503 26.212-0.227 0.479-0.322 1.112-0.238 1.635 1.98 12.253 3.985 24.503 6.029 36.747 0.086 0.521 0.475 1.122 0.905 1.433 2.483 1.798 5.02 3.52 7.607 5.314-0.454 0.847-0.874 1.644-1.306 2.434-1.978 3.609-3.974 7.208-5.923 10.833-0.273 0.508-0.436 1.137-0.445 1.714-0.046 2.766-0.036 5.534-6e-3 8.301 5e-3 0.448 0.108 0.955 0.336 1.332 1.501 2.483 3.023 4.954 4.606 7.384 0.239 0.368 0.827 0.702 1.264 0.716 3.439 0.108 6.882 0.162 10.324 0.157 0.582-1e-3 1.27-0.226 1.73-0.58 4.356-3.356 8.682-6.754 12.994-10.168 0.524-0.415 0.908-0.509 1.509-0.151 1.042 0.62 2.198 1.055 3.214 1.71 3.054 1.968 6.435 2.783 9.996 3.201 3.851 0.453 7.668 1.193 11.519 1.638 1.474 0.17 3.016-0.024 4.502-0.231 4.845-0.673 9.679-1.421 14.513-2.164 0.488-0.074 0.981-0.247 1.422-0.471 2.344-1.196 4.683-2.401 6.998-3.651 0.617-0.334 1.031-0.314 1.599 0.137 4.282 3.398 8.583 6.771 12.916 10.104 0.486 0.373 1.204 0.622 1.815 0.624 3.442 0.01 6.884-0.05 10.324-0.152 0.414-0.012 0.975-0.316 1.198-0.659 1.58-2.433 3.103-4.903 4.607-7.384 0.229-0.378 0.362-0.875 0.368-1.32 0.032-2.834 0.036-5.669-2e-3 -8.504-7e-3 -0.511-0.163-1.069-0.407-1.521-2.384-4.424-4.801-8.83-7.26-13.336m-40.01-59.313c0.049 0.08 0.124 0.157 0.15 0.248 1.315 4.628 1.838 9.392 2.172 14.158 0.221 3.14 0.044 6.313-0.048 9.468-0.14 4.819-0.291 9.647-2.009 14.246-0.387 1.036-0.727 2.103-1.244 3.073-2.267 4.255-4.688 8.432-6.843 12.742-0.773 1.546-1.817 1.977-3.316 1.963-0.201-2e-3 -0.403-0.055-0.604-0.046-1.313 0.057-2.079-0.513-2.709-1.731-2.261-4.372-4.732-8.635-6.997-13.005-1.609-3.106-2.467-6.51-2.814-9.955-0.428-4.253-0.659-8.545-0.634-12.818 0.019-3.488 0.439-6.986 0.869-10.456 0.33-2.656 0.951-5.276 1.498-8.209 3.135 1.924 6.169 1.238 9.189 0.464 1.437-0.369 2.845-0.41 4.274 5e-3 2.996 0.869 5.988 1.213 8.951-0.145 0.027-0.013 0.066-2e-3 0.115-2e-3m-64.04 90.961c-0.116-0.206-0.183-0.286-0.209-0.378-1.569-5.477-3.143-10.952-4.676-16.439-0.086-0.307 0.076-0.788 0.289-1.056 1.114-1.398 2.281-2.753 3.429-4.123 1.926-2.296 3.851-4.591 5.838-6.96 4.859 4.34 9.65 8.619 14.424 12.885-0.091 0.188-0.12 0.289-0.18 0.368-3.047 4.038-6.095 8.077-9.154 12.107-0.154 0.203-0.38 0.404-0.615 0.485-3.023 1.043-6.054 2.063-9.146 3.111m105.78 0.031c-3.002-1.016-5.879-1.965-8.733-2.977-0.501-0.178-1.017-0.54-1.341-0.959-2.251-2.907-4.453-5.852-6.669-8.785-0.827-1.093-1.652-2.187-2.512-3.327 4.878-4.355 9.667-8.631 14.493-12.939 3.197 3.815 6.303 7.504 9.371 11.224 0.2 0.242 0.227 0.752 0.139 1.086-0.524 1.988-1.102 3.962-1.668 5.939-1.01 3.528-2.023 7.056-3.08 10.738m-6.309-29.123c0.024 0.042 0.047 0.084 0.071 0.126-0.082 0.097-0.154 0.205-0.249 0.289-6.437 5.756-12.871 11.515-19.33 17.247-0.347 0.309-0.884 0.476-1.358 0.56-4.547 0.813-9.091 1.651-13.654 2.363-3.385 0.529-6.71 1.513-10.206 1.29-1.845-0.118-3.706 0.012-5.56 0.02-0.437 2e-3 -0.883 0.013-1.311-0.061-6.978-1.197-13.956-2.397-20.927-3.637-0.526-0.093-1.077-0.399-1.481-0.758-6.356-5.644-12.691-11.313-19.027-16.979-0.152-0.136-0.277-0.302-0.415-0.454 0.385 0.059 0.685 0.202 0.977 0.359 11.712 6.276 23.54 12.323 35.55 18.009 0.677 0.32 1.464 0.511 2.213 0.559 5.39 0.342 10.786 0.373 16.176-6e-3 0.749-0.053 1.535-0.24 2.211-0.56 11.977-5.675 23.778-11.701 35.459-17.963 0.279-0.149 0.574-0.27 0.861-0.404m-68.952-17.416c-1.323 1.699-2.529 3.184-3.648 4.733-0.274 0.379-0.425 0.996-0.347 1.454 0.32 1.859 0.712 3.71 1.17 5.54 0.113 0.451 0.49 0.967 0.892 1.193 5.086 2.858 10.196 5.675 15.311 8.48 0.399 0.219 0.88 0.355 1.335 0.392 5.018 0.411 10.041 0.43 15.059 6e-3 0.581-0.049 1.192-0.243 1.706-0.523 4.5-2.456 8.935-5.034 13.49-7.381 1.755-0.904 2.789-1.965 2.949-3.982 0.119-1.5 1.039-3.089 0.722-4.429-0.328-1.381-1.721-2.51-2.65-3.747-0.407-0.541-0.82-1.076-1.295-1.699h7.028c0.047 0.186 0.09 0.28 0.093 0.376 0.15 5.464 0.307 10.927 0.413 16.391 7e-3 0.321-0.337 0.77-0.641 0.956-2.026 1.236-4.189 2.121-6.53 2.619-2.208 0.47-4.368 1.155-6.568 1.668-3.834 0.894-7.651 1.93-11.533 2.54-4.802 0.754-9.612 0.382-14.335-0.87-3.227-0.855-6.471-1.642-9.697-2.498-3.345-0.888-6.804-1.443-9.798-3.375-0.501-0.324-0.78-0.584-0.759-1.236 0.169-5.159 0.294-10.319 0.437-15.479 0.01-0.36 0.058-0.718 0.092-1.129zm-10.793-54.239c0.91 0.875 1.701 1.756 2.614 2.484 1.314 1.049 2.021 2.33 2.202 4.011 0.075 0.696-0.047 1.117-0.521 1.584-3.123 3.078-6.229 6.173-9.321 9.282-0.37 0.372-0.707 0.824-0.918 1.302-2.148 4.874-4.277 9.757-6.378 14.652-0.186 0.434-0.242 0.982-0.18 1.454 0.303 2.339 0.683 4.667 1.004 7.003 0.807 5.878 1.584 11.759 2.415 17.633 0.074 0.522 0.353 1.093 0.71 1.483 2.255 2.462 4.56 4.879 6.846 7.312 0.465 0.495 0.922 0.996 1.382 1.494-0.385 0.01-0.654-0.11-0.914-0.246-3.405-1.784-6.796-3.594-10.223-5.335-0.72-0.366-1.014-0.846-1.155-1.595-1.26-6.658-2.555-13.309-3.817-19.967-0.129-0.682-0.25-1.419-0.131-2.087 0.861-4.844 1.754-9.682 2.704-14.509 0.38-1.931 0.453-3.967 1.699-5.655 0.518-0.702 0.967-1.459 1.409-2.213 1.809-3.083 3.601-6.175 5.404-9.261 1.699-2.908 3.404-5.813 5.169-8.826m66.47 69.84c-0.035-0.051-0.069-0.102-0.103-0.152 2.679-2.851 5.34-5.719 8.049-8.54 0.599-0.624 0.885-1.286 0.999-2.125 1.045-7.687 2.098-15.372 3.204-23.05 0.194-1.348 0.17-2.575-0.519-3.791-0.546-0.964-0.987-1.991-1.426-3.011-1.493-3.463-2.951-6.94-4.457-10.398-0.222-0.509-0.562-1.002-0.954-1.397-2.944-2.973-5.915-5.919-8.875-8.876-0.575-0.575-1.355-1.027-0.944-2.096 0.297-0.774 0.218-1.799 0.705-2.372 1.213-1.428 2.654-2.661 4.055-4.021 0.25 0.398 0.455 0.704 0.64 1.021 3.539 6.058 6.994 12.167 10.655 18.15 1.311 2.143 1.935 4.424 2.405 6.793 0.945 4.758 1.814 9.531 2.699 14.3 0.079 0.424 0.141 0.883 0.063 1.298-1.349 7.124-2.712 14.246-4.114 21.359-0.076 0.383-0.456 0.822-0.813 1.014-3.566 1.914-7.156 3.783-10.74 5.662-0.17 0.089-0.353 0.155-0.529 0.232m-79.797 0.798c0.016-0.067 0.033-0.134 0.05-0.202 0.261 0.037 0.525 0.059 0.782 0.114 6.066 1.296 12.134 2.582 18.194 3.909 0.774 0.169 1.552 0.462 2.243 0.85 4.853 2.722 9.675 5.498 14.531 8.214 0.521 0.291 1.21 0.458 1.803 0.419 5.9-0.396 11.794-0.391 17.694 0 0.592 0.039 1.28-0.135 1.801-0.427 4.944-2.767 9.857-5.588 14.792-8.37 0.517-0.291 1.105-0.502 1.687-0.63 3.918-0.862 7.842-1.694 11.766-2.532 2.573-0.55 5.147-1.093 7.721-1.64-0.239 0.314-0.523 0.483-0.815 0.637-4.355 2.295-8.752 4.515-13.055 6.905-3.384 1.881-6.878 3.373-10.676 4.185-2.14 0.458-4.227 1.157-6.355 1.678-3.694 0.904-7.37 1.927-11.109 2.582-4.183 0.733-8.411 0.46-12.548-0.519-3.279-0.777-6.493-1.839-9.781-2.567-6.533-1.447-12.725-3.698-18.466-7.175-1.755-1.064-3.632-1.928-5.452-2.887-1.604-0.845-3.205-1.696-4.807-2.544m19.394-62.617c0.355-0.12 0.634-0.229 0.921-0.307 3.515-0.953 7.032-1.9 10.548-2.851 0.749-0.202 1.503-0.388 2.238-0.632 0.175-0.058 0.398-0.331 0.385-0.488-0.013-0.154-0.277-0.345-0.468-0.41-0.212-0.073-0.466-0.025-0.702-0.022-4.083 0.045-8.166 0.09-12.249 0.135-0.355 4e-3 -0.711 1e-3 -1.23 1e-3 0.816-1.702 1.535-3.256 2.321-4.775 0.103-0.2 0.557-0.335 0.832-0.311 1.647 0.145 3.288 0.343 4.931 0.526 2.649 0.296 5.296 0.608 7.947 0.876 0.32 0.033 0.662-0.162 0.994-0.252-0.25-0.262-0.456-0.612-0.76-0.768-0.719-0.369-1.484-0.645-2.231-0.958-3.106-1.302-6.211-2.604-9.425-3.952 0.703-1.454 1.368-2.83 2.053-4.249 0.412 0.165 0.724 0.28 1.029 0.412 4.212 1.816 8.419 3.642 12.641 5.435 0.341 0.145 0.78 0.06 1.173 0.083-0.194-0.351-0.315-0.782-0.595-1.039-2.188-2.008-4.402-3.986-6.621-5.959-0.213-0.191-0.513-0.285-0.772-0.423 0.079-0.112 0.159-0.224 0.238-0.336 1.636-0.374 3.265-0.783 4.912-1.091 0.287-0.054 0.741 0.237 0.969 0.498 2.304 2.646 4.569 5.327 6.868 7.978 0.379 0.437 0.497 0.752 0.147 1.302-1.682 2.647-3.305 5.333-4.97 7.992-0.167 0.267-0.433 0.548-0.717 0.656-3.523 1.333-6.903 3.076-10.714 3.576-1.837 0.24-3.649 0.668-5.473 1.005-1.243 0.229-2.488 0.446-3.796 0.681-0.156-0.857-0.287-1.576-0.424-2.333m54.657-4.575c-0.594 0-0.995 4e-3 -1.396-1e-3 -4.047-0.045-8.095-0.103-12.143-0.121-0.378-2e-3 -0.757 0.24-1.136 0.368 0.312 0.237 0.59 0.593 0.941 0.692 2.562 0.729 5.138 1.406 7.709 2.101 1.815 0.491 3.629 0.987 5.501 1.496-0.168 0.833-0.318 1.574-0.479 2.377-0.906-0.163-1.702-0.286-2.489-0.451-4.901-1.029-9.963-1.403-14.568-3.633-0.817-0.396-1.713-0.629-2.527-1.03-0.454-0.224-0.919-0.569-1.196-0.982-1.07-1.596-2.077-3.235-3.087-4.871-0.738-1.196-1.444-2.411-2.163-3.615 2.548-2.978 5.023-5.875 7.511-8.761 0.16-0.185 0.458-0.424 0.641-0.387 1.729 0.348 3.447 0.751 5.356 1.18-1.605 1.447-3.028 2.732-4.455 4.014-1.003 0.902-2.028 1.782-3.003 2.713-0.256 0.243-0.365 0.639-0.541 0.965 0.392-0.014 0.784-0.021 1.174-0.047 0.095-6e-3 0.186-0.075 0.279-0.116 4.117-1.777 8.234-3.555 12.351-5.33 0.33-0.142 0.665-0.27 1.058-0.43 0.697 1.452 1.349 2.809 2.036 4.239-0.42 0.188-0.75 0.344-1.087 0.485-3.326 1.395-6.661 2.773-9.974 4.199-0.499 0.214-0.902 0.651-1.349 0.985 0.559 0.072 1.129 0.255 1.674 0.199 4.026-0.416 8.045-0.89 12.07-1.307 0.324-0.034 0.862 0.122 0.987 0.357 0.787 1.482 1.486 3.01 2.305 4.712m-83.5 38.526c-0.293-0.142-0.433-0.175-0.524-0.26-2.191-2.046-4.384-4.089-6.55-6.161-0.215-0.206-0.309-0.589-0.363-0.906-0.501-2.957-1.005-5.914-1.446-8.88-0.079-0.528-1e-3 -1.159 0.225-1.638 3.689-7.8 7.413-15.582 11.131-23.368 0.124-0.259 0.27-0.507 0.526-0.984 0.05 0.499 0.097 0.747 0.097 0.995-0.017 8.092-0.089 16.184-0.035 24.275 0.021 3.192-0.151 6.322-1.212 9.357-0.088 0.251-0.083 0.533-0.148 0.794-0.553 2.217-1.112 4.432-1.701 6.776m31.695-19.456c-0.3 0.231-0.554 0.443-0.824 0.632-2.842 1.987-5.675 3.987-8.541 5.94-0.638 0.434-0.942 0.956-1.121 1.689-1.613 6.594-2.652 13.281-3.212 20.041-0.072 0.867 0.042 1.816 0.329 2.636 1.782 5.09 3.638 10.154 5.467 15.227 0.105 0.29 0.191 0.586 0.324 0.997-0.225-0.108-0.299-0.123-0.341-0.167-2.917-3.09-5.839-6.176-8.731-9.289-0.216-0.233-0.313-0.667-0.305-1.004 0.152-6.099 0.425-12.196 0.463-18.295 0.023-3.659 1-7.117 1.631-10.658 0.764-4.283 2.219-8.18 4.863-11.704 2.12-2.825 3.874-5.923 5.795-8.897 0.135-0.21 0.312-0.394 0.548-0.688 0.118 0.571 0.183 1.002 0.296 1.42 1.093 4.03 0.897 8.41 3.359 12.12m56.135 47.189c-0.049-0.032-0.098-0.063-0.147-0.095 0.104-0.308 0.202-0.618 0.312-0.924 1.886-5.235 3.78-10.467 5.651-15.708 0.164-0.462 0.298-0.992 0.242-1.467-0.765-6.49-1.209-13.022-3.037-19.36-0.449-1.556-0.801-2.777-2.336-3.664-2.088-1.206-3.969-2.771-5.944-4.174-0.815-0.58-1.644-1.141-2.509-1.74 2.692-4.137 2.287-9.041 3.779-13.515 0.157 0.193 0.25 0.289 0.321 0.399 2.978 4.623 5.96 9.243 8.919 13.878 0.284 0.446 0.494 0.971 0.61 1.488 0.442 1.971 0.832 3.955 1.241 5.934 0.471 2.271 1.234 4.527 1.358 6.817 0.386 7.142 0.544 14.296 0.742 21.447 0.014 0.496-0.243 1.115-0.582 1.485-2.529 2.763-5.11 5.477-7.675 8.206-0.313 0.333-0.63 0.662-0.945 0.993m21.145-69.57c0.017 0.029 0.108 0.162 0.176 0.306 3.808 7.971 7.619 15.942 11.407 23.923 0.158 0.334 0.197 0.782 0.14 1.153-0.472 3.066-0.96 6.13-1.496 9.185-0.074 0.42-0.367 0.865-0.684 1.168-1.535 1.469-3.112 2.895-4.677 4.333-0.607 0.558-1.222 1.106-1.92 1.737-0.653-2.357-1.27-4.554-1.869-6.756-0.622-2.288-0.893-4.611-0.891-6.991 3e-3 -4.014-0.152-8.028-0.177-12.042-0.034-5.36-9e-3 -10.721-9e-3 -16.016m-69.451-12.691c1.491-3.344 2.837-6.387 4.219-9.413 0.104-0.228 0.435-0.393 0.696-0.502 3.719-1.551 7.562-2.378 11.622-2.079 1.545 0.114 3.103 0.046 4.654 0.089 0.431 0.012 0.877 0.073 1.287 0.205 1.733 0.556 3.468 1.114 5.173 1.751 0.411 0.153 0.851 0.544 1.036 0.939 1.187 2.534 2.309 5.099 3.449 7.656 0.155 0.349 0.292 0.707 0.556 1.348-10.975-3.198-21.719-3.181-32.692 6e-3m42.796 23.846c-0.465 2.349-0.847 4.539-1.349 6.701-0.232 0.998-0.577 2.01-1.079 2.898-3.301 5.839-6.942 11.494-9.44 17.76-0.062 0.156-0.199 0.283-0.447 0.625 0.143-2.708 0.286-5.159 0.399-7.61 0.081-1.745 0.262-3.501 0.151-5.236-0.19-2.955-0.733-5.892-0.833-8.847-0.094-2.806 0.191-5.624 0.315-8.592 4.22 0.79 8.18 1.532 12.283 2.301m-40.71-2.277c0.221 2.419 0.472 4.661 0.609 6.909 0.054 0.898-0.141 1.811-0.227 2.717-0.276 2.916-0.721 5.827-0.786 8.747-0.063 2.886 0.27 5.78 0.402 8.673 0.045 0.982 7e-3 1.969 7e-3 3.102-0.143-0.255-0.237-0.385-0.294-0.529-2.361-5.983-5.787-11.402-9.005-16.927-0.827-1.418-1.448-2.859-1.707-4.487-0.311-1.953-0.738-3.887-1.134-5.929 4.069-0.763 8.03-1.506 12.135-2.276m0.828 50.133c0.32 0.34 0.553 0.575 0.772 0.822 2.619 2.954 5.217 5.927 7.873 8.847 0.363 0.399 1.004 0.741 1.53 0.761 2.184 0.084 4.375 0.084 6.559 0 0.525-0.02 1.166-0.362 1.528-0.76 2.656-2.921 5.255-5.893 7.873-8.848 0.232-0.261 0.479-0.51 0.775-0.825 1.865 2.865 3.655 5.614 5.508 8.461-1.431 0.419-2.686 0.798-3.948 1.154-4.757 1.341-9.42 3.155-14.507 2.811-2.385-0.161-4.842 0.045-7.146-0.461-3.845-0.845-7.594-2.127-11.382-3.228-0.281-0.082-0.556-0.185-0.926-0.31 1.838-2.821 3.622-5.556 5.491-8.424m65.807-32.015c-0.061 0.013-0.122 0.027-0.183 0.04-0.354-1.285-0.703-2.572-1.062-3.856-0.805-2.886-1.313-5.899-2.479-8.631-3.36-7.875-6.987-15.636-10.508-23.443-0.132-0.293-0.24-0.597-0.409-1.018 0.253 0.085 0.378 0.11 0.486 0.167 4.358 2.29 8.721 4.572 13.058 6.9 0.297 0.159 0.574 0.66 0.581 1.007 0.194 9.611 0.352 19.222 0.516 28.834m-103.99-1.641c-0.089-0.011-0.178-0.022-0.268-0.034 0-0.76-1e-3 -1.521 1e-3 -2.282 0.012-8.199 0.035-16.398 0.021-24.598-1e-3 -0.741 0.227-1.129 0.892-1.473 4.164-2.153 8.302-4.357 12.452-6.54 0.219-0.115 0.461-0.186 0.835-0.335-0.178 0.43-0.284 0.705-0.404 0.972-1.897 4.213-3.798 8.424-5.695 12.636-2.849 6.327-6.071 12.511-7.335 19.437-0.136 0.744-0.331 1.478-0.499 2.217m15.294-22.216c0.048 0.032 0.096 0.065 0.144 0.098-0.128 0.232-0.251 0.468-0.385 0.698-2.842 4.864-5.706 9.716-8.515 14.599-0.682 1.186-1.441 2.419-1.726 3.726-1.286 5.895-2.426 11.822-3.585 17.743-0.12 0.609-0.113 1.278-6e-3 1.891 0.396 2.258 0.862 4.505 1.296 6.757 0.699 3.637 1.393 7.275 2.129 11.117-0.216-0.272-0.319-0.364-0.374-0.479-2.558-5.357-5.116-10.715-7.653-16.082-0.131-0.276-0.174-0.661-0.1-0.956 0.591-2.383 1.22-4.757 1.837-7.133 1.177-4.533 2.547-9.026 3.472-13.609 0.792-3.925 2.518-7.09 5.426-9.834 2.838-2.678 5.372-5.678 8.04-8.536m72.581 0.215c0.04-0.043 0.08-0.086 0.12-0.13 0.098 0.083 0.204 0.157 0.291 0.249 3.751 4.018 7.509 8.03 11.236 12.071 0.321 0.347 0.513 0.862 0.64 1.333 0.744 2.762 1.448 5.534 2.169 8.301 1.452 5.578 2.919 11.151 4.339 16.737 0.12 0.469 0.065 1.081-0.14 1.518-2.419 5.157-4.883 10.294-7.338 15.435-0.116 0.244-0.261 0.474-0.392 0.711 1.01-6.015 2.157-11.968 3.281-17.925 0.084-0.448 0.082-0.94-2e-3 -1.388-0.887-4.699-1.884-9.379-2.676-14.093-0.55-3.271-1.677-6.227-3.437-9.05-2.816-4.515-5.406-9.172-8.091-13.769m-4.847 43.819c-0.409-0.489-0.626-0.728-0.821-0.985-1.411-1.851-2.836-3.691-4.211-5.568-0.408-0.555-0.843-0.757-1.527-0.709-2.186 0.154-4.377 0.249-6.566 0.362-1.126 0.058-2.253 0.108-3.457 0.165 2.289-6.017 5.363-11.43 8.684-16.824 0.158 0.232 0.249 0.332 0.303 0.45 1.582 3.457 3.102 6.944 4.76 10.364 1.051 2.167 1.945 4.332 2.115 6.775 0.132 1.895 0.448 3.776 0.72 5.97m-46.214-6.783c-0.391 0-0.658 0.012-0.924-1e-3 -3.065-0.154-6.129-0.34-9.196-0.438-0.443-0.014-1.044 0.271-1.323 0.618-1.499 1.866-2.918 3.797-4.368 5.702-0.184 0.241-0.394 0.463-0.774 0.906 0.338-2.65 0.615-4.992 0.943-7.327 0.116-0.826 0.22-1.694 0.558-2.44 1.947-4.295 3.962-8.559 5.957-12.832 0.13-0.28 0.283-0.549 0.465-0.9 3.407 5.384 6.363 10.81 8.662 16.712m-32.105 22.115c-0.191-0.04-0.292-0.039-0.372-0.08-4.004-2.094-8.014-4.178-11.998-6.311-0.313-0.167-0.581-0.644-0.644-1.016-0.963-5.685-1.889-11.377-2.82-17.068-0.055-0.334-0.077-0.672-0.14-1.232 1.84 1.644 3.521 3.048 5.08 4.576 0.848 0.83 1.678 1.779 2.195 2.832 2.853 5.812 5.608 11.672 8.394 17.517 0.109 0.23 0.186 0.475 0.305 0.782m93.983 0.052c-0.044-0.056-0.088-0.111-0.133-0.167 0.111-0.242 0.219-0.485 0.334-0.725 2.495-5.235 5.045-10.444 7.46-15.716 0.933-2.035 2.104-3.791 3.848-5.207 1.255-1.018 2.39-2.182 3.585-3.276 0.203-0.186 0.434-0.343 0.801-0.63-1.038 6.331-2.033 12.451-3.067 18.565-0.049 0.29-0.387 0.609-0.673 0.767-1.416 0.783-2.859 1.517-4.293 2.268-2.621 1.374-5.242 2.747-7.862 4.121m-73.781-82.204c0.159 0.202 0.273 0.319 0.355 0.456 1.474 2.456 2.967 4.903 4.389 7.389 0.182 0.318 0.128 0.91-0.042 1.27-1.997 4.238-4.035 8.456-6.067 12.677-0.123 0.256-0.283 0.493-0.64 1.11-1.263-1.389-2.418-2.615-3.511-3.893-0.246-0.288-0.42-0.774-0.383-1.145 0.443-4.427 0.929-8.85 1.42-13.272 0.027-0.246 0.14-0.537 0.314-0.703 1.361-1.298 2.746-2.57 4.165-3.889m55.223 22.655c-2.274-4.734-4.472-9.284-6.626-13.856-0.131-0.278-6e-3 -0.78 0.167-1.081 1.163-2.014 2.369-4.003 3.566-5.997 0.339-0.564 0.695-1.118 1.083-1.741 1.456 1.347 2.83 2.588 4.156 3.877 0.233 0.225 0.343 0.645 0.382 0.99 0.494 4.388 0.97 8.778 1.428 13.17 0.028 0.267-0.043 0.641-0.217 0.816-1.254 1.259-2.546 2.48-3.939 3.822m-58.444 69.58c-0.02 0.053-0.041 0.105-0.062 0.158-0.226-0.032-0.454-0.049-0.676-0.096-4.685-0.996-9.344-2.138-14.061-2.947-3.779-0.648-7.192-1.894-10.123-4.398-0.612-0.523-1.279-1.022-1.999-1.372-1.529-0.745-2.182-1.939-2.264-3.594-0.052-1.04-0.292-2.071-0.478-3.309 10.039 5.266 19.851 10.412 29.663 15.558m89.574-15.569c-0.284 1.783-0.477 3.285-0.788 4.762-0.098 0.467-0.418 0.999-0.8 1.275-2.298 1.658-4.631 3.268-6.982 4.85-0.515 0.347-1.125 0.621-1.73 0.754-4.709 1.037-9.427 2.032-14.144 3.037-1.722 0.367-3.446 0.724-5.169 1.086-0.022-0.067-0.044-0.134-0.066-0.201 9.813-5.146 19.625-10.291 29.679-15.563m-37.565 18.578c0.02 0.053 0.04 0.107 0.06 0.16-0.104 0.079-0.201 0.17-0.313 0.234-3.898 2.22-7.791 4.448-11.707 6.637-0.38 0.212-0.904 0.272-1.35 0.242-5.832-0.382-11.661-0.389-17.495-8e-3 -0.56 0.037-1.205-0.15-1.703-0.427-3.683-2.051-7.34-4.15-11.003-6.237-0.246-0.14-0.478-0.303-0.716-0.455 1.235 0.152 2.398 0.48 3.576 0.741 4.96 1.096 9.751 2.904 14.885 3.291 4.549 0.343 9.019 0.129 13.439-1.006 4.109-1.055 8.218-2.114 12.327-3.172m24.878-62.669c-0.265-0.137-0.336-0.154-0.378-0.199-4.186-4.484-8.376-8.965-12.541-13.469-0.247-0.267-0.381-0.707-0.424-1.082-0.447-3.952-0.866-7.906-1.288-11.86-0.021-0.202-3e-3 -0.409-3e-3 -0.779 0.927 0.857 1.682 1.625 2.51 2.306 1.016 0.836 1.693 1.861 2.214 3.066 1.405 3.246 2.892 6.456 4.346 9.681 1.827 4.049 3.653 8.098 5.564 12.336m-79.212-27.487c0 0.407 0.012 0.533-2e-3 0.656-0.446 4.09-0.881 8.181-1.363 12.266-0.045 0.39-0.309 0.809-0.586 1.108-3.894 4.208-7.809 8.397-11.715 12.595-0.233 0.251-0.425 0.541-0.637 0.813-0.074-0.066-0.148-0.131-0.221-0.196 0.11-0.272 0.212-0.548 0.332-0.816 3.158-7.007 6.38-13.987 9.441-21.037 1.005-2.314 3.048-3.485 4.751-5.389m18.821 58.548c0.466 1.759 0.978 3.661 1.464 5.571 0.055 0.214-0.02 0.469-0.063 0.7-0.381 2.089-0.764 4.178-1.162 6.265-0.055 0.292-0.142 0.601-0.301 0.846-2.015 3.115-4.04 6.223-6.088 9.317-0.133 0.201-0.505 0.422-0.702 0.374-1.197-0.296-2.375-0.668-3.502-0.998 3.484-7.428 6.924-14.761 10.354-22.075m37.251 22.083c-0.785 0.229-1.661 0.38-2.442 0.738-1.142 0.523-1.725 0.123-2.317-0.877-1.097-1.856-2.231-3.707-3.534-5.42-1.729-2.272-2.521-4.808-3.03-7.578-0.426-2.325-0.46-4.509 0.355-6.722 0.289-0.786 0.46-1.615 0.626-2.211 3.417 7.292 6.859 14.637 10.342 22.07m26.125 34.544c-0.016 0.101-0.033 0.203-0.05 0.305-2.425 0-4.851 0.033-7.275-0.025-0.554-0.013-1.203-0.209-1.636-0.543-4.197-3.233-8.357-6.513-12.526-9.782-0.231-0.181-0.443-0.387-0.731-0.64 1.779-1.585 3.5-3.119 5.269-4.696 0.326 0.423 0.574 0.738 0.816 1.058 2.666 3.526 5.354 7.035 7.981 10.59 0.671 0.908 1.425 1.521 2.526 1.845 1.897 0.557 3.753 1.251 5.626 1.888m-77.614-10.656c-0.423 0.341-0.755 0.614-1.093 0.879-3.343 2.62-6.777 5.135-9.999 7.897-1.937 1.66-3.908 2.515-6.472 2.193-1.504-0.189-3.052-0.035-4.58-0.035-0.01-0.099-0.021-0.198-0.032-0.298 2.023-0.689 4.063-1.336 6.061-2.095 0.615-0.234 1.245-0.675 1.645-1.193 2.885-3.736 5.711-7.516 8.559-11.281 0.193-0.255 0.405-0.495 0.641-0.783 1.791 1.602 3.49 3.123 5.27 4.716m-3.552-78.478c0.085 0.074 0.169 0.149 0.253 0.223-0.136 0.249-0.258 0.507-0.411 0.745-1.622 2.523-3.18 5.091-4.895 7.55-1.472 2.11-2.531 4.332-2.894 6.899-0.216 1.53-0.592 3.038-0.905 4.555-0.394 1.911-1.014 3.806-1.153 5.735-0.31 4.333-0.382 8.683-0.555 13.026-0.042 1.046-0.102 2.092-0.164 3.338-0.115-0.264-0.157-0.321-0.165-0.382-0.866-6.204-1.736-12.407-2.576-18.614-0.054-0.404 0.056-0.874 0.221-1.256 2.055-4.765 4.127-9.522 6.216-14.271 0.185-0.42 0.466-0.824 0.788-1.152 1.608-1.634 3.251-3.233 4.866-4.859 0.483-0.487 0.917-1.023 1.374-1.537m73.321 42.025c-0.056-0.014-0.112-0.029-0.167-0.043-0.149-4.517-0.291-9.034-0.451-13.55-0.044-1.246-2e-3 -2.518-0.246-3.729-0.739-3.662-1.59-7.301-2.416-10.945-0.312-1.377-0.811-2.655-1.622-3.857-2.095-3.101-4.08-6.277-6.105-9.425-0.127-0.198-0.222-0.418-0.333-0.627 2.447 2.176 4.724 4.475 6.981 6.793 0.248 0.256 0.414 0.61 0.561 0.944 2.037 4.656 4.084 9.308 6.072 13.985 0.259 0.611 0.345 1.373 0.267 2.036-0.321 2.746-0.736 5.481-1.118 8.22-0.473 3.399-0.949 6.798-1.423 10.198m-72.89 15.235c-0.064 0.021-0.129 0.041-0.194 0.061-0.139-0.367-0.284-0.732-0.418-1.101-1.614-4.473-3.181-8.963-4.862-13.411-0.601-1.589-0.866-3.119-0.609-4.818 0.404-2.672 0.634-5.371 0.941-8.096 0.118 0.077 0.198 0.099 0.219 0.147 1.667 3.798 3.335 7.595 4.985 11.401 0.169 0.391 0.329 0.834 0.32 1.249-0.108 4.857-0.249 9.712-0.382 14.568m8.631 14.333c0.032-0.063 0.064-0.125 0.096-0.188 1.657 0.439 3.303 0.923 4.972 1.309 4.456 1.029 8.751 2.703 13.376 3.08 4.378 0.357 8.679 0.16 12.929-0.957 1.63-0.428 3.257-0.872 4.885-1.306 2.694-0.717 5.389-1.432 8.083-2.148-0.054 0.2-0.147 0.296-0.259 0.351-4.181 2.04-8.361 4.081-12.551 6.102-0.32 0.154-0.71 0.207-1.072 0.221-2.594 0.106-5.191 0.276-7.785 0.262-5.064-0.028-10.219 0.324-14.699-2.82-0.436-0.306-0.967-0.473-1.452-0.71-2.175-1.065-4.348-2.131-6.523-3.196m41.849-14.813c0.02 0.047 0.04 0.094 0.061 0.141-0.151 0.112-0.291 0.244-0.454 0.335-3.599 1.994-7.197 3.993-10.811 5.96-0.364 0.198-0.829 0.252-1.254 0.289-4.818 0.411-9.637 0.396-14.454-8e-3 -0.485-0.041-1.003-0.164-1.426-0.394-3.498-1.9-6.978-3.833-10.461-5.76-0.209-0.116-0.398-0.269-0.597-0.405 1.883 0.356 3.678 0.92 5.497 1.388 3.737 0.962 7.323 2.464 11.304 2.51 4.877 0.057 9.692 0.044 14.362-1.673 2.084-0.766 4.266-1.264 6.405-1.88 0.607-0.175 1.218-0.336 1.828-0.503m11.346 0.536c-0.07-8e-3 -0.139-0.017-0.209-0.026-0.138-4.909-0.28-9.819-0.403-14.728-7e-3 -0.289 0.1-0.598 0.219-0.869 1.625-3.701 3.259-7.398 4.899-11.092 0.08-0.182 0.225-0.334 0.426-0.624 0.37 3.26 0.748 6.336 1.046 9.42 0.065 0.674-0.056 1.409-0.268 2.058-0.608 1.856-1.307 3.682-1.971 5.519-1.246 3.448-2.493 6.895-3.739 10.342m-7.781 22.352c0.026 0.077 0.053 0.155 0.079 0.232-1.79 0.911-3.578 1.824-5.373 2.726-0.144 0.073-0.327 0.072-0.494 0.097-5.605 0.835-11.21 1.673-16.817 2.495-0.424 0.062-0.873 0.055-1.298-7e-3 -4.773-0.694-9.529-1.546-14.321-2.06-3.154-0.339-5.659-1.939-8.309-3.362 0.281-0.06 0.541-0.057 0.795-0.014 2.825 0.489 5.645 1.006 8.474 1.473 4.846 0.8 9.647 2.024 14.635 1.527 0.864-0.087 1.751 0.075 2.628 0.074 0.738 0 1.488-1e-3 2.212-0.123 4.124-0.694 8.242-1.427 12.363-2.141 1.807-0.313 3.617-0.612 5.426-0.917m-23.238-94.499c1.237 1.637 2.219 3.256 1.833 5.4-0.09 0.498 0.211 1.172 0.536 1.617 0.852 1.17 1.847 2.234 2.723 3.388 0.452 0.595 0.997 0.828 1.707 0.897 1.386 0.135 2.766 0.327 4.148 0.495 4e-3 0.088 8e-3 0.175 0.012 0.263-1.765 0.305-3.364 1.486-5.305 0.851-3.911-1.278-7.812-1.078-11.707 0.073-0.129 0.038-0.261 0.083-0.394 0.09-1.636 0.091-3.034-0.674-4.511-1.183 1.459-0.276 2.905-0.398 4.328-0.649 0.509-0.09 1.074-0.391 1.422-0.772 1.021-1.118 1.987-2.295 2.887-3.514 0.307-0.415 0.571-1.063 0.484-1.536-0.395-2.142 0.585-3.767 1.837-5.42m32.51 49.94c-0.078-0.013-0.157-0.026-0.236-0.039-0.166-1.286-0.346-2.571-0.497-3.86-0.311-2.673-0.63-5.301-1.934-7.773-1.661-3.151-3.049-6.447-4.551-9.682-0.149-0.321-0.275-0.653-0.481-1.144 0.291 0.155 0.409 0.204 0.512 0.274 2.5 1.704 5.018 3.383 7.48 5.141 0.442 0.316 0.79 0.918 0.941 1.455 0.435 1.55 0.608 3.182 1.138 4.694 0.881 2.515 0.7 4.816-0.657 7.118-0.704 1.194-1.151 2.539-1.715 3.816m-64.787 0.03c-0.136-0.04-0.185-0.04-0.194-0.059-1.059-2.33-2.12-4.659-3.158-6.998-0.084-0.189-0.043-0.459 7e-3 -0.676 0.317-1.38 0.655-2.755 0.982-4.132 0.358-1.509 0.354-3.261 1.166-4.463 0.832-1.231 2.454-1.935 3.743-2.851 1.551-1.101 3.116-2.182 4.675-3.272-0.36 1.317-0.827 2.53-1.375 3.704-1.454 3.116-2.951 6.213-4.409 9.326-0.196 0.418-0.328 0.886-0.39 1.343-0.363 2.673-0.697 5.35-1.047 8.078m6.538-66.581c4.001-0.123 7.788-0.24 11.751-0.362-1.171 2.619-2.267 5.072-3.364 7.525-1.17 0.298-2.338 0.6-3.513 0.878-0.054 0.012-0.172-0.19-0.241-0.305-1.507-2.512-3.011-5.025-4.633-7.736m51.402 1e-3c-0.204 0.394-0.324 0.661-0.473 0.911-1.017 1.709-2.042 3.413-3.061 5.119-1.306 2.185-1.3 2.165-3.748 1.644-0.663-0.141-1.038-0.446-1.301-1.073-0.757-1.801-1.581-3.574-2.375-5.359-0.214-0.48-0.417-0.964-0.694-1.606 3.965 0.124 7.743 0.242 11.652 0.364m-11.621 61.578c0.381-0.152 0.466-0.212 0.554-0.217 3.399-0.19 6.798-0.388 10.199-0.538 0.296-0.013 0.702 0.224 0.894 0.471 1.819 2.343 3.609 4.708 5.387 7.082 0.161 0.216 0.324 0.589 0.245 0.798-0.371 0.984-0.825 1.936-1.36 3.149-0.584-1.495-1.116-2.69-1.515-3.928-0.367-1.14-1.12-1.909-1.932-2.746-1.742-1.796-3.723-2.646-6.216-2.307-2.247 0.306-4.062-0.906-6.256-1.764m-43.992 10.73c-0.49-1.092-0.922-1.922-1.224-2.796-0.116-0.336-0.072-0.874 0.131-1.151 1.736-2.365 3.51-4.702 5.317-7.013 0.224-0.286 0.713-0.535 1.068-0.521 2.729 0.105 5.455 0.279 8.182 0.434 0.722 0.041 1.444 0.09 2.166 0.135 0.012 0.094 0.025 0.188 0.037 0.281-1.844 0.677-3.527 1.902-5.651 1.654-2.732-0.319-5.04 0.422-6.809 2.575-0.583 0.709-1.188 1.439-1.582 2.257-0.604 1.254-1.034 2.592-1.635 4.145m39.828 8.894c0.058 0.049 0.116 0.099 0.174 0.148-1.399 1.583-2.799 3.164-4.198 4.747-2.145 2.429-2.145 2.417-5.336 2.606-2.581 0.153-4.92-0.137-6.45-2.648-0.588-0.965-1.495-1.735-2.255-2.594-0.657-0.742-1.312-1.486-1.967-2.228 1.948 1.138 3.826 2.33 5.56 3.705 1.266 1.004 2.651 1.456 4.192 1.471 1.614 0.015 3.184-0.09 4.583-1.182 1.831-1.429 3.792-2.691 5.697-4.025m-3.499-74.149c0.049 0.055 0.097 0.11 0.145 0.166-2.156 2.516-4.311 5.032-6.525 7.615-2.242-2.617-4.382-5.115-6.523-7.614 1.715 0.409 3.34 0.94 4.908 1.605 1.095 0.465 2.078 0.495 3.183 0.021 1.572-0.673 3.205-1.202 4.812-1.793m-17.666 64.221 0.217-0.052c2.266 4.17 4.532 8.34 6.799 12.509-0.058 0.045-0.116 0.09-0.173 0.135-2.773-1.943-5.546-3.886-8.15-5.71 0.458-2.408 0.882-4.645 1.307-6.882m15.712 12.603c-0.051-0.049-0.103-0.098-0.154-0.148 2.271-4.177 4.543-8.354 6.941-12.764 0.496 2.536 0.937 4.794 1.403 7.18-2.651 1.855-5.421 3.794-8.19 5.732m-28.7 0.679c-0.072-0.012-0.145-0.025-0.218-0.037-0.288-1.369-0.622-2.731-0.836-4.111-0.067-0.429 0.069-0.999 0.325-1.349 1.135-1.551 2.273-3.113 3.557-4.538 0.87-0.966 1.986-1.709 2.991-2.552 0.088 0.082 0.175 0.164 0.263 0.247-2.027 4.113-4.054 8.227-6.082 12.34m42.464-12.345c0.07-0.072 0.14-0.145 0.21-0.217 0.929 0.711 1.992 1.302 2.756 2.16 1.409 1.582 2.647 3.315 3.94 4.999 0.172 0.225 0.384 0.553 0.34 0.79-0.28 1.54-0.625 3.068-1.015 4.912-2.17-4.405-4.201-8.524-6.231-12.644m-40.27-7.782c-0.392 1.286-0.721 2.519-1.149 3.716-0.271 0.758-0.222 1.403 0.164 2.103 0.48 0.87 0.869 1.791 1.296 2.69-0.075 0.11-0.151 0.221-0.226 0.332-0.749-0.254-1.528-0.443-2.24-0.775-1.99-0.929-2.621-2.471-1.914-4.558 0.052-0.156 0.036-0.334 0.058-0.5 0.213-1.572 2.256-3.169 4.011-3.008m44.103-0.185c0.695 0.145 1.322 0.112 1.738 0.393 1.374 0.928 2.395 2.001 2.553 3.911 0.134 1.62-0.063 2.68-1.5 3.576-0.937 0.584-1.741 1.219-3.035 0.812 0.459-0.974 0.976-1.912 1.34-2.906 0.19-0.519 0.249-1.17 0.123-1.704-0.307-1.302-0.757-2.57-1.219-4.082m-42.64 0.059c0.907 0 1.708-0.202 2.329 0.046 1.04 0.413 1.923 3.366 1.628 4.507-0.436 1.682-1.957 2.08-3.156 2.901 0.139-0.69 0.32-1.336 0.609-1.929 0.384-0.789 0.36-1.502-0.032-2.291-0.49-0.988-0.871-2.03-1.378-3.234m40.548 7.406c-0.079 0.063-0.158 0.125-0.237 0.188-0.895-0.729-2.006-1.308-2.634-2.22-0.988-1.434-0.442-2.977 0.438-4.334 0.819-1.265 1.58-1.45 3.038-0.84-0.483 1.147-1.01 2.278-1.427 3.449-0.153 0.43-0.15 0.98-0.032 1.427 0.21 0.796 0.562 1.555 0.854 2.33m-25.567-65.383c3.772-0.67 7.499-0.711 11.242-0.074-1.774 0.737-3.564 1.398-5.362 2.038-0.172 0.061-0.41 0.036-0.588-0.029-1.768-0.635-3.529-1.288-5.292-1.935m24.96 2.511c-8e-3 0.077-0.016 0.154-0.024 0.23l-9.857 4.25c1.751-1.824 3.594-3.489 5.454-5.136 0.154-0.137 0.434-0.251 0.621-0.212 1.274 0.265 2.538 0.573 3.806 0.868m-28.876 4.123c-0.042 0.085-0.084 0.171-0.126 0.256-3.222-1.391-6.445-2.782-9.667-4.173 1.286-0.497 2.553-0.806 3.829-1.071 0.187-0.039 0.465 0.077 0.62 0.213 1.79 1.581 3.565 3.181 5.344 4.775m-15.141 4.233c0.474-0.978 0.866-1.789 1.3-2.686 2.839 1.19 5.61 2.352 8.382 3.514-0.027 0.083-0.055 0.165-0.082 0.247-3.139-0.352-6.278-0.703-9.6-1.075m48.093-2.687c0.445 0.929 0.834 1.74 1.289 2.687-3.328 0.371-6.523 0.727-9.718 1.083-0.012-0.075-0.025-0.151-0.037-0.226 2.786-1.166 5.571-2.332 8.466-3.544m-41.196 9.704c1e-3 0.037 2e-3 0.074 4e-3 0.112-3.131 0.842-6.262 1.685-9.479 2.551-0.178-0.934-0.33-1.733-0.508-2.663zm45.063 2.671c-3.246-0.881-6.379-1.731-9.784-2.655h10.301c-0.18 0.925-0.332 1.707-0.517 2.655m-82.356 71.529c-0.05-0.044-0.101-0.088-0.152-0.132 1.58-2.875 3.159-5.75 4.793-8.724 0.581 0.538 1.056 0.979 1.567 1.453-2.113 2.52-4.16 4.961-6.208 7.403m110.2-0.393c-0.067 0.06-0.133 0.119-0.199 0.179-2.001-2.386-4.001-4.773-6.038-7.202 0.586-0.522 1.068-0.952 1.619-1.443 1.597 2.927 3.107 5.697 4.618 8.466m-109.97 19.275c-0.072 0.035-0.143 0.07-0.214 0.104-0.878-1.41-1.759-2.818-2.627-4.234-0.119-0.193-0.233-0.43-0.235-0.648-0.019-1.764-0.011-3.528-0.011-5.293l0.201-0.03 2.886 10.101m112.56-9.945c0.084 0 0.167-1e-3 0.251-2e-3 0 1.54 7e-3 3.081-6e-3 4.622-3e-3 0.33 0.021 0.718-0.134 0.981-0.902 1.527-1.854 3.025-2.789 4.533-0.063-0.029-0.127-0.058-0.191-0.087 0.957-3.349 1.913-6.698 2.869-10.047m-36.611-35.522c-1.443-2.28-1.397-4.047 0.237-6.452 0.885 2.221 1.834 4.413-0.237 6.452m-42.389-6.457c1.606 2.685 1.626 4.7 0.12 6.449-1.516-2.525-1.532-3.163-0.12-6.449m-7.929 7.668c0.653-1.671 1.269-3.248 1.886-4.826 0.119-6e-3 0.238-0.013 0.357-0.02-0.968 2.177-0.287 3.732 1.583 4.846zm54.348-0.011c0.672-0.529 1.109-0.928 1.598-1.245 0.617-0.4 0.838-0.876 0.662-1.616-0.157-0.661-0.173-1.356-0.251-2.036 0.06-0.015 0.121-0.029 0.181-0.043 0.626 1.616 1.251 3.231 1.913 4.94zm-28.085-51.668c0.103 0.031 0.206 0.061 0.308 0.091-0.114 0.506-0.07 1.144-0.367 1.495-1.737 2.048-2.918 4.995-6.534 4.168 0.976-0.393 1.989-0.724 2.923-1.206 0.589-0.304 1.17-0.754 1.563-1.281 0.773-1.037 1.413-2.172 2.107-3.267m12.582 5.766c-3.333 0.028-4.024-0.402-6.621-4.201-0.261-0.381-0.206-0.979-0.297-1.476 0.097-0.023 0.194-0.045 0.291-0.068 0.714 1.131 1.385 2.292 2.162 3.378 0.328 0.457 0.831 0.855 1.341 1.102 1.009 0.487 2.079 0.85 3.124 1.265m7.614 36.803c-0.522 0.911-0.967 1.689-1.46 2.549-0.453-1.179-0.906-2.357-1.445-3.758 1.13 0.47 1.987 0.827 2.905 1.209m-31.554-1.204c-0.545 1.415-0.991 2.574-1.438 3.736-0.524-0.901-0.982-1.689-1.474-2.535 0.935-0.385 1.794-0.74 2.912-1.201m27.658-33.773c-0.112 1.162-0.207 2.159-0.303 3.156-0.072-1e-3 -0.145-2e-3 -0.217-3e-3 -0.198-0.932-0.396-1.863-0.602-2.829 0.403-0.117 0.683-0.198 1.122-0.324m-25.525 0.33c-0.236 1.039-0.442 1.944-0.649 2.849-0.066-5e-3 -0.133-0.011-0.199-0.016-0.09-1.011-0.18-2.023-0.28-3.15 0.422 0.118 0.725 0.204 1.128 0.317" fill="#41b8bc"/></g></g></g></svg>
