<?xml version="1.0" encoding="UTF-8"?>
<svg width="227.99" height="304.4" version="1.1" viewBox="0 0 227.99 304.4" xml:space="preserve" xmlns="http://www.w3.org/2000/svg"><defs><clipPath id="b"><path d="m0 0h841.89v595.28h-841.89z"/></clipPath><clipPath id="a"><path d="m0 0h841.89v595.28h-841.89z"/></clipPath></defs><g transform="matrix(1.3333 0 0 -1.3333 -1125.2 563.95)"><g transform="matrix(-1.3929 0 0 -1.3929 1556.4 337.99)"><g transform="matrix(-.65521 0 0 -.65521 702.98 298.41)"><g clip-path="url(#b)"><g transform="translate(389.5 382.44)"><path d="m0 0h-7.256c-0.165 0-0.323 0.07-0.436 0.193l-5.663 6.184-3.007 2.258c-0.15 0.112-0.24 0.289-0.243 0.479l-0.056 3.476-4.434 11.827-4.173 6.822c-0.03 0.049-0.053 0.102-0.068 0.158l-1.404 5.121-4.515 1.138-10.898 1.052c-0.123 0.012-0.239 0.063-0.333 0.146l-8.523 7.518c-0.053 0.046-0.097 0.102-0.131 0.164l-7.889 14.449c-0.114 0.208-0.098 0.465 0.041 0.656 0.139 0.192 0.373 0.285 0.604 0.233l22.92-4.992c0.031-7e-3 0.062-0.017 0.093-0.029l11.343-4.539 0.289 1.894c0.03 0.196 0.152 0.365 0.327 0.452l11.632 5.815c0.211 0.105 0.464 0.074 0.644-0.079l2.109-1.798h10.596l2.331 1.814c0.18 0.14 0.42 0.164 0.624 0.063l11.632-5.815c0.175-0.087 0.297-0.256 0.327-0.452l0.289-1.894 11.343 4.539c0.03 0.012 0.062 0.022 0.093 0.029l22.92 4.992c0.23 0.053 0.465-0.041 0.604-0.233 0.139-0.191 0.155-0.448 0.041-0.656l-7.889-14.449c-0.034-0.062-0.078-0.118-0.131-0.164l-8.523-7.518c-0.094-0.083-0.21-0.134-0.334-0.146l-10.897-1.052-4.515-1.138-1.404-5.121c-0.015-0.057-0.039-0.112-0.071-0.162l-4.296-6.911-4.308-11.732-0.056-3.478c-3e-3 -0.19-0.093-0.367-0.243-0.479l-3.007-2.258-5.663-6.184c-0.113-0.123-0.271-0.193-0.436-0.193m-6.997 1.215h6.738l5.524 6.033c0.026 0.028 0.053 0.052 0.083 0.075l2.814 2.112 0.053 3.282c1e-3 0.069 0.014 0.138 0.038 0.203l4.366 11.89c0.014 0.039 0.032 0.076 0.055 0.112l4.282 6.889 1.474 5.375c0.058 0.211 0.223 0.374 0.431 0.427l4.895 1.233c0.028 7e-3 0.057 0.012 0.086 0.015l10.752 1.039 8.3 7.321 7.2 13.185-21.589-4.702-11.99-4.798c-0.169-0.067-0.357-0.053-0.514 0.038-0.157 0.092-0.264 0.252-0.292 0.434l-0.356 2.33-11.023 5.51-2.198-1.71c-0.104-0.081-0.231-0.125-0.361-0.125h-11.014c-0.139 0-0.275 0.05-0.382 0.141l-1.978 1.686-11.006-5.502-0.356-2.33c-0.028-0.182-0.135-0.342-0.292-0.434-0.157-0.091-0.346-0.105-0.514-0.038l-11.99 4.798-21.589 4.702 7.2-13.185 8.299-7.321 10.753-1.039c0.029-3e-3 0.058-8e-3 0.086-0.015l4.895-1.233c0.208-0.053 0.373-0.216 0.431-0.427l1.474-5.378 4.159-6.798c0.02-0.033 0.037-0.068 0.051-0.104l4.492-11.982c0.024-0.067 0.038-0.137 0.039-0.207l0.052-3.282 2.815-2.112c0.03-0.023 0.057-0.047 0.083-0.075z" fill="#41b8bc"/></g><g transform="translate(366.35 435.95)"><path d="m0 0c-0.112 0-0.223 0.032-0.321 0.095l-4.003 2.607-13.672 4.999-24.66 11.206c-0.066 0.03-0.126 0.072-0.177 0.123l-12.698 12.863c-0.067 0.068-0.117 0.151-0.146 0.242l-4.838 15.066-2.589 14.23-5.203 8.091c-0.058 0.088-0.091 0.19-0.097 0.295l-0.518 8.37c-0.018 0.281 0.156 0.537 0.421 0.619 0.263 0.081 0.548-0.032 0.688-0.275l4.753-8.311 3.368-1.873-0.657 2.402c-0.029 0.106-0.03 0.217-2e-3 0.322l1.123 4.229c0.073 0.276 0.328 0.456 0.603 0.448 0.279-0.013 0.511-0.221 0.559-0.502l0.668-3.921 1.748-2.567 3.767 2.612 5.996 7.076c0.074 0.088 0.171 0.152 0.279 0.185l3.455 1.057c0.232 0.071 0.485-9e-3 0.637-0.203 0.152-0.193 0.173-0.462 0.053-0.678l-3.369-6.079-4.449-11.104 1.849-1.279 5.93 0.413 5.792 4.303c0.22 0.162 0.521 0.153 0.731-0.024s0.275-0.476 0.159-0.727l-4.117-8.898c-0.035-0.074-0.083-0.141-0.144-0.195l-8.231-7.443-1.382-6.801 7.478-13.284 19.992-9.125-5.246 4.484c-0.102 0.088-0.172 0.207-0.2 0.34l-2.073 9.956c-0.022 0.103-0.016 0.21 0.015 0.311l2.822 8.984v3.958c0 0.291 0.203 0.541 0.484 0.596 0.279 0.054 0.559-0.1 0.665-0.371l1.382-3.524c0.033-0.082 0.047-0.17 0.042-0.259l-0.593-10.886 5.869-8.295 13.884-10.448-7.949 9.896c-0.054 0.066-0.093 0.143-0.115 0.226l-2.678 10.132c-0.034 0.129-0.025 0.266 0.025 0.389l4.799 11.888 0.34 5.889c0.016 0.286 0.226 0.521 0.503 0.565 0.278 0.043 0.547-0.116 0.648-0.382l2.159-5.727c0.046-0.121 0.052-0.253 0.019-0.378l-3.225-12.032 3.761-8.268 10.57-12.534c0.023-0.027 0.043-0.056 0.061-0.087l4.472-7.719c0.085-0.146 0.106-0.321 0.059-0.483-0.048-0.162-0.16-0.297-0.309-0.372l-8.705-4.351c-0.083-0.041-0.172-0.062-0.262-0.062m-42.071 19.971 24.519-11.143 13.693-5.005c0.042-0.015 0.082-0.036 0.12-0.06l3.777-2.46 7.826 3.912-4.118 7.107-10.59 12.558c-0.036 0.042-0.066 0.09-0.089 0.141l-3.887 8.545c-0.059 0.131-0.071 0.278-0.034 0.416l3.231 12.054-1.101 2.918-0.184-3.186c-3e-3 -0.067-0.018-0.133-0.043-0.196l-4.761-11.791 2.592-9.806 10.89-13.555c0.19-0.237 0.178-0.582-0.03-0.804-0.206-0.222-0.543-0.252-0.785-0.07l-17.795 13.391c-0.049 0.037-0.093 0.082-0.129 0.133l-6.047 8.546c-0.079 0.114-0.119 0.251-0.112 0.39l0.598 10.966-0.184 0.469v-0.897c0-0.063-0.01-0.125-0.028-0.185l-2.803-8.921 1.998-9.593 8.367-7.152c0.228-0.194 0.28-0.531 0.122-0.788s-0.475-0.358-0.748-0.232l-24.073 10.987c-0.115 0.053-0.211 0.141-0.274 0.252l-7.687 13.656c-0.073 0.129-0.096 0.28-0.067 0.426l1.468 7.224c0.026 0.128 0.092 0.244 0.189 0.331l8.287 7.494 3.07 6.636-4.047-3.006c-0.09-0.067-0.198-0.107-0.31-0.115l-6.305-0.44c-0.129-0.012-0.265 0.026-0.375 0.103l-2.419 1.674c-0.233 0.161-0.324 0.467-0.217 0.733l4.664 11.629 2.675 4.833-1.872-0.572-5.934-7.003c-0.033-0.04-0.073-0.075-0.115-0.105l-4.319-2.995c-0.271-0.187-0.638-0.119-0.825 0.156l-2.16 3.171c-0.049 0.073-0.082 0.156-0.097 0.243l-0.231 1.354-0.378-1.424 0.992-3.627c0.065-0.236-0.015-0.487-0.203-0.639-0.186-0.152-0.446-0.175-0.655-0.058l-4.752 2.643c-0.095 0.053-0.174 0.131-0.229 0.227l-3.569 6.241 0.349-5.647 5.183-8.06c0.043-0.067 0.073-0.143 0.088-0.222l2.591-14.272 4.774-14.849z" fill="#41b8bc"/></g><g transform="translate(385.51 323.97)"><path d="m0 0c-0.151 0-0.303 0.059-0.419 0.176l-25.674 25.902c-0.055 0.055-0.099 0.122-0.129 0.195l-5.322 12.774c-0.048 0.114-0.06 0.239-0.035 0.36l2.665 13.155v3.197c0 0.09 0.02 0.18 0.058 0.261l5.839 12.525 3.355 19.111c0.058 0.33 0.367 0.548 0.691 0.491 0.324-0.06 0.539-0.375 0.482-0.706l-3.369-19.19c-9e-3 -0.053-0.025-0.105-0.048-0.154l-5.816-12.475v-3.123c0-0.041-5e-3 -0.082-0.013-0.123l-2.64-13.029 5.203-12.489 25.172-25.396 25.171 25.396 5.204 12.489-2.641 13.029c-8e-3 0.041-0.012 0.082-0.012 0.123v3.123l-5.816 12.475c-0.025 0.054-0.043 0.111-0.051 0.17l-2.856 19.191c-0.049 0.331 0.175 0.641 0.5 0.691 0.324 0.046 0.629-0.178 0.679-0.51l2.842-19.101 5.836-12.518c0.038-0.081 0.057-0.171 0.057-0.261v-3.197l2.666-13.155c0.024-0.121 0.012-0.246-0.035-0.36l-5.322-12.774c-0.03-0.073-0.074-0.14-0.13-0.195l-25.673-25.902c-0.116-0.117-0.268-0.176-0.419-0.176" fill="#41b8bc"/></g><g transform="translate(385.87 411.28)"><path d="m0 0c-0.142 0-0.285 0.052-0.399 0.156l-4.319 3.964c-0.117 0.108-0.187 0.258-0.196 0.42l-1.296 24.58c-8e-3 0.166 0.051 0.329 0.163 0.45s0.269 0.19 0.432 0.19h11.014c0.165 0 0.322-0.07 0.435-0.192 0.113-0.123 0.17-0.288 0.159-0.456l-1.598-24.668c-9e-3 -0.147-0.071-0.285-0.173-0.389l-3.801-3.877c-0.116-0.118-0.268-0.178-0.421-0.178m-3.737 4.856 3.715-3.411 3.243 3.307 1.541 23.793h-9.748z" fill="#41b8bc"/></g><g transform="translate(373.43 394.54)"><path d="m0 0c-0.042 0-0.084 4e-3 -0.126 0.014-0.322 0.07-0.526 0.394-0.457 0.722l1.622 7.665c0.033 0.154 0.122 0.288 0.251 0.376l4.56 3.117 1.683 9.525c0.058 0.33 0.371 0.547 0.692 0.491 0.324-0.06 0.539-0.376 0.481-0.706l-1.728-9.779c-0.028-0.163-0.12-0.306-0.255-0.398l-4.57-3.123-1.571-7.425c-0.06-0.284-0.307-0.479-0.582-0.479" fill="#41b8bc"/></g><g transform="translate(398.31 394.54)"><path d="m0 0c-0.259 0-0.498 0.174-0.573 0.44l-2.015 7.181-4.59 3.136c-0.133 0.092-0.225 0.234-0.254 0.395l-1.792 9.962c-0.059 0.33 0.155 0.647 0.479 0.707 0.321 0.061 0.633-0.157 0.693-0.488l1.747-9.709 4.561-3.117c0.117-0.08 0.203-0.199 0.242-0.337l2.075-7.395c0.091-0.323-0.092-0.659-0.409-0.752-0.054-0.015-0.11-0.023-0.164-0.023" fill="#41b8bc"/></g><g transform="translate(395.2 388.67)"><path d="m0 0h-18.658c-0.329 0-0.596 0.272-0.596 0.608 0 0.335 0.267 0.607 0.596 0.607h18.658c0.329 0 0.596-0.272 0.596-0.607 0-0.336-0.267-0.608-0.596-0.608" fill="#41b8bc"/></g><g transform="translate(359.83 349.87)"><path d="m0 0c-0.08 0-0.161 0.017-0.239 0.051-0.301 0.135-0.438 0.493-0.306 0.801l16.706 38.794c0.131 0.307 0.482 0.448 0.785 0.311 0.301-0.135 0.437-0.493 0.305-0.8l-16.705-38.794c-0.098-0.228-0.317-0.363-0.546-0.363" fill="#41b8bc"/></g><g transform="translate(385.51 323.97)"><path d="M 0,0 C -0.261,0 -0.5,0.176 -0.574,0.445 L -14.84,52.84 c -0.088,0.323 0.098,0.658 0.415,0.748 0.315,0.089 0.645,-0.1 0.733,-0.423 L 0.574,0.77 C 0.663,0.447 0.477,0.112 0.16,0.022 0.107,0.007 0.053,0 0,0" fill="#41b8bc"/></g><g transform="translate(354.51 362.65)"><path d="m0 0c-0.088 0-0.176 0.02-0.261 0.061-0.296 0.147-0.418 0.511-0.274 0.813l17.289 36.181c0.144 0.302 0.501 0.426 0.797 0.28 0.296-0.147 0.419-0.511 0.275-0.813l-17.29-36.181c-0.103-0.216-0.315-0.341-0.536-0.341" fill="#41b8bc"/></g><g transform="translate(357.19 375.86)"><path d="m0 0c-0.093 0-0.187 0.022-0.274 0.068-0.292 0.155-0.406 0.522-0.254 0.82l13.366 26.245c0.152 0.298 0.513 0.414 0.804 0.259 0.292-0.154 0.405-0.521 0.254-0.819l-13.367-26.245c-0.106-0.209-0.314-0.328-0.529-0.328" fill="#41b8bc"/></g><g transform="translate(363.06 391.72)"><path d="m0 0c-0.074 0-0.15 0.014-0.223 0.044-0.305 0.126-0.452 0.481-0.329 0.791l5.874 14.802c0.123 0.311 0.469 0.462 0.776 0.335 0.305-0.126 0.452-0.48 0.329-0.791l-5.874-14.801c-0.094-0.237-0.317-0.38-0.553-0.38" fill="#41b8bc"/></g><g transform="translate(411.18 349.87)"><path d="m0 0c-0.233 0-0.454 0.14-0.55 0.372l-15.984 38.794c-0.127 0.309 0.015 0.665 0.319 0.795 0.303 0.131 0.652-0.015 0.78-0.324l15.984-38.794c0.127-0.309-0.015-0.666-0.319-0.796-0.075-0.032-0.153-0.047-0.23-0.047" fill="#41b8bc"/></g><g transform="translate(385.68 324.18)"><path d="m0 0c-0.053 0-0.107 7e-3 -0.16 0.022-0.317 0.09-0.503 0.425-0.414 0.749l14.377 52.686c0.089 0.323 0.417 0.513 0.734 0.423 0.317-0.091 0.503-0.426 0.415-0.749l-14.378-52.686c-0.074-0.269-0.313-0.445-0.574-0.445" fill="#41b8bc"/></g><g transform="translate(416.5 362.65)"><path d="m0 0c-0.222 0-0.435 0.127-0.538 0.345l-16.768 35.652c-0.143 0.303-0.017 0.666 0.279 0.811s0.653 0.017 0.795-0.285l16.769-35.653c0.142-0.302 0.017-0.665-0.28-0.81-0.083-0.041-0.17-0.06-0.257-0.06" fill="#41b8bc"/></g><g transform="translate(413.83 375.86)"><path d="m0 0c-0.217 0-0.426 0.121-0.531 0.332l-12.834 25.75c-0.149 0.299-0.032 0.665 0.261 0.817 0.294 0.153 0.652 0.033 0.801-0.266l12.834-25.75c0.149-0.299 0.032-0.665-0.261-0.817-0.087-0.045-0.179-0.066-0.27-0.066" fill="#41b8bc"/></g><g transform="translate(407.94 391.93)"><path d="M 0,0 C -0.245,0 -0.474,0.155 -0.561,0.404 L -5.7,15.087 c -0.111,0.316 0.051,0.663 0.361,0.776 0.309,0.114 0.65,-0.052 0.761,-0.368 L 0.561,0.812 C 0.672,0.496 0.51,0.148 0.2,0.035 0.134,0.011 0.066,0 0,0" fill="#41b8bc"/></g><g transform="translate(379.82 405.47)"><path d="m0 0c-0.212 0-0.418 0.116-0.526 0.32l-5.578 10.616c-0.111 0.212-0.089 0.472 0.056 0.661l6.792 8.891c0.202 0.265 0.578 0.311 0.837 0.106 0.259-0.207 0.306-0.588 0.104-0.853l-6.555-8.579 5.395-10.267c0.155-0.296 0.046-0.664-0.244-0.823-0.089-0.049-0.186-0.072-0.281-0.072" fill="#41b8bc"/></g></g></g><g transform="matrix(-.65521 0 0 -.65521 457.66 25.454)"><path d="m0 0-4.844 3.825-3.621-1.387 4.06-3.701z" fill="#41b8bc"/></g><g transform="matrix(-.65521 0 0 -.65521 702.98 298.41)"><g clip-path="url(#a)"><g transform="translate(375.68 417.96)"><path d="m0 0c-0.126 0-0.253 0.04-0.36 0.124l-6.911 5.361-4.963-4.217c-0.252-0.215-0.628-0.18-0.839 0.078-0.21 0.257-0.176 0.641 0.077 0.855l5.326 4.528c0.213 0.181 0.522 0.188 0.742 0.017l7.289-5.655c0.262-0.203 0.313-0.584 0.114-0.851-0.118-0.157-0.295-0.24-0.475-0.24" fill="#41b8bc"/></g><g transform="translate(369.69 419.3)"><path d="m0 0c-0.255 0-0.491 0.168-0.569 0.431l-1.246 4.172c-0.015 0.05-0.024 0.101-0.026 0.153l-0.251 6.369-2.147 3.143c-0.188 0.275-0.122 0.654 0.148 0.846 0.272 0.192 0.642 0.124 0.83-0.151l2.246-3.289c0.065-0.095 0.102-0.208 0.107-0.323l0.255-6.468 1.223-4.099c0.096-0.32-0.081-0.66-0.396-0.758-0.058-0.018-0.116-0.026-0.174-0.026" fill="#41b8bc"/></g><g transform="translate(366.86 418.24)"><path d="m0 0c-0.033 0-0.066 3e-3 -0.099 8e-3l-3.62 0.617c-0.149 0.025-0.283 0.108-0.375 0.23l-8.645 11.523-23.408 12.566c-0.292 0.156-0.403 0.524-0.25 0.821 0.153 0.298 0.514 0.411 0.804 0.254l23.525-12.628c0.076-0.04 0.143-0.098 0.195-0.168l8.582-11.439 3.388-0.577c0.325-0.056 0.544-0.368 0.49-0.699-0.049-0.298-0.301-0.508-0.587-0.508" fill="#41b8bc"/></g><g transform="translate(405.1 418.24)"><path d="m0 0c-0.283 0-0.535 0.207-0.586 0.501-0.057 0.331 0.159 0.646 0.482 0.705l3.18 0.576 8.801 11.447c0.051 0.067 0.116 0.122 0.189 0.161l23.308 12.628c0.291 0.158 0.652 0.045 0.806-0.251 0.154-0.297 0.044-0.665-0.247-0.822l-23.196-12.567-8.863-11.529c-0.091-0.117-0.221-0.197-0.365-0.223l-3.404-0.617c-0.035-6e-3 -0.071-9e-3 -0.105-9e-3" fill="#41b8bc"/></g><g transform="translate(366.43 410.91)"><path d="m0 0c-0.147 0-0.293 0.055-0.408 0.165-0.24 0.23-0.251 0.615-0.026 0.859l3.916 4.245c0.227 0.244 0.603 0.256 0.843 0.026 0.239-0.231 0.251-0.615 0.025-0.86l-3.916-4.244c-0.118-0.127-0.276-0.191-0.434-0.191" fill="#41b8bc"/></g><g transform="translate(391.46 405.2)"><path d="m0 0c-0.097 0-0.194 0.024-0.285 0.074-0.289 0.161-0.395 0.53-0.237 0.825l5.636 10.536-6.553 8.576c-0.202 0.265-0.156 0.647 0.104 0.853 0.259 0.206 0.634 0.159 0.836-0.106l6.793-8.891c0.146-0.191 0.167-0.452 0.053-0.664l-5.824-10.887c-0.108-0.202-0.312-0.316-0.523-0.316" fill="#41b8bc"/></g></g></g><g transform="matrix(-.65521 0 0 -.65521 442.78 25.454)"><path d="m0 0 4.845 3.825 3.62-1.387-4.06-3.701z" fill="#41b8bc"/></g><g transform="matrix(-.65521 0 0 -.65521 443.61 24.554)"><path d="m0 0c-0.18 0-0.357 0.083-0.475 0.24-0.199 0.267-0.148 0.648 0.114 0.851l7.288 5.655c0.225 0.173 0.54 0.164 0.752-0.026l5.363-4.757c0.248-0.22 0.274-0.604 0.058-0.857s-0.592-0.281-0.84-0.06l-4.997 4.433-6.903-5.355c-0.107-0.084-0.234-0.124-0.36-0.124" fill="#41b8bc"/></g><g transform="matrix(-.65521 0 0 -.65521 439.69 23.678)"><path d="m0 0c-0.058 0-0.116 8e-3 -0.174 0.026-0.315 0.098-0.492 0.438-0.396 0.759l1.224 4.098 0.255 6.468c4e-3 0.115 0.041 0.227 0.106 0.323l2.246 3.289c0.188 0.276 0.559 0.344 0.83 0.151 0.269-0.192 0.336-0.571 0.148-0.846l-2.146-3.143-0.252-6.369c-2e-3 -0.052-0.011-0.103-0.025-0.153l-1.247-4.173c-0.078-0.262-0.314-0.43-0.569-0.43" fill="#41b8bc"/></g><g transform="matrix(-.65521 0 0 -.65521 437.55 29.554)"><path d="m0 0c-0.171 0-0.342 0.075-0.459 0.22l-3.917 4.829c-0.21 0.258-0.175 0.641 0.079 0.855 0.253 0.214 0.629 0.178 0.839-0.081l3.917-4.828c0.209-0.258 0.174-0.642-0.08-0.855-0.111-0.094-0.245-0.14-0.379-0.14" fill="#41b8bc"/></g><g transform="matrix(-.65521 0 0 -.65521 450.39 85.998)"><path d="m0 0c-0.329 0-0.596 0.272-0.596 0.608v58.259c0 0.336 0.267 0.608 0.596 0.608s0.596-0.272 0.596-0.608v-58.259c0-0.336-0.267-0.608-0.596-0.608" fill="#41b8bc"/></g><g transform="matrix(-.65521 0 0 -.65521 462.94 12.768)"><path d="m0 0c-0.329 0-0.596 0.272-0.596 0.608v8.777l-6.347 15.659c-0.126 0.31 0.019 0.665 0.323 0.793 0.306 0.129 0.653-0.019 0.778-0.329l6.392-15.77c0.03-0.073 0.046-0.153 0.046-0.232v-8.898c0-0.336-0.267-0.608-0.596-0.608" fill="#41b8bc"/></g><g transform="matrix(-.65521 0 0 -.65521 460.43 11.513)"><path d="m0 0h-0.024c-0.329 0.014-0.585 0.297-0.572 0.632l0.403 10.156c0.013 0.336 0.287 0.597 0.62 0.583 0.329-0.014 0.584-0.297 0.571-0.632l-0.403-10.156c-0.013-0.327-0.277-0.583-0.595-0.583" fill="#41b8bc"/></g><g transform="matrix(-.65521 0 0 -.65521 470.58 -2.3565)"><path d="m0 0c-0.028 0-0.055 2e-3 -0.083 6e-3 -0.326 0.046-0.553 0.353-0.508 0.685l1.382 10.132c0.046 0.332 0.348 0.561 0.672 0.518 0.326-0.047 0.553-0.353 0.508-0.686l-1.382-10.131c-0.041-0.304-0.297-0.524-0.589-0.524" fill="#41b8bc"/></g><g transform="matrix(-.65521 0 0 -.65521 472.34 -8.9946)"><path d="m0 0c-0.106 0-0.213 0.029-0.31 0.089-0.281 0.175-0.37 0.55-0.198 0.836l7.343 12.246c0.171 0.287 0.539 0.376 0.819 0.201s0.369-0.549 0.197-0.835l-7.342-12.246c-0.113-0.188-0.308-0.291-0.509-0.291" fill="#41b8bc"/></g><g transform="matrix(-.65521 0 0 -.65521 465.6 11.036)"><path d="m0 0c-0.147 0-0.294 0.055-0.409 0.166l-13.364 12.862c-0.239 0.231-0.25 0.615-0.025 0.859 0.226 0.244 0.603 0.255 0.843 0.025l13.364-12.862c0.239-0.231 0.25-0.615 0.024-0.859-0.117-0.127-0.275-0.191-0.433-0.191" fill="#41b8bc"/></g><g transform="matrix(-.65521 0 0 -.65521 473.86 3.0873)"><path d="m0 0c-0.271 0-0.517 0.19-0.58 0.471l-1.822 8.044c-0.074 0.327 0.126 0.653 0.447 0.729 0.324 0.071 0.641-0.129 0.714-0.456l1.822-8.043c0.074-0.328-0.126-0.654-0.446-0.73-0.046-0.01-0.091-0.015-0.135-0.015" fill="#41b8bc"/></g><g transform="matrix(-.65521 0 0 -.65521 480.03 -2.2408)"><path d="m0 0c-0.036 0-0.073 3e-3 -0.111 0.01-0.323 0.062-0.536 0.38-0.476 0.71l1.555 8.458c0.061 0.33 0.371 0.547 0.696 0.485 0.323-0.062 0.536-0.379 0.476-0.709l-1.555-8.458c-0.054-0.292-0.304-0.496-0.585-0.496" fill="#41b8bc"/></g><g transform="matrix(-.65521 0 0 -.65521 481.39 -8.7639)"><path d="m0 0c-0.082 0-0.165 0.017-0.244 0.053-0.3 0.138-0.434 0.498-0.299 0.804l4.232 9.603c0.135 0.306 0.487 0.443 0.788 0.305 0.3-0.138 0.434-0.498 0.299-0.804l-4.232-9.603c-0.1-0.225-0.317-0.358-0.544-0.358" fill="#41b8bc"/></g><g transform="matrix(-.65521 0 0 -.65521 474.6 7.7455)"><path d="M 0,0 C -0.128,0 -0.257,0.042 -0.366,0.128 L -24.207,19.07 c -0.26,0.206 -0.306,0.588 -0.104,0.853 0.203,0.264 0.577,0.312 0.836,0.106 L 0.367,1.087 C 0.626,0.881 0.673,0.499 0.47,0.234 0.353,0.08 0.177,0 0,0" fill="#41b8bc"/></g><g transform="matrix(-.65521 0 0 -.65521 490.73 .41442)"><path d="m0 0c-0.251 0-0.483 0.162-0.566 0.418l-6.852 21.227-1.222 0.937c-0.263 0.202-0.316 0.583-0.118 0.851 0.197 0.27 0.572 0.323 0.834 0.121l1.372-1.052c0.097-0.075 0.169-0.178 0.208-0.296l6.91-21.408c0.103-0.319-0.067-0.663-0.38-0.768-0.062-0.02-0.124-0.03-0.186-0.03" fill="#41b8bc"/></g><g transform="matrix(-.65521 0 0 -.65521 499.02 -8.4013)"><path d="m0 0c-0.037 0-0.074 4e-3 -0.111 0.011-0.264 0.05-0.462 0.275-0.483 0.549l-1.523 19.76c-6e-3 0.072 1e-3 0.144 0.02 0.214l5.097 18.237c0.09 0.322 0.419 0.509 0.736 0.417 0.316-0.092 0.5-0.428 0.41-0.751l-5.067-18.131 1.342-17.415 6.243 13.159c0.145 0.303 0.5 0.428 0.796 0.283 0.297-0.147 0.42-0.51 0.277-0.812l-7.201-15.178c-0.101-0.212-0.311-0.343-0.536-0.343" fill="#41b8bc"/></g><g transform="matrix(-.65521 0 0 -.65521 500.01 -21.348)"><path d="m 0,0 c -0.178,0 -0.355,0.081 -0.473,0.237 -0.2,0.266 -0.152,0.648 0.109,0.852 L 8.62,8.137 C 8.881,8.342 9.255,8.293 9.455,8.026 9.656,7.76 9.607,7.379 9.347,7.174 L 0.363,0.126 C 0.254,0.041 0.127,0 0,0" fill="#41b8bc"/></g><g transform="matrix(-.65521 0 0 -.65521 500 -21.114)"><path d="m0 0c-0.199 0-0.388 0.101-0.499 0.275l-5.988 9.344c-0.18 0.28-0.102 0.657 0.173 0.841 0.275 0.182 0.645 0.104 0.825-0.177l5.769-9.002 16.683 3.276c0.32 0.064 0.635-0.152 0.698-0.482 0.062-0.329-0.15-0.648-0.473-0.711l-17.076-3.353c-0.037-7e-3 -0.075-0.011-0.112-0.011" fill="#41b8bc"/></g><g transform="matrix(-.65521 0 0 -.65521 498.72 -25.966)"><path d="m0 0c-0.163 0-0.325 0.068-0.443 0.201l-8.88 10.043c-0.22 0.249-0.201 0.634 0.043 0.859 0.245 0.225 0.621 0.205 0.842-0.045l8.881-10.043c0.22-0.25 0.2-0.634-0.044-0.859-0.114-0.105-0.257-0.156-0.399-0.156" fill="#41b8bc"/></g><g transform="matrix(-.65521 0 0 -.65521 497.95 -28.722)"><path d="m0 0c-0.103 0-0.207 0.027-0.303 0.084l-5.304 3.195c-0.283 0.171-0.378 0.543-0.21 0.832s0.533 0.383 0.816 0.215l5.304-3.195c0.283-0.171 0.378-0.543 0.211-0.832-0.112-0.192-0.31-0.299-0.514-0.299" fill="#41b8bc"/></g><g transform="matrix(-.65521 0 0 -.65521 501.29 -30.729)"><path d="m 0,0 c -0.25,0 -0.482,0.161 -0.565,0.416 -0.104,0.318 0.065,0.662 0.377,0.768 l 2.72,0.923 C 2.846,2.216 3.182,2.041 3.286,1.722 3.39,1.404 3.221,1.06 2.909,0.954 L 0.188,0.031 C 0.126,0.01 0.062,0 0,0" fill="#41b8bc"/></g><g transform="matrix(-.65521 0 0 -.65521 437.91 12.437)"><path d="m0 0c-0.09 0-0.179 0.021-0.262 0.062l-8.705 4.351c-0.149 0.075-0.261 0.21-0.309 0.372-0.047 0.162-0.026 0.337 0.059 0.483l4.471 7.718c0.018 0.031 0.039 0.061 0.062 0.088l10.57 12.534 3.761 8.268-3.225 12.032c-0.034 0.125-0.027 0.257 0.018 0.378l2.16 5.726c0.101 0.267 0.372 0.425 0.648 0.383 0.277-0.044 0.487-0.279 0.503-0.565l0.34-5.889 4.799-11.888c0.05-0.123 0.058-0.26 0.024-0.389l-2.678-10.132c-0.022-0.083-0.061-0.16-0.114-0.227l-7.949-9.895 13.884 10.449 5.868 8.294-0.593 10.886c-4e-3 0.088 0.01 0.176 0.042 0.259l1.382 3.524c0.107 0.271 0.39 0.425 0.666 0.371 0.28-0.055 0.483-0.305 0.483-0.596v-3.958l2.823-8.984c0.031-0.101 0.037-0.208 0.015-0.312l-2.073-9.955c-0.028-0.133-0.098-0.252-0.2-0.339l-5.247-4.485 19.992 9.124 7.479 13.284-1.382 6.802-8.231 7.442c-0.06 0.055-0.109 0.121-0.144 0.195l-4.117 8.899c-0.117 0.251-0.051 0.55 0.159 0.727 0.21 0.178 0.511 0.187 0.73 0.024l5.793-4.303 5.93-0.414 1.848 1.28-4.482 11.173-3.336 6.01c-0.119 0.216-0.098 0.485 0.054 0.678 0.151 0.194 0.404 0.274 0.636 0.203l3.455-1.058c0.109-0.033 0.206-0.097 0.28-0.184l5.995-7.076 3.767-2.612 1.748 2.567 0.669 3.92c0.048 0.281 0.28 0.49 0.56 0.503 0.276 0.015 0.529-0.173 0.602-0.448l1.122-4.229c0.028-0.105 0.028-0.217-1e-3 -0.322l-0.657-2.403 3.366 1.874 4.755 8.311c0.138 0.243 0.422 0.358 0.688 0.275 0.264-0.082 0.438-0.338 0.42-0.619l-0.518-8.37c-6e-3 -0.105-0.039-0.207-0.096-0.295l-5.203-8.091-2.57-14.152-4.857-15.144c-0.029-0.091-0.08-0.174-0.147-0.242l-12.698-12.863c-0.051-0.052-0.111-0.094-0.177-0.124l-24.618-11.189-13.713-5.015-4.004-2.607c-0.097-0.063-0.208-0.095-0.32-0.095m-7.864 5.215 7.826-3.912 3.778 2.46c0.037 0.024 0.077 0.044 0.119 0.06l13.734 5.021 24.477 11.127 12.519 12.681 4.793 14.927 2.572 14.194c0.014 0.079 0.045 0.155 0.088 0.222l5.182 8.059 0.35 5.648-3.57-6.241c-0.054-0.096-0.133-0.174-0.229-0.227l-4.751-2.643c-0.209-0.118-0.467-0.095-0.656 0.058-0.188 0.151-0.267 0.403-0.203 0.638l0.993 3.628-0.379 1.423-0.23-1.353c-0.016-0.087-0.048-0.17-0.098-0.243l-2.16-3.171c-0.185-0.274-0.553-0.345-0.824-0.156l-4.319 2.995c-0.043 0.03-0.082 0.065-0.116 0.105l-5.933 7.002-1.87 0.573 2.639-4.764 4.698-11.698c0.107-0.266 0.016-0.572-0.217-0.733l-2.418-1.674c-0.111-0.076-0.245-0.113-0.376-0.104l-6.306 0.441c-0.112 8e-3 -0.219 0.048-0.31 0.115l-4.047 3.006 3.071-6.636 8.287-7.494c0.096-0.087 0.163-0.203 0.189-0.331l1.468-7.225c0.029-0.145 6e-3 -0.297-0.067-0.426l-7.688-13.655c-0.063-0.112-0.158-0.2-0.273-0.252l-24.073-10.987c-0.271-0.125-0.591-0.025-0.749 0.232s-0.105 0.593 0.123 0.788l8.367 7.152 1.998 9.593-2.803 8.92c-0.019 0.06-0.028 0.123-0.028 0.186v0.897l-0.185-0.469 0.598-10.967c7e-3 -0.139-0.032-0.276-0.112-0.389l-6.046-8.546c-0.037-0.051-0.08-0.096-0.13-0.133l-17.794-13.392c-0.242-0.182-0.579-0.151-0.786 0.071s-0.219 0.566-0.029 0.803l10.889 13.555 2.592 9.807-4.76 11.791c-0.025 0.063-0.04 0.129-0.044 0.196l-0.184 3.186-1.1-2.918 3.231-12.054c0.037-0.138 0.025-0.285-0.035-0.416l-3.886-8.545c-0.023-0.051-0.053-0.099-0.089-0.141l-10.591-12.558z" fill="#41b8bc"/></g><g transform="matrix(-.65521 0 0 -.65521 437.91 12.437)"><path d="m0 0c-0.329 0-0.596 0.272-0.596 0.608v8.898c0 0.079 0.016 0.159 0.046 0.232l6.392 15.77c0.125 0.31 0.473 0.459 0.778 0.329 0.304-0.128 0.449-0.483 0.323-0.793l-6.347-15.659v-8.777c0-0.336-0.267-0.608-0.596-0.608" fill="#41b8bc"/></g><g transform="matrix(-.65521 0 0 -.65521 440.42 11.183)"><path d="m0 0c-0.318 0-0.582 0.256-0.595 0.583l-0.403 10.155c-0.013 0.336 0.242 0.618 0.571 0.632 0.33 0.014 0.606-0.247 0.62-0.582l0.403-10.156c0.013-0.335-0.243-0.618-0.572-0.632h-0.024" fill="#41b8bc"/></g><g transform="matrix(-.65521 0 0 -.65521 430.27 -2.6864)"><path d="m0 0c-0.292 0-0.548 0.22-0.589 0.524l-1.382 10.131c-0.046 0.333 0.182 0.64 0.508 0.686 0.324 0.049 0.626-0.185 0.672-0.518l1.382-10.131c0.045-0.333-0.182-0.64-0.508-0.686-0.028-4e-3 -0.055-6e-3 -0.083-6e-3" fill="#41b8bc"/></g><g transform="matrix(-.65521 0 0 -.65521 428.51 -9.3249)"><path d="m0 0c-0.201 0-0.396 0.103-0.509 0.291l-7.342 12.246c-0.172 0.286-0.083 0.66 0.197 0.835 0.281 0.174 0.649 0.085 0.819-0.202l7.343-12.246c0.172-0.285 0.083-0.66-0.198-0.835-0.097-0.06-0.204-0.089-0.31-0.089" fill="#41b8bc"/></g><g transform="matrix(-.65521 0 0 -.65521 435.25 10.706)"><path d="m0 0c-0.158 0-0.316 0.064-0.433 0.191-0.226 0.244-0.215 0.628 0.024 0.859l13.364 12.862c0.239 0.231 0.617 0.219 0.842-0.024 0.226-0.245 0.215-0.629-0.024-0.859l-13.364-12.863c-0.115-0.111-0.262-0.166-0.409-0.166" fill="#41b8bc"/></g><g transform="matrix(-.65521 0 0 -.65521 426.99 2.7571)"><path d="m0 0c-0.044 0-0.089 5e-3 -0.135 0.015-0.32 0.076-0.52 0.402-0.446 0.729l1.822 8.044c0.074 0.327 0.391 0.528 0.714 0.456 0.321-0.076 0.521-0.402 0.447-0.729l-1.822-8.044c-0.063-0.281-0.309-0.471-0.58-0.471" fill="#41b8bc"/></g><g transform="matrix(-.65521 0 0 -.65521 420.82 -2.5711)"><path d="m0 0c-0.281 0-0.531 0.204-0.585 0.496l-1.555 8.457c-0.06 0.33 0.152 0.647 0.476 0.71 0.325 0.063 0.635-0.156 0.695-0.486l1.555-8.457c0.061-0.33-0.152-0.648-0.476-0.71-0.037-7e-3 -0.074-0.01-0.11-0.01" fill="#41b8bc"/></g><g transform="matrix(-.65521 0 0 -.65521 419.46 -9.0939)"><path d="m0 0c-0.227 0-0.445 0.133-0.544 0.358l-4.233 9.603c-0.135 0.306-1e-3 0.666 0.299 0.804 0.302 0.138 0.653 0 0.788-0.305l4.233-9.603c0.135-0.306 1e-3 -0.666-0.299-0.804-0.08-0.036-0.163-0.053-0.244-0.053" fill="#41b8bc"/></g><g transform="matrix(-.65521 0 0 -.65521 426.25 7.4155)"><path d="m0 0c-0.177 0-0.353 0.08-0.47 0.234-0.203 0.265-0.156 0.647 0.103 0.853l23.842 18.942c0.26 0.206 0.633 0.159 0.836-0.106 0.202-0.265 0.155-0.647-0.104-0.853l-23.841-18.942c-0.109-0.086-0.238-0.128-0.366-0.128" fill="#41b8bc"/></g><g transform="matrix(-.65521 0 0 -.65521 410.12 .084461)"><path d="m0 0c-0.062 0-0.124 0.01-0.186 0.03-0.313 0.105-0.483 0.449-0.38 0.767l6.911 21.409c0.038 0.118 0.11 0.221 0.208 0.296l1.371 1.052c0.261 0.201 0.635 0.148 0.834-0.121 0.198-0.268 0.145-0.649-0.118-0.851l-1.222-0.937-6.852-21.227c-0.083-0.256-0.316-0.418-0.566-0.418" fill="#41b8bc"/></g><g transform="matrix(-.65521 0 0 -.65521 401.83 -8.7315)"><path d="m0 0c-0.225 0-0.435 0.131-0.536 0.343l-7.202 15.178c-0.143 0.302-0.019 0.665 0.277 0.812 0.296 0.145 0.652 0.02 0.796-0.283l6.243-13.159 1.343 17.414-5.067 18.132c-0.091 0.323 0.093 0.659 0.409 0.751 0.316 0.091 0.646-0.095 0.736-0.418l5.097-18.237c0.02-0.069 0.026-0.142 0.021-0.214l-1.523-19.759c-0.021-0.274-0.219-0.499-0.484-0.549-0.036-7e-3 -0.074-0.011-0.11-0.011" fill="#41b8bc"/></g><g transform="matrix(-.65521 0 0 -.65521 400.84 -21.678)"><path d="m0 0c-0.126 0-0.254 0.041-0.362 0.126l-8.984 7.048c-0.261 0.205-0.309 0.586-0.108 0.852 0.2 0.267 0.573 0.316 0.835 0.111l8.983-7.048c0.261-0.204 0.309-0.586 0.109-0.852-0.118-0.156-0.294-0.237-0.473-0.237" fill="#41b8bc"/></g><g transform="matrix(-.65521 0 0 -.65521 400.85 -21.444)"><path d="m0 0c-0.037 0-0.075 3e-3 -0.112 0.011l-17.076 3.353c-0.323 0.063-0.535 0.382-0.473 0.711 0.062 0.33 0.376 0.547 0.698 0.482l16.683-3.276 5.769 9.003c0.179 0.281 0.55 0.36 0.825 0.176s0.353-0.56 0.173-0.841l-5.988-9.344c-0.112-0.174-0.3-0.275-0.499-0.275" fill="#41b8bc"/></g><g transform="matrix(-.65521 0 0 -.65521 402.13 -26.296)"><path d="m0 0c-0.143 0-0.285 0.051-0.399 0.156-0.244 0.225-0.264 0.609-0.043 0.859l8.88 10.043c0.219 0.25 0.596 0.269 0.841 0.045 0.244-0.225 0.264-0.61 0.043-0.859l-8.88-10.043c-0.117-0.133-0.279-0.201-0.442-0.201" fill="#41b8bc"/></g><g transform="matrix(-.65521 0 0 -.65521 402.9 -29.052)"><path d="m0 0c-0.204 0-0.403 0.107-0.514 0.299-0.167 0.289-0.073 0.661 0.211 0.832l5.304 3.195c0.283 0.17 0.649 0.074 0.816-0.215s0.073-0.661-0.211-0.832l-5.304-3.195c-0.095-0.057-0.2-0.084-0.302-0.084" fill="#41b8bc"/></g><g transform="matrix(-.65521 0 0 -.65521 399.56 -31.06)"><path d="m0 0c-0.062 0-0.126 0.01-0.188 0.031l-2.72 0.924c-0.313 0.105-0.482 0.449-0.378 0.768 0.104 0.318 0.44 0.492 0.753 0.384l2.721-0.923c0.312-0.106 0.482-0.45 0.378-0.768-0.083-0.255-0.316-0.416-0.566-0.416" fill="#41b8bc"/></g><g transform="matrix(-.65521 0 0 -.65521 448.2 41.544)"><path d="m0 0h-6.22c-0.101 0-0.2 0.026-0.289 0.076l-5.139 2.908c-0.195 0.11-0.313 0.322-0.307 0.549l0.151 5.286c6e-3 0.2 0.107 0.383 0.271 0.492l3.397 2.247c0.214 0.141 0.494 0.128 0.694-0.034l1.906-1.543h4.411l1.777 1.531c0.194 0.168 0.47 0.19 0.688 0.059l3.283-1.982c0.158-0.096 0.264-0.26 0.287-0.446l0.721-5.749c0.031-0.252-0.094-0.497-0.314-0.615l-5.039-2.709c-0.086-0.046-0.181-0.07-0.278-0.07m-6.066 1.215h5.919l4.543 2.443-0.631 5.036-2.668 1.611-1.62-1.395c-0.107-0.093-0.243-0.144-0.384-0.144h-4.837c-0.135 0-0.265 0.046-0.371 0.132l-1.732 1.403-2.775-1.836-0.131-4.598z" fill="#41b8bc"/></g><g transform="matrix(-.65521 0 0 -.65521 453.02 34.94)"><path d="m0 0c-0.218 0-0.427 0.122-0.532 0.334l-1.661 3.357c-0.149 0.299-0.031 0.665 0.263 0.816 0.294 0.15 0.652 0.031 0.8-0.269l1.661-3.357c0.149-0.299 0.031-0.665-0.263-0.816-0.086-0.044-0.178-0.065-0.268-0.065" fill="#41b8bc"/></g><g transform="matrix(-.65521 0 0 -.65521 447.52 34.703)"><path d="m0 0c-0.103 0-0.207 0.027-0.302 0.084-0.284 0.171-0.378 0.543-0.211 0.832l1.576 2.725c0.168 0.289 0.534 0.385 0.816 0.215 0.283-0.171 0.378-0.543 0.211-0.832l-1.576-2.725c-0.111-0.192-0.31-0.299-0.514-0.299" fill="#41b8bc"/></g><g transform="matrix(-.65521 0 0 -.65521 458.3 39.898)"><path d="m0 0c-0.303 0-0.563 0.235-0.592 0.55-0.032 0.334 0.208 0.63 0.536 0.663l4.06 0.396c0.321 0.036 0.618-0.213 0.65-0.547 0.031-0.334-0.209-0.631-0.537-0.663l-4.06-0.396c-0.019-2e-3 -0.038-3e-3 -0.057-3e-3" fill="#41b8bc"/></g><g transform="matrix(-.65521 0 0 -.65521 442 39.898)"><path d="m0 0h-0.026l-4.419 0.199c-0.329 0.015-0.584 0.298-0.57 0.633 0.015 0.336 0.3 0.6 0.622 0.581l4.419-0.198c0.329-0.015 0.583-0.299 0.569-0.634-0.014-0.326-0.278-0.581-0.595-0.581" fill="#41b8bc"/></g><g transform="matrix(-.65521 0 0 -.65521 455.54 36.175)"><path d="m0 0c-0.125 0-0.25 0.04-0.357 0.122l-2.589 1.982c-0.264 0.201-0.317 0.582-0.119 0.85 0.197 0.268 0.572 0.323 0.834 0.121l2.589-1.982c0.263-0.201 0.316-0.582 0.119-0.85-0.117-0.159-0.296-0.243-0.477-0.243" fill="#41b8bc"/></g><g transform="matrix(-.65521 0 0 -.65521 445.37 36.002)"><path d="m0 0c-0.225 0-0.44 0.131-0.541 0.352-0.138 0.305-8e-3 0.666 0.29 0.807l3.064 1.448c0.299 0.142 0.653 8e-3 0.792-0.296 0.138-0.305 8e-3 -0.666-0.291-0.807l-3.064-1.448c-0.081-0.038-0.166-0.056-0.25-0.056" fill="#41b8bc"/></g><g transform="matrix(-.65521 0 0 -.65521 452.27 41.544)"><path d="m0 0c-0.28 0-0.531 0.203-0.585 0.495l-0.447 2.412h-4.107c-0.329 0-0.596 0.272-0.596 0.608 0 0.335 0.267 0.607 0.596 0.607h4.601c0.286 0 0.532-0.207 0.585-0.494l0.539-2.908c0.061-0.329-0.151-0.647-0.475-0.709-0.037-7e-3 -0.074-0.011-0.111-0.011" fill="#41b8bc"/></g><g transform="matrix(-.65521 0 0 -.65521 448.2 41.544)"><path d="m0 0c-0.027 0-0.054 2e-3 -0.081 6e-3 -0.326 0.045-0.554 0.351-0.51 0.683l0.388 2.908c0.042 0.311 0.305 0.547 0.615 0.525l4.652-0.198c0.329-0.014 0.584-0.298 0.57-0.633-0.013-0.335-0.287-0.596-0.62-0.582l-4.109 0.176-0.315-2.359c-0.041-0.305-0.297-0.526-0.59-0.526" fill="#41b8bc"/></g></g></g></svg>
