<?xml version="1.0" encoding="UTF-8"?>
<svg width="227.99" height="304.4" version="1.1" viewBox="0 0 227.99 304.4" xml:space="preserve" xmlns="http://www.w3.org/2000/svg"><defs><clipPath id="a"><path d="m0 0h841.89v595.28h-841.89z"/></clipPath></defs><g transform="matrix(1.5982 0 0 -1.5982 -979.87 437.65)"><g clip-path="url(#a)"><g transform="translate(739.01 258.84)"><path d="m0 0-9.213 5.791-12.929-0.392-0.062 0.031-0.08-0.058-14.144-6.488-15.611 3.643-4.869 0.132-13.361-2.62-1.902-1.067-14.369 6.4-0.079 0.059-0.065-0.032-13.192 0.392-8.429-5.663-15.978-20.17-0.134-8.635 12.232-11.574 5.576-1.686 1.435-2.74 4.317-1.308 5.984-8.977 9.995-6.706 5.624-0.268 4.196 4.316-0.036-1.982-5.905-12.765-4.791-17.771-1.223-8.47 0.44-7.823 4.939-6.351 5.28-2.327 2.026 1.418-4.067 3.977-3.174 5.233 0.344 7.754 1.909 9.281 3.817 12.321 7.011 11.686 1.005 0.679 0.87-7.084 0.652-7.435 0.783-7.177 0.523-6.792 1.175-7.053 0.82-4.851-0.014-0.012 0.019-0.023 0.809-4.788-0.2-0.133 0.219-0.329 0.053 0.036 1.061-6.276-0.067-0.075 0.093-0.083 1.121-6.634-0.107-0.188 0.154-0.088 0.878-5.199 4.163-3.747-1e-3 -5e-3 8e-3 -1e-3 3.759-3.383 6.298-0.581 0.063-0.085 0.095 0.07 2.177-0.201 7.295 6.632 1.19 9.789-3.817 7.372-0.011 0.015 0.036 0.245-0.229 0.034-2.51 3.641-4.113-2.056-2.191-3.15 1.969-3.149-1e-3 -0.012h8e-3l1.095-1.752-0.017-0.016 0.071-0.071 0.177-0.284 0.126-4.648-2.372-1.186-3.884 3.759v1.998l0.391 5.477 0.131 4.432 0.652 5.867 0.391 4.563 0.782 6.91 1.173 7.038 1.435 6.915 1.044 7.566 1.61 6.688 1.3-1.336 7.022-11.876 4.337-13.969 1.562-9.369 0.172-5.496-2.655-4.454-4.791-4.881 2.424-1.11 5.167 2.227 5.03 5.824 0.528 6.434-0.96 8.384-4.967 18.91-6.643 13.024v2.321l4.552-4.305h5.619l10.129 6.841 5.856 8.978 4.326 1.442 1.3 3.121 6.218 1.425 11.712 11.448v8.763zm14.234-18.822-21.364 16.751 6.919 1.7zm-23.556 24.215 8.688-5.461-6.915-1.699-13.835 6.794zm-12.844-0.422 13.645-6.7-11.867 0.605-11.651-4.32 0.137-0.37 11.575 4.291 12.456-0.635-5.294-11.725-16.893 3.74-0.029 0.022-0.131 0.514-3.071 6.652zm-12.351-62.224v-2.569l-2.974-0.386-0.657 6.735 3.755 0.391-0.126-4.169zm-3.749 4.164-2.575 3.864 0.251 0.251 2.863 1.743 1.16-0.929 2.084-4.534zm0.021-61.527 1.203-6.017-2.451 0.112-0.615 4.918zm-2.022-0.623-2.864 3.699 1.252 0.455 0.783 1.454 2.718-4.609zm3.191-5.788-2.929-8.054-2.002 2.169 0.133 0.024 2.338 5.973zm-5.085-5.511-0.163-0.03-0.022 0.024-0.257 4.149-0.12 4.459 2.823-2.824zm-0.307-0.457 2.177-2.358-6.129-1.803-0.465 3.369zm-4.372-4.003-6.718 4.559 2.91 2.328 3.355-3.604zm-6.963 4.869-3.104 8.12 4.563 1.353 1.497-7.108zm-3.246 8.49-0.035 0.092 0.254 6.215 4.438 0.075v-5.001zm0.18 6.702-0.963 5.055 5.188 0.482 0.243-5.462zm-1.004 5.447-0.122 5.714 4.838-0.121 0.486-5.109zm4.712 5.988-4.851 0.121-0.363 5.09h5.577zm-5.246 5.606-0.616 6.904 7-0.246-0.74-6.658zm-0.639 7.3-0.124 6.403 7.676 0.248-0.492-6.899zm-0.112 6.799 0.492 6.899 8.073-0.249-0.862-6.402zm0.497 7.294-0.371 7.436 9.102-0.124-0.62-7.562zm-0.435 7.832-2.37 7.362c0.141 0.034 0.349 0.084 0.611 0.146 1.513 0.354 4.789 1.06 6.573 1.059 1.19 0 3.014-0.28 4.531-0.562 0.759-0.141 1.442-0.282 1.935-0.388 0.247-0.053 0.445-0.097 0.582-0.128l-2.622-7.615zm9.417 8.393c-1.529 0.283-3.358 0.568-4.603 0.569-1.249-1e-3 -3.11-0.319-4.671-0.635-1.16-0.235-2.148-0.47-2.581-0.575l-0.372 7.56c0.142 0.038 0.377 0.099 0.683 0.176 0.777 0.195 1.999 0.488 3.253 0.732 1.252 0.243 2.54 0.437 3.427 0.436 1.18 2e-3 3.115-0.387 4.738-0.777 0.813-0.195 1.55-0.39 2.084-0.537 0.293-0.08 0.52-0.144 0.669-0.187l-0.117-7.275c-0.426 0.095-1.384 0.304-2.51 0.513m-0.034 7.87c-1.638 0.392-3.574 0.787-4.83 0.788-1.251-1e-3 -3.145-0.351-4.739-0.7-1.227-0.269-2.269-0.537-2.685-0.646l-1.856 7.547 6.197 0.759 0.022 9e-3s0.025 9e-3 0.073 0.027c0.331 0.122 1.769 0.614 2.858 0.612 0.62 1e-3 1.324-0.158 1.868-0.318 0.273-0.08 0.505-0.161 0.669-0.22 0.082-0.031 0.147-0.055 0.191-0.073 0.044-0.017 0.066-0.026 0.066-0.026l0.026-0.011 6.591-0.761-1.78-7.502-3e-3 -0.184c-0.481 0.137-1.494 0.417-2.668 0.699m-24.726-4.055 3.698 5.607 0.213-0.043 2e-3 0.01 2.673-2.228-2.7-4.092zm3.767-1.125-0.492-6.358-3.533 0.471 0.042 2.269 0.086 0.088v4.278zm-4.872 22.361 4.155-4.156-1.672-1.783-3.734 4.584zm-1.503-1.046-1.519 1.864 3.62 5.315-0.791-5.76zm1.706 1.402 0.866 6.306 3.086-1.235 1.375-4.623-1.203-4.572zm41.092 6.641-3.515-1.13-2.369 3.367-1.518 9.737 3.358-0.48 6.296-3.148zm-6.318 2.454-6.896 2.383-13.77 0.131-6.89-2.631 1.616 9.951 4.714 0.51 0.032 0.016s0.067 0.033 0.193 0.093c0.439 0.211 1.58 0.739 2.904 1.213 1.324 0.475 2.837 0.892 3.991 0.891 1.315 2e-3 3-0.575 4.341-1.158 0.671-0.291 1.258-0.583 1.677-0.801 0.209-0.11 0.377-0.201 0.491-0.264 0.115-0.064 0.176-0.099 0.176-0.099l0.036-0.021 5.893-0.641zm-0.095-0.385-5.881-6.756-15.998 0.129-5.501 6.503 6.88 2.627 13.631-0.129zm-27.897 0.049-2.871-3.245-3.04 1.216-2.281 8.742 6.478 2.795 3.356 0.599zm0.182-0.39 5.449-6.439-4.846-3.15-3.281 6.562zm0.703-9.996 4.796 3.118-1.377-11.765-6.078-4.768zm3.487-9.096 1.85-7.522-3.745-2.295-1.354 2.461-2.972 2.476zm1.73 12.41 15.828-0.127 1.385-11.714-6.511 0.751c-0.209 0.084-1.65 0.654-2.918 0.657-0.685-1e-3 -1.446-0.168-2.043-0.333-0.519-0.144-0.91-0.288-1.006-0.324l-6.121-0.749zm17.625-11.961-1.382 11.681 5.326-2.784 2.877-14.256zm6.774-5.825-2.777-1.691-2.267-2.267-3.55 1.693 4e-3 0.262 1.751 7.377zm-8.082 17.914 5.803 6.667 2.417-3.436 0.158 0.051-3.037-6.074zm8.393 3.287 3.381 1.087 0.495-6.317-3.873-3.994-1.196 4.308 1.547 4.771zm4.093-5.574 1.411-1.21-3.538-4.245-1.769 1.437zm0.178 0.367-0.464 5.909 3.804-4.956-1.854-2.226zm-2.421 24.835 5.461-4.21 2.715-10.632-3.817 5.276zm3.776-9.239-6.053 3.026-3.576 0.511-3.082 7.151 8.292-0.99zm-10.081 3.59-5.624 0.612c-0.189 0.107-1.128 0.634-2.349 1.163-1.367 0.591-3.074 1.189-4.498 1.191-1.421-2e-3 -3.224-0.565-4.687-1.122-1.325-0.506-2.361-1.01-2.546-1.101l-4.487-0.485 2.473 7.419 10.022 1.285 8.608-1.799zm-24.626 0.202-3.56-0.636-6.215-2.681 3.934 8.973 8.305 1.735zm-10.332-3.603-3.788-5.905 2.573 10.528 5.055 4.135zm-1.311 5.447-16.932-4.136-5.545 11.719 12.322 0.508 11.823-4.028zm-0.186-0.452-0.082-0.199-2.851-11.661-6.285-2.64-7.31 10.462zm-3.013-12.323-0.691-4.492-5.068 2.073zm0.438 0.248 4.169 6.5 2.213-8.48-4.208-6.18 5.795-7.111 0.724-10.142-2.567 3.906-2.329 8.797-0.206 0.387-4.357 7.345zm8.364-15.267 1.932 2.061 1.332 5.06-0.808 2.719 2.353-4.707-2.738-13.819-0.085-0.129-1.245-1.555zm5.262-11.922 1.247-2.269-0.542-4.939-3.306 3.267zm1.636-2.346 3.678 2.254 0.371-7.534-5.155-4.795zm19.311 2.136 3.415-1.628 0.614-5.038-0.03-0.023 0.04-0.051 0.603-4.945-4.759 4.402zm3.806-1.568 1.727 1.728 2.495-3.743-3.635-2.802zm6.272 3.596-0.951 0.761-2.974 14.737 1.927 3.852-0.774-2.384 1.338-4.816 2.057-1.672zm1.02 10.491 5.931 7.117-4.276 5.572 2.232 8.269 4.21-5.819 0.51-4.845-3.764-7.009-0.114-0.361-0.215-0.678-2.93-9.258-2.191-3.177zm8.52 14.888 5.751-2.646-5.291-1.725zm-0.064 0.464-2.868 11.232 16.588-3.672-7.431-10.453zm3.109 25.951-9.554-6.808-2.416 1.317zm-12.482-5.662 2.073-1.13 0.717-0.391 3.09-6.696-5.731 4.418-8.73 1.042-6.364 6.245zm-20.341 3.771 4.672-0.126 6.378-6.259-8.114 1.696-9.577-1.228zm-13.312-2.598 12.569 2.465-6.598-5.878-8.737-1.826-5.174-4.233 2.678 6.52zm-2.584-0.882-2.822-1.693-9.597 7.225zm-13.947 6.189 10.871-8.186-0.912-2.222 0.043 0.126-11.909 4.057-11.756-0.485zm-13.099 0.423 12.319-0.366-13.719-6.737-0.046 0.098-0.116-0.139-6.382 1.806zm-8.335-5.637 6.418-1.817-21.19-16.831zm-15.923-28.265 0.128 8.3 21.234 16.867-18.385-21.941 2.1-8.031zm11.738-6.278v-4.829l-6.175 5.843 0.04 0.011-2.192 8.382 19.308 23.041 5.556-11.744zm0.395-5.142v5.003l15.703 19.66-10.406-26.264zm6.985-4.418-1.355 2.587 10.792 27.236 7.266-10.4-6.569-7.213-6.073-13.44zm4.395-1.451 6.074 13.441 6.048 6.642-2.884-9.616-3.566-18.976zm5.995-8.93 3.627 19.303 3.065 10.22 5.479-2.241 4.474-7.542-7.266-12.717-2.169-11.862zm9.762-6.551-2.194 1.472 2.187 11.965 6.671 11.674-3.146-15.124 1.663-10.234zm5.548-0.037-1.628 10.015 3.214 15.455 2.144-8.095 2.95-4.49-2.412-4.064-0.03-0.045v-5e-3l-1e-3 -2e-3v-0.05l-0.083-4.445zm2.803-53.341-4.985 2.196-4.803 6.175-0.43 7.66 1.213 8.408 4.777 17.716 5.847 12.64 3.492-0.466-6.754-13.079-5e-3 -0.021c0-1e-3 -0.068-0.261-0.187-0.718-0.417-1.6-1.46-5.604-2.409-9.237-0.474-1.816-0.924-3.539-1.261-4.822-0.169-0.642-0.308-1.174-0.409-1.552-0.05-0.189-0.09-0.34-0.119-0.447-0.014-0.053-0.026-0.096-0.034-0.126l-0.01-0.036-3e-3 -0.01-1e-3 -2e-3 -0.017-0.068c-0.044-0.198-0.16-0.844-0.315-1.716-0.46-2.612-1.241-7.204-1.241-7.205l-5e-3 -0.028 0.705-5.552 1.853-3 1.939-2.644 4.575-3.078zm0.536 39.695-3.837-12.384-1.919-9.332-0.351-7.905 3.262-5.379 2.384-2.331-2.959 1.991-1.888 2.575-1.8 2.915-0.687 5.408c0.02 0.12 0.105 0.622 0.227 1.334 0.21 1.23 0.527 3.08 0.8 4.647 0.136 0.783 0.261 1.496 0.357 2.024 0.047 0.264 0.087 0.483 0.117 0.64 0.015 0.079 0.028 0.142 0.037 0.188l0.012 0.054 3e-3 0.014c7e-3 0.02 0.012 0.041 0.024 0.082 0.329 1.197 4.252 16.262 4.411 16.872l6.717 13.009 2.08-2.773zm8.342 12.654-1.069-0.724-2.191 2.922 0.483 6.243 3.307-3.268 0.043 0.044zm0.405-0.203 0.07 0.047-0.03 0.044 5.263 4.896 2.339-7.263-6.787-4.689zm0.906-7.411 6.789 4.691 0.368-7.361-6.544-4.322zm0.655-7.438 6.48 4.279-0.488-6.82-5.261-4.161zm0.778-7.168 5.215 4.124 0.122-6.293-4.853-4.125zm0.53-6.773 4.843 4.117 0.61-6.828-4.356-3.872zm1.174-7.043 4.316 3.837 0.355-4.982-3.91-3.362zm0.838-4.962 3.849 3.31 0.119-5.605-3.219-2.135zm0.821-4.856 3.208 2.127 0.936-4.909-0.148-3e-3 -2.96-3.349zm1.121-6.635 3.056 3.458 0.01 1e-3 -0.256-6.274 0.053-0.14-0.03-9e-3 -1.798-3.164zm5.859-15.403-3.841 3.457-0.879 5.202 1.897 3.338 3.164-8.277zm3.888-3.499-3.522 3.17 0.342 3.726 7.002-4.752 1.993-2.681zm8.329-0.769-1.986 0.184-2.055 2.764 6.331 1.862 2.353-0.588zm7.057 6.416-2.132-1.938 0.019 0.076-2.397 0.599 3.037 8.353 2.581 2.02zm-2.362 16.319 3.473-6.705-2.619-2.05-1.236 6.175zm-0.315 0.568-0.381-2.571-2.577 4.371 0.647 1.552zm-6.135 1.651 3.394 1.698-0.468-1.124-0.067 0.113-1.044-1.938-1.36-0.495-2.175-0.725zm-1.921-2.955 2.369 0.79 2.786-3.598-3.492 0.147zm1.917-3.067 3.479-0.146 0.56-4.482-3.057 3.057zm0.996-7.181 0.243-3.925-3.941-0.707 2.881 4.223zm-2.468-1.234 0.925 0.462-2.608-3.822-3.109 3.339 3.908 0.718-0.035 0.193zm-1.095 1.06-3.933-0.722-1.444 6.858 2.267-1.08v-2.047zm-5.455 6.61v4.906l2.672-1.336 0.034 0.069-0.34-4.765zm2.737 4.062-6e-3 -0.08-2.736 1.368-0.238 5.341 3.107-2.301zm0.169 4.788-3.176 2.353-0.481 5.047 4.256-2.01zm0.638 5.809-4.318 2.039 0.358 5.129 4.318-2.999zm0.405 4.617-4.328 3.007 0.732 6.592 4.329-3.127zm0.799 6.912-4.349 3.141 0.489 6.854 4.962-3.388zm1.184 7.029-5.004 3.417 0.857 6.367 5.493-3.296zm1.414 6.908-5.51 3.306 0.616 7.514 5.879-3.675zm1.071 7.558-5.898 3.685 2.591 7.525 4.912-4.544zm2.012 6.823-0.642 5.263 3.684 2.84 0.643-6.587-0.102-0.013 0.078-0.137-2.295-2.77zm11.973-47.227 2.739 4.593-0.177 5.637-1.57 9.421-4.36 14.04-6.987 11.817 2.252 2.718 7.152-12.603 4.688-18.32 1.212-7.966-0.513-4.711-3.517-5.318-4.316-2.77zm1.744 35.888 4.95-18.842 0.953-8.316-0.516-6.267-4.886-5.658-4.922-2.122-1.68 0.77 5.559 3.568 3.616 5.467 0.53 4.858-1.223 8.038-4.707 18.389-7.174 12.641 2.919 0.379zm-1.782 11.785-4.486 4.243 0.129 4.264-2.19 4.768 2.562 3.715 2.723 8.606 2.769-15.046zm5.561-0.208h-5.192l1.538 10.766-2.785 15.138 6.7-12.203 1.662-12.402zm2.289 1.545-1.646 12.281-7.141 13.005 0.217 0.686 3.738 6.96 5.735 1.87 3.2-10.495 3.498-19.173zm7.923 5.565-3.435 18.835-3.014 9.883 5.655-6.126 6.336-14.094zm9.925 10.074-4.052-1.35-6.333 14.089-6.176 6.69 7.393 10.4 10.407-26.853zm1.575 3.204-10.044 25.915 15.471-19.308 0.5-5.249zm6.298 1.634-0.489 5.128-16.271 20.306 5.302 11.739 19.431-22.905-2.579-8.64 0.278-0.083zm11.257 11.005-5.431-5.309 2.587 8.664-18.513 21.823 21.357-16.746z" fill="#da5627"/></g><g transform="translate(739.01 258.84)"><path d="m0 0-9.213 5.791-12.929-0.392-0.062 0.031-0.08-0.058-14.144-6.488-15.611 3.643-4.869 0.132-13.361-2.62-1.902-1.067-14.369 6.4-0.079 0.059-0.065-0.032-13.192 0.392-8.429-5.663-15.978-20.17-0.134-8.635 12.232-11.574 5.576-1.686 1.435-2.74 4.317-1.308 5.984-8.977 9.995-6.706 5.624-0.268 4.196 4.316-0.036-1.982-5.905-12.765-4.791-17.771-1.223-8.47 0.44-7.823 4.939-6.351 5.28-2.327 2.026 1.418-4.067 3.977-3.174 5.233 0.344 7.754 1.909 9.281 3.817 12.321 7.011 11.686 1.005 0.679 0.87-7.084 0.652-7.435 0.783-7.177 0.523-6.792 1.175-7.053 0.82-4.851-0.014-0.012 0.019-0.023 0.809-4.788-0.2-0.133 0.219-0.329 0.053 0.036 1.061-6.276-0.067-0.075 0.093-0.083 1.121-6.634-0.107-0.188 0.154-0.088 0.878-5.199 4.163-3.747-1e-3 -5e-3 8e-3 -1e-3 3.759-3.383 6.298-0.581 0.063-0.085 0.095 0.07 2.177-0.201 7.295 6.632 1.19 9.789-3.817 7.372-0.011 0.015 0.036 0.245-0.229 0.034-2.51 3.641-4.113-2.056-2.191-3.15 1.969-3.149-1e-3 -0.012h8e-3l1.095-1.752-0.017-0.016 0.071-0.071 0.177-0.284 0.126-4.648-2.372-1.186-3.884 3.759v1.998l0.391 5.477 0.131 4.432 0.652 5.867 0.391 4.563 0.782 6.91 1.173 7.038 1.435 6.915 1.044 7.566 1.61 6.688 1.3-1.336 7.022-11.876 4.337-13.969 1.562-9.369 0.172-5.496-2.655-4.454-4.791-4.881 2.424-1.11 5.167 2.227 5.03 5.824 0.528 6.434-0.96 8.384-4.967 18.91-6.643 13.024v2.321l4.552-4.305h5.619l10.129 6.841 5.856 8.978 4.326 1.442 1.3 3.121 6.218 1.425 11.712 11.448v8.763zm14.234-18.822-21.364 16.751 6.919 1.7zm-23.556 24.215 8.688-5.461-6.915-1.699-13.835 6.794zm-12.844-0.422 13.645-6.7-11.867 0.605-11.651-4.32 0.137-0.37 11.575 4.291 12.456-0.635-5.294-11.725-16.893 3.74-0.029 0.022-0.131 0.514-3.071 6.652zm-12.351-62.224v-2.569l-2.974-0.386-0.657 6.735 3.755 0.391-0.126-4.169zm-3.749 4.164-2.575 3.864 0.251 0.251 2.863 1.743 1.16-0.929 2.084-4.534zm0.021-61.527 1.203-6.017-2.451 0.112-0.615 4.918zm-2.022-0.623-2.864 3.699 1.252 0.455 0.783 1.454 2.718-4.609zm3.191-5.788-2.929-8.054-2.002 2.169 0.133 0.024 2.338 5.973zm-5.085-5.511-0.163-0.03-0.022 0.024-0.257 4.149-0.12 4.459 2.823-2.824zm-0.307-0.457 2.177-2.358-6.129-1.803-0.465 3.369zm-4.372-4.003-6.718 4.559 2.91 2.328 3.355-3.604zm-6.963 4.869-3.104 8.12 4.563 1.353 1.497-7.108zm-3.246 8.49-0.035 0.092 0.254 6.215 4.438 0.075v-5.001zm0.18 6.702-0.963 5.055 5.188 0.482 0.243-5.462zm-1.004 5.447-0.122 5.714 4.838-0.121 0.486-5.109zm4.712 5.988-4.851 0.121-0.363 5.09h5.577zm-5.246 5.606-0.616 6.904 7-0.246-0.74-6.658zm-0.639 7.3-0.124 6.403 7.676 0.248-0.492-6.899zm-0.112 6.799 0.492 6.899 8.073-0.249-0.862-6.402zm0.497 7.294-0.371 7.436 9.102-0.124-0.62-7.562zm-0.435 7.832-2.37 7.362c0.141 0.034 0.349 0.084 0.611 0.146 1.513 0.354 4.789 1.06 6.573 1.059 1.19 0 3.014-0.28 4.531-0.562 0.759-0.141 1.442-0.282 1.935-0.388 0.247-0.053 0.445-0.097 0.582-0.128l-2.622-7.615zm9.417 8.393c-1.529 0.283-3.358 0.568-4.603 0.569-1.249-1e-3 -3.11-0.319-4.671-0.635-1.16-0.235-2.148-0.47-2.581-0.575l-0.372 7.56c0.142 0.038 0.377 0.099 0.683 0.176 0.777 0.195 1.999 0.488 3.253 0.732 1.252 0.243 2.54 0.437 3.427 0.436 1.18 2e-3 3.115-0.387 4.738-0.777 0.813-0.195 1.55-0.39 2.084-0.537 0.293-0.08 0.52-0.144 0.669-0.187l-0.117-7.275c-0.426 0.095-1.384 0.304-2.51 0.513zm-0.034 7.87c-1.638 0.392-3.574 0.787-4.83 0.788-1.251-1e-3 -3.145-0.351-4.739-0.7-1.227-0.269-2.269-0.537-2.685-0.646l-1.856 7.547 6.197 0.759 0.022 9e-3s0.025 9e-3 0.073 0.027c0.331 0.122 1.769 0.614 2.858 0.612 0.62 1e-3 1.324-0.158 1.868-0.318 0.273-0.08 0.505-0.161 0.669-0.22 0.082-0.031 0.147-0.055 0.191-0.073 0.044-0.017 0.066-0.026 0.066-0.026l0.026-0.011 6.591-0.761-1.78-7.502-3e-3 -0.184c-0.481 0.137-1.494 0.417-2.668 0.699zm-24.726-4.055 3.698 5.607 0.213-0.043 2e-3 0.01 2.673-2.228-2.7-4.092zm3.767-1.125-0.492-6.358-3.533 0.471 0.042 2.269 0.086 0.088v4.278zm-4.872 22.361 4.155-4.156-1.672-1.783-3.734 4.584zm-1.503-1.046-1.519 1.864 3.62 5.315-0.791-5.76zm1.706 1.402 0.866 6.306 3.086-1.235 1.375-4.623-1.203-4.572zm41.092 6.641-3.515-1.13-2.369 3.367-1.518 9.737 3.358-0.48 6.296-3.148zm-6.318 2.454-6.896 2.383-13.77 0.131-6.89-2.631 1.616 9.951 4.714 0.51 0.032 0.016s0.067 0.033 0.193 0.093c0.439 0.211 1.58 0.739 2.904 1.213 1.324 0.475 2.837 0.892 3.991 0.891 1.315 2e-3 3-0.575 4.341-1.158 0.671-0.291 1.258-0.583 1.677-0.801 0.209-0.11 0.377-0.201 0.491-0.264 0.115-0.064 0.176-0.099 0.176-0.099l0.036-0.021 5.893-0.641zm-0.095-0.385-5.881-6.756-15.998 0.129-5.501 6.503 6.88 2.627 13.631-0.129zm-27.897 0.049-2.871-3.245-3.04 1.216-2.281 8.742 6.478 2.795 3.356 0.599zm0.182-0.39 5.449-6.439-4.846-3.15-3.281 6.562zm0.703-9.996 4.796 3.118-1.377-11.765-6.078-4.768zm3.487-9.096 1.85-7.522-3.745-2.295-1.354 2.461-2.972 2.476zm1.73 12.41 15.828-0.127 1.385-11.714-6.511 0.751c-0.209 0.084-1.65 0.654-2.918 0.657-0.685-1e-3 -1.446-0.168-2.043-0.333-0.519-0.144-0.91-0.288-1.006-0.324l-6.121-0.749zm17.625-11.961-1.382 11.681 5.326-2.784 2.877-14.256zm6.774-5.825-2.777-1.691-2.267-2.267-3.55 1.693 4e-3 0.262 1.751 7.377zm-8.082 17.914 5.803 6.667 2.417-3.436 0.158 0.051-3.037-6.074zm8.393 3.287 3.381 1.087 0.495-6.317-3.873-3.994-1.196 4.308 1.547 4.771zm4.093-5.574 1.411-1.21-3.538-4.245-1.769 1.437zm0.178 0.367-0.464 5.909 3.804-4.956-1.854-2.226zm-2.421 24.835 5.461-4.21 2.715-10.632-3.817 5.276zm3.776-9.239-6.053 3.026-3.576 0.511-3.082 7.151 8.292-0.99zm-10.081 3.59-5.624 0.612c-0.189 0.107-1.128 0.634-2.349 1.163-1.367 0.591-3.074 1.189-4.498 1.191-1.421-2e-3 -3.224-0.565-4.687-1.122-1.325-0.506-2.361-1.01-2.546-1.101l-4.487-0.485 2.473 7.419 10.022 1.285 8.608-1.799zm-24.626 0.202-3.56-0.636-6.215-2.681 3.934 8.973 8.305 1.735zm-10.332-3.603-3.788-5.905 2.573 10.528 5.055 4.135zm-1.311 5.447-16.932-4.136-5.545 11.719 12.322 0.508 11.823-4.028zm-0.186-0.452-0.082-0.199-2.851-11.661-6.285-2.64-7.31 10.462zm-3.013-12.323-0.691-4.492-5.068 2.073zm0.438 0.248 4.169 6.5 2.213-8.48-4.208-6.18 5.795-7.111 0.724-10.142-2.567 3.906-2.329 8.797-0.206 0.387-4.357 7.345zm8.364-15.267 1.932 2.061 1.332 5.06-0.808 2.719 2.353-4.707-2.738-13.819-0.085-0.129-1.245-1.555zm5.262-11.922 1.247-2.269-0.542-4.939-3.306 3.267zm1.636-2.346 3.678 2.254 0.371-7.534-5.155-4.795zm19.311 2.136 3.415-1.628 0.614-5.038-0.03-0.023 0.04-0.051 0.603-4.945-4.759 4.402zm3.806-1.568 1.727 1.728 2.495-3.743-3.635-2.802zm6.272 3.596-0.951 0.761-2.974 14.737 1.927 3.852-0.774-2.384 1.338-4.816 2.057-1.672zm1.02 10.491 5.931 7.117-4.276 5.572 2.232 8.269 4.21-5.819 0.51-4.845-3.764-7.009-0.114-0.361-0.215-0.678-2.93-9.258-2.191-3.177zm8.52 14.888 5.751-2.646-5.291-1.725zm-0.064 0.464-2.868 11.232 16.588-3.672-7.431-10.453zm3.109 25.951-9.554-6.808-2.416 1.317zm-12.482-5.662 2.073-1.13 0.717-0.391 3.09-6.696-5.731 4.418-8.73 1.042-6.364 6.245zm-20.341 3.771 4.672-0.126 6.378-6.259-8.114 1.696-9.577-1.228zm-13.312-2.598 12.569 2.465-6.598-5.878-8.737-1.826-5.174-4.233 2.678 6.52zm-2.584-0.882-2.822-1.693-9.597 7.225zm-13.947 6.189 10.871-8.186-0.912-2.222 0.043 0.126-11.909 4.057-11.756-0.485zm-13.099 0.423 12.319-0.366-13.719-6.737-0.046 0.098-0.116-0.139-6.382 1.806zm-8.335-5.637 6.418-1.817-21.19-16.831zm-15.923-28.265 0.128 8.3 21.234 16.867-18.385-21.941 2.1-8.031zm11.738-6.278v-4.829l-6.175 5.843 0.04 0.011-2.192 8.382 19.308 23.041 5.556-11.744zm0.395-5.142v5.003l15.703 19.66-10.406-26.264zm6.985-4.418-1.355 2.587 10.792 27.236 7.266-10.4-6.569-7.213-6.073-13.44zm4.395-1.451 6.074 13.441 6.048 6.642-2.884-9.616-3.566-18.976zm5.995-8.93 3.627 19.303 3.065 10.22 5.479-2.241 4.474-7.542-7.266-12.717-2.169-11.862zm9.762-6.551-2.194 1.472 2.187 11.965 6.671 11.674-3.146-15.124 1.663-10.234zm5.548-0.037-1.628 10.015 3.214 15.455 2.144-8.095 2.95-4.49-2.412-4.064-0.03-0.045v-5e-3l-1e-3 -2e-3v-0.05l-0.083-4.445zm2.803-53.341-4.985 2.196-4.803 6.175-0.43 7.66 1.213 8.408 4.777 17.716 5.847 12.64 3.492-0.466-6.754-13.079-5e-3 -0.021c0-1e-3 -0.068-0.261-0.187-0.718-0.417-1.6-1.46-5.604-2.409-9.237-0.474-1.816-0.924-3.539-1.261-4.822-0.169-0.642-0.308-1.174-0.409-1.552-0.05-0.189-0.09-0.34-0.119-0.447-0.014-0.053-0.026-0.096-0.034-0.126l-0.01-0.036-3e-3 -0.01-1e-3 -2e-3 -0.017-0.068c-0.044-0.198-0.16-0.844-0.315-1.716-0.46-2.612-1.241-7.204-1.241-7.205l-5e-3 -0.028 0.705-5.552 1.853-3 1.939-2.644 4.575-3.078zm0.536 39.695-3.837-12.384-1.919-9.332-0.351-7.905 3.262-5.379 2.384-2.331-2.959 1.991-1.888 2.575-1.8 2.915-0.687 5.408c0.02 0.12 0.105 0.622 0.227 1.334 0.21 1.23 0.527 3.08 0.8 4.647 0.136 0.783 0.261 1.496 0.357 2.024 0.047 0.264 0.087 0.483 0.117 0.64 0.015 0.079 0.028 0.142 0.037 0.188l0.012 0.054 3e-3 0.014c7e-3 0.02 0.012 0.041 0.024 0.082 0.329 1.197 4.252 16.262 4.411 16.872l6.717 13.009 2.08-2.773zm8.342 12.654-1.069-0.724-2.191 2.922 0.483 6.243 3.307-3.268 0.043 0.044zm0.405-0.203 0.07 0.047-0.03 0.044 5.263 4.896 2.339-7.263-6.787-4.689zm0.906-7.411 6.789 4.691 0.368-7.361-6.544-4.322zm0.655-7.438 6.48 4.279-0.488-6.82-5.261-4.161zm0.778-7.168 5.215 4.124 0.122-6.293-4.853-4.125zm0.53-6.773 4.843 4.117 0.61-6.828-4.356-3.872zm1.174-7.043 4.316 3.837 0.355-4.982-3.91-3.362zm0.838-4.962 3.849 3.31 0.119-5.605-3.219-2.135zm0.821-4.856 3.208 2.127 0.936-4.909-0.148-3e-3 -2.96-3.349zm1.121-6.635 3.056 3.458 0.01 1e-3 -0.256-6.274 0.053-0.14-0.03-9e-3 -1.798-3.164zm5.859-15.403-3.841 3.457-0.879 5.202 1.897 3.338 3.164-8.277zm3.888-3.499-3.522 3.17 0.342 3.726 7.002-4.752 1.993-2.681zm8.329-0.769-1.986 0.184-2.055 2.764 6.331 1.862 2.353-0.588zm7.057 6.416-2.132-1.938 0.019 0.076-2.397 0.599 3.037 8.353 2.581 2.02zm-2.362 16.319 3.473-6.705-2.619-2.05-1.236 6.175zm-0.315 0.568-0.381-2.571-2.577 4.371 0.647 1.552zm-6.135 1.651 3.394 1.698-0.468-1.124-0.067 0.113-1.044-1.938-1.36-0.495-2.175-0.725zm-1.921-2.955 2.369 0.79 2.786-3.598-3.492 0.147zm1.917-3.067 3.479-0.146 0.56-4.482-3.057 3.057zm0.996-7.181 0.243-3.925-3.941-0.707 2.881 4.223zm-2.468-1.234 0.925 0.462-2.608-3.822-3.109 3.339 3.908 0.718-0.035 0.193zm-1.095 1.06-3.933-0.722-1.444 6.858 2.267-1.08v-2.047zm-5.455 6.61v4.906l2.672-1.336 0.034 0.069-0.34-4.765zm2.737 4.062-6e-3 -0.08-2.736 1.368-0.238 5.341 3.107-2.301zm0.169 4.788-3.176 2.353-0.481 5.047 4.256-2.01zm0.638 5.809-4.318 2.039 0.358 5.129 4.318-2.999zm0.405 4.617-4.328 3.007 0.732 6.592 4.329-3.127zm0.799 6.912-4.349 3.141 0.489 6.854 4.962-3.388zm1.184 7.029-5.004 3.417 0.857 6.367 5.493-3.296zm1.414 6.908-5.51 3.306 0.616 7.514 5.879-3.675zm1.071 7.558-5.898 3.685 2.591 7.525 4.912-4.544zm2.012 6.823-0.642 5.263 3.684 2.84 0.643-6.587-0.102-0.013 0.078-0.137-2.295-2.77zm11.973-47.227 2.739 4.593-0.177 5.637-1.57 9.421-4.36 14.04-6.987 11.817 2.252 2.718 7.152-12.603 4.688-18.32 1.212-7.966-0.513-4.711-3.517-5.318-4.316-2.77zm1.744 35.888 4.95-18.842 0.953-8.316-0.516-6.267-4.886-5.658-4.922-2.122-1.68 0.77 5.559 3.568 3.616 5.467 0.53 4.858-1.223 8.038-4.707 18.389-7.174 12.641 2.919 0.379zm-1.782 11.785-4.486 4.243 0.129 4.264-2.19 4.768 2.562 3.715 2.723 8.606 2.769-15.046zm5.561-0.208h-5.192l1.538 10.766-2.785 15.138 6.7-12.203 1.662-12.402zm2.289 1.545-1.646 12.281-7.141 13.005 0.217 0.686 3.738 6.96 5.735 1.87 3.2-10.495 3.498-19.173zm7.923 5.565-3.435 18.835-3.014 9.883 5.655-6.126 6.336-14.094zm9.925 10.074-4.052-1.35-6.333 14.089-6.176 6.69 7.393 10.4 10.407-26.853zm1.575 3.204-10.044 25.915 15.471-19.308 0.5-5.249zm6.298 1.634-0.489 5.128-16.271 20.306 5.302 11.739 19.431-22.905-2.579-8.64 0.278-0.083zm11.257 11.005-5.431-5.309 2.587 8.664-18.513 21.823 21.357-16.746z" fill="none" stroke="#da5627" stroke-width=".464"/></g></g><g transform="translate(677.01 150.46)"><path d="m0 0 0.247-0.122v0.184z" fill="#da5627"/></g><g transform="translate(677.26 150.34)"><path d="m0 0v0.185l-0.246-0.062z" fill="none" stroke="#da5627" stroke-width=".464"/></g><g transform="translate(703.39 228.19)"><path d="m0 0 1.3 1.639-0.616 1.161h-1.505l-2.122-2.732z" fill="#da5627"/></g><g transform="translate(703.39 228.19)"><path d="m0 0 1.3 1.639-0.616 1.161h-1.505l-2.122-2.732z" fill="none" stroke="#da5627" stroke-width=".464"/></g><g transform="translate(666.64 231.19)"><path d="m0 0-1.572-0.068-0.889-1.364 1.641-1.5h2.393z" fill="#da5627"/></g><g transform="translate(666.64 231.19)"><path d="m0 0-1.572-0.068-0.889-1.364 1.641-1.5h2.393z" fill="none" stroke="#da5627" stroke-width=".464"/></g></g></svg>
