<?xml version="1.0" encoding="UTF-8"?>
<svg width="227.99" height="304.4" version="1.1" viewBox="0 0 227.99 304.4" xml:space="preserve" xmlns="http://www.w3.org/2000/svg"><defs><clipPath id="h"><path d="m0 0h841.89v595.28h-841.89z"/></clipPath><clipPath id="g"><path d="m0 0h841.89v595.28h-841.89z"/></clipPath><clipPath id="f"><path d="m0 0h841.89v595.28h-841.89z"/></clipPath><clipPath id="e"><path d="m0 0h841.89v595.28h-841.89z"/></clipPath><clipPath id="d"><path d="m0 0h841.89v595.28h-841.89z"/></clipPath><clipPath id="c"><path d="m0 0h841.89v595.28h-841.89z"/></clipPath><clipPath id="b"><path d="m0 0h841.89v595.28h-841.89z"/></clipPath><clipPath id="a"><path d="m0 0h841.89v595.28h-841.89z"/></clipPath><clipPath id="i"><path d="m0 0h841.89v595.28h-841.89z"/></clipPath></defs><g transform="matrix(1.2872 0 0 -1.2872 -356.17 593.82)"><g transform="translate(391.88 412.4)"><path d="m0 0-0.414 0.156 6.286 16.699-8.711-0.178-6.654 9.982-11.739-3.486-15.112 5.463-1.411-6.346-8.729-7.97-9.245-3.444 1.652-13.025-2.21-3.5 2.232-7.251-2.911-4.911 6.237-6.789-0.741-8.899 7.048-5.936 0.235-7.082-15.193 17.678-0.499-7.324-4.71-3.336-9.089-2.097 3.577-4.599v-2.586l-5.752-5.033 4.728-4.728-2.985-6.156 5.252-5.796 0.029-0.076c1e-3 -2e-3 0.328-0.842 0.656-1.756 0.164-0.457 0.329-0.932 0.454-1.335 0.063-0.202 0.116-0.385 0.155-0.544 0.038-0.163 0.066-0.285 0.069-0.434-2e-3 -0.198-0.049-0.685-0.119-1.385-0.21-2.073-0.628-5.737-0.628-5.738l-0.44 0.05 0.117 0.427 6.255-1.707 2.22-2.219 1.517-6.451-0.431-0.101-0.307 0.317c0 1e-3 1.495 1.453 3.035 2.907 0.77 0.727 1.55 1.454 2.164 2.003 0.307 0.275 0.572 0.505 0.779 0.672l0.272 0.206 0.125 0.076c0.052 0.021 0.091 0.058 0.251 0.066 0.071 2e-3 0.208-0.02 0.321-0.131s0.138-0.252 0.136-0.326l-0.03-0.169-0.416 0.149 0.419-0.14-0.015 5e-3 0.016-4e-3 -1e-3 -1e-3 -0.015 5e-3 0.016-4e-3c-0.016-0.061-0.06-0.33-0.108-0.696-0.173-1.297-0.467-3.989-0.718-6.351-0.251-2.363-0.457-4.395-0.458-4.399l-0.012-0.123-6.962-9.219-0.353 0.267 0.405 0.176c1e-3 -2e-3 1.13-2.595 2.261-5.427 0.566-1.417 1.132-2.892 1.559-4.14 0.213-0.624 0.392-1.191 0.52-1.669 0.127-0.483 0.206-0.862 0.209-1.18-4e-3 -0.143-7e-3 -0.282-0.107-0.46-0.564-0.938-4.47-7.261-4.471-7.263l-0.376 0.232 0.321 0.304 6.703-7.086-2.017-5.504 5.871-3.67-0.365-7.661 8.432-0.916 2.206-6.799 8.105 1.289 2.714-4.342 6.254 3.861 4.758-4.758 5.329 5.881 6.246-3.747 1.097 8.591 7.467-2.186-1.079 7.369 6.744 1.277-2.542 5.448 5.494 2.929-4.154 5.419 3.414 5.213-7.03 2.884-0.179 6.801-5.382-1.435-3.055 5.748-4.814-4.636-5.001 2.143-1.253-5.196-5.765-0.525 2.963-5.054-2.779-3.597 6.813 0.166 3.251-1.625 3.474 1.737-1.317 2.24-1.85-2.036-2.419 3.871 4.688 2.556 4.638-1.815 2.171-4.734-0.577-6.918-3.082-5.202-4.456-2.906-10.287-1.143-10.871 5.532-4.197 9.92 0.757 14.2 5.785 7.464 0.605 3.832 2.414-0.202 11.493 13.867 0.399 3.578 4.186 0.38 3.435 8.396 2.244-1.208 0.733 11.925 1.596-0.355-0.739 9.04 2.278-0.175-2.773 8.492 0.42 0.137-0.418-0.144-3.515 10.176-5.723 7.938-5.594 6.713-7.862 12.729-2.437 7.516h6.147l2.63-8.645 11.109-3.147 14.528-25.145 7.233-2.646 2.711 2.411-4.079 2.549-6.797 14.915 0.186 18.348-5.279 5.656 0.096 0.257 0.414-0.156 0.323 0.302 5.333-5.714-0.187-18.505 6.605-14.494 4.855-3.035-3.989-3.546-8.03 2.938-14.509 25.112-11.228 3.181-2.58 8.48h-4.276l2.029-6.259 7.774-12.585 5.574-6.688 5.817-8.069 3.557-10.299 3.186-9.756-2.563 0.197 0.752-9.201-1.756 0.39-0.755-12.272-2.595 1.398-3.267-7.984-4.002-0.363-0.347-3.124-11.958-14.425-2.054 0.171-0.512-3.244-5.755-7.425-0.731-13.72 3.991-9.436 10.349-5.265 9.814 1.091 4.108 2.678 2.872 4.849 0.542 6.485-1.925 4.199-3.923 1.535-3.502-1.91 1.303-2.086 1.873 2.06 2.405-4.089-4.716-2.358-3.449 1.724-8.45-0.206 3.55 4.594-3.366 5.74 6.521 0.594 1.351 5.598 5.423-2.325 5.236 5.043 3.275-6.163 5.785 1.542 0.194-7.344 7.487-3.072-3.657-5.584 4.406-5.749-5.674-3.025 2.669-5.719-7.028-1.331 1.155-7.894-7.795 2.283-1.138-8.906-6.783 4.07-5.466-6.032-4.92 4.921-6.406-3.957-2.87 4.592-8.273-1.316-2.263 6.974-8.69 0.944 0.379 7.975-6.04 3.776 2.076 5.663-6.56 6.936 0.178 0.289c2e-3 3e-3 0.977 1.582 2.024 3.28 1.047 1.697 2.166 3.515 2.441 3.974l0.138-0.082-0.161 0.029 0.024 0.054 0.137-0.083-0.161 0.029 4e-3 0.057c2e-3 0.153-0.059 0.508-0.179 0.952-0.419 1.575-1.497 4.371-2.465 6.75-0.485 1.192-0.943 2.282-1.279 3.075-0.337 0.793-0.551 1.285-0.552 1.286l-0.103 0.237 7.043 9.326 0.352-0.266-0.439 0.044c0 1e-3 0.279 2.747 0.582 5.564 0.151 1.408 0.308 2.834 0.44 3.945 0.065 0.556 0.124 1.032 0.173 1.391 0.025 0.179 0.047 0.329 0.067 0.447 0.021 0.122 0.032 0.193 0.062 0.289l2e-3 7e-3 1e-3 2e-3 0.361-0.129h-0.383l0.022 0.129 0.361-0.129h-0.383 0.427l-0.299-0.304-0.128 0.304h0.427l-0.299-0.304 0.299 0.304v-0.427l-0.299 0.123 0.299 0.304v-0.427 0.332l0.154-0.3c-0.01 2e-3 -0.016-0.024-0.154-0.032v0.332l0.154-0.3c-3e-3 3e-3 -0.176-0.119-0.378-0.292-0.738-0.618-2.194-1.98-3.453-3.179-1.262-1.2-2.331-2.239-2.333-2.241l-0.56-0.544-1.639 6.966-1.875 1.875-6.395 1.745 0.043 0.377c1e-3 3e-3 0.186 1.627 0.372 3.324 0.093 0.849 0.186 1.715 0.256 2.402 0.069 0.679 0.116 1.215 0.114 1.296l-8e-3 0.061c-0.054 0.333-0.377 1.296-0.678 2.121-0.303 0.834-0.587 1.565-0.588 1.566l0.412 0.161-0.327-0.297-5.598 6.178 2.971 6.127-4.951 4.951 6.161 5.391v1.881l-4.241 5.453 10.268 2.369 4.226 2.993 0.617 9.056 14.961-17.408-0.139 4.178-7.096 5.977 0.747 8.969-6.419 6.986 3.046 5.14-2.237 7.266 2.258 3.574-1.7 13.406 9.741 3.628 8.395 7.666 1.569 7.055 15.784-5.706 12.086 3.589 6.747-10.121 9.531 0.194-6.745-17.921-0.414 0.156 0.323 0.302z" fill="#231f20"/></g><g transform="translate(368.38 407.44)"><path d="m0 0-3.08 11.051-5.976 0.374-3.05 14.108-1.491 8.572 0.871 0.151 1.487-8.554 2.906-13.437 5.936-0.371 3.248-11.657z" fill="#231f20"/></g><g transform="translate(358.07 427.19)"><path d="m0 0-10.635-9.437-1.827-10.23 0.185-10.332 1.648-6.775 8.173-13.932 3.551-8.597 2.44-6.571 1.317-11.096-1.32-8.111-5.973-15.306-7.074-18.055-3.326-8.687-0.739-8.675-0.182-5.473 1.815-4.174 3.689-7.009 6.254-6.805 6.781-4.583 6.377-1.639 8.413 0.366 6.202 2.736 5.835 4.559 4.005 7.827 0.181 7.987-3.237 7.012-6.601 2.855-4.97-1.065-3.898-3.189-1.193-4.773 2.725-1.874-0.501-0.728-3.231 2.221 1.414 5.653 4.29 3.51 5.455 1.169 7.171-3.102 3.465-7.505-0.191-8.394-4.186-8.18-6.076-4.747-6.454-2.848-8.711-0.379-6.653 1.71-6.993 4.727-6.402 6.966-3.757 7.139-1.908 4.387 0.189 5.694 0.752 8.823 3.374 8.813 7.073 18.051 5.938 15.219 1.286 7.896-1.29 10.868-2.398 6.459-3.521 8.524-8.208 13.99-1.702 6.998-0.188 10.515 1.896 10.617 10.864 9.641z" fill="#231f20"/></g><g transform="translate(365.4 419.28)"><path d="m0 0 15.432 9.895-25.29 2.949 15 4.332 0.245-0.849-10.779-3.113 23.383-2.727-17.514-11.231z" fill="#231f20"/></g><g transform="translate(383.02 439.57)"><path d="m0 0v-9.609h6.259v-0.884h-7.143v10.493z" fill="#231f20"/></g><g transform="translate(366.57 416.37)"><path d="m0 0h7.213l13.059 2.839 5.383-6.536-0.683-0.562-5.039 6.12-12.625-2.745h-7.308z" fill="#231f20"/></g><g transform="translate(382.18 395.63)"><path d="m0 0-1.586 3.172 5.635 11.645v8.413l5.729 8.213 6.247 3.028 0.385-0.795-6.039-2.928-5.438-7.795v-8.338l-5.534-11.436 1.392-2.784z" fill="#231f20"/></g><g transform="translate(373.57 398.43)"><path d="m0 0-0.188 17.629 8.998 13.976 10.323-2.978-0.382-14.627-0.883 0.023 0.363 13.944-9.034 2.606-8.498-13.199 0.185-17.365z" fill="#231f20"/></g><g transform="translate(396.91 371.1)"><path d="m0 0 6.515 2.978 0.367-0.804-6.514-2.978" fill="#231f20"/></g><g transform="translate(396.62 388.05)"><path d="m0 0-6.925 6.141 1.747-12.777-0.876-0.12-2.07 15.142 8.71-7.725z" fill="#231f20"/></g><g transform="translate(389.82 395.18)"><path d="m0 0 11.615-24.044-10.823 9.939 0.597 0.651 7.42-6.814-9.605 19.884z" fill="#231f20"/></g><g clip-path="url(#h)"><g transform="translate(371.27 399.41)"><path d="m0 0 0.243 0.044c0.241 0.023 0.62 0.03 1.118 0.031 2.641 0 8.473-0.239 8.476-0.239l0.08-3e-3 7.745-3.242 6.976 10.103-9.061-0.309-0.612 4.49 0.876 0.119 0.504-3.699 10.019 0.342-8.382-12.139-8.334 3.489 0.171 0.407-0.018-0.441c-3e-3 0-1.458 0.059-3.243 0.119-1.784 0.059-3.898 0.119-5.197 0.119-0.324 0-0.597-4e-3 -0.797-0.012l-0.236-0.014-0.059-8e-3 -8e-3 -1e-3 -0.041 0.183 0.06-0.178-0.019-5e-3 -0.041 0.183 0.06-0.178z" fill="#231f20"/></g></g><g transform="translate(366.87 415.59)"><path d="m0 0-3.187-6.238 0.342-1.711-0.867-0.173-0.402 2.012 3.327 6.512z" fill="#231f20"/></g><g transform="translate(335.13 407.21)"><path d="m0 0 20.491 1.167 8.484-1.969-0.2-0.861-8.36 1.94-20.365-1.159z" fill="#231f20"/></g><g clip-path="url(#g)"><g transform="translate(334.2 394.94)"><path d="m0 0c0.163 0.064 0.417 0.136 0.79 0.235 2.569 0.683 10.256 2.391 10.26 2.392l7e-3 1e-3 13.045 2.423 7.408 1.072 0.127-0.875-7.39-1.069-13.021-2.418-0.081 0.434 0.096-0.431c-5e-3 -1e-3 -2.511-0.558-5.138-1.163-1.313-0.302-2.656-0.616-3.726-0.877-0.535-0.13-1.001-0.247-1.36-0.343-0.356-0.093-0.619-0.173-0.689-0.202z" fill="#231f20"/></g><g transform="translate(340.16 388.05)"><path d="m0 0 6.738 2.62 15.311 2.988 7.267 1.118 0.067-0.437-0.368-0.245 0.211 0.141-0.179-0.181-0.032 0.04 0.211 0.141-0.179-0.181-5e-3 4e-3c-0.061 0.052-0.325 0.212-0.683 0.398-1.27 0.667-3.86 1.845-6.119 2.849-2.261 1.004-4.195 1.838-4.2 1.84l0.35 0.812c1e-3 -1e-3 2.702-1.165 5.451-2.399 1.375-0.618 2.761-1.253 3.833-1.771 0.536-0.259 0.992-0.489 1.335-0.676 0.171-0.094 0.313-0.176 0.429-0.251 0.119-0.085 0.195-0.118 0.313-0.276l0.383-0.577-7.934-1.22-15.216-2.969-6.664-2.592z" fill="#231f20"/></g></g><g transform="translate(339.8 379.12)"><path d="m0 0 11.356 4.096 13.461 4.674 8.995 0.562 0.055-0.882-8.874-0.555-13.341-4.632-11.352-4.094z" fill="#231f20"/></g><g clip-path="url(#f)"><g transform="translate(346.67 373.16)"><path d="m0 0 8.409 3.549 14.945 3.738 0.752 0.107 8.391 1.199 0.062-0.438h-0.442 0.399l-0.343-0.206c-0.015 0.029-0.052 0.079-0.056 0.206h0.399l-0.343-0.206 0.216 0.13-0.188-0.169-0.028 0.039 0.216 0.13-0.188-0.169-7e-3 7e-3c-0.061 0.059-0.311 0.239-0.65 0.458-1.203 0.782-3.664 2.218-5.813 3.452-2.152 1.234-3.994 2.269-3.998 2.271l0.433 0.771c1e-3 -1e-3 2.654-1.49 5.31-3.028 1.328-0.769 2.656-1.549 3.657-2.164 0.501-0.307 0.919-0.572 1.22-0.778 0.151-0.104 0.272-0.191 0.368-0.27l0.136-0.126 0.074-0.099c0.025-0.046 0.066-0.111 0.07-0.249v-0.383l-8.77-1.253-0.706-0.101-14.836-3.709-8.345-3.523z" fill="#231f20"/></g><g transform="translate(347.65 367.06)"><path d="m0 0-0.346-2.551 5.049-5.984-1.702-6.242 2.289-7.441-0.257-0.185c-4e-3 -2e-3 -1.487-1.068-2.994-2.204-0.754-0.568-1.513-1.154-2.089-1.626-0.287-0.237-0.53-0.445-0.698-0.604l-0.187-0.19-0.035-0.043-0.152 0.104 0.173-0.058-0.021-0.046-0.152 0.104 0.173-0.058-0.156 0.052 0.159-0.04-3e-3 -0.012-0.156 0.052 0.159-0.04c-1e-3 0-0.016-0.095-0.024-0.221-0.028-0.391-0.039-1.146-0.039-2.022 0-2.417 0.082-5.802 0.082-5.807l6e-3 -0.221-6.793-5.363 11.817-8.774 8.008-5.586 3.735-2.988-0.553-0.691-3.711 2.97-7.997 5.579-12.753 9.468 7.526 5.942 0.273-0.347-0.441-0.011c0 2e-3 -0.083 3.394-0.083 5.829 0 0.61 5e-3 1.159 0.018 1.585 7e-3 0.213 0.015 0.395 0.027 0.542 0.014 0.154 0.019 0.248 0.06 0.384 0.058 0.153 0.117 0.211 0.186 0.297 0.252 0.286 0.728 0.687 1.342 1.181 1.829 1.463 4.773 3.578 4.776 3.581l0.258-0.359-0.422-0.13-2.272 7.382 1.648 6.042-5.003 5.929 0.399 2.94z" fill="#231f20"/></g></g><g transform="translate(317.53 371.51)"><path d="m0 0 29.298-6.676 11.819 3.324 14.717 3.167 2.79 0.584 7.518 1.579-9.723 6.767 0.505 0.726 11.404-7.938-9.523-1.999-2.787-0.584-14.688-3.161-12.008-3.377-29.518 6.726z" fill="#231f20"/></g><g transform="translate(315.39 359.05)"><path d="m0 0 36.434-0.185 9.455 2.039 14.747 2.426 11.147 0.214-8.256 8.341 0.628 0.621 9.707-9.806-13.145-0.252-14.662-2.413-9.53-2.055-36.529 0.186z" fill="#231f20"/></g><g transform="translate(350.29 352.71)"><path d="m0 0 12.647-2.976 14.305-2.787 10.962-1.115-0.09-0.879-11.001 1.119-14.361 2.797-12.664 2.981z" fill="#231f20"/></g><g clip-path="url(#e)"><g transform="translate(384.82 334.19)"><path d="m0 0-10.576 4.453-13.199 3.161-0.018 6e-3c-5e-3 1e-3 -2.093 0.697-4.232 1.395-1.069 0.348-2.15 0.697-2.984 0.958-0.417 0.13-0.773 0.239-1.032 0.313-0.129 0.038-0.235 0.066-0.308 0.085l-0.08 0.018-0.01 2e-3 0.038 0.27v-0.272l-0.038 2e-3 0.038 0.27v-0.272h-0.017l-35.195 2.607 0.065 0.882 35.18-2.606-0.033-0.441v0.442c0.132-6e-3 0.166-0.023 0.267-0.045 0.653-0.164 2.783-0.85 4.784-1.504 1.995-0.652 3.836-1.266 3.836-1.266l-0.14-0.419 0.103 0.43 13.251-3.173 10.643-4.481z" fill="#231f20"/></g></g><g transform="translate(377.33 325.65)"><path d="m0 0-7.605 4.452-11.699 4.827-11.692 4.75-16.744-11.177-0.491 0.735 17.133 11.438 12.129-4.928 11.758-4.852 7.658-4.482z" fill="#231f20"/></g><g transform="translate(346.5 332.37)"><path d="m0 0 8.962-5.04 9.316-7.081 4.839-3.097 0.049-3.961-0.884-0.011-0.043 3.484-4.467 2.86-9.297 7.065-8.908 5.011z" fill="#231f20"/></g><g transform="translate(369.17 317.35)"><path d="m0 0 2.608 0.04 0.494 11.635 0.883-0.037-0.53-12.469-3.442-0.053z" fill="#231f20"/></g><g clip-path="url(#d)"><g transform="translate(337.98 315.3)"><path d="m0 0c0.161-0.031 0.289-0.086 0.501-0.173 1.507-0.639 6.228-3.108 10.609-5.434 4.376-2.323 8.384-4.491 8.385-4.491l-0.421-0.777c-3e-3 1e-3 -1.139 0.616-2.866 1.543-2.591 1.391-6.503 3.482-9.87 5.242-1.683 0.88-3.231 1.677-4.406 2.262-0.588 0.291-1.083 0.53-1.451 0.698-0.185 0.084-0.338 0.15-0.451 0.195l-0.135 0.051-0.037 0.011-7e-3 2e-3 0.015 0.066-0.012-0.067-3e-3 1e-3 0.015 0.066-0.012-0.067z" fill="#231f20"/></g></g><g transform="translate(331.18 306.15)"><path d="m0 0 13.736-5.568 11.556-2.312 0.349 6.638 3.015 7.348 9.682 18.433 7.219 15.918 0.367 9.173-1.103 6.248-2.966 8.713-3.326 9.056-5.382 7.422-6.359 12.158-2.852 8.555 4.57 12.67 4.168-11.936-26.681 13.501 8.369-14.391-0.764-0.444-9.871 16.973 27.389-13.86-2.624 7.514-3.621-10.038 2.733-8.197 6.296-12.038 5.416-7.469 3.373-9.182 2.991-8.785 1.131-6.41-0.378-9.441-7.3-16.098-9.675-18.42-2.942-7.169-0.394-7.509-12.641 2.528-13.813 5.6z" fill="#231f20"/></g><g transform="translate(335.58 293.7)"><path d="m0 0 8.541-1.857 12.45-1.486-0.105-0.878-12.492 1.492-8.582 1.865z" fill="#231f20"/></g><g transform="translate(337.41 279.55)"><path d="m0 0 8.207 2.425 10.44 2.236 0.185-0.864-10.407-2.229-8.174-2.416z" fill="#231f20"/></g><g transform="translate(341.22 270.2)"><path d="m0 0 8.035 4.671 9.152 3.548 0.319-0.824-9.087-3.524-7.975-4.635z" fill="#231f20"/></g><g transform="translate(349.31 261.37)"><path d="m0 0 6.12 6.491 4.447 6.486 0.729-0.5-4.486-6.543-6.167-6.54z" fill="#231f20"/></g><g clip-path="url(#c)"><g transform="translate(359.61 255.49)"><path d="m0 0c3e-3 0.113 0.02 0.179 0.041 0.277 0.16 0.671 0.8 2.465 1.411 4.142 0.61 1.668 1.183 3.182 1.183 3.183l9e-3 0.021 3.917 7.838 0.791-0.396-3.908-7.817-0.395 0.197 0.413-0.156c-1e-3 -4e-3 -0.651-1.72-1.301-3.508-0.325-0.894-0.651-1.805-0.893-2.523-0.121-0.359-0.222-0.67-0.29-0.902-0.034-0.116-0.06-0.213-0.077-0.282l-0.016-0.076-2e-3 -0.014-0.15 0.016h0.151l-1e-3 -0.016-0.15 0.016h0.151z" fill="#231f20"/></g></g><g transform="translate(368.73 254.93)"><path d="m0 0v6.377l1.686 7.493 0.862-0.194-1.664-7.397v-6.279z" fill="#231f20"/></g><g transform="translate(378.99 255.92)"><path d="m0 0-1.672 5.576-2.42 7.443 0.84 0.274 2.422-7.45 1.677-5.589z" fill="#231f20"/></g><g transform="translate(386.73 260.58)"><path d="m0 0-3.256 3.35-2.962 5.688 0.784 0.408 2.902-5.573 3.166-3.257z" fill="#231f20"/></g><g transform="translate(393.3 265.92)"><path d="m0 0-4.663 3.357-3.731 2.985 0.552 0.69 3.714-2.971 4.644-3.344z" fill="#231f20"/></g><g transform="translate(397.71 272.75)"><path d="m0 0-4.893 1.505-4.888 3.008 0.463 0.753 4.792-2.949 4.786-1.472z" fill="#231f20"/></g><g transform="translate(399.22 281.3)"><path d="m0 0-5.246-0.962-5.546 3.634 0.485 0.739 5.249-3.44 4.899 0.899z" fill="#231f20"/></g><g transform="translate(395.73 289.8)"><path d="m0 0-2.69-2.005-6.399 0.429 0.06 0.882 6.072-0.407 2.429 1.81z" fill="#231f20"/></g><g transform="translate(389.96 295.42)"><path d="m0 0-0.963-2.167-3.963-4.058-0.633 0.618 3.853 3.945 0.898 2.021z" fill="#231f20"/></g><g transform="translate(381.9 296.87)"><path d="m0 0 0.931-6.328-0.875-0.129-0.931 6.328" fill="#231f20"/></g><g transform="translate(375.28 293.93)"><path d="m0 0 4.094-4.84-0.675-0.571-4.094 4.84" fill="#231f20"/></g><g transform="translate(371.93 288.13)"><path d="m0 0 6.328 0.559 0.078-0.88-6.328-0.559" fill="#231f20"/></g><g transform="translate(375.92 284.2)"><path d="m0 0 4.003 1.35 0.282-0.838-4.003-1.35" fill="#231f20"/></g><g transform="translate(337.47 325.42)"><path d="m0 0-0.889 8.002-7.719 0.386 3.852 8.475-5.652 4.711 4.467 5.77-7.028 5.888 6.257 3.911-0.184 5.721 3.993 3.594 4.239 0.177 0.338 3.94 0.88-0.076-0.404-4.715-4.698-0.196-3.452-3.106 0.188-5.819-5.656-3.535 6.747-5.653-4.466-5.768 5.515-4.596-3.593-7.905 7.171-0.359 0.972-8.749z" fill="#231f20"/></g><g clip-path="url(#b)"><g transform="translate(346.49 364.11)"><path d="m0 0c-0.034 0.048-0.208 0.238-0.448 0.48-0.852 0.861-2.639 2.546-4.207 4.009-1.568 1.464-2.918 2.707-2.921 2.71l-0.054 0.049-7.109 13.095 0.777 0.421 7.074-13.029-0.389-0.211 0.3 0.325s1.769-1.63 3.608-3.353c0.92-0.862 1.858-1.747 2.602-2.465 0.372-0.359 0.696-0.676 0.947-0.93 0.253-0.257 0.422-0.433 0.527-0.571z" fill="#231f20"/></g></g><g transform="translate(351.78 357.98)"><path d="m0 0-20.698 3.915-9.901 3.737 0.312 0.827 9.829-3.709 20.622-3.902z" fill="#231f20"/></g><g transform="translate(321.4 364.21)"><path d="m0 0 9.864-1.443-0.128-0.875-9.864 1.443" fill="#231f20"/></g><g transform="translate(350.18 351.93)"><path d="m0 0-18.066 0.466-11.924 0.931 0.069 0.882 11.901-0.93 18.043-0.465z" fill="#231f20"/></g><g transform="translate(318.9 351.36)"><path d="m0 0 13.169 1.907 0.127-0.874-13.169-1.908" fill="#231f20"/></g><g clip-path="url(#a)"><g transform="translate(322.73 342.1)"><path d="m0 0c0.015-5e-3 0.169-0.017 0.369-0.016 1.037-1e-3 3.585 0.191 5.847 0.383 2.267 0.192 4.261 0.384 4.265 0.384l0.085-0.88c-0.011 0-7.986-0.769-10.197-0.771-0.229 1e-3 -0.388 5e-3 -0.542 0.033z" fill="#231f20"/></g></g><g transform="translate(322.99 331.07)"><path d="m0 0 6.341 3.543 19.787 9.418-15.731-2.049-9.239-4.62-0.396 0.79 9.373 4.687 21.402 2.789-24.79-11.8-6.316-3.53z" fill="#231f20"/></g><g transform="translate(327.2 373.74)"><path d="m0 0 6.304-1.396-2.443 3.796 0.743 0.479 3.606-5.603-8.401 1.861z" fill="#231f20"/></g><g transform="translate(387.23 406.25)"><path d="m0 0 0.364-0.252-1.586-2.29 0.158-2.058 2.298-1.641 2.466 0.308 0.309 2.474-2.011 3.017h-1.998v0.442l0.364-0.252-0.364 0.252v0.442h2.471l2.456-3.684-0.436-3.483-3.49-0.436-2.914 2.082-0.214 2.782 1.896 2.739h0.231z" fill="#231f20"/></g><g transform="translate(365.57 400.31)"><path d="m0 0-10.237 7.259 0.511 0.721 10.237-7.259" fill="#231f20"/></g><g clip-path="url(#i)"><g transform="translate(372.5 388.99)"><path d="m0 0h0.442l-0.335-0.288c-0.027 0.038-0.098 0.1-0.107 0.288h0.442l-0.335-0.288 0.334 0.287-0.234-0.374-0.1 0.087 0.334 0.287-0.234-0.374 0.222 0.355-0.165-0.384-0.057 0.029 0.222 0.355-0.165-0.384-3e-3 1e-3c-0.241 0.093-2.872 1.037-5.5 1.979-2.635 0.945-5.272 1.89-5.596 2.012l0.311 0.827c0.309-0.116 3.097-1.115 5.795-2.083 1.35-0.484 2.68-0.961 3.673-1.318 0.497-0.179 0.909-0.327 1.197-0.432 0.145-0.052 0.258-0.093 0.336-0.122l0.092-0.035 0.032-0.012 0.023-0.01 0.033-0.017 0.052-0.034 0.068-0.064c0.026-0.038 0.098-0.1 0.107-0.288z" fill="#231f20"/></g></g><g transform="translate(364.37 387.73)"><path d="m0 0 2.886 3.536 0.685-0.559-2.886-3.536" fill="#231f20"/></g><g transform="translate(382.36 363.16)"><path d="m0 0 7.692-9.515-12.518 0.605-15.628 0.28 0.015 0.884 15.643-0.28 10.561-0.511-6.452 7.981z" fill="#231f20"/></g><g transform="translate(389.43 344.81)"><path d="m0 0-6.653 9.446 0.722 0.51 6.654-9.447" fill="#231f20"/></g><g transform="translate(386.99 333.17)"><path d="m0 0-3.49 12.378 0.851 0.24 3.49-12.378" fill="#231f20"/></g><g transform="translate(381.12 326.34)"><path d="m0 0-1.582 10.424 0.874 0.132 1.582-10.423" fill="#231f20"/></g><g transform="translate(354.16 434.84)"><path d="m0 0-2.467-13.215-0.869 0.162 2.467 13.215" fill="#231f20"/></g><g transform="translate(335.42 407.13)"><path d="m0 0 10.237-9.679-0.607-0.642-10.237 9.679" fill="#231f20"/></g></g></svg>
