<?xml version="1.0" encoding="UTF-8"?>
<svg width="227.99" height="304.4" version="1.1" viewBox="0 0 227.99 304.4" xml:space="preserve" xmlns="http://www.w3.org/2000/svg"><defs><clipPath id="a"><path d="m0 0h841.89v595.28h-841.89z"/></clipPath></defs><g transform="matrix(.93613 0 0 .93613 98.899 -3.9514)"><g transform="matrix(1.7056 0 0 -1.7056 16.185 259.69)"><path d="M 0,0 0.194,-0.27 43.963,31.082 59.879,58.545 49.272,97.382 23.836,117.045 0.312,118.291 -23.371,117.356 -48.342,97.847 -59.26,58.7 -42.878,30.617 -0.001,-0.41 0.194,-0.27 0,0 0.195,0.269 -42.374,31.074 -58.543,58.792 -47.76,97.458 -23.131,116.7 0.308,117.625 23.594,116.391 48.689,96.992 59.164,58.638 43.459,31.54 -0.194,0.27 0,0 0.195,0.269 Z" fill="#243587"/></g><g transform="matrix(1.7056 0 0 -1.7056 16.185 259.69)"><path d="M 0,0 0.194,-0.27 43.963,31.082 59.879,58.545 49.272,97.382 23.836,117.045 0.312,118.291 -23.371,117.356 -48.342,97.847 -59.26,58.7 -42.878,30.617 -0.001,-0.41 0.194,-0.27 0,0 0.195,0.269 -42.374,31.074 -58.543,58.792 -47.76,97.458 -23.131,116.7 0.308,117.625 23.594,116.391 48.689,96.992 59.164,58.638 43.459,31.54 -0.194,0.27 0,0 0.195,0.269 Z" fill="none" stroke="#243587" stroke-miterlimit="10" stroke-width=".281"/></g><g transform="matrix(1.7056 0 0 -1.7056 16.185 116.67)"><path d="m0 0-0.227-0.243 9.35-8.736v-28.659l-0.749 0.748-7.752 1.266-8.366-1.263-1.224-1.112v28.868l9.199 8.892-0.231 0.239-0.227-0.243 0.227 0.243-0.231 0.239-9.402-9.088v-30.653l2.187 1.987 8.064 1.217 7.438-1.214 1.732-1.732v30.553l-9.792 9.15-0.227-0.22z" fill="#243587"/></g><g transform="matrix(1.7056 0 0 -1.7056 16.185 116.67)"><path d="m0 0-0.227-0.243 9.35-8.736v-28.659l-0.749 0.748-7.752 1.266-8.366-1.263-1.224-1.112v28.868l9.199 8.892-0.231 0.239-0.227-0.243 0.227 0.243-0.231 0.239-9.402-9.088v-30.653l2.187 1.987 8.064 1.217 7.438-1.214 1.732-1.732v30.553l-9.792 9.15-0.227-0.22z" fill="none" stroke="#243587" stroke-miterlimit="10" stroke-width=".281"/></g><g transform="matrix(1.7056 0 0 -1.7056 60.748 63.388)"><path d="m0 0 8.908 9.522 11.934 1.511 7.856-10.577-2.12-10.901-6.266-5.35 0.432-0.506 6.443 5.5 2.22 11.419-8.263 11.124-12.557-1.59-9.073-9.698z" fill="#243587"/></g><g transform="matrix(1.7056 0 0 -1.7056 60.748 63.388)"><path d="m0 0 8.908 9.522 11.934 1.511 7.856-10.577-2.12-10.901-6.266-5.35 0.432-0.506 6.443 5.5 2.22 11.419-8.263 11.124-12.557-1.59-9.073-9.698z" fill="none" stroke="#243587" stroke-miterlimit="10" stroke-width=".281"/></g><g transform="matrix(1.7056 0 0 -1.7056 85.354 83.457)"><path d="m0 0 6.639 7.903-3.12 7.716-7.278-1.158-3.01-8.713 0.628-0.218 2.881 8.337 6.361 1.012 2.771-6.854-6.381-7.597z" fill="#243587"/></g><g transform="matrix(1.7056 0 0 -1.7056 85.354 83.457)"><path d="m0 0 6.639 7.903-3.12 7.716-7.278-1.158-3.01-8.713 0.628-0.218 2.881 8.337 6.361 1.012 2.771-6.854-6.381-7.597z" fill="none" stroke="#243587" stroke-miterlimit="10" stroke-width=".281"/></g><g transform="matrix(1.7056 0 0 -1.7056 -27.016 62.62)"><path d="m0 0-8.916 9.855-12.714 1.748-8.578-11.436 2.223-10.953 6.751-5.81 0.434 0.505-6.579 5.66-2.117 10.438 8.163 10.884 12.086-1.662 8.754-9.675z" fill="#243587"/></g><g transform="matrix(1.7056 0 0 -1.7056 -27.016 62.62)"><path d="m0 0-8.916 9.855-12.714 1.748-8.578-11.436 2.223-10.953 6.751-5.81 0.434 0.505-6.579 5.66-2.117 10.438 8.163 10.884 12.086-1.662 8.754-9.675z" fill="none" stroke="#243587" stroke-miterlimit="10" stroke-width=".281"/></g><g transform="matrix(1.7056 0 0 -1.7056 -40.649 73.914)"><path d="m0 0-3.167 8.869-6.78 0.992-3.943-7.064 6.81-8.236 0.513 0.424-6.52 7.885 3.497 6.266 5.931-0.867 3.033-8.493z" fill="#243587"/></g><g transform="matrix(1.7056 0 0 -1.7056 -40.649 73.914)"><path d="m0 0-3.167 8.869-6.78 0.992-3.943-7.064 6.81-8.236 0.513 0.424-6.52 7.885 3.497 6.266 5.931-0.867 3.033-8.493z" fill="none" stroke="#243587" stroke-miterlimit="10" stroke-width=".281"/></g><g transform="matrix(1.7056 0 0 -1.7056 -902.06 921.43)"><g clip-path="url(#a)"><g transform="translate(479.63 446.44)"><path d="m0 0 0.191 0.132c0.241 0.202 0.644 0.606 1.195 1.185 3.837 4.029 14.524 16.275 14.526 16.277l0.018 0.02 22.709 36.201 20.267 1.382 20.117-1.587 23.33-36.154 15.673-17.535 0.496 0.443-15.638 17.496-23.481 36.387-20.493 1.617-20.655-1.408-22.875-36.466 0.282-0.177-0.251 0.219c-2e-3 -3e-3 -0.929-1.066-2.339-2.671-2.114-2.408-5.307-6.031-8.057-9.095-1.375-1.532-2.64-2.924-3.602-3.952-0.481-0.514-0.887-0.938-1.191-1.24-0.152-0.152-0.278-0.273-0.373-0.357l-0.114-0.098-0.032-0.023-1e-3 -1e-3z" fill="#243587"/></g><g transform="translate(479.63 446.44)"><path d="m0 0 0.191 0.132c0.241 0.202 0.644 0.606 1.195 1.185 3.837 4.029 14.524 16.275 14.526 16.277l0.018 0.02 22.709 36.201 20.267 1.382 20.117-1.587 23.33-36.154 15.673-17.535 0.496 0.443-15.638 17.496-23.481 36.387-20.493 1.617-20.655-1.408-22.875-36.466 0.282-0.177-0.251 0.219c-2e-3 -3e-3 -0.929-1.066-2.339-2.671-2.114-2.408-5.307-6.031-8.057-9.095-1.375-1.532-2.64-2.924-3.602-3.952-0.481-0.514-0.887-0.938-1.191-1.24-0.152-0.152-0.278-0.273-0.373-0.357l-0.114-0.098-0.032-0.023-1e-3 -1e-3z" fill="none" stroke="#243587" stroke-miterlimit="10" stroke-width=".281"/></g><g transform="translate(487.71 433.02)"><path d="m0 0 7.263 29.98 15.888 15.887 27.679 22.451 27.988-22.298 15.488-15.179 0.233 0.238-0.323-0.081c2e-3 -5e-3 0.446-1.773 1.124-4.471 2.035-8.094 6.162-24.515 6.627-26.374l0.645 0.161c-0.62 2.481-7.75 30.846-7.75 30.846l-0.023 0.091-15.58 15.268-28.433 22.653-28.121-22.811-16.044-16.043-7.307-30.161z" fill="#243587"/></g><g transform="translate(487.71 433.02)"><path d="m0 0 7.263 29.98 15.888 15.887 27.679 22.451 27.988-22.298 15.488-15.179 0.233 0.238-0.323-0.081c2e-3 -5e-3 0.446-1.773 1.124-4.471 2.035-8.094 6.162-24.515 6.627-26.374l0.645 0.161c-0.62 2.481-7.75 30.846-7.75 30.846l-0.023 0.091-15.58 15.268-28.433 22.653-28.121-22.811-16.044-16.043-7.307-30.161z" fill="none" stroke="#243587" stroke-miterlimit="10" stroke-width=".281"/></g></g></g><g transform="matrix(1.7056 0 0 -1.7056 -67.883 101.04)"><path d="m0 0 25.731 13.64-0.312 0.588-25.731-13.64" fill="#243587" stroke="#243587" stroke-miterlimit="10" stroke-width=".281"/></g><g transform="matrix(1.7056 0 0 -1.7056 56.541 77.336)"><path d="m0 0 26.247-14.054 0.314 0.587-26.247 14.053" fill="#243587" stroke="#243587" stroke-miterlimit="10" stroke-width=".281"/></g><g transform="matrix(1.7056 0 0 -1.7056 -12.523 89.793)"><path d="m0 0 17.605 6.518 16.468-6.31 0.238 0.621-16.702 6.4-17.84-6.605z" fill="#243587"/></g><g transform="matrix(1.7056 0 0 -1.7056 -12.523 89.793)"><path d="m0 0 17.605 6.518 16.468-6.31 0.238 0.621-16.702 6.4-17.84-6.605z" fill="none" stroke="#243587" stroke-miterlimit="10" stroke-width=".281"/></g><g transform="matrix(1.7056 0 0 -1.7056 -4.4586 86.797)"><path d="m0 0 12.57-4.694 12.672 4.85-0.237 0.621-12.438-4.76-12.334 4.606z" fill="#243587"/></g><g transform="matrix(1.7056 0 0 -1.7056 -4.4586 86.797)"><path d="m0 0 12.57-4.694 12.672 4.85-0.237 0.621-12.438-4.76-12.334 4.606z" fill="none" stroke="#243587" stroke-miterlimit="10" stroke-width=".281"/></g><g transform="matrix(1.7056 0 0 -1.7056 64.304 103.47)"><path d="m0 0-23.56-12.09 0.303-0.592 23.561 12.09" fill="#243587" stroke="#243587" stroke-miterlimit="10" stroke-width=".281"/></g><g transform="matrix(1.7056 0 0 -1.7056 -31.388 104.75)"><path d="m0 0 23.56-11.625 0.295 0.596-23.561 11.625" fill="#243587" stroke="#243587" stroke-miterlimit="10" stroke-width=".281"/></g><g transform="matrix(1.7056 0 0 -1.7056 -.052634 131.57)"><path d="m0 0-3.966-3.49-4.967-33.524-4.905-6.985-16.328 8.241-0.3-0.594 16.842-8.5 5.326 7.585 4.954 33.438 3.783 3.33z" fill="#243587"/></g><g transform="matrix(1.7056 0 0 -1.7056 -.052634 131.57)"><path d="m0 0-3.966-3.49-4.967-33.524-4.905-6.985-16.328 8.241-0.3-0.594 16.842-8.5 5.326 7.585 4.954 33.438 3.783 3.33z" fill="none" stroke="#243587" stroke-miterlimit="10" stroke-width=".281"/></g><g transform="matrix(1.7056 0 0 -1.7056 31.945 132.17)"><path d="m0 0 3.937-3.331 5.571-33.893 4.693-7.282 17.316 8.5-0.293 0.597-16.785-8.239-4.297 6.668-5.589 33.998-4.123 3.49z" fill="#243587"/></g><g transform="matrix(1.7056 0 0 -1.7056 31.945 132.17)"><path d="m0 0 3.937-3.331 5.571-33.893 4.693-7.282 17.316 8.5-0.293 0.597-16.785-8.239-4.297 6.668-5.589 33.998-4.123 3.49z" fill="none" stroke="#243587" stroke-miterlimit="10" stroke-width=".281"/></g><g transform="matrix(1.7056 0 0 -1.7056 -58.241 132.02)"><path d="m0 0 18.496 4.196 4.408 2.585 7.376-2.508-0.144-7.315-9.041 0.584-2.408 7.074-0.63-0.214 2.552-7.495 10.179-0.657 0.167 8.496-8.125 2.762-4.582-2.686-18.395-4.173z" fill="#243587"/></g><g transform="matrix(1.7056 0 0 -1.7056 -58.241 132.02)"><path d="m0 0 18.496 4.196 4.408 2.585 7.376-2.508-0.144-7.315-9.041 0.584-2.408 7.074-0.63-0.214 2.552-7.495 10.179-0.657 0.167 8.496-8.125 2.762-4.582-2.686-18.395-4.173z" fill="none" stroke="#243587" stroke-miterlimit="10" stroke-width=".281"/></g><g transform="matrix(1.7056 0 0 -1.7056 91.11 129.33)"><path d="m0 0-11.012 2.172-7.079 1.077-4.88 2.676-7.966-2.602 0.166-8.498 10.652 0.656 2.238 7.351-0.637 0.193-2.103-6.909-9.498-0.584-0.143 7.312 7.224 2.359 4.73-2.594 7.181-1.093 10.998-2.169z" fill="#243587"/></g><g transform="matrix(1.7056 0 0 -1.7056 91.11 129.33)"><path d="m0 0-11.012 2.172-7.079 1.077-4.88 2.676-7.966-2.602 0.166-8.498 10.652 0.656 2.238 7.351-0.637 0.193-2.103-6.909-9.498-0.584-0.143 7.312 7.224 2.359 4.73-2.594 7.181-1.093 10.998-2.169z" fill="none" stroke="#243587" stroke-miterlimit="10" stroke-width=".281"/></g><g transform="matrix(1.7056 0 0 -1.7056 71.67 126.09)"><path d="m0 0-1.372-8.535-15.993-10.449 27.99-7.74 0.177 0.641-26.571 7.347 15.007 9.805 1.419 8.826z" fill="#243587"/></g><g transform="matrix(1.7056 0 0 -1.7056 71.67 126.09)"><path d="m0 0-1.372-8.535-15.993-10.449 27.99-7.74 0.177 0.641-26.571 7.347 15.007 9.805 1.419 8.826z" fill="none" stroke="#243587" stroke-miterlimit="10" stroke-width=".281"/></g><g transform="matrix(1.7056 0 0 -1.7056 94.941 147.74)"><path d="m0 0-8.68-38.441 0.649-0.146 8.68 38.44" fill="#243587" stroke="#243587" stroke-miterlimit="10" stroke-width=".281"/></g><g transform="matrix(1.7056 0 0 -1.7056 73.827 166.67)"><path d="m0 0-19.531-44.021 0.608-0.27 19.531 44.021" fill="#243587" stroke="#243587" stroke-miterlimit="10" stroke-width=".281"/></g><g transform="matrix(1.7056 0 0 -1.7056 48.159 195.28)"><path d="m0 0-2.593-8.389-8.926-4.464-2.12-2.573-9.315-0.301-2.722 2.722-8.597 4.759-2.289 8.544-0.642-0.172 2.361-8.817 8.763-4.851 2.859-2.859 9.904 0.32 2.221 2.697 9.055 4.527 2.676 8.661z" fill="#243587"/></g><g transform="matrix(1.7056 0 0 -1.7056 48.159 195.28)"><path d="m0 0-2.593-8.389-8.926-4.464-2.12-2.573-9.315-0.301-2.722 2.722-8.597 4.759-2.289 8.544-0.642-0.172 2.361-8.817 8.763-4.851 2.859-2.859 9.904 0.32 2.221 2.697 9.055 4.527 2.676 8.661z" fill="none" stroke="#243587" stroke-miterlimit="10" stroke-width=".281"/></g><g transform="matrix(1.7056 0 0 -1.7056 -41.965 167.39)"><path d="m0 0 19.996-44.331 0.606 0.273-19.996 44.331" fill="#243587" stroke="#243587" stroke-miterlimit="10" stroke-width=".281"/></g><g transform="matrix(1.7056 0 0 -1.7056 -62.885 148.52)"><path d="m0 0 8.835-38.131 0.648 0.15-8.835 38.131" fill="#243587" stroke="#243587" stroke-miterlimit="10" stroke-width=".281"/></g><g transform="matrix(1.7056 0 0 -1.7056 -39.895 127.15)"><path d="m0 0 1.262-8.939 15.235-9.291-26.485-7.236 0.175-0.642 27.973 7.643-16.283 9.93-1.218 8.628z" fill="#243587"/></g><g transform="matrix(1.7056 0 0 -1.7056 -39.895 127.15)"><path d="m0 0 1.262-8.939 15.235-9.291-26.485-7.236 0.175-0.642 27.973 7.643-16.283 9.93-1.218 8.628z" fill="none" stroke="#243587" stroke-miterlimit="10" stroke-width=".281"/></g><g transform="matrix(1.7056 0 0 -1.7056 -.038653 182.32)"><path d="m0 0-2.776-2.287 1.442-11.376 10.846-4.626 11.153 4.78 1.602 11.056-3.078 2.754-0.444-0.496 2.813-2.516-1.498-10.334-10.548-4.52-10.234 4.364-1.348 10.634 2.493 2.053z" fill="#243587"/></g><g transform="matrix(1.7056 0 0 -1.7056 -.038653 182.32)"><path d="m0 0-2.776-2.287 1.442-11.376 10.846-4.626 11.153 4.78 1.602 11.056-3.078 2.754-0.444-0.496 2.813-2.516-1.498-10.334-10.548-4.52-10.234 4.364-1.348 10.634 2.493 2.053z" fill="none" stroke="#243587" stroke-miterlimit="10" stroke-width=".281"/></g><g transform="matrix(1.7056 0 0 -1.7056 28.934 217.09)"><path d="m0 0-7.285 0.775-0.07-0.662 7.285-0.774" fill="#243587" stroke="#243587" stroke-miterlimit="10" stroke-width=".281"/></g><g transform="matrix(1.7056 0 0 -1.7056 4.0951 218.48)"><path d="m0 0 7.577 0.967-0.054 16.992-6.818-1.676-2.776-3.216-2.636 2.708 2.229-6.55 9.722-3.985 10.026 4.138 2.043 5.535-2.118-1.589-2.961 2.961-6.91 1.728-0.161-0.646 6.731-1.682 3.238-3.239 0.776 0.581-1.161-3.145-9.504-3.922-9.189 3.766-1.182 3.473 1.086-1.116 3.112 3.605 5.79 1.423 0.05-15.559-6.994-0.892z" fill="#243587"/></g><g transform="matrix(1.7056 0 0 -1.7056 4.0951 218.48)"><path d="m0 0 7.577 0.967-0.054 16.992-6.818-1.676-2.776-3.216-2.636 2.708 2.229-6.55 9.722-3.985 10.026 4.138 2.043 5.535-2.118-1.589-2.961 2.961-6.91 1.728-0.161-0.646 6.731-1.682 3.238-3.239 0.776 0.581-1.161-3.145-9.504-3.922-9.189 3.766-1.182 3.473 1.086-1.116 3.112 3.605 5.79 1.423 0.05-15.559-6.994-0.892z" fill="none" stroke="#243587" stroke-miterlimit="10" stroke-width=".281"/></g><g transform="matrix(1.7056 0 0 -1.7056 22.597 189.57)"><path d="m0 0-1.664-2.33 2.017-4.203 5.744-1.117 0.127 0.653-5.416 1.053-1.703 3.547 1.436 2.01z" fill="#243587"/></g><g transform="matrix(1.7056 0 0 -1.7056 22.597 189.57)"><path d="m0 0-1.664-2.33 2.017-4.203 5.744-1.117 0.127 0.653-5.416 1.053-1.703 3.547 1.436 2.01z" fill="none" stroke="#243587" stroke-miterlimit="10" stroke-width=".281"/></g><g transform="matrix(1.7056 0 0 -1.7056 9.5967 189.89)"><path d="m0 0 1.025-2.05-1.293-4.167-5.217-0.745 0.094-0.658 5.634 0.804 1.497 4.824-1.145 2.29z" fill="#243587"/></g><g transform="matrix(1.7056 0 0 -1.7056 9.5967 189.89)"><path d="m0 0 1.025-2.05-1.293-4.167-5.217-0.745 0.094-0.658 5.634 0.804 1.497 4.824-1.145 2.29z" fill="none" stroke="#243587" stroke-miterlimit="10" stroke-width=".281"/></g><g transform="matrix(1.7056 0 0 -1.7056 26.46 219.97)"><path d="m0 0-2.17-20.305 0.661-0.071 2.17 20.305" fill="#243587" stroke="#243587" stroke-miterlimit="10" stroke-width=".281"/></g><g transform="matrix(1.7056 0 0 -1.7056 5.0471 219.85)"><path d="m0 0 2.79-20.771 0.659 0.089-2.79 20.771" fill="#243587" stroke="#243587" stroke-miterlimit="10" stroke-width=".281"/></g><g transform="matrix(1.7056 0 0 -1.7056 44.207 130.41)"><path d="m0 0 0.321-0.087 0.433 1.587 2.189 1.505 2.181-1.54-1.02-1.53-1.772-1.09-2.147 1.432-0.185-0.277 0.321-0.087-0.321 0.087-0.184-0.277 2.502-1.668 2.258 1.39 1.46 2.19-3.088 2.18-2.772-1.905-0.56-2.054 0.2-0.133z" fill="#243587"/></g><g transform="matrix(1.7056 0 0 -1.7056 44.207 130.41)"><path d="m0 0 0.321-0.087 0.433 1.587 2.189 1.505 2.181-1.54-1.02-1.53-1.772-1.09-2.147 1.432-0.185-0.277 0.321-0.087-0.321 0.087-0.184-0.277 2.502-1.668 2.258 1.39 1.46 2.19-3.088 2.18-2.772-1.905-0.56-2.054 0.2-0.133z" fill="none" stroke="#243587" stroke-miterlimit="10" stroke-width=".281"/></g><g transform="matrix(1.7056 0 0 -1.7056 -11.045 130.68)"><path d="m0 0 0.321 0.087-0.496 1.818-2.582 1.894-3.293-1.647 1.636-2.727 2.096-0.873 2.713 1.265-0.074 0.27-0.321-0.087-0.141 0.301-2.192-1.022-1.624 0.676-1.153 1.923 2.287 1.144 2.067-1.516 0.435-1.594 0.321 0.088-0.141 0.301z" fill="#243587"/></g><g transform="matrix(1.7056 0 0 -1.7056 -11.045 130.68)"><path d="m0 0 0.321 0.087-0.496 1.818-2.582 1.894-3.293-1.647 1.636-2.727 2.096-0.873 2.713 1.265-0.074 0.27-0.321-0.087-0.141 0.301-2.192-1.022-1.624 0.676-1.153 1.923 2.287 1.144 2.067-1.516 0.435-1.594 0.321 0.088-0.141 0.301z" fill="none" stroke="#243587" stroke-miterlimit="10" stroke-width=".281"/></g></g></svg>
