<?xml version="1.0" encoding="UTF-8" standalone="no"?>
<svg
   xmlns:dc="http://purl.org/dc/elements/1.1/"
   xmlns:cc="http://creativecommons.org/ns#"
   xmlns:rdf="http://www.w3.org/1999/02/22-rdf-syntax-ns#"
   xmlns:svg="http://www.w3.org/2000/svg"
   xmlns="http://www.w3.org/2000/svg"
   xmlns:sodipodi="http://sodipodi.sourceforge.net/DTD/sodipodi-0.dtd"
   xmlns:inkscape="http://www.inkscape.org/namespaces/inkscape"
   version="1.1"
   id="svg2"
   xml:space="preserve"
   width="507.85757"
   height="426.92624"
   viewBox="0 0 507.85757 426.92623"
   sodipodi:docname="bottom.svg"
   inkscape:version="1.0 (4035a4fb49, 2020-05-01)"><metadata
     id="metadata8"><rdf:RDF><cc:Work
         rdf:about=""><dc:format>image/svg+xml</dc:format><dc:type
           rdf:resource="http://purl.org/dc/dcmitype/StillImage" /><dc:title></dc:title></cc:Work></rdf:RDF></metadata><defs
     id="defs6" /><sodipodi:namedview
     fit-margin-bottom="0"
     fit-margin-right="0"
     fit-margin-left="0"
     fit-margin-top="0"
     inkscape:document-rotation="0"
     pagecolor="#ffffff"
     bordercolor="#666666"
     borderopacity="1"
     objecttolerance="10"
     gridtolerance="10"
     guidetolerance="10"
     inkscape:pageopacity="0"
     inkscape:pageshadow="2"
     inkscape:window-width="1920"
     inkscape:window-height="1016"
     id="namedview4"
     showgrid="false"
     inkscape:zoom="0.25009407"
     inkscape:cx="197.81813"
     inkscape:cy="-171.31133"
     inkscape:window-x="0"
     inkscape:window-y="0"
     inkscape:window-maximized="1"
     inkscape:current-layer="g10" /><g
     id="g10"
     inkscape:groupmode="layer"
     inkscape:label="STARTX_CHARTE ALL_V3"
     transform="matrix(1.3333333,0,0,-1.3333333,-1046.1956,227.77972)"><g
       style="opacity:0.5"
       id="g2449"
       transform="matrix(0.94267438,0,0,0.94267438,358.55121,-136.04077)"><g
         id="g452"
         transform="translate(855.6914,288.8329)"><path
           d="m 0,0 -43.433,24.374 11.712,10.646 31.778,-23.721 0.002,0.457 -31.683,23.65 c -0.07,0.053 -0.165,0.047 -0.229,-0.011 l -12.013,-10.92 c -0.044,-0.04 -0.067,-0.099 -0.06,-0.158 0.007,-0.06 0.041,-0.112 0.093,-0.141 L -0.002,-0.421 Z"
           style="fill:#41b8bc;fill-opacity:1;fill-rule:nonzero;stroke:none"
           id="path454" /></g><g
         id="g456"
         transform="translate(855.6914,288.8329)"><path
           d="m 0,0 -43.433,24.374 11.712,10.646 31.778,-23.721 0.002,0.457 -31.683,23.65 c -0.07,0.053 -0.165,0.047 -0.229,-0.011 l -12.013,-10.92 c -0.044,-0.04 -0.067,-0.099 -0.06,-0.158 0.007,-0.06 0.041,-0.112 0.093,-0.141 L -0.002,-0.421 Z"
           style="fill:none;stroke:#41b8bc;stroke-width:0.375;stroke-linecap:butt;stroke-linejoin:miter;stroke-miterlimit:10;stroke-dasharray:none;stroke-opacity:1"
           id="path458" /></g><g
         id="g460"
         transform="translate(855.5242,255.6869)"><path
           d="M 0,0 -42.908,57.031 0.166,32.889 0.168,33.309 -43.49,57.778 c -0.075,0.043 -0.17,0.026 -0.226,-0.04 -0.056,-0.067 -0.059,-0.164 -0.006,-0.233 L -0.003,-0.604 Z"
           style="fill:#41b8bc;fill-opacity:1;fill-rule:nonzero;stroke:none"
           id="path462" /></g><g
         id="g464"
         transform="translate(855.5242,255.6869)"><path
           d="M 0,0 -42.908,57.031 0.166,32.889 0.168,33.309 -43.49,57.778 c -0.075,0.043 -0.17,0.026 -0.226,-0.04 -0.056,-0.067 -0.059,-0.164 -0.006,-0.233 L -0.003,-0.604 Z"
           style="fill:none;stroke:#41b8bc;stroke-width:0.375;stroke-linecap:butt;stroke-linejoin:miter;stroke-miterlimit:10;stroke-dasharray:none;stroke-opacity:1"
           id="path466" /></g><g
         id="g468"
         transform="translate(678.8611,-13.2729)"><path
           d="M 0,0 58.834,26.74 64.6,-0.332 64.975,-0.334 59.144,27.04 c -0.011,0.055 -0.047,0.101 -0.096,0.126 -0.05,0.026 -0.108,0.027 -0.158,0.004 L -0.882,0.005 Z"
           style="fill:#41b8bc;fill-opacity:1;fill-rule:nonzero;stroke:none"
           id="path470" /></g><g
         id="g472"
         transform="translate(678.8611,-13.2729)"><path
           d="M 0,0 58.834,26.74 64.6,-0.332 64.975,-0.334 59.144,27.04 c -0.011,0.055 -0.047,0.101 -0.096,0.126 -0.05,0.026 -0.108,0.027 -0.158,0.004 L -0.882,0.005 Z"
           style="fill:none;stroke:#41b8bc;stroke-width:0.375;stroke-linecap:butt;stroke-linejoin:miter;stroke-miterlimit:10;stroke-dasharray:none;stroke-opacity:1"
           id="path474" /></g><g
         id="g476"
         transform="translate(855.7495,300.4042)"><path
           d="m 0,0 -31.346,23.502 31.469,1.065 0.002,0.372 -32.009,-1.083 c -0.078,-0.003 -0.145,-0.055 -0.168,-0.131 -0.023,-0.076 0.003,-0.158 0.066,-0.205 L -0.002,-0.46 Z"
           style="fill:#41b8bc;fill-opacity:1;fill-rule:nonzero;stroke:none"
           id="path478" /></g><g
         id="g480"
         transform="translate(855.7495,300.4042)"><path
           d="m 0,0 -31.346,23.502 31.469,1.065 0.002,0.372 -32.009,-1.083 c -0.078,-0.003 -0.145,-0.055 -0.168,-0.131 -0.023,-0.076 0.003,-0.158 0.066,-0.205 L -0.002,-0.46 Z"
           style="fill:none;stroke:#41b8bc;stroke-width:0.375;stroke-linecap:butt;stroke-linejoin:miter;stroke-miterlimit:10;stroke-dasharray:none;stroke-opacity:1"
           id="path482" /></g><g
         id="g484"
         transform="translate(855.0864,169.2306)"><path
           d="m 0,0 -42.311,2.536 34.185,21.078 8.212,-6.502 0.002,0.467 -8.089,6.405 c -0.06,0.047 -0.141,0.052 -0.207,0.012 L -42.999,2.545 c -0.068,-0.042 -0.101,-0.124 -0.082,-0.203 0.019,-0.078 0.086,-0.135 0.165,-0.14 L -0.002,-0.37 Z"
           style="fill:#41b8bc;fill-opacity:1;fill-rule:nonzero;stroke:none"
           id="path486" /></g><g
         id="g488"
         transform="translate(855.0864,169.2306)"><path
           d="m 0,0 -42.311,2.536 34.185,21.078 8.212,-6.502 0.002,0.467 -8.089,6.405 c -0.06,0.047 -0.141,0.052 -0.207,0.012 L -42.999,2.545 c -0.068,-0.042 -0.101,-0.124 -0.082,-0.203 0.019,-0.078 0.086,-0.135 0.165,-0.14 L -0.002,-0.37 Z"
           style="fill:none;stroke:#41b8bc;stroke-width:0.375;stroke-linecap:butt;stroke-linejoin:miter;stroke-miterlimit:10;stroke-dasharray:none;stroke-opacity:1"
           id="path490" /></g><g
         id="g492"
         transform="translate(543.043,-12.5729)"><path
           d="M 0,0 7.267,12.226 8.731,-0.044 9.114,-0.046 7.577,12.823 c -0.01,0.08 -0.069,0.145 -0.15,0.161 -0.078,0.017 -0.16,-0.019 -0.202,-0.088 L -0.438,0.002 Z"
           style="fill:#41b8bc;fill-opacity:1;fill-rule:nonzero;stroke:none"
           id="path494" /></g><g
         id="g496"
         transform="translate(543.043,-12.5729)"><path
           d="M 0,0 7.267,12.226 8.731,-0.044 9.114,-0.046 7.577,12.823 c -0.01,0.08 -0.069,0.145 -0.15,0.161 -0.078,0.017 -0.16,-0.019 -0.202,-0.088 L -0.438,0.002 Z"
           style="fill:none;stroke:#41b8bc;stroke-width:0.375;stroke-linecap:butt;stroke-linejoin:miter;stroke-miterlimit:10;stroke-dasharray:none;stroke-opacity:1"
           id="path498" /></g><g
         id="g500"
         transform="translate(854.2344,0.4742)"><path
           d="m 0,0 -40.21,10.147 c -0.097,0.021 -0.196,-0.036 -0.22,-0.134 l -6.085,-24.426 0.374,-0.002 6.019,24.158 40.12,-10.124 z"
           style="fill:#41b8bc;fill-opacity:1;fill-rule:nonzero;stroke:none"
           id="path502" /></g><g
         id="g504"
         transform="translate(854.2344,0.4742)"><path
           d="m 0,0 -40.21,10.147 c -0.097,0.021 -0.196,-0.036 -0.22,-0.134 l -6.085,-24.426 0.374,-0.002 6.019,24.158 40.12,-10.124 z"
           style="fill:none;stroke:#41b8bc;stroke-width:0.375;stroke-linecap:butt;stroke-linejoin:miter;stroke-miterlimit:10;stroke-dasharray:none;stroke-opacity:1"
           id="path506" /></g><g
         id="g508"
         transform="translate(854.6562,84.049)"><path
           d="M 0,0 -21.975,-12.89 -38.571,-8.358 0.034,6.75 0.036,7.15 -39.226,-8.216 c -0.074,-0.029 -0.121,-0.103 -0.117,-0.183 0.005,-0.081 0.059,-0.149 0.135,-0.17 l 17.212,-4.7 c 0.015,-0.004 0.031,-0.006 0.046,-0.006 0.032,-10e-4 0.063,0.008 0.091,0.024 L -0.002,-0.43 Z"
           style="fill:#41b8bc;fill-opacity:1;fill-rule:nonzero;stroke:none"
           id="path510" /></g><g
         id="g512"
         transform="translate(854.6562,84.049)"><path
           d="M 0,0 -21.975,-12.89 -38.571,-8.358 0.034,6.75 0.036,7.15 -39.226,-8.216 c -0.074,-0.029 -0.121,-0.103 -0.117,-0.183 0.005,-0.081 0.059,-0.149 0.135,-0.17 l 17.212,-4.7 c 0.015,-0.004 0.031,-0.006 0.046,-0.006 0.032,-10e-4 0.063,0.008 0.091,0.024 L -0.002,-0.43 Z"
           style="fill:none;stroke:#41b8bc;stroke-width:0.375;stroke-linecap:butt;stroke-linejoin:miter;stroke-miterlimit:10;stroke-dasharray:none;stroke-opacity:1"
           id="path514" /></g><g
         id="g516"
         transform="translate(743.5603,-13.6063)"><path
           d="m 0,0 -5.761,27.051 22.327,-7.987 -9.644,-19.1 0.409,-0.002 9.655,19.122 c 0.024,0.047 0.027,0.102 0.007,0.152 -0.019,0.049 -0.059,0.088 -0.108,0.105 l -22.832,8.168 c -0.062,0.023 -0.132,0.009 -0.182,-0.035 -0.05,-0.044 -0.072,-0.112 -0.058,-0.178 L -0.375,0.002 Z"
           style="fill:#41b8bc;fill-opacity:1;fill-rule:nonzero;stroke:none"
           id="path518" /></g><g
         id="g520"
         transform="translate(743.5603,-13.6063)"><path
           d="m 0,0 -5.761,27.051 22.327,-7.987 -9.644,-19.1 0.409,-0.002 9.655,19.122 c 0.024,0.047 0.027,0.102 0.007,0.152 -0.019,0.049 -0.059,0.088 -0.108,0.105 l -22.832,8.168 c -0.062,0.023 -0.132,0.009 -0.182,-0.035 -0.05,-0.044 -0.072,-0.112 -0.058,-0.178 L -0.375,0.002 Z"
           style="fill:none;stroke:#41b8bc;stroke-width:0.375;stroke-linecap:butt;stroke-linejoin:miter;stroke-miterlimit:10;stroke-dasharray:none;stroke-opacity:1"
           id="path522" /></g><g
         id="g524"
         transform="translate(750.613,-13.6431)"><path
           d="M 0,0 9.613,18.924 21.573,-0.11 22.012,-0.113 9.753,19.398 C 9.718,19.455 9.654,19.495 9.588,19.485 9.521,19.482 9.462,19.443 9.432,19.384 L -0.414,0.002 Z"
           style="fill:#41b8bc;fill-opacity:1;fill-rule:nonzero;stroke:none"
           id="path526" /></g><g
         id="g528"
         transform="translate(750.613,-13.6431)"><path
           d="M 0,0 9.613,18.924 21.573,-0.11 22.012,-0.113 9.753,19.398 C 9.718,19.455 9.654,19.495 9.588,19.485 9.521,19.482 9.462,19.443 9.432,19.384 L -0.414,0.002 Z"
           style="fill:none;stroke:#41b8bc;stroke-width:0.375;stroke-linecap:butt;stroke-linejoin:miter;stroke-miterlimit:10;stroke-dasharray:none;stroke-opacity:1"
           id="path530" /></g><g
         id="g532"
         transform="translate(771.9988,-13.7531)"><path
           d="M 0,0 0.437,-0.002 -11.442,18.973 29.157,-0.15 30.036,-0.154 -11.855,19.578 c -0.074,0.035 -0.162,0.016 -0.216,-0.046 -0.054,-0.061 -0.062,-0.151 -0.018,-0.221 z"
           style="fill:#41b8bc;fill-opacity:1;fill-rule:nonzero;stroke:none"
           id="path534" /></g><g
         id="g536"
         transform="translate(771.9988,-13.7531)"><path
           d="M 0,0 0.437,-0.002 -11.442,18.973 29.157,-0.15 30.036,-0.154 -11.855,19.578 c -0.074,0.035 -0.162,0.016 -0.216,-0.046 -0.054,-0.061 -0.062,-0.151 -0.018,-0.221 z"
           style="fill:none;stroke:#41b8bc;stroke-width:0.375;stroke-linecap:butt;stroke-linejoin:miter;stroke-miterlimit:10;stroke-dasharray:none;stroke-opacity:1"
           id="path538" /></g><g
         id="g540"
         transform="translate(759.9858,5.4254)"><path
           d="m 0,0 40.54,-19.325 0.866,-0.004 -40.64,19.372 53.309,4.766 -6.01,-24.173 0.374,-0.002 6.051,24.337 c 0.014,0.058 0,0.119 -0.038,0.165 C 54.414,5.182 54.354,5.204 54.298,5.2 L 0.062,0.352 C -0.021,0.344 -0.087,0.282 -0.102,0.2 -0.116,0.117 -0.074,0.035 0,0"
           style="fill:#41b8bc;fill-opacity:1;fill-rule:nonzero;stroke:none"
           id="path542" /></g><g
         id="g544"
         transform="translate(759.9858,5.4254)"><path
           d="m 0,0 40.54,-19.325 0.866,-0.004 -40.64,19.372 53.309,4.766 -6.01,-24.173 0.374,-0.002 6.051,24.337 c 0.014,0.058 0,0.119 -0.038,0.165 C 54.414,5.182 54.354,5.204 54.298,5.2 L 0.062,0.352 C -0.021,0.344 -0.087,0.282 -0.102,0.2 -0.116,0.117 -0.074,0.035 0,0 Z"
           style="fill:none;stroke:#41b8bc;stroke-width:0.375;stroke-linecap:butt;stroke-linejoin:miter;stroke-miterlimit:10;stroke-dasharray:none;stroke-opacity:1"
           id="path546" /></g><g
         id="g548"
         transform="translate(551.8777,-12.6183)"><path
           d="M 0,0 -1.468,12.473 17.948,-0.092 18.643,-0.095 -1.599,13.004 c -0.06,0.039 -0.138,0.04 -0.2,0.001 -0.062,-0.038 -0.095,-0.108 -0.087,-0.18 l 1.51,-12.823 z"
           style="fill:#41b8bc;fill-opacity:1;fill-rule:nonzero;stroke:none"
           id="path550" /></g><g
         id="g552"
         transform="translate(551.8777,-12.6183)"><path
           d="M 0,0 -1.468,12.473 17.948,-0.092 18.643,-0.095 -1.599,13.004 c -0.06,0.039 -0.138,0.04 -0.2,0.001 -0.062,-0.038 -0.095,-0.108 -0.087,-0.18 l 1.51,-12.823 z"
           style="fill:none;stroke:#41b8bc;stroke-width:0.375;stroke-linecap:butt;stroke-linejoin:miter;stroke-miterlimit:10;stroke-dasharray:none;stroke-opacity:1"
           id="path554" /></g><g
         id="g556"
         transform="translate(671.5803,110.2965)"><path
           d="m 0,0 c -0.032,0 -0.063,0.009 -0.091,0.025 -0.044,0.027 -0.076,0.071 -0.086,0.123 l -1.867,9.249 c -0.01,0.051 10e-4,0.105 0.031,0.147 0.03,0.042 0.076,0.07 0.127,0.076 l 46.167,5.486 c 0.098,0.015 0.179,-0.052 0.198,-0.145 0.02,-0.094 -0.032,-0.188 -0.121,-0.218 L 0.057,0.009 C 0.038,0.003 0.019,0 0,0 M -1.647,9.273 0.138,0.427 42.507,14.52 Z"
           style="fill:#41b8bc;fill-opacity:1;fill-rule:nonzero;stroke:none"
           id="path558" /></g><g
         id="g560"
         transform="translate(671.5803,110.2965)"><path
           d="m 0,0 c -0.032,0 -0.063,0.009 -0.091,0.025 -0.044,0.027 -0.076,0.071 -0.086,0.123 l -1.867,9.249 c -0.01,0.051 10e-4,0.105 0.031,0.147 0.03,0.042 0.076,0.07 0.127,0.076 l 46.167,5.486 c 0.098,0.015 0.179,-0.052 0.198,-0.145 0.02,-0.094 -0.032,-0.188 -0.121,-0.218 L 0.057,0.009 C 0.038,0.003 0.019,0 0,0 Z M -1.647,9.273 0.138,0.427 42.507,14.52 Z"
           style="fill:none;stroke:#41b8bc;stroke-width:0.375;stroke-linecap:butt;stroke-linejoin:miter;stroke-miterlimit:10;stroke-dasharray:none;stroke-opacity:1"
           id="path562" /></g><g
         id="g564"
         transform="translate(526.1787,-12.485)"><path
           d="m 0,0 2.397,26.431 21.67,-13.946 -7.307,-12.571 0.423,-0.003 7.289,12.541 c 0.049,0.085 0.023,0.195 -0.06,0.249 L 2.341,26.906 C 2.287,26.94 2.219,26.944 2.162,26.916 2.104,26.887 2.066,26.831 2.06,26.767 L -0.367,0.002 Z"
           style="fill:#41b8bc;fill-opacity:1;fill-rule:nonzero;stroke:none"
           id="path566" /></g><g
         id="g568"
         transform="translate(526.1787,-12.485)"><path
           d="m 0,0 2.397,26.431 21.67,-13.946 -7.307,-12.571 0.423,-0.003 7.289,12.541 c 0.049,0.085 0.023,0.195 -0.06,0.249 L 2.341,26.906 C 2.287,26.94 2.219,26.944 2.162,26.916 2.104,26.887 2.066,26.831 2.06,26.767 L -0.367,0.002 Z"
           style="fill:none;stroke:#41b8bc;stroke-width:0.375;stroke-linecap:butt;stroke-linejoin:miter;stroke-miterlimit:10;stroke-dasharray:none;stroke-opacity:1"
           id="path570" /></g><g
         id="g572"
         transform="translate(550.3596,-0.2737)"><path
           d="m 0,0 c -0.034,0 -0.068,0.01 -0.097,0.029 l -21.958,14.146 c -0.052,0.033 -0.083,0.089 -0.085,0.151 -10e-4,0.061 0.028,0.119 0.078,0.154 l 37.489,26.597 c 0.066,0.046 0.154,0.044 0.217,-0.006 0.063,-0.05 0.087,-0.135 0.058,-0.21 L 0.171,0.118 C 0.151,0.066 0.11,0.026 0.058,0.009 0.039,0.003 0.02,0 0,0 M -21.63,14.337 -0.089,0.46 15.147,40.429 Z"
           style="fill:#41b8bc;fill-opacity:1;fill-rule:nonzero;stroke:none"
           id="path574" /></g><g
         id="g576"
         transform="translate(550.3596,-0.2737)"><path
           d="m 0,0 c -0.034,0 -0.068,0.01 -0.097,0.029 l -21.958,14.146 c -0.052,0.033 -0.083,0.089 -0.085,0.151 -10e-4,0.061 0.028,0.119 0.078,0.154 l 37.489,26.597 c 0.066,0.046 0.154,0.044 0.217,-0.006 0.063,-0.05 0.087,-0.135 0.058,-0.21 L 0.171,0.118 C 0.151,0.066 0.11,0.026 0.058,0.009 0.039,0.003 0.02,0 0,0 Z M -21.63,14.337 -0.089,0.46 15.147,40.429 Z"
           style="fill:none;stroke:#41b8bc;stroke-width:0.375;stroke-linecap:butt;stroke-linejoin:miter;stroke-miterlimit:10;stroke-dasharray:none;stroke-opacity:1"
           id="path578" /></g><g
         id="g580"
         transform="translate(616.4856,-1.3372)"><path
           d="m 0,0 h -0.002 l -66.315,1.072 c -0.059,10e-4 -0.114,0.031 -0.147,0.081 -0.033,0.05 -0.04,0.113 -0.019,0.168 l 15.473,40.735 c 0.021,0.055 0.066,0.096 0.122,0.112 0.057,0.015 0.117,0.002 0.162,-0.035 L 0.116,0.326 C 0.176,0.277 0.198,0.195 0.171,0.121 0.146,0.048 0.077,0 0,0 m -66.051,1.435 65.53,-1.059 -50.24,41.312 z"
           style="fill:#41b8bc;fill-opacity:1;fill-rule:nonzero;stroke:none"
           id="path582" /></g><g
         id="g584"
         transform="translate(616.4856,-1.3372)"><path
           d="m 0,0 h -0.002 l -66.315,1.072 c -0.059,10e-4 -0.114,0.031 -0.147,0.081 -0.033,0.05 -0.04,0.113 -0.019,0.168 l 15.473,40.735 c 0.021,0.055 0.066,0.096 0.122,0.112 0.057,0.015 0.117,0.002 0.162,-0.035 L 0.116,0.326 C 0.176,0.277 0.198,0.195 0.171,0.121 0.146,0.048 0.077,0 0,0 Z m -66.051,1.435 65.53,-1.059 -50.24,41.312 z"
           style="fill:none;stroke:#41b8bc;stroke-width:0.375;stroke-linecap:butt;stroke-linejoin:miter;stroke-miterlimit:10;stroke-dasharray:none;stroke-opacity:1"
           id="path586" /></g><g
         id="g588"
         transform="translate(569.2371,-12.704)"><path
           d="M 0,0 0.673,-0.004 -18.435,12.735 46.564,11.667 25.78,-0.136 26.524,-0.14 47.337,11.678 c 0.072,0.041 0.109,0.127 0.089,0.209 -0.02,0.082 -0.091,0.141 -0.173,0.142 l -66.315,1.09 h -0.002 c -0.08,10e-4 -0.152,-0.053 -0.175,-0.132 -0.023,-0.08 0.007,-0.166 0.075,-0.211 z"
           style="fill:#41b8bc;fill-opacity:1;fill-rule:nonzero;stroke:none"
           id="path590" /></g><g
         id="g592"
         transform="translate(569.2371,-12.704)"><path
           d="M 0,0 0.673,-0.004 -18.435,12.735 46.564,11.667 25.78,-0.136 26.524,-0.14 47.337,11.678 c 0.072,0.041 0.109,0.127 0.089,0.209 -0.02,0.082 -0.091,0.141 -0.173,0.142 l -66.315,1.09 h -0.002 c -0.08,10e-4 -0.152,-0.053 -0.175,-0.132 -0.023,-0.08 0.007,-0.166 0.075,-0.211 z"
           style="fill:none;stroke:#41b8bc;stroke-width:0.375;stroke-linecap:butt;stroke-linejoin:miter;stroke-miterlimit:10;stroke-dasharray:none;stroke-opacity:1"
           id="path594" /></g><g
         id="g596"
         transform="translate(792.1689,93.765)"><path
           d="m 0,0 c -0.022,0 -0.045,0.004 -0.067,0.013 l -76.61,31.108 c -0.059,0.024 -0.101,0.078 -0.111,0.142 -0.01,0.064 0.014,0.128 0.064,0.17 l 38.785,32.329 c 0.041,0.035 0.093,0.05 0.146,0.04 0.052,-0.009 0.097,-0.041 0.124,-0.086 L 0.156,0.278 C 0.197,0.211 0.189,0.125 0.139,0.064 0.104,0.022 0.052,0 0,0 M -76.258,31.346 -0.434,0.557 -37.871,63.344 Z"
           style="fill:#41b8bc;fill-opacity:1;fill-rule:nonzero;stroke:none"
           id="path598" /></g><g
         id="g600"
         transform="translate(792.1689,93.765)"><path
           d="m 0,0 c -0.022,0 -0.045,0.004 -0.067,0.013 l -76.61,31.108 c -0.059,0.024 -0.101,0.078 -0.111,0.142 -0.01,0.064 0.014,0.128 0.064,0.17 l 38.785,32.329 c 0.041,0.035 0.093,0.05 0.146,0.04 0.052,-0.009 0.097,-0.041 0.124,-0.086 L 0.156,0.278 C 0.197,0.211 0.189,0.125 0.139,0.064 0.104,0.022 0.052,0 0,0 Z M -76.258,31.346 -0.434,0.557 -37.871,63.344 Z"
           style="fill:none;stroke:#41b8bc;stroke-width:0.375;stroke-linecap:butt;stroke-linejoin:miter;stroke-miterlimit:10;stroke-dasharray:none;stroke-opacity:1"
           id="path602" /></g><g
         id="g604"
         transform="translate(792.1682,93.7408)"><path
           d="m 0,0 c -0.062,0 -0.122,0.033 -0.155,0.088 l -37.987,63.398 c -0.026,0.045 -0.033,0.1 -0.017,0.15 0.015,0.05 0.051,0.091 0.099,0.112 l 31.916,14.365 c 0.054,0.025 0.117,0.021 0.168,-0.009 0.051,-0.031 0.083,-0.084 0.088,-0.143 L 0.182,0.198 C 0.189,0.113 0.137,0.035 0.057,0.009 0.038,0.003 0.019,0 0,0 M -37.724,63.499 -0.241,0.942 -6.23,77.673 Z"
           style="fill:#41b8bc;fill-opacity:1;fill-rule:nonzero;stroke:none"
           id="path606" /></g><g
         id="g608"
         transform="translate(792.1682,93.7408)"><path
           d="m 0,0 c -0.062,0 -0.122,0.033 -0.155,0.088 l -37.987,63.398 c -0.026,0.045 -0.033,0.1 -0.017,0.15 0.015,0.05 0.051,0.091 0.099,0.112 l 31.916,14.365 c 0.054,0.025 0.117,0.021 0.168,-0.009 0.051,-0.031 0.083,-0.084 0.088,-0.143 L 0.182,0.198 C 0.189,0.113 0.137,0.035 0.057,0.009 0.038,0.003 0.019,0 0,0 Z M -37.724,63.499 -0.241,0.942 -6.23,77.673 Z"
           style="fill:none;stroke:#41b8bc;stroke-width:0.375;stroke-linecap:butt;stroke-linejoin:miter;stroke-miterlimit:10;stroke-dasharray:none;stroke-opacity:1"
           id="path610" /></g><g
         id="g612"
         transform="translate(791.9207,93.5172)"><path
           d="M 0,0 C -0.005,0 -0.01,0 -0.015,0.001 -0.104,0.009 -0.174,0.08 -0.181,0.169 l -6.092,77.984 c -0.004,0.051 0.013,0.102 0.048,0.139 0.034,0.038 0.082,0.059 0.133,0.06 l 26.672,0.227 c 0.039,-0.008 0.111,-0.026 0.146,-0.071 0.035,-0.046 0.047,-0.104 0.033,-0.16 L 0.178,0.137 C 0.156,0.055 0.083,-0.001 0,0 M -5.893,77.986 0.099,1.274 20.344,78.209 Z"
           style="fill:#41b8bc;fill-opacity:1;fill-rule:nonzero;stroke:none"
           id="path614" /></g><g
         id="g616"
         transform="translate(791.9207,93.5172)"><path
           d="M 0,0 C -0.005,0 -0.01,0 -0.015,0.001 -0.104,0.009 -0.174,0.08 -0.181,0.169 l -6.092,77.984 c -0.004,0.051 0.013,0.102 0.048,0.139 0.034,0.038 0.082,0.059 0.133,0.06 l 26.672,0.227 c 0.039,-0.008 0.111,-0.026 0.146,-0.071 0.035,-0.046 0.047,-0.104 0.033,-0.16 L 0.178,0.137 C 0.156,0.055 0.083,-0.001 0,0 Z M -5.893,77.986 0.099,1.274 20.344,78.209 Z"
           style="fill:none;stroke:#41b8bc;stroke-width:0.375;stroke-linecap:butt;stroke-linejoin:miter;stroke-miterlimit:10;stroke-dasharray:none;stroke-opacity:1"
           id="path618" /></g><g
         id="g620"
         transform="translate(854.6914,91.0072)"><path
           d="M 0,0 -39.044,-15.231 -62.375,3.055 0.049,9.87 0.051,10.242 -62.863,3.373 c -0.074,-0.008 -0.136,-0.061 -0.156,-0.133 -0.02,-0.073 0.005,-0.151 0.064,-0.197 l 23.77,-18.63 c 0.032,-0.025 0.071,-0.038 0.11,-0.038 0.023,0 0.044,0.003 0.066,0.012 l 39.007,15.217 z"
           style="fill:#41b8bc;fill-opacity:1;fill-rule:nonzero;stroke:none"
           id="path622" /></g><g
         id="g624"
         transform="translate(854.6914,91.0072)"><path
           d="M 0,0 -39.044,-15.231 -62.375,3.055 0.049,9.87 0.051,10.242 -62.863,3.373 c -0.074,-0.008 -0.136,-0.061 -0.156,-0.133 -0.02,-0.073 0.005,-0.151 0.064,-0.197 l 23.77,-18.63 c 0.032,-0.025 0.071,-0.038 0.11,-0.038 0.023,0 0.044,0.003 0.066,0.012 l 39.007,15.217 z"
           style="fill:none;stroke:#41b8bc;stroke-width:0.375;stroke-linecap:butt;stroke-linejoin:miter;stroke-miterlimit:10;stroke-dasharray:none;stroke-opacity:1"
           id="path626" /></g><g
         id="g628"
         transform="translate(785.8289,171.1813)"><path
           d="m 0,0 c -0.074,0 -0.14,0.046 -0.168,0.115 -0.028,0.07 -0.012,0.151 0.043,0.203 l 26.561,25.678 c 0.053,0.051 0.13,0.066 0.197,0.037 0.067,-0.029 0.111,-0.096 0.111,-0.169 L 26.856,0.414 C 26.857,0.312 26.776,0.229 26.675,0.229 L 0.002,0 Z M 26.381,25.432 0.46,0.373 26.49,0.596 Z"
           style="fill:#41b8bc;fill-opacity:1;fill-rule:nonzero;stroke:none"
           id="path630" /></g><g
         id="g632"
         transform="translate(785.8289,171.1813)"><path
           d="m 0,0 c -0.074,0 -0.14,0.046 -0.168,0.115 -0.028,0.07 -0.012,0.151 0.043,0.203 l 26.561,25.678 c 0.053,0.051 0.13,0.066 0.197,0.037 0.067,-0.029 0.111,-0.096 0.111,-0.169 L 26.856,0.414 C 26.857,0.312 26.776,0.229 26.675,0.229 L 0.002,0 Z M 26.381,25.432 0.46,0.373 26.49,0.596 Z"
           style="fill:none;stroke:#41b8bc;stroke-width:0.375;stroke-linecap:butt;stroke-linejoin:miter;stroke-miterlimit:10;stroke-dasharray:none;stroke-opacity:1"
           id="path634" /></g><g
         id="g636"
         transform="translate(855.3315,217.985)"><path
           d="M 0,0 -43.078,-20.971 -43.203,94.778 0.191,37.579 0.194,38.178 -43.241,95.431 c -0.047,0.063 -0.129,0.088 -0.203,0.062 -0.074,-0.024 -0.123,-0.094 -0.123,-0.173 l 0.126,-116.582 c 0,-0.063 0.032,-0.122 0.085,-0.155 0.029,-0.019 0.062,-0.028 0.096,-0.028 0.027,0 0.054,0.006 0.08,0.018 l 43.178,21.02 z"
           style="fill:#41b8bc;fill-opacity:1;fill-rule:nonzero;stroke:none"
           id="path638" /></g><g
         id="g640"
         transform="translate(855.3315,217.985)"><path
           d="M 0,0 -43.078,-20.971 -43.203,94.778 0.191,37.579 0.194,38.178 -43.241,95.431 c -0.047,0.063 -0.129,0.088 -0.203,0.062 -0.074,-0.024 -0.123,-0.094 -0.123,-0.173 l 0.126,-116.582 c 0,-0.063 0.032,-0.122 0.085,-0.155 0.029,-0.019 0.062,-0.028 0.096,-0.028 0.027,0 0.054,0.006 0.08,0.018 l 43.178,21.02 z"
           style="fill:none;stroke:#41b8bc;stroke-width:0.375;stroke-linecap:butt;stroke-linejoin:miter;stroke-miterlimit:10;stroke-dasharray:none;stroke-opacity:1"
           id="path642" /></g><g
         id="g644"
         transform="translate(812.1821,171.4069)"><path
           d="m 0,0 c -0.03,0 -0.061,0.008 -0.088,0.024 -0.057,0.032 -0.093,0.094 -0.093,0.16 l -0.112,25.452 c 0,0.053 0.022,0.104 0.061,0.138 0.039,0.036 0.091,0.051 0.142,0.047 l 34.962,-4.026 c 0.077,-0.009 0.14,-0.067 0.157,-0.144 0.017,-0.077 -0.017,-0.157 -0.083,-0.197 L 0.095,0.027 C 0.066,0.009 0.033,0 0,0 M 0.072,25.43 0.182,0.512 34.3,21.489 Z"
           style="fill:#41b8bc;fill-opacity:1;fill-rule:nonzero;stroke:none"
           id="path646" /></g><g
         id="g648"
         transform="translate(812.1821,171.4069)"><path
           d="m 0,0 c -0.03,0 -0.061,0.008 -0.088,0.024 -0.057,0.032 -0.093,0.094 -0.093,0.16 l -0.112,25.452 c 0,0.053 0.022,0.104 0.061,0.138 0.039,0.036 0.091,0.051 0.142,0.047 l 34.962,-4.026 c 0.077,-0.009 0.14,-0.067 0.157,-0.144 0.017,-0.077 -0.017,-0.157 -0.083,-0.197 L 0.095,0.027 C 0.066,0.009 0.033,0 0,0 Z M 0.072,25.43 0.182,0.512 34.3,21.489 Z"
           style="fill:none;stroke:#41b8bc;stroke-width:0.375;stroke-linecap:butt;stroke-linejoin:miter;stroke-miterlimit:10;stroke-dasharray:none;stroke-opacity:1"
           id="path650" /></g><g
         id="g652"
         transform="translate(855.2578,203.0775)"><path
           d="M 0,0 -8.361,-10.132 -42.542,-6.174 0.074,14.857 0.076,15.27 -43.266,-6.119 c -0.073,-0.037 -0.113,-0.117 -0.1,-0.198 0.014,-0.082 0.078,-0.144 0.159,-0.153 l 34.902,-4.042 c 0.007,-10e-4 0.013,-10e-4 0.02,-10e-4 0.053,0 0.105,0.023 0.14,0.066 l 8.142,9.867 z"
           style="fill:#41b8bc;fill-opacity:1;fill-rule:nonzero;stroke:none"
           id="path654" /></g><g
         id="g656"
         transform="translate(855.2578,203.0775)"><path
           d="M 0,0 -8.361,-10.132 -42.542,-6.174 0.074,14.857 0.076,15.27 -43.266,-6.119 c -0.073,-0.037 -0.113,-0.117 -0.1,-0.198 0.014,-0.082 0.078,-0.144 0.159,-0.153 l 34.902,-4.042 c 0.007,-10e-4 0.013,-10e-4 0.02,-10e-4 0.053,0 0.105,0.023 0.14,0.066 l 8.142,9.867 z"
           style="fill:none;stroke:#41b8bc;stroke-width:0.375;stroke-linecap:butt;stroke-linejoin:miter;stroke-miterlimit:10;stroke-dasharray:none;stroke-opacity:1"
           id="path658" /></g><g
         id="g660"
         transform="translate(616.1133,-1.2537)"><path
           d="M 0,0 40.275,-11.903 41.592,-11.909 0.538,0.224 73.362,38.18 55.769,-11.983 l 0.384,-0.002 17.704,50.479 c 0.025,0.071 0.004,0.15 -0.052,0.2 -0.056,0.05 -0.136,0.059 -0.202,0.025 L -0.032,0.339 C -0.098,0.305 -0.136,0.233 -0.13,0.159 -0.122,0.084 -0.071,0.021 0,0"
           style="fill:#41b8bc;fill-opacity:1;fill-rule:nonzero;stroke:none"
           id="path662" /></g><g
         id="g664"
         transform="translate(616.1133,-1.2537)"><path
           d="M 0,0 40.275,-11.903 41.592,-11.909 0.538,0.224 73.362,38.18 55.769,-11.983 l 0.384,-0.002 17.704,50.479 c 0.025,0.071 0.004,0.15 -0.052,0.2 -0.056,0.05 -0.136,0.059 -0.202,0.025 L -0.032,0.339 C -0.098,0.305 -0.136,0.233 -0.13,0.159 -0.122,0.084 -0.071,0.021 0,0 Z"
           style="fill:none;stroke:#41b8bc;stroke-width:0.375;stroke-linecap:butt;stroke-linejoin:miter;stroke-miterlimit:10;stroke-dasharray:none;stroke-opacity:1"
           id="path666" /></g><g
         id="g668"
         transform="translate(671.9553,-13.2375)"><path
           d="M 0,0 17.663,50.285 65.489,26.822 6.574,-0.034 7.448,-0.038 65.992,26.648 c 0.064,0.03 0.106,0.094 0.107,0.165 10e-4,0.071 -0.039,0.137 -0.102,0.168 L 17.639,50.705 c -0.047,0.022 -0.1,0.023 -0.149,0.004 C 17.443,50.69 17.406,50.65 17.388,50.601 L -0.385,0.002 Z"
           style="fill:#41b8bc;fill-opacity:1;fill-rule:nonzero;stroke:none"
           id="path670" /></g><g
         id="g672"
         transform="translate(671.9553,-13.2375)"><path
           d="M 0,0 17.663,50.285 65.489,26.822 6.574,-0.034 7.448,-0.038 65.992,26.648 c 0.064,0.03 0.106,0.094 0.107,0.165 10e-4,0.071 -0.039,0.137 -0.102,0.168 L 17.639,50.705 c -0.047,0.022 -0.1,0.023 -0.149,0.004 C 17.443,50.69 17.406,50.65 17.388,50.601 L -0.385,0.002 Z"
           style="fill:none;stroke:#41b8bc;stroke-width:0.375;stroke-linecap:butt;stroke-linejoin:miter;stroke-miterlimit:10;stroke-dasharray:none;stroke-opacity:1"
           id="path674" /></g><g
         id="g676"
         transform="translate(692.7322,94.2767)"><path
           d="m 0,0 c -0.039,0 -0.077,0.013 -0.11,0.037 l -21.393,16.337 c -0.073,0.055 -0.094,0.156 -0.051,0.237 0.043,0.081 0.14,0.118 0.224,0.087 L 12.631,4.168 c 0.074,-0.027 0.122,-0.1 0.12,-0.18 C 12.749,3.907 12.696,3.838 12.62,3.815 L 0.053,0.008 C 0.036,0.002 0.018,0 0,0 M -20.302,15.922 0.037,0.391 11.984,4.01 Z"
           style="fill:#41b8bc;fill-opacity:1;fill-rule:nonzero;stroke:none"
           id="path678" /></g><g
         id="g680"
         transform="translate(692.7322,94.2767)"><path
           d="m 0,0 c -0.039,0 -0.077,0.013 -0.11,0.037 l -21.393,16.337 c -0.073,0.055 -0.094,0.156 -0.051,0.237 0.043,0.081 0.14,0.118 0.224,0.087 L 12.631,4.168 c 0.074,-0.027 0.122,-0.1 0.12,-0.18 C 12.749,3.907 12.696,3.838 12.62,3.815 L 0.053,0.008 C 0.036,0.002 0.018,0 0,0 Z M -20.302,15.922 0.037,0.391 11.984,4.01 Z"
           style="fill:none;stroke:#41b8bc;stroke-width:0.375;stroke-linecap:butt;stroke-linejoin:miter;stroke-miterlimit:10;stroke-dasharray:none;stroke-opacity:1"
           id="path682" /></g><g
         id="g684"
         transform="translate(705.2231,98.0099)"><path
           d="m 0,0 c -0.02,0 -0.041,0.004 -0.061,0.011 l -33.656,12.434 c -0.073,0.027 -0.121,0.098 -0.12,0.176 0.002,0.079 0.052,0.148 0.126,0.173 l 44.314,14.591 c 0.065,0.023 0.14,0.003 0.189,-0.05 0.048,-0.052 0.062,-0.128 0.036,-0.195 L 0.17,0.116 C 0.141,0.044 0.073,0 0,0 M -33.096,12.608 -0.102,0.419 10.346,26.912 Z"
           style="fill:#41b8bc;fill-opacity:1;fill-rule:nonzero;stroke:none"
           id="path686" /></g><g
         id="g688"
         transform="translate(705.2231,98.0099)"><path
           d="m 0,0 c -0.02,0 -0.041,0.004 -0.061,0.011 l -33.656,12.434 c -0.073,0.027 -0.121,0.098 -0.12,0.176 0.002,0.079 0.052,0.148 0.126,0.173 l 44.314,14.591 c 0.065,0.023 0.14,0.003 0.189,-0.05 0.048,-0.052 0.062,-0.128 0.036,-0.195 L 0.17,0.116 C 0.141,0.044 0.073,0 0,0 Z M -33.096,12.608 -0.102,0.419 10.346,26.912 Z"
           style="fill:none;stroke:#41b8bc;stroke-width:0.375;stroke-linecap:butt;stroke-linejoin:miter;stroke-miterlimit:10;stroke-dasharray:none;stroke-opacity:1"
           id="path690" /></g><g
         id="g692"
         transform="translate(689.4785,36.7965)"><path
           d="M 0,0 C -0.009,0 -0.018,0.001 -0.027,0.002 -0.121,0.016 -0.188,0.099 -0.183,0.194 L 3.02,57.977 c 0.004,0.076 0.057,0.143 0.132,0.165 l 12.616,3.753 c 0.063,0.019 0.132,0.002 0.18,-0.044 0.048,-0.045 0.067,-0.113 0.051,-0.177 L 0.179,0.138 C 0.158,0.055 0.083,0 0,0 M 3.381,57.827 0.289,2.041 15.561,61.451 Z"
           style="fill:#41b8bc;fill-opacity:1;fill-rule:nonzero;stroke:none"
           id="path694" /></g><g
         id="g696"
         transform="translate(689.4785,36.7965)"><path
           d="M 0,0 C -0.009,0 -0.018,0.001 -0.027,0.002 -0.121,0.016 -0.188,0.099 -0.183,0.194 L 3.02,57.977 c 0.004,0.076 0.057,0.143 0.132,0.165 l 12.616,3.753 c 0.063,0.019 0.132,0.002 0.18,-0.044 0.048,-0.045 0.067,-0.113 0.051,-0.177 L 0.179,0.138 C 0.158,0.055 0.083,0 0,0 Z M 3.381,57.827 0.289,2.041 15.561,61.451 Z"
           style="fill:none;stroke:#41b8bc;stroke-width:0.375;stroke-linecap:butt;stroke-linejoin:miter;stroke-miterlimit:10;stroke-dasharray:none;stroke-opacity:1"
           id="path698" /></g><g
         id="g700"
         transform="translate(792.3882,93.765)"><path
           d="m 0,0 h -0.008 l -87.409,4.289 c -0.059,0.003 -0.112,0.034 -0.144,0.085 -0.032,0.05 -0.038,0.112 -0.016,0.168 l 10.647,26.981 c 0.018,0.045 0.053,0.082 0.097,0.101 0.044,0.019 0.094,0.02 0.139,0.001 L 0.069,0.355 C 0.151,0.322 0.197,0.233 0.178,0.145 0.16,0.06 0.085,0 0,0 M -87.145,4.645 -1.068,0.421 -76.661,31.215 Z"
           style="fill:#41b8bc;fill-opacity:1;fill-rule:nonzero;stroke:none"
           id="path702" /></g><g
         id="g704"
         transform="translate(792.3882,93.765)"><path
           d="m 0,0 h -0.008 l -87.409,4.289 c -0.059,0.003 -0.112,0.034 -0.144,0.085 -0.032,0.05 -0.038,0.112 -0.016,0.168 l 10.647,26.981 c 0.018,0.045 0.053,0.082 0.097,0.101 0.044,0.019 0.094,0.02 0.139,0.001 L 0.069,0.355 C 0.151,0.322 0.197,0.233 0.178,0.145 0.16,0.06 0.085,0 0,0 Z M -87.145,4.645 -1.068,0.421 -76.661,31.215 Z"
           style="fill:none;stroke:#41b8bc;stroke-width:0.375;stroke-linecap:butt;stroke-linejoin:miter;stroke-miterlimit:10;stroke-dasharray:none;stroke-opacity:1"
           id="path706" /></g><g
         id="g708"
         transform="translate(715.6199,124.7147)"><path
           d="M 0,0 C -0.022,0 -0.045,0.004 -0.066,0.013 -0.127,0.037 -0.171,0.094 -0.179,0.16 l -8.967,69.979 c -0.01,0.074 0.026,0.146 0.09,0.183 0.064,0.037 0.143,0.031 0.202,-0.015 l 47.85,-37.665 c 0.043,-0.034 0.069,-0.086 0.07,-0.142 0,-0.055 -0.024,-0.108 -0.066,-0.144 L 0.116,0.042 C 0.083,0.014 0.042,0 0,0 M -8.729,69.744 0.139,0.535 38.594,32.494 Z"
           style="fill:#41b8bc;fill-opacity:1;fill-rule:nonzero;stroke:none"
           id="path710" /></g><g
         id="g712"
         transform="translate(715.6199,124.7147)"><path
           d="M 0,0 C -0.022,0 -0.045,0.004 -0.066,0.013 -0.127,0.037 -0.171,0.094 -0.179,0.16 l -8.967,69.979 c -0.01,0.074 0.026,0.146 0.09,0.183 0.064,0.037 0.143,0.031 0.202,-0.015 l 47.85,-37.665 c 0.043,-0.034 0.069,-0.086 0.07,-0.142 0,-0.055 -0.024,-0.108 -0.066,-0.144 L 0.116,0.042 C 0.083,0.014 0.042,0 0,0 Z M -8.729,69.744 0.139,0.535 38.594,32.494 Z"
           style="fill:none;stroke:#41b8bc;stroke-width:0.375;stroke-linecap:butt;stroke-linejoin:miter;stroke-miterlimit:10;stroke-dasharray:none;stroke-opacity:1"
           id="path714" /></g><g
         id="g716"
         transform="translate(754.5029,156.8802)"><path
           d="m 0,0 c -0.039,0 -0.078,0.013 -0.111,0.039 l -47.85,37.706 c -0.05,0.039 -0.076,0.103 -0.069,0.166 0.008,0.064 0.048,0.12 0.106,0.146 L -6.24,56.935 c 0.053,0.025 0.114,0.021 0.164,-0.008 0.051,-0.029 0.084,-0.081 0.091,-0.139 L 0.182,0.203 C 0.189,0.13 0.153,0.059 0.09,0.023 0.061,0.008 0.031,0 0,0 M -47.5,37.847 -0.227,0.595 -6.32,56.497 Z"
           style="fill:#41b8bc;fill-opacity:1;fill-rule:nonzero;stroke:none"
           id="path718" /></g><g
         id="g720"
         transform="translate(754.5029,156.8802)"><path
           d="m 0,0 c -0.039,0 -0.078,0.013 -0.111,0.039 l -47.85,37.706 c -0.05,0.039 -0.076,0.103 -0.069,0.166 0.008,0.064 0.048,0.12 0.106,0.146 L -6.24,56.935 c 0.053,0.025 0.114,0.021 0.164,-0.008 0.051,-0.029 0.084,-0.081 0.091,-0.139 L 0.182,0.203 C 0.189,0.13 0.153,0.059 0.09,0.023 0.061,0.008 0.031,0 0,0 Z M -47.5,37.847 -0.227,0.595 -6.32,56.497 Z"
           style="fill:none;stroke:#41b8bc;stroke-width:0.375;stroke-linecap:butt;stroke-linejoin:miter;stroke-miterlimit:10;stroke-dasharray:none;stroke-opacity:1"
           id="path722" /></g><g
         id="g724"
         transform="translate(748.1311,213.1422)"><path
           d="m 0,0 c -0.01,0 -0.02,0.001 -0.03,0.003 -0.071,0.012 -0.128,0.066 -0.145,0.138 l -19.837,83.18 c -0.011,0.048 -0.003,0.099 0.023,0.141 0.027,0.042 0.07,0.071 0.118,0.081 l 83.973,16.8 c 0.07,0.013 0.145,-0.016 0.185,-0.078 0.041,-0.06 0.042,-0.14 0.002,-0.202 L 0.153,0.084 C 0.119,0.031 0.061,0 0,0 M -19.615,83.221 0.078,0.64 63.752,99.899 Z"
           style="fill:#41b8bc;fill-opacity:1;fill-rule:nonzero;stroke:none"
           id="path726" /></g><g
         id="g728"
         transform="translate(748.1311,213.1422)"><path
           d="m 0,0 c -0.01,0 -0.02,0.001 -0.03,0.003 -0.071,0.012 -0.128,0.066 -0.145,0.138 l -19.837,83.18 c -0.011,0.048 -0.003,0.099 0.023,0.141 0.027,0.042 0.07,0.071 0.118,0.081 l 83.973,16.8 c 0.07,0.013 0.145,-0.016 0.185,-0.078 0.041,-0.06 0.042,-0.14 0.002,-0.202 L 0.153,0.084 C 0.119,0.031 0.061,0 0,0 Z M -19.615,83.221 0.078,0.64 63.752,99.899 Z"
           style="fill:none;stroke:#41b8bc;stroke-width:0.375;stroke-linecap:butt;stroke-linejoin:miter;stroke-miterlimit:10;stroke-dasharray:none;stroke-opacity:1"
           id="path730" /></g><g
         id="g732"
         transform="translate(754.2336,156.8802)"><path
           d="m 0,0 c -0.031,0 -0.062,0.008 -0.09,0.024 -0.05,0.029 -0.084,0.081 -0.09,0.139 l -6.178,56.585 c -0.008,0.079 0.034,0.154 0.106,0.187 0.072,0.033 0.156,0.015 0.21,-0.044 L 32.051,14.689 c 0.04,-0.043 0.056,-0.103 0.044,-0.16 -0.012,-0.058 -0.051,-0.106 -0.104,-0.13 L 0.075,0.016 C 0.051,0.005 0.026,0 0,0 M -5.935,56.227 0.154,0.454 31.613,14.63 Z"
           style="fill:#41b8bc;fill-opacity:1;fill-rule:nonzero;stroke:none"
           id="path734" /></g><g
         id="g736"
         transform="translate(754.2336,156.8802)"><path
           d="m 0,0 c -0.031,0 -0.062,0.008 -0.09,0.024 -0.05,0.029 -0.084,0.081 -0.09,0.139 l -6.178,56.585 c -0.008,0.079 0.034,0.154 0.106,0.187 0.072,0.033 0.156,0.015 0.21,-0.044 L 32.051,14.689 c 0.04,-0.043 0.056,-0.103 0.044,-0.16 -0.012,-0.058 -0.051,-0.106 -0.104,-0.13 L 0.075,0.016 C 0.051,0.005 0.026,0 0,0 Z M -5.935,56.227 0.154,0.454 31.613,14.63 Z"
           style="fill:none;stroke:#41b8bc;stroke-width:0.375;stroke-linecap:butt;stroke-linejoin:miter;stroke-miterlimit:10;stroke-dasharray:none;stroke-opacity:1"
           id="path738" /></g><g
         id="g740"
         transform="translate(786.0178,171.1813)"><path
           d="M 0,0 H -0.005 C -0.054,0.002 -0.1,0.023 -0.133,0.06 l -37.963,42.283 c -0.054,0.06 -0.063,0.148 -0.021,0.218 0.042,0.07 0.121,0.104 0.2,0.084 l 64.338,-16.73 c 0.063,-0.017 0.113,-0.067 0.13,-0.132 0.017,-0.065 -0.003,-0.133 -0.05,-0.179 L 0.126,0.051 C 0.092,0.018 0.047,0 0,0 M -37.419,42.135 0.01,0.447 26.014,25.641 Z"
           style="fill:#41b8bc;fill-opacity:1;fill-rule:nonzero;stroke:none"
           id="path742" /></g><g
         id="g744"
         transform="translate(786.0178,171.1813)"><path
           d="M 0,0 H -0.005 C -0.054,0.002 -0.1,0.023 -0.133,0.06 l -37.963,42.283 c -0.054,0.06 -0.063,0.148 -0.021,0.218 0.042,0.07 0.121,0.104 0.2,0.084 l 64.338,-16.73 c 0.063,-0.017 0.113,-0.067 0.13,-0.132 0.017,-0.065 -0.003,-0.133 -0.05,-0.179 L 0.126,0.051 C 0.092,0.018 0.047,0 0,0 Z M -37.419,42.135 0.01,0.447 26.014,25.641 Z"
           style="fill:none;stroke:#41b8bc;stroke-width:0.375;stroke-linecap:butt;stroke-linejoin:miter;stroke-miterlimit:10;stroke-dasharray:none;stroke-opacity:1"
           id="path746" /></g><g
         id="g748"
         transform="translate(812.3923,196.5397)"><path
           d="m 0,0 c -0.015,0 -0.03,0.002 -0.044,0.006 l -64.337,16.649 c -0.057,0.014 -0.103,0.055 -0.124,0.11 -0.022,0.055 -0.015,0.117 0.017,0.166 l 64.211,99.934 c 0.043,0.068 0.125,0.099 0.204,0.076 0.076,-0.023 0.13,-0.094 0.13,-0.175 L 0.182,0.183 C 0.182,0.127 0.156,0.073 0.112,0.038 0.08,0.013 0.04,0 0,0 M -64.047,16.946 -0.181,0.419 -0.305,116.148 Z"
           style="fill:#41b8bc;fill-opacity:1;fill-rule:nonzero;stroke:none"
           id="path750" /></g><g
         id="g752"
         transform="translate(812.3923,196.5397)"><path
           d="m 0,0 c -0.015,0 -0.03,0.002 -0.044,0.006 l -64.337,16.649 c -0.057,0.014 -0.103,0.055 -0.124,0.11 -0.022,0.055 -0.015,0.117 0.017,0.166 l 64.211,99.934 c 0.043,0.068 0.125,0.099 0.204,0.076 0.076,-0.023 0.13,-0.094 0.13,-0.175 L 0.182,0.183 C 0.182,0.127 0.156,0.073 0.112,0.038 0.08,0.013 0.04,0 0,0 Z M -64.047,16.946 -0.181,0.419 -0.305,116.148 Z"
           style="fill:none;stroke:#41b8bc;stroke-width:0.375;stroke-linecap:butt;stroke-linejoin:miter;stroke-miterlimit:10;stroke-dasharray:none;stroke-opacity:1"
           id="path754" /></g><g
         id="g756"
         transform="translate(689.4756,36.7965)"><path
           d="M 0,0 C -0.049,0 -0.097,0.021 -0.131,0.058 -0.174,0.104 -0.19,0.168 -0.175,0.229 L 15.39,61.764 c 0.015,0.059 0.057,0.106 0.112,0.127 0.055,0.021 0.119,0.013 0.166,-0.021 L 81.696,15.726 c 0.06,-0.042 0.089,-0.117 0.074,-0.189 -0.015,-0.073 -0.072,-0.129 -0.144,-0.142 L 0.034,0.003 C 0.023,0.001 0.011,0 0,0 M 15.677,61.419 0.247,0.416 81.131,15.674 Z"
           style="fill:#41b8bc;fill-opacity:1;fill-rule:nonzero;stroke:none"
           id="path758" /></g><g
         id="g760"
         transform="translate(689.4756,36.7965)"><path
           d="M 0,0 C -0.049,0 -0.097,0.021 -0.131,0.058 -0.174,0.104 -0.19,0.168 -0.175,0.229 L 15.39,61.764 c 0.015,0.059 0.057,0.106 0.112,0.127 0.055,0.021 0.119,0.013 0.166,-0.021 L 81.696,15.726 c 0.06,-0.042 0.089,-0.117 0.074,-0.189 -0.015,-0.073 -0.072,-0.129 -0.144,-0.142 L 0.034,0.003 C 0.023,0.001 0.011,0 0,0 Z M 15.677,61.419 0.247,0.416 81.131,15.674 Z"
           style="fill:none;stroke:#41b8bc;stroke-width:0.375;stroke-linecap:butt;stroke-linejoin:miter;stroke-miterlimit:10;stroke-dasharray:none;stroke-opacity:1"
           id="path762" /></g><g
         id="g764"
         transform="translate(737.74,13.2245)"><path
           d="m 0,0 c -0.026,0 -0.053,0.006 -0.078,0.018 l -48.265,23.767 c -0.07,0.035 -0.11,0.111 -0.1,0.19 0.01,0.079 0.069,0.142 0.146,0.156 l 81.592,15.438 c 0.076,0.014 0.152,-0.022 0.19,-0.09 0.039,-0.067 0.031,-0.152 -0.02,-0.211 L 0.138,0.064 C 0.103,0.022 0.052,0 0,0 m -47.689,23.872 47.644,-23.461 32.899,38.7 z"
           style="fill:#41b8bc;fill-opacity:1;fill-rule:nonzero;stroke:none"
           id="path766" /></g><g
         id="g768"
         transform="translate(737.74,13.2245)"><path
           d="m 0,0 c -0.026,0 -0.053,0.006 -0.078,0.018 l -48.265,23.767 c -0.07,0.035 -0.11,0.111 -0.1,0.19 0.01,0.079 0.069,0.142 0.146,0.156 l 81.592,15.438 c 0.076,0.014 0.152,-0.022 0.19,-0.09 0.039,-0.067 0.031,-0.152 -0.02,-0.211 L 0.138,0.064 C 0.103,0.022 0.052,0 0,0 Z m -47.689,23.872 47.644,-23.461 32.899,38.7 z"
           style="fill:none;stroke:#41b8bc;stroke-width:0.375;stroke-linecap:butt;stroke-linejoin:miter;stroke-miterlimit:10;stroke-dasharray:none;stroke-opacity:1"
           id="path770" /></g><g
         id="g772"
         transform="translate(770.9888,52.1074)"><path
           d="m 0,0 c -0.036,0 -0.072,0.011 -0.102,0.032 l -66.01,46.225 c -0.067,0.046 -0.095,0.132 -0.069,0.21 0.026,0.078 0.103,0.125 0.18,0.124 L 21.19,42.317 c 0.061,-0.003 0.117,-0.038 0.148,-0.092 0.031,-0.054 0.032,-0.12 0.005,-0.176 L 0.162,0.1 C 0.138,0.053 0.096,0.019 0.045,0.005 0.03,0.001 0.015,0 0,0 M -65.384,46.193 -0.066,0.454 20.892,41.964 Z"
           style="fill:#41b8bc;fill-opacity:1;fill-rule:nonzero;stroke:none"
           id="path774" /></g><g
         id="g776"
         transform="translate(770.9888,52.1074)"><path
           d="m 0,0 c -0.036,0 -0.072,0.011 -0.102,0.032 l -66.01,46.225 c -0.067,0.046 -0.095,0.132 -0.069,0.21 0.026,0.078 0.103,0.125 0.18,0.124 L 21.19,42.317 c 0.061,-0.003 0.117,-0.038 0.148,-0.092 0.031,-0.054 0.032,-0.12 0.005,-0.176 L 0.162,0.1 C 0.138,0.053 0.096,0.019 0.045,0.005 0.03,0.001 0.015,0 0,0 Z M -65.384,46.193 -0.066,0.454 20.892,41.964 Z"
           style="fill:none;stroke:#41b8bc;stroke-width:0.375;stroke-linecap:butt;stroke-linejoin:miter;stroke-miterlimit:10;stroke-dasharray:none;stroke-opacity:1"
           id="path778" /></g><g
         id="g780"
         transform="translate(760.2803,5.153)"><path
           d="m 0,0 c -0.02,0 -0.041,0.003 -0.06,0.011 l -22.73,8.127 c -0.057,0.019 -0.1,0.067 -0.115,0.125 -0.016,0.059 -10e-4,0.121 0.038,0.167 l 33.516,39.15 c 0.054,0.064 0.145,0.081 0.22,0.044 0.075,-0.038 0.114,-0.123 0.096,-0.205 L 0.179,0.142 C 0.167,0.091 0.134,0.048 0.089,0.022 0.061,0.008 0.031,0 0,0 M -22.417,8.394 -0.131,0.426 10.445,46.779 Z"
           style="fill:#41b8bc;fill-opacity:1;fill-rule:nonzero;stroke:none"
           id="path782" /></g><g
         id="g784"
         transform="translate(760.2803,5.153)"><path
           d="m 0,0 c -0.02,0 -0.041,0.003 -0.06,0.011 l -22.73,8.127 c -0.057,0.019 -0.1,0.067 -0.115,0.125 -0.016,0.059 -10e-4,0.121 0.038,0.167 l 33.516,39.15 c 0.054,0.064 0.145,0.081 0.22,0.044 0.075,-0.038 0.114,-0.123 0.096,-0.205 L 0.179,0.142 C 0.167,0.091 0.134,0.048 0.089,0.022 0.061,0.008 0.031,0 0,0 Z M -22.417,8.394 -0.131,0.426 10.445,46.779 Z"
           style="fill:none;stroke:#41b8bc;stroke-width:0.375;stroke-linecap:butt;stroke-linejoin:miter;stroke-miterlimit:10;stroke-dasharray:none;stroke-opacity:1"
           id="path786" /></g><g
         id="g788"
         transform="translate(760.062,5.153)"><path
           d="m 0,0 c -0.052,0 -0.102,0.023 -0.136,0.063 -0.038,0.044 -0.053,0.104 -0.04,0.162 l 10.747,47.276 c 0.014,0.064 0.062,0.116 0.125,0.135 0.063,0.018 0.13,0.002 0.178,-0.044 L 54.364,5.133 C 54.415,5.083 54.432,5.007 54.409,4.94 54.385,4.872 54.324,4.824 54.253,4.818 L 0.017,0 C 0.011,0 0.006,0 0,0 M 10.853,47.102 0.234,0.389 53.825,5.149 Z"
           style="fill:#41b8bc;fill-opacity:1;fill-rule:nonzero;stroke:none"
           id="path790" /></g><g
         id="g792"
         transform="translate(760.062,5.153)"><path
           d="m 0,0 c -0.052,0 -0.102,0.023 -0.136,0.063 -0.038,0.044 -0.053,0.104 -0.04,0.162 l 10.747,47.276 c 0.014,0.064 0.062,0.116 0.125,0.135 0.063,0.018 0.13,0.002 0.178,-0.044 L 54.364,5.133 C 54.415,5.083 54.432,5.007 54.409,4.94 54.385,4.872 54.324,4.824 54.253,4.818 L 0.017,0 C 0.011,0 0.006,0 0,0 Z M 10.853,47.102 0.234,0.389 53.825,5.149 Z"
           style="fill:none;stroke:#41b8bc;stroke-width:0.375;stroke-linecap:butt;stroke-linejoin:miter;stroke-miterlimit:10;stroke-dasharray:none;stroke-opacity:1"
           id="path794" /></g><g
         id="g796"
         transform="translate(770.7449,52.1074)"><path
           d="m 0,0 c -0.047,0 -0.093,0.019 -0.127,0.054 -0.056,0.056 -0.07,0.142 -0.034,0.214 l 21.254,41.979 c 0.024,0.048 0.069,0.083 0.122,0.095 0.053,0.012 0.107,0 0.15,-0.034 L 45.183,23.783 c 0.049,-0.038 0.076,-0.099 0.07,-0.162 -0.005,-0.063 -0.043,-0.118 -0.098,-0.147 L 0.084,0.02 C 0.058,0.006 0.029,0 0,0 M 21.317,41.882 0.42,0.609 44.734,23.669 Z"
           style="fill:#41b8bc;fill-opacity:1;fill-rule:nonzero;stroke:none"
           id="path798" /></g><g
         id="g800"
         transform="translate(770.7449,52.1074)"><path
           d="m 0,0 c -0.047,0 -0.093,0.019 -0.127,0.054 -0.056,0.056 -0.07,0.142 -0.034,0.214 l 21.254,41.979 c 0.024,0.048 0.069,0.083 0.122,0.095 0.053,0.012 0.107,0 0.15,-0.034 L 45.183,23.783 c 0.049,-0.038 0.076,-0.099 0.07,-0.162 -0.005,-0.063 -0.043,-0.118 -0.098,-0.147 L 0.084,0.02 C 0.058,0.006 0.029,0 0,0 Z M 21.317,41.882 0.42,0.609 44.734,23.669 Z"
           style="fill:none;stroke:#41b8bc;stroke-width:0.375;stroke-linecap:butt;stroke-linejoin:miter;stroke-miterlimit:10;stroke-dasharray:none;stroke-opacity:1"
           id="path802" /></g><g
         id="g804"
         transform="translate(814.2017,9.9374)"><path
           d="m 0,0 c -0.046,0 -0.091,0.018 -0.125,0.052 l -43.457,42.393 c -0.046,0.045 -0.065,0.112 -0.05,0.175 0.015,0.063 0.062,0.114 0.124,0.132 l 62.141,18.766 c 0.064,0.019 0.134,10e-4 0.181,-0.047 0.047,-0.048 0.064,-0.119 0.044,-0.184 L 0.174,0.129 C 0.156,0.068 0.107,0.022 0.046,0.006 0.031,0.002 0.015,0 0,0 M -43.107,42.491 -0.085,0.522 18.411,61.068 Z"
           style="fill:#41b8bc;fill-opacity:1;fill-rule:nonzero;stroke:none"
           id="path806" /></g><g
         id="g808"
         transform="translate(814.2017,9.9374)"><path
           d="m 0,0 c -0.046,0 -0.091,0.018 -0.125,0.052 l -43.457,42.393 c -0.046,0.045 -0.065,0.112 -0.05,0.175 0.015,0.063 0.062,0.114 0.124,0.132 l 62.141,18.766 c 0.064,0.019 0.134,10e-4 0.181,-0.047 0.047,-0.048 0.064,-0.119 0.044,-0.184 L 0.174,0.129 C 0.156,0.068 0.107,0.022 0.046,0.006 0.031,0.002 0.015,0 0,0 Z M -43.107,42.491 -0.085,0.522 18.411,61.068 Z"
           style="fill:none;stroke:#41b8bc;stroke-width:0.375;stroke-linecap:butt;stroke-linejoin:miter;stroke-miterlimit:10;stroke-dasharray:none;stroke-opacity:1"
           id="path810" /></g><g
         id="g812"
         transform="translate(770.7446,52.1074)"><path
           d="m 0,0 c -0.072,0 -0.139,0.044 -0.167,0.116 -0.035,0.088 0.002,0.19 0.085,0.233 L 44.9,23.943 c 0.041,0.021 0.085,0.026 0.131,0.014 l 17.158,-4.671 c 0.078,-0.022 0.133,-0.093 0.134,-0.176 10e-4,-0.083 -0.051,-0.157 -0.129,-0.18 L 0.053,0.008 C 0.035,0.002 0.017,0 0,0 M 45.004,23.582 1.823,0.933 61.476,19.097 Z"
           style="fill:#41b8bc;fill-opacity:1;fill-rule:nonzero;stroke:none"
           id="path814" /></g><g
         id="g816"
         transform="translate(770.7446,52.1074)"><path
           d="m 0,0 c -0.072,0 -0.139,0.044 -0.167,0.116 -0.035,0.088 0.002,0.19 0.085,0.233 L 44.9,23.943 c 0.041,0.021 0.085,0.026 0.131,0.014 l 17.158,-4.671 c 0.078,-0.022 0.133,-0.093 0.134,-0.176 10e-4,-0.083 -0.051,-0.157 -0.129,-0.18 L 0.053,0.008 C 0.035,0.002 0.017,0 0,0 Z M 45.004,23.582 1.823,0.933 61.476,19.097 Z"
           style="fill:none;stroke:#41b8bc;stroke-width:0.375;stroke-linecap:butt;stroke-linejoin:miter;stroke-miterlimit:10;stroke-dasharray:none;stroke-opacity:1"
           id="path818" /></g><g
         id="g820"
         transform="translate(503.6292,28.8944)"><path
           d="m 0,0 c -0.075,0 -0.143,0.048 -0.17,0.12 -0.031,0.084 0.003,0.178 0.079,0.223 l 51.592,30.613 c 0.042,0.025 0.094,0.031 0.139,0.019 0.048,-0.013 0.088,-0.045 0.112,-0.088 l 10.669,-19.24 c 0.029,-0.052 0.031,-0.115 0.006,-0.169 -0.025,-0.054 -0.074,-0.092 -0.132,-0.103 L 0.033,0.003 C 0.022,0.001 0.011,0 0,0 M 51.525,30.543 0.977,0.55 61.979,11.692 Z"
           style="fill:#41b8bc;fill-opacity:1;fill-rule:nonzero;stroke:none"
           id="path822" /></g><g
         id="g824"
         transform="translate(503.6292,28.8944)"><path
           d="m 0,0 c -0.075,0 -0.143,0.048 -0.17,0.12 -0.031,0.084 0.003,0.178 0.079,0.223 l 51.592,30.613 c 0.042,0.025 0.094,0.031 0.139,0.019 0.048,-0.013 0.088,-0.045 0.112,-0.088 l 10.669,-19.24 c 0.029,-0.052 0.031,-0.115 0.006,-0.169 -0.025,-0.054 -0.074,-0.092 -0.132,-0.103 L 0.033,0.003 C 0.022,0.001 0.011,0 0,0 Z M 51.525,30.543 0.977,0.55 61.979,11.692 Z"
           style="fill:none;stroke:#41b8bc;stroke-width:0.375;stroke-linecap:butt;stroke-linejoin:miter;stroke-miterlimit:10;stroke-dasharray:none;stroke-opacity:1"
           id="path826" /></g><g
         id="g828"
         transform="translate(565.677,40.1476)"><path
           d="m 0,0 c -0.005,0 -0.011,0 -0.016,0.001 -0.059,0.005 -0.113,0.041 -0.142,0.093 l -10.695,19.279 c -0.028,0.052 -0.031,0.114 -0.006,0.168 0.024,0.053 0.073,0.092 0.13,0.104 l 31.927,6.426 c 0.075,0.015 0.153,-0.02 0.192,-0.087 0.04,-0.067 0.033,-0.153 -0.017,-0.213 L 0.141,0.066 C 0.106,0.024 0.054,0 0,0 M -10.411,19.332 0.031,0.508 20.762,25.607 Z"
           style="fill:#41b8bc;fill-opacity:1;fill-rule:nonzero;stroke:none"
           id="path830" /></g><g
         id="g832"
         transform="translate(565.677,40.1476)"><path
           d="m 0,0 c -0.005,0 -0.011,0 -0.016,0.001 -0.059,0.005 -0.113,0.041 -0.142,0.093 l -10.695,19.279 c -0.028,0.052 -0.031,0.114 -0.006,0.168 0.024,0.053 0.073,0.092 0.13,0.104 l 31.927,6.426 c 0.075,0.015 0.153,-0.02 0.192,-0.087 0.04,-0.067 0.033,-0.153 -0.017,-0.213 L 0.141,0.066 C 0.106,0.024 0.054,0 0,0 Z M -10.411,19.332 0.031,0.508 20.762,25.607 Z"
           style="fill:none;stroke:#41b8bc;stroke-width:0.375;stroke-linecap:butt;stroke-linejoin:miter;stroke-miterlimit:10;stroke-dasharray:none;stroke-opacity:1"
           id="path834" /></g><g
         id="g836"
         transform="translate(655.0098,168.4208)"><path
           d="m 0,0 c -0.015,0 -0.031,0.002 -0.046,0.006 -0.1,0.025 -0.159,0.126 -0.133,0.224 l 10.241,38.963 c 0.026,0.098 0.126,0.158 0.227,0.131 0.1,-0.025 0.159,-0.125 0.134,-0.224 L 0.181,0.138 C 0.159,0.054 0.083,0 0,0"
           style="fill:#41b8bc;fill-opacity:1;fill-rule:nonzero;stroke:none"
           id="path838" /></g><g
         id="g840"
         transform="translate(655.0098,168.4208)"><path
           d="m 0,0 c -0.015,0 -0.031,0.002 -0.046,0.006 -0.1,0.025 -0.159,0.126 -0.133,0.224 l 10.241,38.963 c 0.026,0.098 0.126,0.158 0.227,0.131 0.1,-0.025 0.159,-0.125 0.134,-0.224 L 0.181,0.138 C 0.159,0.054 0.083,0 0,0 Z"
           style="fill:none;stroke:#41b8bc;stroke-width:0.375;stroke-linecap:butt;stroke-linejoin:miter;stroke-miterlimit:10;stroke-dasharray:none;stroke-opacity:1"
           id="path842" /></g><g
         id="g844"
         transform="translate(655.0054,168.4208)"><path
           d="M 0,0 C -0.041,0 -0.081,0.014 -0.114,0.041 -0.169,0.086 -0.193,0.16 -0.175,0.23 l 9.991,38.963 c 0.012,0.048 0.043,0.089 0.086,0.114 0.043,0.025 0.095,0.03 0.142,0.016 L 52.022,26.526 c 0.072,-0.021 0.123,-0.085 0.129,-0.16 0.006,-0.075 -0.033,-0.147 -0.1,-0.18 L 0.082,0.019 C 0.055,0.006 0.028,0 0,0 M 10.12,38.915 0.277,0.528 51.479,26.308 Z"
           style="fill:#41b8bc;fill-opacity:1;fill-rule:nonzero;stroke:none"
           id="path846" /></g><g
         id="g848"
         transform="translate(655.0054,168.4208)"><path
           d="M 0,0 C -0.041,0 -0.081,0.014 -0.114,0.041 -0.169,0.086 -0.193,0.16 -0.175,0.23 l 9.991,38.963 c 0.012,0.048 0.043,0.089 0.086,0.114 0.043,0.025 0.095,0.03 0.142,0.016 L 52.022,26.526 c 0.072,-0.021 0.123,-0.085 0.129,-0.16 0.006,-0.075 -0.033,-0.147 -0.1,-0.18 L 0.082,0.019 C 0.055,0.006 0.028,0 0,0 Z M 10.12,38.915 0.277,0.528 51.479,26.308 Z"
           style="fill:none;stroke:#41b8bc;stroke-width:0.375;stroke-linecap:butt;stroke-linejoin:miter;stroke-miterlimit:10;stroke-dasharray:none;stroke-opacity:1"
           id="path850" /></g><g
         id="g852"
         transform="translate(669.792,119.3466)"><path
           d="M 0,0 C -0.079,0 -0.149,0.052 -0.173,0.13 L -14.96,49.526 c -0.022,0.076 0.005,0.157 0.068,0.203 0.063,0.046 0.148,0.046 0.211,0 L 46.196,5.736 C 46.257,5.692 46.285,5.615 46.266,5.541 46.248,5.468 46.186,5.413 46.112,5.405 L 0.022,0.001 C 0.014,0 0.007,0 0,0 M -14.458,49.117 0.131,0.384 45.602,5.715 Z"
           style="fill:#41b8bc;fill-opacity:1;fill-rule:nonzero;stroke:none"
           id="path854" /></g><g
         id="g856"
         transform="translate(669.792,119.3466)"><path
           d="M 0,0 C -0.079,0 -0.149,0.052 -0.173,0.13 L -14.96,49.526 c -0.022,0.076 0.005,0.157 0.068,0.203 0.063,0.046 0.148,0.046 0.211,0 L 46.196,5.736 C 46.257,5.692 46.285,5.615 46.266,5.541 46.248,5.468 46.186,5.413 46.112,5.405 L 0.022,0.001 C 0.014,0 0.007,0 0,0 Z M -14.458,49.117 0.131,0.384 45.602,5.715 Z"
           style="fill:none;stroke:#41b8bc;stroke-width:0.375;stroke-linecap:butt;stroke-linejoin:miter;stroke-miterlimit:10;stroke-dasharray:none;stroke-opacity:1"
           id="path858" /></g><g
         id="g860"
         transform="translate(715.8816,124.7147)"><path
           d="m 0,0 c -0.037,0 -0.073,0.011 -0.104,0.034 l -60.877,43.908 c -0.052,0.038 -0.081,0.1 -0.076,0.164 0.006,0.064 0.044,0.121 0.101,0.15 l 51.922,26.07 c 0.052,0.028 0.114,0.026 0.166,-0.002 0.052,-0.028 0.087,-0.079 0.095,-0.138 L 0.181,0.207 C 0.19,0.134 0.156,0.063 0.094,0.026 0.065,0.009 0.032,0 0,0 M -60.524,44.063 -0.232,0.577 -9.101,69.884 Z"
           style="fill:#41b8bc;fill-opacity:1;fill-rule:nonzero;stroke:none"
           id="path862" /></g><g
         id="g864"
         transform="translate(715.8816,124.7147)"><path
           d="m 0,0 c -0.037,0 -0.073,0.011 -0.104,0.034 l -60.877,43.908 c -0.052,0.038 -0.081,0.1 -0.076,0.164 0.006,0.064 0.044,0.121 0.101,0.15 l 51.922,26.07 c 0.052,0.028 0.114,0.026 0.166,-0.002 0.052,-0.028 0.087,-0.079 0.095,-0.138 L 0.181,0.207 C 0.19,0.134 0.156,0.063 0.094,0.026 0.065,0.009 0.032,0 0,0 Z M -60.524,44.063 -0.232,0.577 -9.101,69.884 Z"
           style="fill:none;stroke:#41b8bc;stroke-width:0.375;stroke-linecap:butt;stroke-linejoin:miter;stroke-miterlimit:10;stroke-dasharray:none;stroke-opacity:1"
           id="path866" /></g><g
         id="g868"
         transform="translate(638.2036,84.9745)"><path
           d="m 0,0 c -0.05,0 -0.099,0.021 -0.134,0.061 -0.064,0.071 -0.063,0.179 0.001,0.248 l 31.814,34.693 c 0.047,0.05 0.116,0.071 0.183,0.052 0.065,-0.019 0.115,-0.072 0.129,-0.14 l 1.871,-9.135 C 33.878,25.71 33.852,25.638 33.795,25.595 L 0.11,0.037 C 0.077,0.012 0.038,0 0,0 M 31.708,34.489 1.511,1.561 33.484,25.819 Z"
           style="fill:#41b8bc;fill-opacity:1;fill-rule:nonzero;stroke:none"
           id="path870" /></g><g
         id="g872"
         transform="translate(638.2036,84.9745)"><path
           d="m 0,0 c -0.05,0 -0.099,0.021 -0.134,0.061 -0.064,0.071 -0.063,0.179 0.001,0.248 l 31.814,34.693 c 0.047,0.05 0.116,0.071 0.183,0.052 0.065,-0.019 0.115,-0.072 0.129,-0.14 l 1.871,-9.135 C 33.878,25.71 33.852,25.638 33.795,25.595 L 0.11,0.037 C 0.077,0.012 0.038,0 0,0 Z M 31.708,34.489 1.511,1.561 33.484,25.819 Z"
           style="fill:none;stroke:#41b8bc;stroke-width:0.375;stroke-linecap:butt;stroke-linejoin:miter;stroke-miterlimit:10;stroke-dasharray:none;stroke-opacity:1"
           id="path874" /></g><g
         id="g876"
         transform="translate(638.2029,84.9745)"><path
           d="m 0,0 c -0.071,0 -0.137,0.043 -0.166,0.112 -0.033,0.078 -0.009,0.169 0.058,0.221 l 33.561,25.641 c 0.066,0.049 0.155,0.048 0.219,0 L 54.844,9.752 C 54.902,9.707 54.928,9.632 54.911,9.561 54.895,9.489 54.837,9.435 54.765,9.422 L 0.031,0.003 C 0.021,0.001 0.01,0 0,0 M 33.563,25.595 0.708,0.494 54.289,9.715 Z"
           style="fill:#41b8bc;fill-opacity:1;fill-rule:nonzero;stroke:none"
           id="path878" /></g><g
         id="g880"
         transform="translate(638.2029,84.9745)"><path
           d="m 0,0 c -0.071,0 -0.137,0.043 -0.166,0.112 -0.033,0.078 -0.009,0.169 0.058,0.221 l 33.561,25.641 c 0.066,0.049 0.155,0.048 0.219,0 L 54.844,9.752 C 54.902,9.707 54.928,9.632 54.911,9.561 54.895,9.489 54.837,9.435 54.765,9.422 L 0.031,0.003 C 0.021,0.001 0.01,0 0,0 Z M 33.563,25.595 0.708,0.494 54.289,9.715 Z"
           style="fill:none;stroke:#41b8bc;stroke-width:0.375;stroke-linecap:butt;stroke-linejoin:miter;stroke-miterlimit:10;stroke-dasharray:none;stroke-opacity:1"
           id="path882" /></g><g
         id="g884"
         transform="translate(689.7795,36.7965)"><path
           d="m 0,0 c -0.045,0 -0.089,0.017 -0.123,0.049 l -51.576,48.448 c -0.051,0.048 -0.07,0.12 -0.051,0.187 0.02,0.067 0.076,0.117 0.144,0.128 l 54.734,9.355 c 0.053,0.01 0.11,-0.008 0.152,-0.044 0.041,-0.038 0.063,-0.092 0.06,-0.147 L 0.182,0.173 C 0.178,0.102 0.134,0.04 0.069,0.013 0.046,0.004 0.023,0 0,0 M -51.183,48.513 -0.159,0.584 2.965,57.767 Z"
           style="fill:#41b8bc;fill-opacity:1;fill-rule:nonzero;stroke:none"
           id="path886" /></g><g
         id="g888"
         transform="translate(689.7795,36.7965)"><path
           d="m 0,0 c -0.045,0 -0.089,0.017 -0.123,0.049 l -51.576,48.448 c -0.051,0.048 -0.07,0.12 -0.051,0.187 0.02,0.067 0.076,0.117 0.144,0.128 l 54.734,9.355 c 0.053,0.01 0.11,-0.008 0.152,-0.044 0.041,-0.038 0.063,-0.092 0.06,-0.147 L 0.182,0.173 C 0.178,0.102 0.134,0.04 0.069,0.013 0.046,0.004 0.023,0 0,0 Z M -51.183,48.513 -0.159,0.584 2.965,57.767 Z"
           style="fill:none;stroke:#41b8bc;stroke-width:0.375;stroke-linecap:butt;stroke-linejoin:miter;stroke-miterlimit:10;stroke-dasharray:none;stroke-opacity:1"
           id="path890" /></g><g
         id="g892"
         transform="translate(854.9092,134.233)"><path
           d="M 0,0 -62.769,-39.882 -42.501,37.429 0.097,19.263 0.099,19.66 -42.552,37.849 c -0.049,0.02 -0.104,0.019 -0.151,-0.005 -0.047,-0.023 -0.082,-0.066 -0.096,-0.118 l -20.439,-77.964 c -0.018,-0.073 0.009,-0.15 0.069,-0.194 0.031,-0.024 0.069,-0.036 0.106,-0.036 0.034,0 0.068,0.009 0.098,0.028 l 62.963,40.006 z"
           style="fill:#41b8bc;fill-opacity:1;fill-rule:nonzero;stroke:none"
           id="path894" /></g><g
         id="g896"
         transform="translate(854.9092,134.233)"><path
           d="M 0,0 -62.769,-39.882 -42.501,37.429 0.097,19.263 0.099,19.66 -42.552,37.849 c -0.049,0.02 -0.104,0.019 -0.151,-0.005 -0.047,-0.023 -0.082,-0.066 -0.096,-0.118 l -20.439,-77.964 c -0.018,-0.073 0.009,-0.15 0.069,-0.194 0.031,-0.024 0.069,-0.036 0.106,-0.036 0.034,0 0.068,0.009 0.098,0.028 l 62.963,40.006 z"
           style="fill:none;stroke:#41b8bc;stroke-width:0.375;stroke-linecap:butt;stroke-linejoin:miter;stroke-miterlimit:10;stroke-dasharray:none;stroke-opacity:1"
           id="path898" /></g><g
         id="g900"
         transform="translate(854.7422,100.9877)"><path
           d="M 0,0 -62.152,-6.77 0.166,33.098 0.168,33.535 -63.009,-6.882 c -0.072,-0.046 -0.103,-0.136 -0.075,-0.217 0.025,-0.074 0.094,-0.123 0.17,-0.124 0.007,0 0.014,10e-4 0.021,10e-4 l 62.891,6.851 z"
           style="fill:#41b8bc;fill-opacity:1;fill-rule:nonzero;stroke:none"
           id="path902" /></g><g
         id="g904"
         transform="translate(854.7422,100.9877)"><path
           d="M 0,0 -62.152,-6.77 0.166,33.098 0.168,33.535 -63.009,-6.882 c -0.072,-0.046 -0.103,-0.136 -0.075,-0.217 0.025,-0.074 0.094,-0.123 0.17,-0.124 0.007,0 0.014,10e-4 0.021,10e-4 l 62.891,6.851 z"
           style="fill:none;stroke:#41b8bc;stroke-width:0.375;stroke-linecap:butt;stroke-linejoin:miter;stroke-miterlimit:10;stroke-dasharray:none;stroke-opacity:1"
           id="path906" /></g><g
         id="g908"
         transform="translate(855.0078,153.5704)"><path
           d="M 0,0 -41.978,18.089 0.078,15.56 0.08,15.933 -43.017,18.525 c -0.099,0.008 -0.168,-0.055 -0.189,-0.143 -0.02,-0.089 0.025,-0.179 0.107,-0.215 L -0.002,-0.404 Z"
           style="fill:#41b8bc;fill-opacity:1;fill-rule:nonzero;stroke:none"
           id="path910" /></g><g
         id="g912"
         transform="translate(855.0078,153.5704)"><path
           d="M 0,0 -41.978,18.089 0.078,15.56 0.08,15.933 -43.017,18.525 c -0.099,0.008 -0.168,-0.055 -0.189,-0.143 -0.02,-0.089 0.025,-0.179 0.107,-0.215 L -0.002,-0.404 Z"
           style="fill:none;stroke:#41b8bc;stroke-width:0.375;stroke-linecap:butt;stroke-linejoin:miter;stroke-miterlimit:10;stroke-dasharray:none;stroke-opacity:1"
           id="path914" /></g><g
         id="g916"
         transform="translate(565.5691,40.1476)"><path
           d="m 0,0 c -0.056,0 -0.111,0.027 -0.146,0.076 -0.049,0.069 -0.046,0.162 0.008,0.227 l 21.173,25.704 c 0.034,0.041 0.085,0.065 0.139,0.066 l 41.85,0.149 h 0.002 c 0.087,-0.001 0.161,-0.063 0.177,-0.149 0.017,-0.087 -0.029,-0.174 -0.11,-0.207 L 0.069,0.013 C 0.047,0.004 0.023,0 0,0 M 21.26,25.703 0.607,0.633 62.081,25.849 Z"
           style="fill:#41b8bc;fill-opacity:1;fill-rule:nonzero;stroke:none"
           id="path918" /></g><g
         id="g920"
         transform="translate(565.5691,40.1476)"><path
           d="m 0,0 c -0.056,0 -0.111,0.027 -0.146,0.076 -0.049,0.069 -0.046,0.162 0.008,0.227 l 21.173,25.704 c 0.034,0.041 0.085,0.065 0.139,0.066 l 41.85,0.149 h 0.002 c 0.087,-0.001 0.161,-0.063 0.177,-0.149 0.017,-0.087 -0.029,-0.174 -0.11,-0.207 L 0.069,0.013 C 0.047,0.004 0.023,0 0,0 Z M 21.26,25.703 0.607,0.633 62.081,25.849 Z"
           style="fill:none;stroke:#41b8bc;stroke-width:0.375;stroke-linecap:butt;stroke-linejoin:miter;stroke-miterlimit:10;stroke-dasharray:none;stroke-opacity:1"
           id="path922" /></g><g
         id="g924"
         transform="translate(616.4241,-1.3372)"><path
           d="m 0,0 c -0.041,0 -0.081,0.014 -0.114,0.041 l -50.855,41.684 c -0.05,0.041 -0.074,0.106 -0.065,0.17 0.01,0.064 0.052,0.118 0.112,0.143 l 62.888,25.655 c 0.06,0.024 0.13,0.014 0.182,-0.027 0.051,-0.043 0.076,-0.11 0.064,-0.175 L 0.179,0.151 C 0.168,0.087 0.124,0.034 0.064,0.011 0.043,0.004 0.022,0 0,0 M -50.501,41.814 -0.123,0.521 11.797,67.229 Z"
           style="fill:#41b8bc;fill-opacity:1;fill-rule:nonzero;stroke:none"
           id="path926" /></g><g
         id="g928"
         transform="translate(616.4241,-1.3372)"><path
           d="m 0,0 c -0.041,0 -0.081,0.014 -0.114,0.041 l -50.855,41.684 c -0.05,0.041 -0.074,0.106 -0.065,0.17 0.01,0.064 0.052,0.118 0.112,0.143 l 62.888,25.655 c 0.06,0.024 0.13,0.014 0.182,-0.027 0.051,-0.043 0.076,-0.11 0.064,-0.175 L 0.179,0.151 C 0.168,0.087 0.124,0.034 0.064,0.011 0.043,0.004 0.022,0 0,0 Z M -50.501,41.814 -0.123,0.521 11.797,67.229 Z"
           style="fill:none;stroke:#41b8bc;stroke-width:0.375;stroke-linecap:butt;stroke-linejoin:miter;stroke-miterlimit:10;stroke-dasharray:none;stroke-opacity:1"
           id="path930" /></g><g
         id="g932"
         transform="translate(586.4043,65.5328)"><path
           d="m 0,0 c -0.087,0.001 -0.163,0.064 -0.178,0.152 -0.016,0.089 0.033,0.176 0.115,0.207 l 52.12,19.76 c 0.071,0.027 0.151,0.007 0.201,-0.051 0.05,-0.058 0.059,-0.141 0.024,-0.209 L 42.115,0.249 C 42.084,0.188 42.022,0.15 41.955,0.15 L 0.001,0 Z M 51.737,19.602 1.021,0.375 41.844,0.52 Z"
           style="fill:#41b8bc;fill-opacity:1;fill-rule:nonzero;stroke:none"
           id="path934" /></g><g
         id="g936"
         transform="translate(586.4043,65.5328)"><path
           d="m 0,0 c -0.087,0.001 -0.163,0.064 -0.178,0.152 -0.016,0.089 0.033,0.176 0.115,0.207 l 52.12,19.76 c 0.071,0.027 0.151,0.007 0.201,-0.051 0.05,-0.058 0.059,-0.141 0.024,-0.209 L 42.115,0.249 C 42.084,0.188 42.022,0.15 41.955,0.15 L 0.001,0 Z M 51.737,19.602 1.021,0.375 41.844,0.52 Z"
           style="fill:none;stroke:#41b8bc;stroke-width:0.375;stroke-linecap:butt;stroke-linejoin:miter;stroke-miterlimit:10;stroke-dasharray:none;stroke-opacity:1"
           id="path938" /></g><g
         id="g940"
         transform="translate(616.1631,-1.3372)"><path
           d="m 0,0 c -0.038,0 -0.075,0.012 -0.106,0.036 -0.056,0.042 -0.084,0.111 -0.071,0.18 l 12.024,67.34 c 0.009,0.056 0.045,0.104 0.094,0.13 0.05,0.026 0.11,0.026 0.161,0.003 L 73.713,38.667 c 0.062,-0.03 0.103,-0.093 0.105,-0.163 0.001,-0.07 -0.037,-0.135 -0.099,-0.167 L 0.084,0.02 C 0.058,0.007 0.029,0 0,0 M 12.162,67.257 0.245,0.516 73.224,38.492 Z"
           style="fill:#41b8bc;fill-opacity:1;fill-rule:nonzero;stroke:none"
           id="path942" /></g><g
         id="g944"
         transform="translate(616.1631,-1.3372)"><path
           d="m 0,0 c -0.038,0 -0.075,0.012 -0.106,0.036 -0.056,0.042 -0.084,0.111 -0.071,0.18 l 12.024,67.34 c 0.009,0.056 0.045,0.104 0.094,0.13 0.05,0.026 0.11,0.026 0.161,0.003 L 73.713,38.667 c 0.062,-0.03 0.103,-0.093 0.105,-0.163 0.001,-0.07 -0.037,-0.135 -0.099,-0.167 L 0.084,0.02 C 0.058,0.007 0.029,0 0,0 Z M 12.162,67.257 0.245,0.516 73.224,38.492 Z"
           style="fill:none;stroke:#41b8bc;stroke-width:0.375;stroke-linecap:butt;stroke-linejoin:miter;stroke-miterlimit:10;stroke-dasharray:none;stroke-opacity:1"
           id="path946" /></g><g
         id="g948"
         transform="translate(689.9543,36.7965)"><path
           d="m 0,0 c -0.025,0 -0.052,0.005 -0.076,0.017 l -61.819,29.077 c -0.045,0.021 -0.08,0.06 -0.095,0.108 -0.017,0.048 -0.012,0.099 0.011,0.144 l 10.146,19.423 c 0.027,0.051 0.075,0.086 0.131,0.096 0.054,0.01 0.112,-0.008 0.154,-0.047 L 0.125,0.318 C 0.19,0.256 0.202,0.156 0.152,0.081 0.117,0.029 0.059,0 0,0 M -61.568,29.346 -0.967,0.842 -51.622,48.385 Z"
           style="fill:#41b8bc;fill-opacity:1;fill-rule:nonzero;stroke:none"
           id="path950" /></g><g
         id="g952"
         transform="translate(689.9543,36.7965)"><path
           d="m 0,0 c -0.025,0 -0.052,0.005 -0.076,0.017 l -61.819,29.077 c -0.045,0.021 -0.08,0.06 -0.095,0.108 -0.017,0.048 -0.012,0.099 0.011,0.144 l 10.146,19.423 c 0.027,0.051 0.075,0.086 0.131,0.096 0.054,0.01 0.112,-0.008 0.154,-0.047 L 0.125,0.318 C 0.19,0.256 0.202,0.156 0.152,0.081 0.117,0.029 0.059,0 0,0 Z M -61.568,29.346 -0.967,0.842 -51.622,48.385 Z"
           style="fill:none;stroke:#41b8bc;stroke-width:0.375;stroke-linecap:butt;stroke-linejoin:miter;stroke-miterlimit:10;stroke-dasharray:none;stroke-opacity:1"
           id="path954" /></g><g
         id="g956"
         transform="translate(854.55,62.9359)"><path
           d="M 0,0 -21.554,8.188 0.104,20.865 0.106,21.297 -22.075,8.314 c -0.062,-0.036 -0.097,-0.106 -0.092,-0.178 0.006,-0.072 0.052,-0.134 0.119,-0.16 l 22.046,-8.374 z"
           style="fill:#41b8bc;fill-opacity:1;fill-rule:nonzero;stroke:none"
           id="path958" /></g><g
         id="g960"
         transform="translate(854.55,62.9359)"><path
           d="M 0,0 -21.554,8.188 0.104,20.865 0.106,21.297 -22.075,8.314 c -0.062,-0.036 -0.097,-0.106 -0.092,-0.178 0.006,-0.072 0.052,-0.134 0.119,-0.16 l 22.046,-8.374 z"
           style="fill:none;stroke:#41b8bc;stroke-width:0.375;stroke-linecap:butt;stroke-linejoin:miter;stroke-miterlimit:10;stroke-dasharray:none;stroke-opacity:1"
           id="path962" /></g><g
         id="g964"
         transform="translate(664.9341,207.0624)"><path
           d="m 0,0 c -0.058,0 -0.115,0.029 -0.15,0.082 -0.056,0.084 -0.034,0.199 0.05,0.256 l 42.009,28.491 c 0.083,0.057 0.196,0.034 0.252,-0.05 0.056,-0.085 0.034,-0.2 -0.05,-0.256 L 0.102,0.031 C 0.071,0.01 0.035,0 0,0"
           style="fill:#41b8bc;fill-opacity:1;fill-rule:nonzero;stroke:none"
           id="path966" /></g><g
         id="g968"
         transform="translate(664.9341,207.0624)"><path
           d="m 0,0 c -0.058,0 -0.115,0.029 -0.15,0.082 -0.056,0.084 -0.034,0.199 0.05,0.256 l 42.009,28.491 c 0.083,0.057 0.196,0.034 0.252,-0.05 0.056,-0.085 0.034,-0.2 -0.05,-0.256 L 0.102,0.031 C 0.071,0.01 0.035,0 0,0 Z"
           style="fill:none;stroke:#41b8bc;stroke-width:0.375;stroke-linecap:butt;stroke-linejoin:miter;stroke-miterlimit:10;stroke-dasharray:none;stroke-opacity:1"
           id="path970" /></g><g
         id="g972"
         transform="translate(706.9744,194.3717)"><path
           d="m 0,0 c -0.017,0 -0.034,0.002 -0.052,0.008 l -42.04,12.79 c -0.067,0.021 -0.117,0.078 -0.127,0.149 -0.01,0.07 0.02,0.14 0.078,0.18 L -0.132,41.52 c 0.056,0.038 0.128,0.041 0.187,0.01 0.059,-0.032 0.096,-0.094 0.096,-0.163 L 0.183,0.184 C 0.183,0.125 0.156,0.071 0.109,0.036 0.077,0.012 0.039,0 0,0 M -41.618,13.038 -0.181,0.431 -0.212,41.023 Z"
           style="fill:#41b8bc;fill-opacity:1;fill-rule:nonzero;stroke:none"
           id="path974" /></g><g
         id="g976"
         transform="translate(706.9744,194.3717)"><path
           d="m 0,0 c -0.017,0 -0.034,0.002 -0.052,0.008 l -42.04,12.79 c -0.067,0.021 -0.117,0.078 -0.127,0.149 -0.01,0.07 0.02,0.14 0.078,0.18 L -0.132,41.52 c 0.056,0.038 0.128,0.041 0.187,0.01 0.059,-0.032 0.096,-0.094 0.096,-0.163 L 0.183,0.184 C 0.183,0.125 0.156,0.071 0.109,0.036 0.077,0.012 0.039,0 0,0 Z M -41.618,13.038 -0.181,0.431 -0.212,41.023 Z"
           style="fill:none;stroke:#41b8bc;stroke-width:0.375;stroke-linecap:butt;stroke-linejoin:miter;stroke-miterlimit:10;stroke-dasharray:none;stroke-opacity:1"
           id="path978" /></g><g
         id="g980"
         transform="translate(706.6531,194.3717)"><path
           d="m 0,0 c -0.034,0 -0.068,0.01 -0.098,0.029 -0.051,0.034 -0.083,0.092 -0.083,0.155 l -0.031,41.183 c 0,0.064 0.033,0.124 0.087,0.158 0.055,0.033 0.123,0.035 0.179,0.005 L 41.81,19.265 c 0.061,-0.033 0.099,-0.098 0.097,-0.169 -0.002,-0.07 -0.044,-0.133 -0.107,-0.161 L 0.075,0.016 C 0.051,0.005 0.026,0 0,0 M 0.152,41.062 0.183,0.467 41.31,19.115 Z"
           style="fill:#41b8bc;fill-opacity:1;fill-rule:nonzero;stroke:none"
           id="path982" /></g><g
         id="g984"
         transform="translate(706.6531,194.3717)"><path
           d="m 0,0 c -0.034,0 -0.068,0.01 -0.098,0.029 -0.051,0.034 -0.083,0.092 -0.083,0.155 l -0.031,41.183 c 0,0.064 0.033,0.124 0.087,0.158 0.055,0.033 0.123,0.035 0.179,0.005 L 41.81,19.265 c 0.061,-0.033 0.099,-0.098 0.097,-0.169 -0.002,-0.07 -0.044,-0.133 -0.107,-0.161 L 0.075,0.016 C 0.051,0.005 0.026,0 0,0 Z M 0.152,41.062 0.183,0.467 41.31,19.115 Z"
           style="fill:none;stroke:#41b8bc;stroke-width:0.375;stroke-linecap:butt;stroke-linejoin:miter;stroke-miterlimit:10;stroke-dasharray:none;stroke-opacity:1"
           id="path986" /></g><g
         id="g988"
         transform="translate(748.3772,213.1422)"><path
           d="M 0,0 C -0.029,0 -0.057,0.007 -0.084,0.021 L -41.84,22.199 c -0.08,0.042 -0.117,0.138 -0.086,0.224 l 21.842,61.057 c 0.027,0.076 0.103,0.131 0.181,0.121 0.08,-0.005 0.148,-0.062 0.167,-0.141 L 0.177,0.226 C 0.194,0.156 0.169,0.083 0.112,0.039 0.08,0.013 0.04,0 0,0 M -41.53,22.448 -0.27,0.534 -19.948,82.781 Z"
           style="fill:#41b8bc;fill-opacity:1;fill-rule:nonzero;stroke:none"
           id="path990" /></g><g
         id="g992"
         transform="translate(748.3772,213.1422)"><path
           d="M 0,0 C -0.029,0 -0.057,0.007 -0.084,0.021 L -41.84,22.199 c -0.08,0.042 -0.117,0.138 -0.086,0.224 l 21.842,61.057 c 0.027,0.076 0.103,0.131 0.181,0.121 0.08,-0.005 0.148,-0.062 0.167,-0.141 L 0.177,0.226 C 0.194,0.156 0.169,0.083 0.112,0.039 0.08,0.013 0.04,0 0,0 Z M -41.53,22.448 -0.27,0.534 -19.948,82.781 Z"
           style="fill:none;stroke:#41b8bc;stroke-width:0.375;stroke-linecap:butt;stroke-linejoin:miter;stroke-miterlimit:10;stroke-dasharray:none;stroke-opacity:1"
           id="path994" /></g><g
         id="g996"
         transform="translate(854.4226,37.8558)"><path
           d="M 0,0 -40.118,-27.292 -21.637,33.033 0.025,4.944 0.028,5.538 -21.564,33.536 c -0.042,0.054 -0.107,0.08 -0.177,0.068 -0.067,-0.013 -0.121,-0.061 -0.141,-0.126 l -18.737,-61.159 c -0.023,-0.074 0.004,-0.155 0.066,-0.201 0.032,-0.024 0.069,-0.036 0.107,-0.036 0.036,-0.001 0.071,0.01 0.103,0.031 l 40.341,27.443 z"
           style="fill:#41b8bc;fill-opacity:1;fill-rule:nonzero;stroke:none"
           id="path998" /></g><g
         id="g1000"
         transform="translate(854.4226,37.8558)"><path
           d="M 0,0 -40.118,-27.292 -21.637,33.033 0.025,4.944 0.028,5.538 -21.564,33.536 c -0.042,0.054 -0.107,0.08 -0.177,0.068 -0.067,-0.013 -0.121,-0.061 -0.141,-0.126 l -18.737,-61.159 c -0.023,-0.074 0.004,-0.155 0.066,-0.201 0.032,-0.024 0.069,-0.036 0.107,-0.036 0.036,-0.001 0.071,0.01 0.103,0.031 l 40.341,27.443 z"
           style="fill:none;stroke:#41b8bc;stroke-width:0.375;stroke-linecap:butt;stroke-linejoin:miter;stroke-miterlimit:10;stroke-dasharray:none;stroke-opacity:1"
           id="path1002" /></g><g
         id="g1004"
         transform="translate(854.2336,0.2439)"><path
           d="M 0,0 -39.815,10.049 0.188,37.486 0.19,37.934 -40.358,10.123 c -0.059,-0.041 -0.09,-0.114 -0.077,-0.185 0.013,-0.073 0.066,-0.13 0.135,-0.148 L -0.002,-0.381 Z"
           style="fill:#41b8bc;fill-opacity:1;fill-rule:nonzero;stroke:none"
           id="path1006" /></g><g
         id="g1008"
         transform="translate(854.2336,0.2439)"><path
           d="M 0,0 -39.815,10.049 0.188,37.486 0.19,37.934 -40.358,10.123 c -0.059,-0.041 -0.09,-0.114 -0.077,-0.185 0.013,-0.073 0.066,-0.13 0.135,-0.148 L -0.002,-0.381 Z"
           style="fill:none;stroke:#41b8bc;stroke-width:0.375;stroke-linecap:butt;stroke-linejoin:miter;stroke-miterlimit:10;stroke-dasharray:none;stroke-opacity:1"
           id="path1010" /></g><g
         id="g1012"
         transform="translate(854.4495,42.9216)"><path
           d="m 0,0 -21.343,27.951 21.442,-8.129 0.002,0.397 -21.921,8.31 c -0.076,0.029 -0.163,0.003 -0.211,-0.064 -0.049,-0.067 -0.047,-0.159 0.003,-0.225 L -0.003,-0.604 Z"
           style="fill:#41b8bc;fill-opacity:1;fill-rule:nonzero;stroke:none"
           id="path1014" /></g><g
         id="g1016"
         transform="translate(854.4495,42.9216)"><path
           d="m 0,0 -21.343,27.951 21.442,-8.129 0.002,0.397 -21.921,8.31 c -0.076,0.029 -0.163,0.003 -0.211,-0.064 -0.049,-0.067 -0.047,-0.159 0.003,-0.225 L -0.003,-0.604 Z"
           style="fill:none;stroke:#41b8bc;stroke-width:0.375;stroke-linecap:butt;stroke-linejoin:miter;stroke-miterlimit:10;stroke-dasharray:none;stroke-opacity:1"
           id="path1018" /></g><g
         transform="translate(453.0812,-1.0986)"
         id="g2453"><path
           sodipodi:nodetypes="cccccc"
           id="path2451"
           style="fill:none;stroke:#41b8bc;stroke-width:0.75;stroke-linecap:butt;stroke-linejoin:miter;stroke-miterlimit:10;stroke-dasharray:none;stroke-opacity:1"
           d="M 51.525,30.543 0.977,0.55 75.4945,15.0446 Z" /></g></g></g></svg>
