<?xml version="1.0" encoding="UTF-8" standalone="no"?>
<svg
   xmlns:dc="http://purl.org/dc/elements/1.1/"
   xmlns:cc="http://creativecommons.org/ns#"
   xmlns:rdf="http://www.w3.org/1999/02/22-rdf-syntax-ns#"
   xmlns:svg="http://www.w3.org/2000/svg"
   xmlns="http://www.w3.org/2000/svg"
   xmlns:sodipodi="http://sodipodi.sourceforge.net/DTD/sodipodi-0.dtd"
   xmlns:inkscape="http://www.inkscape.org/namespaces/inkscape"
   inkscape:version="1.0 (4035a4fb49, 2020-05-01)"
   sodipodi:docname="startx.svg"
   viewBox="0 0 220 52"
   height="52"
   width="220"
   xml:space="preserve"
   id="svg2"
   version="1.1"><metadata
     id="metadata8"><rdf:RDF><cc:Work
         rdf:about=""><dc:format>image/svg+xml</dc:format><dc:type
           rdf:resource="http://purl.org/dc/dcmitype/StillImage" /><dc:title></dc:title></cc:Work></rdf:RDF></metadata><defs
     id="defs6"><clipPath
       id="clipPath1030"
       clipPathUnits="userSpaceOnUse"><path
         id="path1028"
         d="M 0,0 H 841.89 V 595.276 H 0 Z" /></clipPath><clipPath
       id="clipPath1102"
       clipPathUnits="userSpaceOnUse"><path
         id="path1100"
         d="M 0,0 H 841.89 V 595.276 H 0 Z" /></clipPath><clipPath
       id="clipPath1122"
       clipPathUnits="userSpaceOnUse"><path
         id="path1120"
         d="M 0,0 H 841.89 V 595.276 H 0 Z" /></clipPath><clipPath
       id="clipPath1138"
       clipPathUnits="userSpaceOnUse"><path
         id="path1136"
         d="M 0,0 H 841.89 V 595.276 H 0 Z" /></clipPath></defs><sodipodi:namedview
     inkscape:current-layer="g10"
     inkscape:window-maximized="1"
     inkscape:window-y="0"
     inkscape:window-x="0"
     inkscape:cy="-11.828726"
     inkscape:cx="322.99886"
     inkscape:zoom="2.8294915"
     showgrid="false"
     id="namedview4"
     inkscape:window-height="1016"
     inkscape:window-width="1920"
     inkscape:pageshadow="2"
     inkscape:pageopacity="0"
     guidetolerance="10"
     gridtolerance="10"
     objecttolerance="10"
     borderopacity="1"
     bordercolor="#666666"
     pagecolor="#e5e5e5"
     inkscape:document-rotation="0"
     fit-margin-top="0"
     fit-margin-left="0"
     fit-margin-right="0"
     fit-margin-bottom="0" /><g
     transform="matrix(1.3333333,0,0,-1.3333333,358.67015,650.22313)"
     inkscape:label="STARTX_CHARTE ALL_V3"
     inkscape:groupmode="layer"
     id="g10"><g
       transform="matrix(0.92344229,0,0,0.92344229,-577.6832,151.09117)"
       id="g1007"
       style="fill:#ffffff;fill-opacity:1;stroke:#ffffff;stroke-width:3.45;stroke-linecap:round;stroke-linejoin:bevel;stroke-miterlimit:8;stroke-dasharray:none;stroke-opacity:1"><g
         transform="translate(384.5419,327.1768)"
         id="g897"
         style="fill:#ffffff;fill-opacity:1;stroke:#ffffff;stroke-width:3.45;stroke-linecap:round;stroke-linejoin:miter;stroke-miterlimit:1.6;stroke-dasharray:none;stroke-opacity:1"><path
           id="path895"
           style="fill:#ffffff;fill-opacity:1;fill-rule:nonzero;stroke:#ffffff;stroke-width:3.45;stroke-linecap:round;stroke-linejoin:miter;stroke-miterlimit:1.6;stroke-dasharray:none;stroke-opacity:1"
           d="m 0,0 v -0.825 h -4.096 v 6.807 h 0.953 V 0 Z" /></g><g
         id="g961"
         style="fill:#ffffff;fill-opacity:1;stroke:#ffffff;stroke-width:3.45;stroke-linecap:round;stroke-linejoin:bevel;stroke-miterlimit:8;stroke-dasharray:none;stroke-opacity:1"><g
           clip-path="url(#clipPath1030)"
           id="g959"
           style="fill:#ffffff;fill-opacity:1;stroke:#ffffff;stroke-width:3.45;stroke-linecap:round;stroke-linejoin:bevel;stroke-miterlimit:8;stroke-dasharray:none;stroke-opacity:1"><path
             id="path899"
             style="fill:#ffffff;fill-opacity:1;fill-rule:nonzero;stroke:#ffffff;stroke-width:3.45;stroke-linecap:round;stroke-linejoin:miter;stroke-miterlimit:1.6;stroke-dasharray:none;stroke-opacity:1"
             d="m 389.463,326.351 h -0.913 v 5.108 h 0.913 z m -0.462,6.032 c -0.163,0 -0.303,0.054 -0.418,0.162 -0.114,0.107 -0.171,0.253 -0.171,0.437 0,0.183 0.057,0.329 0.171,0.437 0.115,0.107 0.255,0.162 0.418,0.162 0.163,0 0.303,-0.055 0.418,-0.162 0.114,-0.108 0.171,-0.254 0.171,-0.437 0,-0.184 -0.057,-0.33 -0.171,-0.437 -0.115,-0.108 -0.255,-0.162 -0.418,-0.162" /><g
             transform="translate(395.0122,327.1473)"
             id="g903"
             style="fill:#ffffff;fill-opacity:1;stroke:#ffffff;stroke-width:3.45;stroke-linecap:round;stroke-linejoin:miter;stroke-miterlimit:1.6;stroke-dasharray:none;stroke-opacity:1"><path
               id="path901"
               style="fill:#ffffff;fill-opacity:1;fill-rule:nonzero;stroke:#ffffff;stroke-width:3.45;stroke-linecap:round;stroke-linejoin:miter;stroke-miterlimit:1.6;stroke-dasharray:none;stroke-opacity:1"
               d="m 0,0 c 0.092,-0.027 0.221,-0.05 0.388,-0.073 0.166,-0.023 0.375,-0.035 0.624,-0.035 0.491,0 0.884,0.162 1.178,0.486 0.295,0.324 0.442,0.784 0.442,1.38 0,0.262 -0.026,0.508 -0.078,0.737 C 2.502,2.724 2.416,2.922 2.299,3.089 2.18,3.256 2.029,3.387 1.841,3.482 1.655,3.577 1.43,3.624 1.169,3.624 0.92,3.624 0.691,3.582 0.481,3.497 0.272,3.411 0.111,3.323 0,3.231 Z M 0,4.086 C 0.111,4.158 0.28,4.233 0.506,4.312 0.732,4.391 0.992,4.429 1.287,4.429 1.653,4.429 1.979,4.364 2.264,4.233 2.549,4.103 2.79,3.919 2.986,3.683 3.183,3.447 3.331,3.166 3.433,2.838 3.534,2.511 3.585,2.151 3.585,1.758 3.585,1.346 3.524,0.974 3.403,0.644 3.282,0.313 3.11,0.033 2.888,-0.196 2.665,-0.426 2.397,-0.602 2.082,-0.727 1.768,-0.851 1.415,-0.913 1.022,-0.913 c -0.426,0 -0.803,0.029 -1.13,0.088 -0.328,0.058 -0.596,0.118 -0.805,0.177 V 6.669 L 0,6.826 Z" /></g><g
             transform="translate(404.8342,331.5673)"
             id="g907"
             style="fill:#ffffff;fill-opacity:1;stroke:#ffffff;stroke-width:3.45;stroke-linecap:round;stroke-linejoin:miter;stroke-miterlimit:1.6;stroke-dasharray:none;stroke-opacity:1"><path
               id="path905"
               style="fill:#ffffff;fill-opacity:1;fill-rule:nonzero;stroke:#ffffff;stroke-width:3.45;stroke-linecap:round;stroke-linejoin:miter;stroke-miterlimit:1.6;stroke-dasharray:none;stroke-opacity:1"
               d="m 0,0 c 0.079,0 0.168,-0.005 0.27,-0.015 0.102,-0.01 0.202,-0.023 0.3,-0.039 0.098,-0.017 0.188,-0.033 0.27,-0.049 0.082,-0.016 0.142,-0.031 0.182,-0.044 L 0.865,-0.943 c -0.073,0.026 -0.192,0.057 -0.359,0.094 -0.167,0.036 -0.382,0.053 -0.644,0.053 -0.17,0 -0.338,-0.017 -0.506,-0.053 -0.167,-0.037 -0.276,-0.062 -0.328,-0.074 v -4.292 h -0.914 v 4.891 c 0.216,0.078 0.485,0.152 0.806,0.221 C -0.759,-0.034 -0.399,0 0,0" /></g><g
             transform="translate(413.0258,329.3968)"
             id="g911"
             style="fill:#ffffff;fill-opacity:1;stroke:#ffffff;stroke-width:3.45;stroke-linecap:round;stroke-linejoin:miter;stroke-miterlimit:1.6;stroke-dasharray:none;stroke-opacity:1"><path
               id="path909"
               style="fill:#ffffff;fill-opacity:1;fill-rule:nonzero;stroke:#ffffff;stroke-width:3.45;stroke-linecap:round;stroke-linejoin:miter;stroke-miterlimit:1.6;stroke-dasharray:none;stroke-opacity:1"
               d="m 0,0 c 0.006,0.412 -0.097,0.751 -0.309,1.016 -0.213,0.266 -0.506,0.398 -0.88,0.398 -0.209,0 -0.395,-0.041 -0.554,-0.122 C -1.904,1.209 -2.04,1.103 -2.151,0.972 -2.263,0.841 -2.349,0.69 -2.412,0.521 -2.474,0.35 -2.514,0.176 -2.535,0 Z m -3.507,-0.501 c 0,0.451 0.065,0.846 0.197,1.183 0.131,0.338 0.304,0.618 0.52,0.84 0.217,0.223 0.466,0.389 0.747,0.501 0.281,0.111 0.57,0.167 0.864,0.167 0.688,0 1.215,-0.214 1.581,-0.643 0.367,-0.429 0.551,-1.082 0.551,-1.96 v -0.152 c 0,-0.062 -0.004,-0.12 -0.01,-0.172 h -3.497 c 0.04,-0.531 0.193,-0.933 0.462,-1.208 0.268,-0.275 0.687,-0.412 1.257,-0.412 0.321,0 0.591,0.027 0.81,0.083 0.22,0.055 0.385,0.109 0.496,0.162 L 0.599,-2.878 C 0.487,-2.937 0.293,-2.999 0.015,-3.064 -0.263,-3.13 -0.579,-3.163 -0.934,-3.163 c -0.445,0 -0.829,0.068 -1.154,0.202 -0.324,0.134 -0.59,0.318 -0.8,0.554 -0.209,0.236 -0.365,0.516 -0.466,0.84 -0.102,0.324 -0.153,0.679 -0.153,1.066" /></g><g
             transform="translate(426.9927,330.3787)"
             id="g915"
             style="fill:#ffffff;fill-opacity:1;stroke:#ffffff;stroke-width:3.45;stroke-linecap:round;stroke-linejoin:miter;stroke-miterlimit:1.6;stroke-dasharray:none;stroke-opacity:1"><path
               id="path913"
               style="fill:#ffffff;fill-opacity:1;fill-rule:nonzero;stroke:#ffffff;stroke-width:3.45;stroke-linecap:round;stroke-linejoin:miter;stroke-miterlimit:1.6;stroke-dasharray:none;stroke-opacity:1"
               d="m 0,0 c -0.111,0.092 -0.272,0.18 -0.481,0.265 -0.21,0.086 -0.439,0.128 -0.688,0.128 -0.262,0 -0.486,-0.048 -0.673,-0.142 -0.186,-0.096 -0.338,-0.226 -0.457,-0.393 -0.117,-0.167 -0.203,-0.366 -0.255,-0.594 -0.052,-0.23 -0.079,-0.476 -0.079,-0.737 0,-0.596 0.148,-1.056 0.443,-1.38 0.294,-0.324 0.687,-0.487 1.178,-0.487 0.249,0 0.458,0.012 0.624,0.035 0.167,0.023 0.296,0.047 0.388,0.074 z M 0,3.438 0.913,3.595 V -3.879 C 0.704,-3.938 0.435,-3.998 0.108,-4.057 c -0.327,-0.058 -0.704,-0.088 -1.13,-0.088 -0.393,0 -0.746,0.063 -1.06,0.187 -0.315,0.124 -0.583,0.301 -0.806,0.53 -0.222,0.23 -0.395,0.51 -0.515,0.84 -0.122,0.331 -0.182,0.702 -0.182,1.115 0,0.393 0.051,0.752 0.153,1.08 0.101,0.328 0.249,0.609 0.446,0.845 0.196,0.236 0.437,0.419 0.722,0.55 0.285,0.131 0.611,0.196 0.977,0.196 0.295,0 0.555,-0.039 0.781,-0.118 C -0.28,1.002 -0.111,0.926 0,0.855 Z" /></g><g
             transform="translate(435.764,329.3968)"
             id="g919"
             style="fill:#ffffff;fill-opacity:1;stroke:#ffffff;stroke-width:3.45;stroke-linecap:round;stroke-linejoin:miter;stroke-miterlimit:1.6;stroke-dasharray:none;stroke-opacity:1"><path
               id="path917"
               style="fill:#ffffff;fill-opacity:1;fill-rule:nonzero;stroke:#ffffff;stroke-width:3.45;stroke-linecap:round;stroke-linejoin:miter;stroke-miterlimit:1.6;stroke-dasharray:none;stroke-opacity:1"
               d="m 0,0 c 0.006,0.412 -0.097,0.751 -0.309,1.016 -0.213,0.266 -0.506,0.398 -0.88,0.398 -0.209,0 -0.395,-0.041 -0.555,-0.122 C -1.904,1.209 -2.04,1.103 -2.151,0.972 -2.263,0.841 -2.349,0.69 -2.412,0.521 -2.474,0.35 -2.514,0.176 -2.535,0 Z m -3.507,-0.501 c 0,0.451 0.065,0.846 0.197,1.183 0.131,0.338 0.304,0.618 0.52,0.84 0.216,0.223 0.465,0.389 0.747,0.501 0.281,0.111 0.57,0.167 0.864,0.167 0.688,0 1.215,-0.214 1.581,-0.643 0.367,-0.429 0.551,-1.082 0.551,-1.96 v -0.152 c 0,-0.062 -0.004,-0.12 -0.01,-0.172 h -3.497 c 0.04,-0.531 0.193,-0.933 0.462,-1.208 0.268,-0.275 0.687,-0.412 1.257,-0.412 0.321,0 0.591,0.027 0.81,0.083 0.22,0.055 0.385,0.109 0.496,0.162 L 0.599,-2.878 C 0.487,-2.937 0.293,-2.999 0.015,-3.064 -0.264,-3.13 -0.58,-3.163 -0.934,-3.163 c -0.445,0 -0.829,0.068 -1.154,0.202 -0.324,0.134 -0.591,0.318 -0.8,0.554 -0.209,0.236 -0.365,0.516 -0.466,0.84 -0.102,0.324 -0.153,0.679 -0.153,1.066" /></g><g
             transform="translate(444.6427,328.8956)"
             id="g923"
             style="fill:#ffffff;fill-opacity:1;stroke:#ffffff;stroke-width:3.45;stroke-linecap:round;stroke-linejoin:miter;stroke-miterlimit:1.6;stroke-dasharray:none;stroke-opacity:1"><path
               id="path921"
               style="fill:#ffffff;fill-opacity:1;fill-rule:nonzero;stroke:#ffffff;stroke-width:3.45;stroke-linecap:round;stroke-linejoin:miter;stroke-miterlimit:1.6;stroke-dasharray:none;stroke-opacity:1"
               d="M 0,0 C 0,0.596 -0.147,1.054 -0.442,1.375 -0.736,1.696 -1.129,1.856 -1.62,1.856 -1.896,1.856 -2.11,1.846 -2.264,1.827 -2.418,1.808 -2.54,1.785 -2.632,1.758 v -3.221 c 0.111,-0.092 0.272,-0.18 0.481,-0.266 0.209,-0.085 0.439,-0.127 0.688,-0.127 0.261,0 0.486,0.047 0.673,0.142 0.186,0.095 0.338,0.226 0.456,0.393 0.118,0.167 0.203,0.364 0.256,0.589 C -0.026,-0.506 0,-0.262 0,0 M 0.953,0 C 0.953,-0.387 0.902,-0.744 0.801,-1.07 0.7,-1.398 0.55,-1.68 0.353,-1.915 c -0.196,-0.236 -0.437,-0.42 -0.721,-0.551 -0.285,-0.13 -0.611,-0.196 -0.978,-0.196 -0.294,0 -0.554,0.039 -0.78,0.118 -0.226,0.078 -0.395,0.153 -0.506,0.226 v -2.043 h -0.913 v 6.767 c 0.215,0.052 0.485,0.11 0.809,0.173 0.324,0.061 0.7,0.092 1.126,0.092 0.392,0 0.746,-0.062 1.06,-0.186 C -0.236,2.36 0.033,2.184 0.255,1.954 0.478,1.726 0.65,1.446 0.771,1.114 0.892,0.784 0.953,0.412 0.953,0" /></g><g
             transform="translate(454.0133,326.499)"
             id="g927"
             style="fill:#ffffff;fill-opacity:1;stroke:#ffffff;stroke-width:3.45;stroke-linecap:round;stroke-linejoin:miter;stroke-miterlimit:1.6;stroke-dasharray:none;stroke-opacity:1"><path
               id="path925"
               style="fill:#ffffff;fill-opacity:1;fill-rule:nonzero;stroke:#ffffff;stroke-width:3.45;stroke-linecap:round;stroke-linejoin:miter;stroke-miterlimit:1.6;stroke-dasharray:none;stroke-opacity:1"
               d="m 0,0 c -0.21,-0.052 -0.487,-0.108 -0.83,-0.167 -0.344,-0.059 -0.742,-0.088 -1.193,-0.088 -0.393,0 -0.725,0.057 -0.993,0.171 C -3.284,0.031 -3.5,0.193 -3.664,0.403 -3.827,0.612 -3.946,0.859 -4.017,1.144 -4.09,1.429 -4.125,1.745 -4.125,2.092 V 4.96 h 0.913 V 2.289 c 0,-0.623 0.098,-1.068 0.295,-1.336 0.196,-0.269 0.527,-0.403 0.992,-0.403 0.098,0 0.199,0.004 0.305,0.01 0.103,0.006 0.203,0.015 0.293,0.025 0.092,0.009 0.176,0.019 0.251,0.029 0.075,0.009 0.13,0.021 0.163,0.034 V 4.96 H 0 Z" /></g><path
             id="path929"
             style="fill:#ffffff;fill-opacity:1;fill-rule:nonzero;stroke:#ffffff;stroke-width:3.45;stroke-linecap:round;stroke-linejoin:miter;stroke-miterlimit:1.6;stroke-dasharray:none;stroke-opacity:1"
             d="m 459.563,326.351 h -0.913 v 5.108 h 0.913 z m -0.462,6.032 c -0.163,0 -0.303,0.054 -0.418,0.162 -0.114,0.107 -0.171,0.253 -0.171,0.437 0,0.183 0.057,0.329 0.171,0.437 0.115,0.107 0.255,0.162 0.418,0.162 0.163,0 0.303,-0.055 0.418,-0.162 0.114,-0.108 0.171,-0.254 0.171,-0.437 0,-0.184 -0.057,-0.33 -0.171,-0.437 -0.115,-0.108 -0.255,-0.162 -0.418,-0.162" /><g
             transform="translate(465.3869,327.0098)"
             id="g933"
             style="fill:#ffffff;fill-opacity:1;stroke:#ffffff;stroke-width:3.45;stroke-linecap:round;stroke-linejoin:miter;stroke-miterlimit:1.6;stroke-dasharray:none;stroke-opacity:1"><path
               id="path931"
               style="fill:#ffffff;fill-opacity:1;fill-rule:nonzero;stroke:#ffffff;stroke-width:3.45;stroke-linecap:round;stroke-linejoin:miter;stroke-miterlimit:1.6;stroke-dasharray:none;stroke-opacity:1"
               d="M 0,0 C 0.374,0 0.65,0.05 0.83,0.147 1.01,0.246 1.1,0.403 1.1,0.619 1.1,0.841 1.012,1.018 0.834,1.149 0.658,1.281 0.366,1.427 -0.039,1.591 -0.236,1.67 -0.424,1.75 -0.604,1.832 -0.784,1.914 -0.94,2.01 -1.07,2.121 c -0.132,0.112 -0.236,0.247 -0.315,0.403 -0.078,0.157 -0.118,0.35 -0.118,0.58 0,0.451 0.167,0.81 0.501,1.076 0.335,0.265 0.789,0.397 1.366,0.397 0.144,0 0.288,-0.008 0.432,-0.025 C 0.94,4.536 1.074,4.517 1.198,4.494 1.323,4.471 1.432,4.446 1.528,4.42 1.622,4.394 1.695,4.371 1.749,4.351 L 1.582,3.566 C 1.483,3.618 1.329,3.672 1.12,3.728 0.91,3.783 0.658,3.812 0.364,3.812 0.108,3.812 -0.115,3.76 -0.305,3.659 -0.495,3.557 -0.589,3.398 -0.589,3.183 c 0,-0.112 0.021,-0.21 0.064,-0.295 C -0.483,2.803 -0.418,2.726 -0.329,2.657 -0.241,2.588 -0.131,2.524 0,2.466 0.131,2.406 0.288,2.344 0.472,2.278 0.713,2.187 0.93,2.097 1.12,2.009 1.31,1.92 1.471,1.817 1.606,1.699 1.741,1.582 1.843,1.439 1.916,1.272 1.987,1.105 2.023,0.901 2.023,0.658 2.023,0.186 1.848,-0.17 1.498,-0.412 1.147,-0.655 0.648,-0.776 0,-0.776 c -0.452,0 -0.805,0.038 -1.06,0.113 -0.256,0.075 -0.43,0.132 -0.522,0.172 l 0.167,0.786 C -1.31,0.255 -1.143,0.196 -0.913,0.117 -0.684,0.039 -0.38,0 0,0" /></g><g
             transform="translate(480.7781,331.4199)"
             id="g937"
             style="fill:#ffffff;fill-opacity:1;stroke:#ffffff;stroke-width:3.45;stroke-linecap:round;stroke-linejoin:miter;stroke-miterlimit:1.6;stroke-dasharray:none;stroke-opacity:1"><path
               id="path935"
               style="fill:#ffffff;fill-opacity:1;fill-rule:nonzero;stroke:#ffffff;stroke-width:3.45;stroke-linecap:round;stroke-linejoin:miter;stroke-miterlimit:1.6;stroke-dasharray:none;stroke-opacity:1"
               d="M 0,0 C 0,-0.236 -0.048,-0.464 -0.142,-0.683 -0.238,-0.902 -0.363,-1.118 -0.52,-1.331 -0.677,-1.544 -0.855,-1.753 -1.051,-1.96 -1.247,-2.166 -1.444,-2.368 -1.64,-2.564 -1.752,-2.675 -1.881,-2.806 -2.028,-2.957 -2.176,-3.107 -2.314,-3.264 -2.445,-3.428 -2.577,-3.592 -2.686,-3.749 -2.775,-3.9 -2.863,-4.05 -2.907,-4.181 -2.907,-4.293 h 3.133 v -0.775 h -4.125 c -0.007,0.039 -0.01,0.079 -0.01,0.117 v 0.109 c 0,0.307 0.051,0.593 0.152,0.859 0.102,0.265 0.234,0.516 0.398,0.752 0.164,0.236 0.347,0.458 0.55,0.667 0.203,0.21 0.403,0.413 0.599,0.61 0.164,0.157 0.319,0.312 0.467,0.466 0.147,0.154 0.278,0.307 0.393,0.462 0.114,0.153 0.206,0.312 0.274,0.476 0.069,0.164 0.104,0.337 0.104,0.521 0,0.196 -0.031,0.363 -0.094,0.501 -0.062,0.137 -0.146,0.251 -0.25,0.343 -0.105,0.092 -0.228,0.159 -0.369,0.201 -0.14,0.043 -0.29,0.064 -0.447,0.064 -0.19,0 -0.363,-0.026 -0.52,-0.078 C -2.809,0.949 -2.95,0.889 -3.074,0.82 -3.198,0.752 -3.304,0.679 -3.388,0.604 -3.474,0.529 -3.539,0.472 -3.585,0.432 L -4.036,1.08 c 0.058,0.066 0.146,0.146 0.265,0.241 0.117,0.095 0.258,0.185 0.422,0.27 0.164,0.085 0.346,0.158 0.55,0.217 0.203,0.058 0.422,0.088 0.658,0.088 0.714,0 1.249,-0.166 1.606,-0.496 C -0.178,1.069 0,0.602 0,0" /></g><g
             transform="translate(488.8815,329.7599)"
             id="g941"
             style="fill:#ffffff;fill-opacity:1;stroke:#ffffff;stroke-width:3.45;stroke-linecap:round;stroke-linejoin:miter;stroke-miterlimit:1.6;stroke-dasharray:none;stroke-opacity:1"><path
               id="path939"
               style="fill:#ffffff;fill-opacity:1;fill-rule:nonzero;stroke:#ffffff;stroke-width:3.45;stroke-linecap:round;stroke-linejoin:miter;stroke-miterlimit:1.6;stroke-dasharray:none;stroke-opacity:1"
               d="M 0,0 C 0,0.374 -0.021,0.727 -0.064,1.061 -0.106,1.394 -0.178,1.686 -0.28,1.935 -0.382,2.184 -0.518,2.382 -0.688,2.529 -0.857,2.677 -1.068,2.75 -1.316,2.75 -1.565,2.75 -1.774,2.677 -1.945,2.529 -2.115,2.382 -2.251,2.184 -2.353,1.935 -2.454,1.686 -2.526,1.394 -2.569,1.061 -2.611,0.727 -2.633,0.374 -2.633,0 c 0,-0.373 0.022,-0.727 0.064,-1.06 0.043,-0.334 0.115,-0.626 0.216,-0.875 0.102,-0.249 0.238,-0.447 0.408,-0.594 0.171,-0.148 0.38,-0.221 0.629,-0.221 0.248,0 0.459,0.073 0.628,0.221 0.17,0.147 0.306,0.345 0.408,0.594 0.102,0.249 0.174,0.541 0.216,0.875 C -0.021,-0.727 0,-0.373 0,0 m -3.595,0 c 0,1.139 0.201,2.017 0.604,2.633 0.403,0.615 0.961,0.922 1.675,0.922 0.714,0 1.272,-0.307 1.675,-0.922 C 0.761,2.017 0.963,1.139 0.963,0 c 0,-1.139 -0.202,-2.017 -0.604,-2.632 -0.403,-0.616 -0.961,-0.923 -1.675,-0.923 -0.714,0 -1.272,0.307 -1.675,0.923 -0.403,0.615 -0.604,1.493 -0.604,2.632" /></g><g
             transform="translate(497.4858,329.7599)"
             id="g945"
             style="fill:#ffffff;fill-opacity:1;stroke:#ffffff;stroke-width:3.45;stroke-linecap:round;stroke-linejoin:miter;stroke-miterlimit:1.6;stroke-dasharray:none;stroke-opacity:1"><path
               id="path943"
               style="fill:#ffffff;fill-opacity:1;fill-rule:nonzero;stroke:#ffffff;stroke-width:3.45;stroke-linecap:round;stroke-linejoin:miter;stroke-miterlimit:1.6;stroke-dasharray:none;stroke-opacity:1"
               d="M 0,0 C 0,0.374 -0.021,0.727 -0.064,1.061 -0.107,1.394 -0.178,1.686 -0.28,1.935 -0.382,2.184 -0.518,2.382 -0.688,2.529 -0.858,2.677 -1.068,2.75 -1.316,2.75 -1.565,2.75 -1.775,2.677 -1.945,2.529 -2.115,2.382 -2.251,2.184 -2.353,1.935 -2.454,1.686 -2.526,1.394 -2.569,1.061 -2.612,0.727 -2.633,0.374 -2.633,0 c 0,-0.373 0.021,-0.727 0.064,-1.06 0.043,-0.334 0.115,-0.626 0.216,-0.875 0.102,-0.249 0.238,-0.447 0.408,-0.594 0.17,-0.148 0.38,-0.221 0.629,-0.221 0.248,0 0.458,0.073 0.628,0.221 0.17,0.147 0.306,0.345 0.408,0.594 0.102,0.249 0.173,0.541 0.216,0.875 C -0.021,-0.727 0,-0.373 0,0 m -3.595,0 c 0,1.139 0.201,2.017 0.604,2.633 0.403,0.615 0.961,0.922 1.675,0.922 0.714,0 1.272,-0.307 1.675,-0.922 C 0.761,2.017 0.963,1.139 0.963,0 c 0,-1.139 -0.202,-2.017 -0.604,-2.632 -0.403,-0.616 -0.961,-0.923 -1.675,-0.923 -0.714,0 -1.272,0.307 -1.675,0.923 -0.403,0.615 -0.604,1.493 -0.604,2.632" /></g><g
             transform="translate(504.2235,327.0196)"
             id="g949"
             style="fill:#ffffff;fill-opacity:1;stroke:#ffffff;stroke-width:3.45;stroke-linecap:round;stroke-linejoin:miter;stroke-miterlimit:1.6;stroke-dasharray:none;stroke-opacity:1"><path
               id="path947"
               style="fill:#ffffff;fill-opacity:1;fill-rule:nonzero;stroke:#ffffff;stroke-width:3.45;stroke-linecap:round;stroke-linejoin:miter;stroke-miterlimit:1.6;stroke-dasharray:none;stroke-opacity:1"
               d="M 0,0 C 0.583,0 1.001,0.115 1.252,0.344 1.505,0.573 1.63,0.88 1.63,1.267 1.63,1.516 1.578,1.726 1.473,1.896 1.369,2.065 1.231,2.201 1.06,2.303 0.89,2.405 0.692,2.477 0.466,2.519 0.241,2.562 0.01,2.583 -0.226,2.583 H -0.462 V 3.33 h 0.324 c 0.165,0 0.333,0.016 0.506,0.049 C 0.542,3.411 0.7,3.471 0.845,3.555 0.989,3.641 1.106,3.757 1.198,3.904 1.29,4.052 1.336,4.237 1.336,4.46 1.336,4.642 1.303,4.799 1.237,4.931 1.172,5.062 1.085,5.17 0.978,5.255 0.869,5.34 0.745,5.401 0.604,5.436 0.464,5.472 0.314,5.491 0.157,5.491 -0.157,5.491 -0.424,5.445 -0.644,5.353 -0.863,5.261 -1.047,5.167 -1.198,5.068 l -0.354,0.698 c 0.079,0.052 0.179,0.109 0.3,0.172 0.121,0.062 0.257,0.119 0.407,0.171 0.151,0.053 0.313,0.097 0.486,0.133 0.174,0.036 0.355,0.054 0.545,0.054 0.361,0 0.671,-0.044 0.934,-0.133 C 1.382,6.075 1.597,5.95 1.768,5.79 1.938,5.629 2.065,5.44 2.151,5.221 2.236,5.001 2.278,4.763 2.278,4.508 2.278,4.155 2.177,3.852 1.975,3.599 1.771,3.348 1.526,3.156 1.237,3.026 1.415,2.972 1.584,2.897 1.749,2.799 1.912,2.701 2.054,2.577 2.176,2.426 2.297,2.276 2.395,2.102 2.47,1.906 2.546,1.709 2.583,1.49 2.583,1.248 2.583,0.953 2.533,0.679 2.431,0.427 2.329,0.175 2.172,-0.042 1.96,-0.226 1.747,-0.409 1.48,-0.554 1.159,-0.658 0.838,-0.763 0.458,-0.815 0.019,-0.815 c -0.17,0 -0.345,0.013 -0.525,0.039 -0.18,0.026 -0.349,0.059 -0.506,0.099 -0.157,0.038 -0.294,0.078 -0.412,0.117 -0.118,0.039 -0.204,0.073 -0.256,0.098 l 0.177,0.796 C -1.392,0.282 -1.206,0.213 -0.948,0.128 -0.689,0.042 -0.374,0 0,0" /></g><g
             transform="translate(336.0347,362.2781)"
             id="g953"
             style="fill:#ffffff;fill-opacity:1;stroke:#ffffff;stroke-width:3.45;stroke-linecap:round;stroke-linejoin:miter;stroke-miterlimit:8;stroke-dasharray:none;stroke-opacity:1"><path
               id="path951"
               style="fill:#ffffff;fill-opacity:1;fill-rule:nonzero;stroke:#ffffff;stroke-width:3.45;stroke-linecap:round;stroke-linejoin:miter;stroke-miterlimit:8;stroke-dasharray:none;stroke-opacity:1"
               d="m 0,0 v -36.095 h 10.568 c 3.468,2.093 9.044,5.971 9.153,10.605 0.128,5.744 -10.355,6.981 -10.505,13.699 -0.112,4.522 1.671,8.575 9.493,11.791 z" /></g><g
             transform="translate(367.2237,360.2484)"
             id="g957"
             style="fill:#ffffff;fill-opacity:1;stroke:#ffffff;stroke-width:3.45;stroke-linecap:round;stroke-linejoin:miter;stroke-miterlimit:8;stroke-dasharray:none;stroke-opacity:1"><path
               id="path955"
               style="fill:#ffffff;fill-opacity:1;fill-rule:nonzero;stroke:#ffffff;stroke-width:3.45;stroke-linecap:round;stroke-linejoin:miter;stroke-miterlimit:8;stroke-dasharray:none;stroke-opacity:1"
               d="m 0,0 -4.842,-5.956 4.558,-6.048 -5.763,5.121 -4.098,-2.978 3.075,4.183 -3.444,4.654 4.467,-3.722 z m -11.243,2.03 c -3.375,-2.167 -7.204,-4.881 -7.204,-8.838 -0.186,-5.768 12.094,-6.23 11.907,-15.532 -0.18,-5.817 -6.81,-9.699 -11.703,-11.725 H 2.292 V 2.03 Z" /></g></g></g><g
         transform="translate(413.3185,338.2024)"
         id="g965"
         style="fill:#ffffff;fill-opacity:1;stroke:#ffffff;stroke-width:3.45;stroke-linecap:round;stroke-linejoin:miter;stroke-miterlimit:1.6;stroke-dasharray:none;stroke-opacity:1"><path
           id="path963"
           style="fill:#ffffff;fill-opacity:1;fill-rule:nonzero;stroke:#ffffff;stroke-width:3.45;stroke-linecap:round;stroke-linejoin:miter;stroke-miterlimit:1.6;stroke-dasharray:none;stroke-opacity:1"
           d="m 0,0 v 20.624 h 6.984 v 3.278 H -11.964 V 20.624 H -4.98 V 0 Z" /></g><g
         id="g973"
         style="fill:#ffffff;fill-opacity:1;stroke:#ffffff;stroke-width:3.45;stroke-linecap:round;stroke-linejoin:miter;stroke-miterlimit:1.6;stroke-dasharray:none;stroke-opacity:1"><g
           clip-path="url(#clipPath1102)"
           id="g971"
           style="fill:#ffffff;fill-opacity:1;stroke:#ffffff;stroke-width:3.45;stroke-linecap:round;stroke-linejoin:miter;stroke-miterlimit:1.6;stroke-dasharray:none;stroke-opacity:1"><g
             transform="translate(388.1883,337.5882)"
             id="g969"
             style="fill:#ffffff;fill-opacity:1;stroke:#ffffff;stroke-width:3.45;stroke-linecap:round;stroke-linejoin:miter;stroke-miterlimit:1.6;stroke-dasharray:none;stroke-opacity:1"><path
               id="path967"
               style="fill:#ffffff;fill-opacity:1;fill-rule:nonzero;stroke:#ffffff;stroke-width:3.45;stroke-linecap:round;stroke-linejoin:miter;stroke-miterlimit:1.6;stroke-dasharray:none;stroke-opacity:1"
               d="m 0,0 c 3.913,0 6.798,0.585 8.652,1.759 1.865,1.163 2.797,2.989 2.797,5.477 0,1.798 -0.514,3.223 -1.537,4.278 -1.025,1.065 -2.86,2.088 -5.512,3.068 l -2.751,1.019 -1.844,0.71 c -1.067,0.409 -1.773,0.793 -2.117,1.148 -0.368,0.378 -0.55,0.906 -0.55,1.585 0,1.034 0.379,1.759 1.133,2.178 0.755,0.41 2.08,0.615 3.977,0.615 2.36,0 4.871,-0.441 7.533,-1.324 v 3.778 c -2.576,0.549 -5.139,0.825 -7.693,0.825 -6.586,0 -9.881,-2.241 -9.881,-6.721 0,-1.734 0.475,-3.088 1.423,-4.069 0.949,-0.969 2.831,-1.986 5.645,-3.053 L 1.909,10.27 4.125,9.43 C 4.794,9.182 5.317,8.789 5.694,8.251 6.039,7.755 6.209,7.182 6.209,6.526 c 0,-2.154 -1.817,-3.233 -5.45,-3.233 -2.5,0 -5.333,0.533 -8.502,1.599 V 0.823 L -5.19,0.434 C -3.272,0.144 -1.541,0 0,0" /></g></g></g><g
         transform="translate(495.8759,346.7434)"
         id="g977"
         style="fill:#ffffff;fill-opacity:1;stroke:#ffffff;stroke-width:3.45;stroke-linecap:round;stroke-linejoin:miter;stroke-miterlimit:1.6;stroke-dasharray:none;stroke-opacity:1"><path
           id="path975"
           style="fill:#ffffff;fill-opacity:1;fill-rule:nonzero;stroke:#ffffff;stroke-width:3.45;stroke-linecap:round;stroke-linejoin:miter;stroke-miterlimit:1.6;stroke-dasharray:none;stroke-opacity:1"
           d="m 0,0 5.19,-8.541 h 5.789 L 3.377,4.087 10.72,15.361 H 6.694 L 1.423,7.32 -3.443,15.361 H -9.248 L -1.924,3.232 -9.588,-8.541 h 4.027 z" /></g><g
         transform="translate(477.8657,338.2024)"
         id="g981"
         style="fill:#ffffff;fill-opacity:1;stroke:#ffffff;stroke-width:3.45;stroke-linecap:round;stroke-linejoin:miter;stroke-miterlimit:1.6;stroke-dasharray:none;stroke-opacity:1"><path
           id="path979"
           style="fill:#ffffff;fill-opacity:1;fill-rule:nonzero;stroke:#ffffff;stroke-width:3.45;stroke-linecap:round;stroke-linejoin:miter;stroke-miterlimit:1.6;stroke-dasharray:none;stroke-opacity:1"
           d="m 0,0 v 20.624 h 6.984 v 3.278 H -11.968 V 20.624 H -4.98 V 0 Z" /></g><g
         id="g989"
         style="fill:#ffffff;fill-opacity:1;stroke:#ffffff;stroke-width:3.45;stroke-linecap:round;stroke-linejoin:miter;stroke-miterlimit:1.6;stroke-dasharray:none;stroke-opacity:1"><g
           clip-path="url(#clipPath1122)"
           id="g987"
           style="fill:#ffffff;fill-opacity:1;stroke:#ffffff;stroke-width:3.45;stroke-linecap:round;stroke-linejoin:miter;stroke-miterlimit:1.6;stroke-dasharray:none;stroke-opacity:1"><g
             transform="translate(458.1039,349.3615)"
             id="g985"
             style="fill:#ffffff;fill-opacity:1;stroke:#ffffff;stroke-width:3.45;stroke-linecap:round;stroke-linejoin:miter;stroke-miterlimit:1.6;stroke-dasharray:none;stroke-opacity:1"><path
               id="path983"
               style="fill:#ffffff;fill-opacity:1;fill-rule:nonzero;stroke:#ffffff;stroke-width:3.45;stroke-linecap:round;stroke-linejoin:miter;stroke-miterlimit:1.6;stroke-dasharray:none;stroke-opacity:1"
               d="m 0,0 c 1.272,0.614 2.248,1.291 2.927,2.034 1.143,1.271 1.714,2.865 1.714,4.782 0,3.952 -2.428,5.927 -7.289,5.927 h -10.431 v -23.902 h 4.69 v 9.77 h 3.897 l 6.725,-9.77 H 7.828 Z M -1.355,3.328 C -2.238,2.369 -3.711,1.889 -5.771,1.889 h -2.618 v 7.576 h 3.202 c 1.499,0 2.646,-0.232 3.443,-0.695 0.927,-0.527 1.39,-1.398 1.39,-2.614 0,-1.163 -0.333,-2.107 -1.001,-2.828" /></g></g></g><g
         transform="translate(432.7553,362.1042)"
         id="g993"
         style="fill:#ffffff;fill-opacity:1;stroke:#ffffff;stroke-width:3.45;stroke-linecap:round;stroke-linejoin:miter;stroke-miterlimit:1.6;stroke-dasharray:none;stroke-opacity:1"><path
           id="path991"
           style="fill:#ffffff;fill-opacity:1;fill-rule:nonzero;stroke:#ffffff;stroke-width:3.45;stroke-linecap:round;stroke-linejoin:miter;stroke-miterlimit:1.6;stroke-dasharray:none;stroke-opacity:1"
           d="m 0,0 h -4.98 l -9.282,-23.902 h 3.637 l 2.443,6.377 h 9.896 l 2.438,-6.377 h 5.095 z m -6.953,-14.342 3.717,9.53 3.721,-9.53 z" /></g><g
         id="g1001"
         style="fill:#ffffff;fill-opacity:1;stroke:#ffffff;stroke-width:3.45;stroke-linecap:round;stroke-linejoin:miter;stroke-miterlimit:8;stroke-dasharray:none;stroke-opacity:1"><g
           clip-path="url(#clipPath1138)"
           id="g999"
           style="fill:#ffffff;fill-opacity:1;stroke:#ffffff;stroke-width:3.45;stroke-linecap:round;stroke-linejoin:miter;stroke-miterlimit:8;stroke-dasharray:none;stroke-opacity:1"><g
             transform="translate(360.6838,337.908)"
             id="g997"
             style="fill:#ffffff;fill-opacity:1;stroke:#ffffff;stroke-width:3.45;stroke-linecap:round;stroke-linejoin:miter;stroke-miterlimit:8;stroke-dasharray:none;stroke-opacity:1"><path
               id="path995"
               style="fill:#ffffff;fill-opacity:1;fill-rule:nonzero;stroke:#ffffff;stroke-width:3.45;stroke-linecap:round;stroke-linejoin:miter;stroke-miterlimit:8;stroke-dasharray:none;stroke-opacity:1"
               d="m 0,0 c 0.186,9.302 -12.093,9.765 -11.907,15.533 0,3.956 3.829,6.671 7.204,8.837 H -5.94 c -7.822,-3.216 -9.605,-7.269 -9.493,-11.791 0.15,-6.718 10.633,-7.955 10.505,-13.699 -0.109,-4.634 -5.685,-8.512 -9.153,-10.605 h 2.377 C -6.811,-9.699 -0.18,-5.816 0,0" /></g></g></g><g
         transform="translate(367.2237,360.2484)"
         id="g1005"
         style="fill:#ffffff;fill-opacity:1;stroke:#ffffff;stroke-width:3.45;stroke-linecap:round;stroke-linejoin:miter;stroke-miterlimit:8;stroke-dasharray:none;stroke-opacity:1"><path
           id="path1003"
           style="fill:#ffffff;fill-opacity:1;fill-rule:nonzero;stroke:#ffffff;stroke-width:3.45;stroke-linecap:round;stroke-linejoin:miter;stroke-miterlimit:8;stroke-dasharray:none;stroke-opacity:1"
           d="m 0,0 -4.842,-5.956 4.558,-6.048 -5.763,5.121 -4.098,-2.978 3.075,4.183 -3.444,4.654 4.467,-3.722 z" /></g></g><g
       id="g2534"
       transform="matrix(0.92344229,0,0,0.92344229,-577.6832,151.09117)"><g
         id="g1020"
         transform="translate(384.5419,327.1768)"><path
           d="m 0,0 v -0.825 h -4.096 v 6.807 h 0.953 V 0 Z"
           style="fill:#161d38;fill-opacity:1;fill-rule:nonzero;stroke:none"
           id="path1022" /></g><g
         id="g1024"><g
           id="g1026"
           clip-path="url(#clipPath1030)"><path
             d="m 389.463,326.351 h -0.913 v 5.108 h 0.913 z m -0.462,6.032 c -0.163,0 -0.303,0.054 -0.418,0.162 -0.114,0.107 -0.171,0.253 -0.171,0.437 0,0.183 0.057,0.329 0.171,0.437 0.115,0.107 0.255,0.162 0.418,0.162 0.163,0 0.303,-0.055 0.418,-0.162 0.114,-0.108 0.171,-0.254 0.171,-0.437 0,-0.184 -0.057,-0.33 -0.171,-0.437 -0.115,-0.108 -0.255,-0.162 -0.418,-0.162"
             style="fill:#161d38;fill-opacity:1;fill-rule:nonzero;stroke:none"
             id="path1032" /><g
             id="g1034"
             transform="translate(395.0122,327.1473)"><path
               d="m 0,0 c 0.092,-0.027 0.221,-0.05 0.388,-0.073 0.166,-0.023 0.375,-0.035 0.624,-0.035 0.491,0 0.884,0.162 1.178,0.486 0.295,0.324 0.442,0.784 0.442,1.38 0,0.262 -0.026,0.508 -0.078,0.737 C 2.502,2.724 2.416,2.922 2.299,3.089 2.18,3.256 2.029,3.387 1.841,3.482 1.655,3.577 1.43,3.624 1.169,3.624 0.92,3.624 0.691,3.582 0.481,3.497 0.272,3.411 0.111,3.323 0,3.231 Z M 0,4.086 C 0.111,4.158 0.28,4.233 0.506,4.312 0.732,4.391 0.992,4.429 1.287,4.429 1.653,4.429 1.979,4.364 2.264,4.233 2.549,4.103 2.79,3.919 2.986,3.683 3.183,3.447 3.331,3.166 3.433,2.838 3.534,2.511 3.585,2.151 3.585,1.758 3.585,1.346 3.524,0.974 3.403,0.644 3.282,0.313 3.11,0.033 2.888,-0.196 2.665,-0.426 2.397,-0.602 2.082,-0.727 1.768,-0.851 1.415,-0.913 1.022,-0.913 c -0.426,0 -0.803,0.029 -1.13,0.088 -0.328,0.058 -0.596,0.118 -0.805,0.177 V 6.669 L 0,6.826 Z"
               style="fill:#161d38;fill-opacity:1;fill-rule:nonzero;stroke:none"
               id="path1036" /></g><g
             id="g1038"
             transform="translate(404.8342,331.5673)"><path
               d="m 0,0 c 0.079,0 0.168,-0.005 0.27,-0.015 0.102,-0.01 0.202,-0.023 0.3,-0.039 0.098,-0.017 0.188,-0.033 0.27,-0.049 0.082,-0.016 0.142,-0.031 0.182,-0.044 L 0.865,-0.943 c -0.073,0.026 -0.192,0.057 -0.359,0.094 -0.167,0.036 -0.382,0.053 -0.644,0.053 -0.17,0 -0.338,-0.017 -0.506,-0.053 -0.167,-0.037 -0.276,-0.062 -0.328,-0.074 v -4.292 h -0.914 v 4.891 c 0.216,0.078 0.485,0.152 0.806,0.221 C -0.759,-0.034 -0.399,0 0,0"
               style="fill:#161d38;fill-opacity:1;fill-rule:nonzero;stroke:none"
               id="path1040" /></g><g
             id="g1042"
             transform="translate(413.0258,329.3968)"><path
               d="m 0,0 c 0.006,0.412 -0.097,0.751 -0.309,1.016 -0.213,0.266 -0.506,0.398 -0.88,0.398 -0.209,0 -0.395,-0.041 -0.554,-0.122 C -1.904,1.209 -2.04,1.103 -2.151,0.972 -2.263,0.841 -2.349,0.69 -2.412,0.521 -2.474,0.35 -2.514,0.176 -2.535,0 Z m -3.507,-0.501 c 0,0.451 0.065,0.846 0.197,1.183 0.131,0.338 0.304,0.618 0.52,0.84 0.217,0.223 0.466,0.389 0.747,0.501 0.281,0.111 0.57,0.167 0.864,0.167 0.688,0 1.215,-0.214 1.581,-0.643 0.367,-0.429 0.551,-1.082 0.551,-1.96 v -0.152 c 0,-0.062 -0.004,-0.12 -0.01,-0.172 h -3.497 c 0.04,-0.531 0.193,-0.933 0.462,-1.208 0.268,-0.275 0.687,-0.412 1.257,-0.412 0.321,0 0.591,0.027 0.81,0.083 0.22,0.055 0.385,0.109 0.496,0.162 L 0.599,-2.878 C 0.487,-2.937 0.293,-2.999 0.015,-3.064 -0.263,-3.13 -0.579,-3.163 -0.934,-3.163 c -0.445,0 -0.829,0.068 -1.154,0.202 -0.324,0.134 -0.59,0.318 -0.8,0.554 -0.209,0.236 -0.365,0.516 -0.466,0.84 -0.102,0.324 -0.153,0.679 -0.153,1.066"
               style="fill:#161d38;fill-opacity:1;fill-rule:nonzero;stroke:none"
               id="path1044" /></g><g
             id="g1046"
             transform="translate(426.9927,330.3787)"><path
               d="m 0,0 c -0.111,0.092 -0.272,0.18 -0.481,0.265 -0.21,0.086 -0.439,0.128 -0.688,0.128 -0.262,0 -0.486,-0.048 -0.673,-0.142 -0.186,-0.096 -0.338,-0.226 -0.457,-0.393 -0.117,-0.167 -0.203,-0.366 -0.255,-0.594 -0.052,-0.23 -0.079,-0.476 -0.079,-0.737 0,-0.596 0.148,-1.056 0.443,-1.38 0.294,-0.324 0.687,-0.487 1.178,-0.487 0.249,0 0.458,0.012 0.624,0.035 0.167,0.023 0.296,0.047 0.388,0.074 z M 0,3.438 0.913,3.595 V -3.879 C 0.704,-3.938 0.435,-3.998 0.108,-4.057 c -0.327,-0.058 -0.704,-0.088 -1.13,-0.088 -0.393,0 -0.746,0.063 -1.06,0.187 -0.315,0.124 -0.583,0.301 -0.806,0.53 -0.222,0.23 -0.395,0.51 -0.515,0.84 -0.122,0.331 -0.182,0.702 -0.182,1.115 0,0.393 0.051,0.752 0.153,1.08 0.101,0.328 0.249,0.609 0.446,0.845 0.196,0.236 0.437,0.419 0.722,0.55 0.285,0.131 0.611,0.196 0.977,0.196 0.295,0 0.555,-0.039 0.781,-0.118 C -0.28,1.002 -0.111,0.926 0,0.855 Z"
               style="fill:#161d38;fill-opacity:1;fill-rule:nonzero;stroke:none"
               id="path1048" /></g><g
             id="g1050"
             transform="translate(435.764,329.3968)"><path
               d="m 0,0 c 0.006,0.412 -0.097,0.751 -0.309,1.016 -0.213,0.266 -0.506,0.398 -0.88,0.398 -0.209,0 -0.395,-0.041 -0.555,-0.122 C -1.904,1.209 -2.04,1.103 -2.151,0.972 -2.263,0.841 -2.349,0.69 -2.412,0.521 -2.474,0.35 -2.514,0.176 -2.535,0 Z m -3.507,-0.501 c 0,0.451 0.065,0.846 0.197,1.183 0.131,0.338 0.304,0.618 0.52,0.84 0.216,0.223 0.465,0.389 0.747,0.501 0.281,0.111 0.57,0.167 0.864,0.167 0.688,0 1.215,-0.214 1.581,-0.643 0.367,-0.429 0.551,-1.082 0.551,-1.96 v -0.152 c 0,-0.062 -0.004,-0.12 -0.01,-0.172 h -3.497 c 0.04,-0.531 0.193,-0.933 0.462,-1.208 0.268,-0.275 0.687,-0.412 1.257,-0.412 0.321,0 0.591,0.027 0.81,0.083 0.22,0.055 0.385,0.109 0.496,0.162 L 0.599,-2.878 C 0.487,-2.937 0.293,-2.999 0.015,-3.064 -0.264,-3.13 -0.58,-3.163 -0.934,-3.163 c -0.445,0 -0.829,0.068 -1.154,0.202 -0.324,0.134 -0.591,0.318 -0.8,0.554 -0.209,0.236 -0.365,0.516 -0.466,0.84 -0.102,0.324 -0.153,0.679 -0.153,1.066"
               style="fill:#161d38;fill-opacity:1;fill-rule:nonzero;stroke:none"
               id="path1052" /></g><g
             id="g1054"
             transform="translate(444.6427,328.8956)"><path
               d="M 0,0 C 0,0.596 -0.147,1.054 -0.442,1.375 -0.736,1.696 -1.129,1.856 -1.62,1.856 -1.896,1.856 -2.11,1.846 -2.264,1.827 -2.418,1.808 -2.54,1.785 -2.632,1.758 v -3.221 c 0.111,-0.092 0.272,-0.18 0.481,-0.266 0.209,-0.085 0.439,-0.127 0.688,-0.127 0.261,0 0.486,0.047 0.673,0.142 0.186,0.095 0.338,0.226 0.456,0.393 0.118,0.167 0.203,0.364 0.256,0.589 C -0.026,-0.506 0,-0.262 0,0 M 0.953,0 C 0.953,-0.387 0.902,-0.744 0.801,-1.07 0.7,-1.398 0.55,-1.68 0.353,-1.915 c -0.196,-0.236 -0.437,-0.42 -0.721,-0.551 -0.285,-0.13 -0.611,-0.196 -0.978,-0.196 -0.294,0 -0.554,0.039 -0.78,0.118 -0.226,0.078 -0.395,0.153 -0.506,0.226 v -2.043 h -0.913 v 6.767 c 0.215,0.052 0.485,0.11 0.809,0.173 0.324,0.061 0.7,0.092 1.126,0.092 0.392,0 0.746,-0.062 1.06,-0.186 C -0.236,2.36 0.033,2.184 0.255,1.954 0.478,1.726 0.65,1.446 0.771,1.114 0.892,0.784 0.953,0.412 0.953,0"
               style="fill:#161d38;fill-opacity:1;fill-rule:nonzero;stroke:none"
               id="path1056" /></g><g
             id="g1058"
             transform="translate(454.0133,326.499)"><path
               d="m 0,0 c -0.21,-0.052 -0.487,-0.108 -0.83,-0.167 -0.344,-0.059 -0.742,-0.088 -1.193,-0.088 -0.393,0 -0.725,0.057 -0.993,0.171 C -3.284,0.031 -3.5,0.193 -3.664,0.403 -3.827,0.612 -3.946,0.859 -4.017,1.144 -4.09,1.429 -4.125,1.745 -4.125,2.092 V 4.96 h 0.913 V 2.289 c 0,-0.623 0.098,-1.068 0.295,-1.336 0.196,-0.269 0.527,-0.403 0.992,-0.403 0.098,0 0.199,0.004 0.305,0.01 0.103,0.006 0.203,0.015 0.293,0.025 0.092,0.009 0.176,0.019 0.251,0.029 0.075,0.009 0.13,0.021 0.163,0.034 V 4.96 H 0 Z"
               style="fill:#161d38;fill-opacity:1;fill-rule:nonzero;stroke:none"
               id="path1060" /></g><path
             d="m 459.563,326.351 h -0.913 v 5.108 h 0.913 z m -0.462,6.032 c -0.163,0 -0.303,0.054 -0.418,0.162 -0.114,0.107 -0.171,0.253 -0.171,0.437 0,0.183 0.057,0.329 0.171,0.437 0.115,0.107 0.255,0.162 0.418,0.162 0.163,0 0.303,-0.055 0.418,-0.162 0.114,-0.108 0.171,-0.254 0.171,-0.437 0,-0.184 -0.057,-0.33 -0.171,-0.437 -0.115,-0.108 -0.255,-0.162 -0.418,-0.162"
             style="fill:#161d38;fill-opacity:1;fill-rule:nonzero;stroke:none"
             id="path1062" /><g
             id="g1064"
             transform="translate(465.3869,327.0098)"><path
               d="M 0,0 C 0.374,0 0.65,0.05 0.83,0.147 1.01,0.246 1.1,0.403 1.1,0.619 1.1,0.841 1.012,1.018 0.834,1.149 0.658,1.281 0.366,1.427 -0.039,1.591 -0.236,1.67 -0.424,1.75 -0.604,1.832 -0.784,1.914 -0.94,2.01 -1.07,2.121 c -0.132,0.112 -0.236,0.247 -0.315,0.403 -0.078,0.157 -0.118,0.35 -0.118,0.58 0,0.451 0.167,0.81 0.501,1.076 0.335,0.265 0.789,0.397 1.366,0.397 0.144,0 0.288,-0.008 0.432,-0.025 C 0.94,4.536 1.074,4.517 1.198,4.494 1.323,4.471 1.432,4.446 1.528,4.42 1.622,4.394 1.695,4.371 1.749,4.351 L 1.582,3.566 C 1.483,3.618 1.329,3.672 1.12,3.728 0.91,3.783 0.658,3.812 0.364,3.812 0.108,3.812 -0.115,3.76 -0.305,3.659 -0.495,3.557 -0.589,3.398 -0.589,3.183 c 0,-0.112 0.021,-0.21 0.064,-0.295 C -0.483,2.803 -0.418,2.726 -0.329,2.657 -0.241,2.588 -0.131,2.524 0,2.466 0.131,2.406 0.288,2.344 0.472,2.278 0.713,2.187 0.93,2.097 1.12,2.009 1.31,1.92 1.471,1.817 1.606,1.699 1.741,1.582 1.843,1.439 1.916,1.272 1.987,1.105 2.023,0.901 2.023,0.658 2.023,0.186 1.848,-0.17 1.498,-0.412 1.147,-0.655 0.648,-0.776 0,-0.776 c -0.452,0 -0.805,0.038 -1.06,0.113 -0.256,0.075 -0.43,0.132 -0.522,0.172 l 0.167,0.786 C -1.31,0.255 -1.143,0.196 -0.913,0.117 -0.684,0.039 -0.38,0 0,0"
               style="fill:#161d38;fill-opacity:1;fill-rule:nonzero;stroke:none"
               id="path1066" /></g><g
             id="g1068"
             transform="translate(480.7781,331.4199)"><path
               d="M 0,0 C 0,-0.236 -0.048,-0.464 -0.142,-0.683 -0.238,-0.902 -0.363,-1.118 -0.52,-1.331 -0.677,-1.544 -0.855,-1.753 -1.051,-1.96 -1.247,-2.166 -1.444,-2.368 -1.64,-2.564 -1.752,-2.675 -1.881,-2.806 -2.028,-2.957 -2.176,-3.107 -2.314,-3.264 -2.445,-3.428 -2.577,-3.592 -2.686,-3.749 -2.775,-3.9 -2.863,-4.05 -2.907,-4.181 -2.907,-4.293 h 3.133 v -0.775 h -4.125 c -0.007,0.039 -0.01,0.079 -0.01,0.117 v 0.109 c 0,0.307 0.051,0.593 0.152,0.859 0.102,0.265 0.234,0.516 0.398,0.752 0.164,0.236 0.347,0.458 0.55,0.667 0.203,0.21 0.403,0.413 0.599,0.61 0.164,0.157 0.319,0.312 0.467,0.466 0.147,0.154 0.278,0.307 0.393,0.462 0.114,0.153 0.206,0.312 0.274,0.476 0.069,0.164 0.104,0.337 0.104,0.521 0,0.196 -0.031,0.363 -0.094,0.501 -0.062,0.137 -0.146,0.251 -0.25,0.343 -0.105,0.092 -0.228,0.159 -0.369,0.201 -0.14,0.043 -0.29,0.064 -0.447,0.064 -0.19,0 -0.363,-0.026 -0.52,-0.078 C -2.809,0.949 -2.95,0.889 -3.074,0.82 -3.198,0.752 -3.304,0.679 -3.388,0.604 -3.474,0.529 -3.539,0.472 -3.585,0.432 L -4.036,1.08 c 0.058,0.066 0.146,0.146 0.265,0.241 0.117,0.095 0.258,0.185 0.422,0.27 0.164,0.085 0.346,0.158 0.55,0.217 0.203,0.058 0.422,0.088 0.658,0.088 0.714,0 1.249,-0.166 1.606,-0.496 C -0.178,1.069 0,0.602 0,0"
               style="fill:#161d38;fill-opacity:1;fill-rule:nonzero;stroke:none"
               id="path1070" /></g><g
             id="g1072"
             transform="translate(488.8815,329.7599)"><path
               d="M 0,0 C 0,0.374 -0.021,0.727 -0.064,1.061 -0.106,1.394 -0.178,1.686 -0.28,1.935 -0.382,2.184 -0.518,2.382 -0.688,2.529 -0.857,2.677 -1.068,2.75 -1.316,2.75 -1.565,2.75 -1.774,2.677 -1.945,2.529 -2.115,2.382 -2.251,2.184 -2.353,1.935 -2.454,1.686 -2.526,1.394 -2.569,1.061 -2.611,0.727 -2.633,0.374 -2.633,0 c 0,-0.373 0.022,-0.727 0.064,-1.06 0.043,-0.334 0.115,-0.626 0.216,-0.875 0.102,-0.249 0.238,-0.447 0.408,-0.594 0.171,-0.148 0.38,-0.221 0.629,-0.221 0.248,0 0.459,0.073 0.628,0.221 0.17,0.147 0.306,0.345 0.408,0.594 0.102,0.249 0.174,0.541 0.216,0.875 C -0.021,-0.727 0,-0.373 0,0 m -3.595,0 c 0,1.139 0.201,2.017 0.604,2.633 0.403,0.615 0.961,0.922 1.675,0.922 0.714,0 1.272,-0.307 1.675,-0.922 C 0.761,2.017 0.963,1.139 0.963,0 c 0,-1.139 -0.202,-2.017 -0.604,-2.632 -0.403,-0.616 -0.961,-0.923 -1.675,-0.923 -0.714,0 -1.272,0.307 -1.675,0.923 -0.403,0.615 -0.604,1.493 -0.604,2.632"
               style="fill:#161d38;fill-opacity:1;fill-rule:nonzero;stroke:none"
               id="path1074" /></g><g
             id="g1076"
             transform="translate(497.4858,329.7599)"><path
               d="M 0,0 C 0,0.374 -0.021,0.727 -0.064,1.061 -0.107,1.394 -0.178,1.686 -0.28,1.935 -0.382,2.184 -0.518,2.382 -0.688,2.529 -0.858,2.677 -1.068,2.75 -1.316,2.75 -1.565,2.75 -1.775,2.677 -1.945,2.529 -2.115,2.382 -2.251,2.184 -2.353,1.935 -2.454,1.686 -2.526,1.394 -2.569,1.061 -2.612,0.727 -2.633,0.374 -2.633,0 c 0,-0.373 0.021,-0.727 0.064,-1.06 0.043,-0.334 0.115,-0.626 0.216,-0.875 0.102,-0.249 0.238,-0.447 0.408,-0.594 0.17,-0.148 0.38,-0.221 0.629,-0.221 0.248,0 0.458,0.073 0.628,0.221 0.17,0.147 0.306,0.345 0.408,0.594 0.102,0.249 0.173,0.541 0.216,0.875 C -0.021,-0.727 0,-0.373 0,0 m -3.595,0 c 0,1.139 0.201,2.017 0.604,2.633 0.403,0.615 0.961,0.922 1.675,0.922 0.714,0 1.272,-0.307 1.675,-0.922 C 0.761,2.017 0.963,1.139 0.963,0 c 0,-1.139 -0.202,-2.017 -0.604,-2.632 -0.403,-0.616 -0.961,-0.923 -1.675,-0.923 -0.714,0 -1.272,0.307 -1.675,0.923 -0.403,0.615 -0.604,1.493 -0.604,2.632"
               style="fill:#161d38;fill-opacity:1;fill-rule:nonzero;stroke:none"
               id="path1078" /></g><g
             id="g1080"
             transform="translate(504.2235,327.0196)"><path
               d="M 0,0 C 0.583,0 1.001,0.115 1.252,0.344 1.505,0.573 1.63,0.88 1.63,1.267 1.63,1.516 1.578,1.726 1.473,1.896 1.369,2.065 1.231,2.201 1.06,2.303 0.89,2.405 0.692,2.477 0.466,2.519 0.241,2.562 0.01,2.583 -0.226,2.583 H -0.462 V 3.33 h 0.324 c 0.165,0 0.333,0.016 0.506,0.049 C 0.542,3.411 0.7,3.471 0.845,3.555 0.989,3.641 1.106,3.757 1.198,3.904 1.29,4.052 1.336,4.237 1.336,4.46 1.336,4.642 1.303,4.799 1.237,4.931 1.172,5.062 1.085,5.17 0.978,5.255 0.869,5.34 0.745,5.401 0.604,5.436 0.464,5.472 0.314,5.491 0.157,5.491 -0.157,5.491 -0.424,5.445 -0.644,5.353 -0.863,5.261 -1.047,5.167 -1.198,5.068 l -0.354,0.698 c 0.079,0.052 0.179,0.109 0.3,0.172 0.121,0.062 0.257,0.119 0.407,0.171 0.151,0.053 0.313,0.097 0.486,0.133 0.174,0.036 0.355,0.054 0.545,0.054 0.361,0 0.671,-0.044 0.934,-0.133 C 1.382,6.075 1.597,5.95 1.768,5.79 1.938,5.629 2.065,5.44 2.151,5.221 2.236,5.001 2.278,4.763 2.278,4.508 2.278,4.155 2.177,3.852 1.975,3.599 1.771,3.348 1.526,3.156 1.237,3.026 1.415,2.972 1.584,2.897 1.749,2.799 1.912,2.701 2.054,2.577 2.176,2.426 2.297,2.276 2.395,2.102 2.47,1.906 2.546,1.709 2.583,1.49 2.583,1.248 2.583,0.953 2.533,0.679 2.431,0.427 2.329,0.175 2.172,-0.042 1.96,-0.226 1.747,-0.409 1.48,-0.554 1.159,-0.658 0.838,-0.763 0.458,-0.815 0.019,-0.815 c -0.17,0 -0.345,0.013 -0.525,0.039 -0.18,0.026 -0.349,0.059 -0.506,0.099 -0.157,0.038 -0.294,0.078 -0.412,0.117 -0.118,0.039 -0.204,0.073 -0.256,0.098 l 0.177,0.796 C -1.392,0.282 -1.206,0.213 -0.948,0.128 -0.689,0.042 -0.374,0 0,0"
               style="fill:#161d38;fill-opacity:1;fill-rule:nonzero;stroke:none"
               id="path1082" /></g><g
             id="g1084"
             transform="translate(336.0347,362.2781)"><path
               d="m 0,0 v -36.095 h 10.568 c 3.468,2.093 9.044,5.971 9.153,10.605 0.128,5.744 -10.355,6.981 -10.505,13.699 -0.112,4.522 1.671,8.575 9.493,11.791 z"
               style="fill:#41b8bc;fill-opacity:1;fill-rule:nonzero;stroke:none"
               id="path1086" /></g><g
             id="g1088"
             transform="translate(367.2237,360.2484)"><path
               d="m 0,0 -4.842,-5.956 4.558,-6.048 -5.763,5.121 -4.098,-2.978 3.075,4.183 -3.444,4.654 4.467,-3.722 z m -11.243,2.03 c -3.375,-2.167 -7.204,-4.881 -7.204,-8.838 -0.186,-5.768 12.094,-6.23 11.907,-15.532 -0.18,-5.817 -6.81,-9.699 -11.703,-11.725 H 2.292 V 2.03 Z"
               style="fill:#161d38;fill-opacity:1;fill-rule:nonzero;stroke:none"
               id="path1090" /></g></g></g><g
         id="g1092"
         transform="translate(413.3185,338.2024)"><path
           d="m 0,0 v 20.624 h 6.984 v 3.278 H -11.964 V 20.624 H -4.98 V 0 Z"
           style="fill:#161d38;fill-opacity:1;fill-rule:nonzero;stroke:none"
           id="path1094" /></g><g
         id="g1096"><g
           id="g1098"
           clip-path="url(#clipPath1102)"><g
             id="g1104"
             transform="translate(388.1883,337.5882)"><path
               d="m 0,0 c 3.913,0 6.798,0.585 8.652,1.759 1.865,1.163 2.797,2.989 2.797,5.477 0,1.798 -0.514,3.223 -1.537,4.278 -1.025,1.065 -2.86,2.088 -5.512,3.068 l -2.751,1.019 -1.844,0.71 c -1.067,0.409 -1.773,0.793 -2.117,1.148 -0.368,0.378 -0.55,0.906 -0.55,1.585 0,1.034 0.379,1.759 1.133,2.178 0.755,0.41 2.08,0.615 3.977,0.615 2.36,0 4.871,-0.441 7.533,-1.324 v 3.778 c -2.576,0.549 -5.139,0.825 -7.693,0.825 -6.586,0 -9.881,-2.241 -9.881,-6.721 0,-1.734 0.475,-3.088 1.423,-4.069 0.949,-0.969 2.831,-1.986 5.645,-3.053 L 1.909,10.27 4.125,9.43 C 4.794,9.182 5.317,8.789 5.694,8.251 6.039,7.755 6.209,7.182 6.209,6.526 c 0,-2.154 -1.817,-3.233 -5.45,-3.233 -2.5,0 -5.333,0.533 -8.502,1.599 V 0.823 L -5.19,0.434 C -3.272,0.144 -1.541,0 0,0"
               style="fill:#161d38;fill-opacity:1;fill-rule:nonzero;stroke:none"
               id="path1106" /></g></g></g><g
         id="g1108"
         transform="translate(495.8759,346.7434)"><path
           d="m 0,0 5.19,-8.541 h 5.789 L 3.377,4.087 10.72,15.361 H 6.694 L 1.423,7.32 -3.443,15.361 H -9.248 L -1.924,3.232 -9.588,-8.541 h 4.027 z"
           style="fill:#161d38;fill-opacity:1;fill-rule:nonzero;stroke:none"
           id="path1110" /></g><g
         id="g1112"
         transform="translate(477.8657,338.2024)"><path
           d="m 0,0 v 20.624 h 6.984 v 3.278 H -11.968 V 20.624 H -4.98 V 0 Z"
           style="fill:#161d38;fill-opacity:1;fill-rule:nonzero;stroke:none"
           id="path1114" /></g><g
         id="g1116"><g
           id="g1118"
           clip-path="url(#clipPath1122)"><g
             id="g1124"
             transform="translate(458.1039,349.3615)"><path
               d="m 0,0 c 1.272,0.614 2.248,1.291 2.927,2.034 1.143,1.271 1.714,2.865 1.714,4.782 0,3.952 -2.428,5.927 -7.289,5.927 h -10.431 v -23.902 h 4.69 v 9.77 h 3.897 l 6.725,-9.77 H 7.828 Z M -1.355,3.328 C -2.238,2.369 -3.711,1.889 -5.771,1.889 h -2.618 v 7.576 h 3.202 c 1.499,0 2.646,-0.232 3.443,-0.695 0.927,-0.527 1.39,-1.398 1.39,-2.614 0,-1.163 -0.333,-2.107 -1.001,-2.828"
               style="fill:#161d38;fill-opacity:1;fill-rule:nonzero;stroke:none"
               id="path1126" /></g></g></g><g
         id="g1128"
         transform="translate(432.7553,362.1042)"><path
           d="m 0,0 h -4.98 l -9.282,-23.902 h 3.637 l 2.443,6.377 h 9.896 l 2.438,-6.377 h 5.095 z m -6.953,-14.342 3.717,9.53 3.721,-9.53 z"
           style="fill:#161d38;fill-opacity:1;fill-rule:nonzero;stroke:none"
           id="path1130" /></g><g
         id="g1132"><g
           id="g1134"
           clip-path="url(#clipPath1138)"><g
             id="g1140"
             transform="translate(360.6838,337.908)"><path
               d="m 0,0 c 0.186,9.302 -12.093,9.765 -11.907,15.533 0,3.956 3.829,6.671 7.204,8.837 H -5.94 c -7.822,-3.216 -9.605,-7.269 -9.493,-11.791 0.15,-6.718 10.633,-7.955 10.505,-13.699 -0.109,-4.634 -5.685,-8.512 -9.153,-10.605 h 2.377 C -6.811,-9.699 -0.18,-5.816 0,0"
               style="fill:#ffffff;fill-opacity:1;fill-rule:nonzero;stroke:none"
               id="path1142" /></g></g></g><g
         id="g1144"
         transform="translate(367.2237,360.2484)"><path
           d="m 0,0 -4.842,-5.956 4.558,-6.048 -5.763,5.121 -4.098,-2.978 3.075,4.183 -3.444,4.654 4.467,-3.722 z"
           style="fill:#ffffff;fill-opacity:1;fill-rule:nonzero;stroke:none"
           id="path1146" /></g></g></g></svg>
