<?xml version="1.0" encoding="UTF-8" standalone="no"?>
<svg
   xmlns:dc="http://purl.org/dc/elements/1.1/"
   xmlns:cc="http://creativecommons.org/ns#"
   xmlns:rdf="http://www.w3.org/1999/02/22-rdf-syntax-ns#"
   xmlns:svg="http://www.w3.org/2000/svg"
   xmlns="http://www.w3.org/2000/svg"
   xmlns:sodipodi="http://sodipodi.sourceforge.net/DTD/sodipodi-0.dtd"
   xmlns:inkscape="http://www.inkscape.org/namespaces/inkscape"
   inkscape:version="1.0 (4035a4fb49, 2020-05-01)"
   sodipodi:docname="top.svg"
   viewBox="0 0 1920 500.97488"
   height="500.97488"
   width="1920"
   xml:space="preserve"
   id="svg2"
   version="1.1"><metadata
     id="metadata8"><rdf:RDF><cc:Work
         rdf:about=""><dc:format>image/svg+xml</dc:format><dc:type
           rdf:resource="http://purl.org/dc/dcmitype/StillImage" /><dc:title></dc:title></cc:Work></rdf:RDF></metadata><defs
     id="defs6"><clipPath
       id="clipPath26"
       clipPathUnits="userSpaceOnUse"><path
         id="path24"
         d="M 0,0 H 841.89 V 595.276 H 0 Z" /></clipPath></defs><sodipodi:namedview
     inkscape:current-layer="g10"
     inkscape:window-maximized="1"
     inkscape:window-y="0"
     inkscape:window-x="0"
     inkscape:cy="363.01834"
     inkscape:cx="1199.3835"
     inkscape:zoom="0.5"
     showgrid="false"
     id="namedview4"
     inkscape:window-height="1016"
     inkscape:window-width="1920"
     inkscape:pageshadow="2"
     inkscape:pageopacity="0"
     guidetolerance="10"
     gridtolerance="10"
     objecttolerance="10"
     borderopacity="1"
     bordercolor="#666666"
     pagecolor="#ffffff"
     inkscape:document-rotation="0"
     fit-margin-top="0"
     fit-margin-left="0"
     fit-margin-right="0"
     fit-margin-bottom="0" /><g
     transform="matrix(1.3333333,0,0,-1.3333333,366.18506,657.52833)"
     inkscape:label="STARTX_CHARTE ALL_V3"
     inkscape:groupmode="layer"
     id="g10"><g
       id="g20"
       transform="matrix(1.3929471,0,0,1.3929471,-103.37075,-164.77366)"><g
         clip-path="url(#clipPath26)"
         id="g22"
         transform="translate(-122.95374,-122.95374)"><g
           transform="translate(26.4546,641.1375)"
           id="g244"><path
             id="path246"
             style="fill:#41b8bc;fill-opacity:1;fill-rule:nonzero;stroke:none"
             d="m 0,0 c 0.046,0 0.091,-0.018 0.125,-0.052 l 43.457,-42.393 c 0.046,-0.045 0.065,-0.112 0.05,-0.175 -0.015,-0.063 -0.062,-0.114 -0.124,-0.132 l -62.141,-18.766 c -0.064,-0.019 -0.134,-10e-4 -0.181,0.047 -0.047,0.048 -0.064,0.119 -0.044,0.184 l 18.684,61.158 c 0.018,0.061 0.067,0.107 0.128,0.123 C -0.031,-0.002 -0.015,0 0,0 M 43.107,-42.491 0.085,-0.522 -18.411,-61.068 Z" /></g><g
           transform="translate(26.4546,641.1375)"
           id="g248"><path
             id="path250"
             style="fill:none;stroke:#41b8bc;stroke-width:0.375;stroke-linecap:butt;stroke-linejoin:miter;stroke-miterlimit:10;stroke-dasharray:none;stroke-opacity:1"
             d="m 0,0 c 0.046,0 0.091,-0.018 0.125,-0.052 l 43.457,-42.393 c 0.046,-0.045 0.065,-0.112 0.05,-0.175 -0.015,-0.063 -0.062,-0.114 -0.124,-0.132 l -62.141,-18.766 c -0.064,-0.019 -0.134,-10e-4 -0.181,0.047 -0.047,0.048 -0.064,0.119 -0.044,0.184 l 18.684,61.158 c 0.018,0.061 0.067,0.107 0.128,0.123 C -0.031,-0.002 -0.015,0 0,0 Z M 43.107,-42.491 0.085,-0.522 -18.411,-61.068 Z" /></g><g
           transform="translate(337.0271,622.1804)"
           id="g260"><path
             id="path262"
             style="fill:#41b8bc;fill-opacity:1;fill-rule:nonzero;stroke:none"
             d="M 0,0 C 0.075,0 0.143,-0.048 0.17,-0.12 0.201,-0.204 0.167,-0.298 0.091,-0.343 l -51.592,-30.613 c -0.042,-0.025 -0.094,-0.031 -0.139,-0.019 -0.048,0.013 -0.088,0.045 -0.112,0.088 l -10.669,19.24 c -0.029,0.052 -0.031,0.115 -0.006,0.169 0.025,0.054 0.074,0.092 0.132,0.103 L -0.033,-0.003 C -0.022,-0.001 -0.011,0 0,0 M -51.525,-30.543 -0.977,-0.55 -61.979,-11.692 Z" /></g><g
           transform="translate(337.0271,622.1804)"
           id="g264" /><g
           transform="translate(224.2322,652.412)"
           id="g364"><path
             id="path366"
             style="fill:#41b8bc;fill-opacity:1;fill-rule:nonzero;stroke:none"
             d="m 0,0 c 0.041,0 0.081,-0.014 0.114,-0.041 l 50.855,-41.684 c 0.05,-0.041 0.074,-0.106 0.065,-0.17 -0.01,-0.064 -0.052,-0.118 -0.112,-0.143 l -62.888,-25.655 c -0.06,-0.024 -0.13,-0.014 -0.182,0.027 -0.051,0.043 -0.076,0.11 -0.064,0.175 l 12.033,67.34 c 0.011,0.064 0.055,0.117 0.115,0.14 C -0.043,-0.004 -0.022,0 0,0 M 50.501,-41.814 0.123,-0.521 -11.797,-67.229 Z" /></g><g
           transform="translate(224.2322,652.412)"
           id="g368"><path
             id="path370"
             style="fill:none;stroke:#41b8bc;stroke-width:0.375;stroke-linecap:butt;stroke-linejoin:miter;stroke-miterlimit:10;stroke-dasharray:none;stroke-opacity:1"
             d="m 0,0 c 0.041,0 0.081,-0.014 0.114,-0.041 l 50.855,-41.684 c 0.05,-0.041 0.074,-0.106 0.065,-0.17 -0.01,-0.064 -0.052,-0.118 -0.112,-0.143 l -62.888,-25.655 c -0.06,-0.024 -0.13,-0.014 -0.182,0.027 -0.051,0.043 -0.076,0.11 -0.064,0.175 l 12.033,67.34 c 0.011,0.064 0.055,0.117 0.115,0.14 C -0.043,-0.004 -0.022,0 0,0 Z M 50.501,-41.814 0.123,-0.521 -11.797,-67.229 Z" /></g><g
           transform="translate(224.4932,652.412)"
           id="g380"><path
             id="path382"
             style="fill:#41b8bc;fill-opacity:1;fill-rule:nonzero;stroke:none"
             d="m 0,0 c 0.038,0 0.075,-0.012 0.106,-0.036 0.056,-0.042 0.084,-0.111 0.071,-0.18 l -12.024,-67.34 c -0.009,-0.056 -0.045,-0.104 -0.094,-0.13 -0.05,-0.026 -0.11,-0.026 -0.161,-0.003 l -61.611,29.022 c -0.062,0.03 -0.103,0.093 -0.105,0.163 -0.001,0.07 0.037,0.135 0.099,0.167 L -0.084,-0.02 C -0.058,-0.007 -0.029,0 0,0 m -12.162,-67.257 11.917,66.741 -72.979,-37.976 z" /></g><g
           transform="translate(224.4932,652.412)"
           id="g384"><path
             id="path386"
             style="fill:none;stroke:#41b8bc;stroke-width:0.375;stroke-linecap:butt;stroke-linejoin:miter;stroke-miterlimit:10;stroke-dasharray:none;stroke-opacity:1"
             d="m 0,0 c 0.038,0 0.075,-0.012 0.106,-0.036 0.056,-0.042 0.084,-0.111 0.071,-0.18 l -12.024,-67.34 c -0.009,-0.056 -0.045,-0.104 -0.094,-0.13 -0.05,-0.026 -0.11,-0.026 -0.161,-0.003 l -61.611,29.022 c -0.062,0.03 -0.103,0.093 -0.105,0.163 -0.001,0.07 0.037,0.135 0.099,0.167 L -0.084,-0.02 C -0.058,-0.007 -0.029,0 0,0 Z m -12.162,-67.257 11.917,66.741 -72.979,-37.976 z" /></g><g
           transform="translate(-13.7664,613.219)"
           id="g436"><path
             id="path438"
             style="fill:#41b8bc;fill-opacity:1;fill-rule:nonzero;stroke:none"
             d="M 0,0 40.118,27.292 21.637,-33.033 -0.025,-4.944 -0.028,-5.538 21.564,-33.536 c 0.042,-0.054 0.107,-0.08 0.177,-0.068 0.067,0.013 0.121,0.061 0.141,0.126 l 18.737,61.159 c 0.023,0.074 -0.004,0.155 -0.066,0.201 -0.032,0.024 -0.069,0.036 -0.107,0.036 -0.036,0.001 -0.071,-0.01 -0.103,-0.031 L 0.002,0.444 Z" /></g><g
           transform="translate(-13.7664,613.219)"
           id="g440"><path
             id="path442"
             style="fill:none;stroke:#41b8bc;stroke-width:0.375;stroke-linecap:butt;stroke-linejoin:miter;stroke-miterlimit:10;stroke-dasharray:none;stroke-opacity:1"
             d="M 0,0 40.118,27.292 21.637,-33.033 -0.025,-4.944 -0.028,-5.538 21.564,-33.536 c 0.042,-0.054 0.107,-0.08 0.177,-0.068 0.067,0.013 0.121,0.061 0.141,0.126 l 18.737,61.159 c 0.023,0.074 -0.004,0.155 -0.066,0.201 -0.032,0.024 -0.069,0.036 -0.107,0.036 -0.036,0.001 -0.071,-0.01 -0.103,-0.031 L 0.002,0.444 Z" /></g><g
           id="g2163"><g
             id="g28"
             transform="translate(-15.0352,362.2419)"><path
               d="m 0,0 43.433,-24.374 -11.712,-10.646 -31.778,23.721 -0.002,-0.457 31.683,-23.65 c 0.07,-0.053 0.165,-0.047 0.229,0.011 l 12.013,10.92 c 0.044,0.04 0.067,0.099 0.06,0.158 -0.007,0.06 -0.041,0.112 -0.093,0.141 L 0.002,0.421 Z"
               style="fill:#41b8bc;fill-opacity:1;fill-rule:nonzero;stroke:none"
               id="path30" /></g><g
             id="g32"
             transform="translate(-15.0352,362.2419)"><path
               d="m 0,0 43.433,-24.374 -11.712,-10.646 -31.778,23.721 -0.002,-0.457 31.683,-23.65 c 0.07,-0.053 0.165,-0.047 0.229,0.011 l 12.013,10.92 c 0.044,0.04 0.067,0.099 0.06,0.158 -0.007,0.06 -0.041,0.112 -0.093,0.141 L 0.002,0.421 Z"
               style="fill:none;stroke:#41b8bc;stroke-width:0.375;stroke-linecap:butt;stroke-linejoin:miter;stroke-miterlimit:10;stroke-dasharray:none;stroke-opacity:1"
               id="path34" /></g><g
             id="g36"
             transform="translate(-14.8679,395.3879)"><path
               d="m 0,0 42.908,-57.031 -43.074,24.142 -0.002,-0.42 43.658,-24.469 c 0.075,-0.043 0.17,-0.026 0.226,0.04 0.056,0.067 0.059,0.164 0.006,0.233 L 0.003,0.604 Z"
               style="fill:#41b8bc;fill-opacity:1;fill-rule:nonzero;stroke:none"
               id="path38" /></g><g
             id="g40"
             transform="translate(-14.8679,395.3879)"><path
               d="m 0,0 42.908,-57.031 -43.074,24.142 -0.002,-0.42 43.658,-24.469 c 0.075,-0.043 0.17,-0.026 0.226,0.04 0.056,0.067 0.059,0.164 0.006,0.233 L 0.003,0.604 Z"
               style="fill:none;stroke:#41b8bc;stroke-width:0.375;stroke-linecap:butt;stroke-linejoin:miter;stroke-miterlimit:10;stroke-dasharray:none;stroke-opacity:1"
               id="path42" /></g><g
             id="g44"
             transform="translate(-15.0933,350.6707)"><path
               d="m 0,0 31.346,-23.502 -31.469,-1.065 -0.002,-0.372 32.009,1.083 c 0.078,0.003 0.145,0.055 0.168,0.131 0.023,0.076 -0.003,0.158 -0.066,0.205 L 0.002,0.46 Z"
               style="fill:#41b8bc;fill-opacity:1;fill-rule:nonzero;stroke:none"
               id="path46" /></g><g
             id="g48"
             transform="translate(-15.0933,350.6707)"><path
               d="m 0,0 31.346,-23.502 -31.469,-1.065 -0.002,-0.372 32.009,1.083 c 0.078,0.003 0.145,0.055 0.168,0.131 0.023,0.076 -0.003,0.158 -0.066,0.205 L 0.002,0.46 Z"
               style="fill:none;stroke:#41b8bc;stroke-width:0.375;stroke-linecap:butt;stroke-linejoin:miter;stroke-miterlimit:10;stroke-dasharray:none;stroke-opacity:1"
               id="path50" /></g><g
             id="g52"
             transform="translate(-14.4302,481.8442)"><path
               d="m 0,0 42.311,-2.536 -34.185,-21.078 -8.212,6.502 -0.002,-0.467 8.089,-6.405 c 0.06,-0.047 0.141,-0.052 0.207,-0.012 l 34.791,21.451 c 0.068,0.042 0.101,0.124 0.082,0.203 -0.019,0.078 -0.086,0.135 -0.165,0.14 L 0.002,0.37 Z"
               style="fill:#41b8bc;fill-opacity:1;fill-rule:nonzero;stroke:none"
               id="path54" /></g><g
             id="g56"
             transform="translate(-14.4302,481.8442)"><path
               d="m 0,0 42.311,-2.536 -34.185,-21.078 -8.212,6.502 -0.002,-0.467 8.089,-6.405 c 0.06,-0.047 0.141,-0.052 0.207,-0.012 l 34.791,21.451 c 0.068,0.042 0.101,0.124 0.082,0.203 -0.019,0.078 -0.086,0.135 -0.165,0.14 L 0.002,0.37 Z"
               style="fill:none;stroke:#41b8bc;stroke-width:0.375;stroke-linecap:butt;stroke-linejoin:miter;stroke-miterlimit:10;stroke-dasharray:none;stroke-opacity:1"
               id="path58" /></g><g
             id="g60"
             transform="translate(-14,567.0259)"><path
               d="M 0,0 21.975,12.89 38.571,8.358 -0.034,-6.75 -0.036,-7.15 39.226,8.216 c 0.074,0.029 0.121,0.103 0.117,0.183 -0.005,0.081 -0.059,0.149 -0.135,0.17 l -17.212,4.7 c -0.015,0.004 -0.031,0.006 -0.046,0.006 -0.032,10e-4 -0.063,-0.008 -0.091,-0.024 L 0.002,0.43 Z"
               style="fill:#41b8bc;fill-opacity:1;fill-rule:nonzero;stroke:none"
               id="path62" /></g><g
             id="g64"
             transform="translate(-14,567.0259)"><path
               d="M 0,0 21.975,12.89 38.571,8.358 -0.034,-6.75 -0.036,-7.15 39.226,8.216 c 0.074,0.029 0.121,0.103 0.117,0.183 -0.005,0.081 -0.059,0.149 -0.135,0.17 l -17.212,4.7 c -0.015,0.004 -0.031,0.006 -0.046,0.006 -0.032,10e-4 -0.063,-0.008 -0.091,-0.024 L 0.002,0.43 Z"
               style="fill:none;stroke:#41b8bc;stroke-width:0.375;stroke-linecap:butt;stroke-linejoin:miter;stroke-miterlimit:10;stroke-dasharray:none;stroke-opacity:1"
               id="path66" /></g><g
             id="g68"
             transform="translate(169.0759,540.7783)"><path
               d="M 0,0 C 0.032,0 0.063,-0.009 0.091,-0.025 0.135,-0.052 0.167,-0.096 0.177,-0.148 L 2.044,-9.397 C 2.054,-9.448 2.043,-9.502 2.013,-9.544 1.983,-9.586 1.937,-9.614 1.886,-9.62 l -46.167,-5.486 c -0.098,-0.015 -0.179,0.052 -0.198,0.145 -0.02,0.094 0.032,0.188 0.121,0.218 L -0.057,-0.009 C -0.038,-0.003 -0.019,0 0,0 m 1.647,-9.273 -1.785,8.846 -42.369,-14.093 z"
               style="fill:#41b8bc;fill-opacity:1;fill-rule:nonzero;stroke:none"
               id="path70" /></g><g
             id="g72"
             transform="translate(169.0759,540.7783)"><path
               d="M 0,0 C 0.032,0 0.063,-0.009 0.091,-0.025 0.135,-0.052 0.167,-0.096 0.177,-0.148 L 2.044,-9.397 C 2.054,-9.448 2.043,-9.502 2.013,-9.544 1.983,-9.586 1.937,-9.614 1.886,-9.62 l -46.167,-5.486 c -0.098,-0.015 -0.179,0.052 -0.198,0.145 -0.02,0.094 0.032,0.188 0.121,0.218 L -0.057,-0.009 C -0.038,-0.003 -0.019,0 0,0 Z m 1.647,-9.273 -1.785,8.846 -42.369,-14.093 z"
               style="fill:none;stroke:#41b8bc;stroke-width:0.375;stroke-linecap:butt;stroke-linejoin:miter;stroke-miterlimit:10;stroke-dasharray:none;stroke-opacity:1"
               id="path74" /></g><g
             id="g76"
             transform="translate(48.4873,557.3098)"><path
               d="m 0,0 c 0.022,0 0.045,-0.004 0.067,-0.013 l 76.61,-31.108 c 0.059,-0.024 0.101,-0.078 0.111,-0.142 0.01,-0.064 -0.014,-0.128 -0.064,-0.17 L 37.939,-63.762 c -0.041,-0.035 -0.093,-0.05 -0.146,-0.04 -0.052,0.009 -0.097,0.041 -0.124,0.086 L -0.156,-0.278 c -0.041,0.067 -0.033,0.153 0.017,0.214 C -0.104,-0.022 -0.052,0 0,0 M 76.258,-31.346 0.434,-0.557 37.871,-63.344 Z"
               style="fill:#41b8bc;fill-opacity:1;fill-rule:nonzero;stroke:none"
               id="path78" /></g><g
             id="g80"
             transform="translate(48.4873,557.3098)"><path
               d="m 0,0 c 0.022,0 0.045,-0.004 0.067,-0.013 l 76.61,-31.108 c 0.059,-0.024 0.101,-0.078 0.111,-0.142 0.01,-0.064 -0.014,-0.128 -0.064,-0.17 L 37.939,-63.762 c -0.041,-0.035 -0.093,-0.05 -0.146,-0.04 -0.052,0.009 -0.097,0.041 -0.124,0.086 L -0.156,-0.278 c -0.041,0.067 -0.033,0.153 0.017,0.214 C -0.104,-0.022 -0.052,0 0,0 Z M 76.258,-31.346 0.434,-0.557 37.871,-63.344 Z"
               style="fill:none;stroke:#41b8bc;stroke-width:0.375;stroke-linecap:butt;stroke-linejoin:miter;stroke-miterlimit:10;stroke-dasharray:none;stroke-opacity:1"
               id="path82" /></g><g
             id="g84"
             transform="translate(48.488,557.334)"><path
               d="m 0,0 c 0.062,0 0.122,-0.033 0.155,-0.088 l 37.987,-63.398 c 0.026,-0.045 0.033,-0.1 0.017,-0.15 -0.015,-0.05 -0.051,-0.091 -0.099,-0.112 L 6.144,-78.113 c -0.054,-0.025 -0.117,-0.021 -0.168,0.009 -0.051,0.031 -0.083,0.084 -0.088,0.143 l -6.07,77.763 c -0.007,0.085 0.045,0.163 0.125,0.189 C -0.038,-0.003 -0.019,0 0,0 M 37.724,-63.499 0.241,-0.942 6.23,-77.673 Z"
               style="fill:#41b8bc;fill-opacity:1;fill-rule:nonzero;stroke:none"
               id="path86" /></g><g
             id="g88"
             transform="translate(48.488,557.334)"><path
               d="m 0,0 c 0.062,0 0.122,-0.033 0.155,-0.088 l 37.987,-63.398 c 0.026,-0.045 0.033,-0.1 0.017,-0.15 -0.015,-0.05 -0.051,-0.091 -0.099,-0.112 L 6.144,-78.113 c -0.054,-0.025 -0.117,-0.021 -0.168,0.009 -0.051,0.031 -0.083,0.084 -0.088,0.143 l -6.07,77.763 c -0.007,0.085 0.045,0.163 0.125,0.189 C -0.038,-0.003 -0.019,0 0,0 Z M 37.724,-63.499 0.241,-0.942 6.23,-77.673 Z"
               style="fill:none;stroke:#41b8bc;stroke-width:0.375;stroke-linecap:butt;stroke-linejoin:miter;stroke-miterlimit:10;stroke-dasharray:none;stroke-opacity:1"
               id="path90" /></g><g
             id="g92"
             transform="translate(48.7356,557.5576)"><path
               d="M 0,0 C 0.005,0 0.01,0 0.015,-0.001 0.104,-0.009 0.174,-0.08 0.181,-0.169 l 6.092,-77.984 c 0.004,-0.051 -0.013,-0.102 -0.048,-0.139 -0.034,-0.038 -0.082,-0.059 -0.133,-0.06 l -26.672,-0.227 c -0.039,0.008 -0.111,0.026 -0.146,0.071 -0.035,0.046 -0.047,0.104 -0.033,0.16 L -0.178,-0.137 C -0.156,-0.055 -0.083,0.001 0,0 m 5.893,-77.986 -5.992,76.712 -20.245,-76.935 z"
               style="fill:#41b8bc;fill-opacity:1;fill-rule:nonzero;stroke:none"
               id="path94" /></g><g
             id="g96"
             transform="translate(48.7356,557.5576)"><path
               d="M 0,0 C 0.005,0 0.01,0 0.015,-0.001 0.104,-0.009 0.174,-0.08 0.181,-0.169 l 6.092,-77.984 c 0.004,-0.051 -0.013,-0.102 -0.048,-0.139 -0.034,-0.038 -0.082,-0.059 -0.133,-0.06 l -26.672,-0.227 c -0.039,0.008 -0.111,0.026 -0.146,0.071 -0.035,0.046 -0.047,0.104 -0.033,0.16 L -0.178,-0.137 C -0.156,-0.055 -0.083,0.001 0,0 Z m 5.893,-77.986 -5.992,76.712 -20.245,-76.935 z"
               style="fill:none;stroke:#41b8bc;stroke-width:0.375;stroke-linecap:butt;stroke-linejoin:miter;stroke-miterlimit:10;stroke-dasharray:none;stroke-opacity:1"
               id="path98" /></g><g
             id="g100"
             transform="translate(-14.0352,560.0676)"><path
               d="M 0,0 39.044,15.231 62.375,-3.055 -0.049,-9.87 l -0.002,-0.372 62.914,6.869 c 0.074,0.008 0.136,0.061 0.156,0.133 0.02,0.073 -0.005,0.151 -0.064,0.197 l -23.77,18.63 c -0.032,0.025 -0.071,0.038 -0.11,0.038 -0.023,0 -0.044,-0.003 -0.066,-0.012 L 0.002,0.396 Z"
               style="fill:#41b8bc;fill-opacity:1;fill-rule:nonzero;stroke:none"
               id="path102" /></g><g
             id="g104"
             transform="translate(-14.0352,560.0676)"><path
               d="M 0,0 39.044,15.231 62.375,-3.055 -0.049,-9.87 l -0.002,-0.372 62.914,6.869 c 0.074,0.008 0.136,0.061 0.156,0.133 0.02,0.073 -0.005,0.151 -0.064,0.197 l -23.77,18.63 c -0.032,0.025 -0.071,0.038 -0.11,0.038 -0.023,0 -0.044,-0.003 -0.066,-0.012 L 0.002,0.396 Z"
               style="fill:none;stroke:#41b8bc;stroke-width:0.375;stroke-linecap:butt;stroke-linejoin:miter;stroke-miterlimit:10;stroke-dasharray:none;stroke-opacity:1"
               id="path106" /></g><g
             id="g108"
             transform="translate(54.8274,479.8936)"><path
               d="M 0,0 C 0.074,0 0.14,-0.046 0.168,-0.115 0.196,-0.185 0.18,-0.266 0.125,-0.318 l -26.561,-25.678 c -0.053,-0.051 -0.13,-0.066 -0.197,-0.037 -0.067,0.029 -0.111,0.096 -0.111,0.169 l -0.112,25.45 c -10e-4,0.102 0.08,0.185 0.181,0.185 L -0.002,0 Z M -26.381,-25.432 -0.46,-0.373 -26.49,-0.596 Z"
               style="fill:#41b8bc;fill-opacity:1;fill-rule:nonzero;stroke:none"
               id="path110" /></g><g
             id="g112"
             transform="translate(54.8274,479.8936)"><path
               d="M 0,0 C 0.074,0 0.14,-0.046 0.168,-0.115 0.196,-0.185 0.18,-0.266 0.125,-0.318 l -26.561,-25.678 c -0.053,-0.051 -0.13,-0.066 -0.197,-0.037 -0.067,0.029 -0.111,0.096 -0.111,0.169 l -0.112,25.45 c -10e-4,0.102 0.08,0.185 0.181,0.185 L -0.002,0 Z M -26.381,-25.432 -0.46,-0.373 -26.49,-0.596 Z"
               style="fill:none;stroke:#41b8bc;stroke-width:0.375;stroke-linecap:butt;stroke-linejoin:miter;stroke-miterlimit:10;stroke-dasharray:none;stroke-opacity:1"
               id="path114" /></g><g
             id="g116"
             transform="translate(-14.6753,433.0898)"><path
               d="m 0,0 43.078,20.971 0.125,-115.749 -43.394,57.199 -0.003,-0.599 43.435,-57.253 c 0.047,-0.063 0.129,-0.088 0.203,-0.062 0.074,0.024 0.123,0.094 0.123,0.173 L 43.441,21.262 c 0,0.063 -0.032,0.122 -0.085,0.155 -0.029,0.019 -0.062,0.028 -0.096,0.028 -0.027,0 -0.054,-0.006 -0.08,-0.018 L 0.002,0.407 Z"
               style="fill:#41b8bc;fill-opacity:1;fill-rule:nonzero;stroke:none"
               id="path118" /></g><g
             id="g120"
             transform="translate(-14.6753,433.0898)"><path
               d="m 0,0 43.078,20.971 0.125,-115.749 -43.394,57.199 -0.003,-0.599 43.435,-57.253 c 0.047,-0.063 0.129,-0.088 0.203,-0.062 0.074,0.024 0.123,0.094 0.123,0.173 L 43.441,21.262 c 0,0.063 -0.032,0.122 -0.085,0.155 -0.029,0.019 -0.062,0.028 -0.096,0.028 -0.027,0 -0.054,-0.006 -0.08,-0.018 L 0.002,0.407 Z"
               style="fill:none;stroke:#41b8bc;stroke-width:0.375;stroke-linecap:butt;stroke-linejoin:miter;stroke-miterlimit:10;stroke-dasharray:none;stroke-opacity:1"
               id="path122" /></g><g
             id="g124"
             transform="translate(28.4741,479.668)"><path
               d="m 0,0 c 0.03,0 0.061,-0.008 0.088,-0.024 0.057,-0.032 0.093,-0.094 0.093,-0.16 l 0.112,-25.452 c 0,-0.053 -0.022,-0.104 -0.061,-0.138 -0.039,-0.036 -0.091,-0.051 -0.142,-0.047 l -34.962,4.026 c -0.077,0.009 -0.14,0.067 -0.157,0.144 -0.017,0.077 0.017,0.157 0.083,0.197 L -0.095,-0.027 C -0.066,-0.009 -0.033,0 0,0 M -0.072,-25.43 -0.182,-0.512 -34.3,-21.489 Z"
               style="fill:#41b8bc;fill-opacity:1;fill-rule:nonzero;stroke:none"
               id="path126" /></g><g
             id="g128"
             transform="translate(28.4741,479.668)"><path
               d="m 0,0 c 0.03,0 0.061,-0.008 0.088,-0.024 0.057,-0.032 0.093,-0.094 0.093,-0.16 l 0.112,-25.452 c 0,-0.053 -0.022,-0.104 -0.061,-0.138 -0.039,-0.036 -0.091,-0.051 -0.142,-0.047 l -34.962,4.026 c -0.077,0.009 -0.14,0.067 -0.157,0.144 -0.017,0.077 0.017,0.157 0.083,0.197 L -0.095,-0.027 C -0.066,-0.009 -0.033,0 0,0 Z M -0.072,-25.43 -0.182,-0.512 -34.3,-21.489 Z"
               style="fill:none;stroke:#41b8bc;stroke-width:0.375;stroke-linecap:butt;stroke-linejoin:miter;stroke-miterlimit:10;stroke-dasharray:none;stroke-opacity:1"
               id="path130" /></g><g
             id="g132"
             transform="translate(-14.6016,447.9973)"><path
               d="M 0,0 8.361,10.132 42.542,6.174 -0.074,-14.857 -0.076,-15.27 43.266,6.119 c 0.073,0.037 0.113,0.117 0.1,0.198 -0.014,0.082 -0.078,0.144 -0.159,0.153 L 8.305,10.512 c -0.007,10e-4 -0.013,10e-4 -0.02,10e-4 -0.053,0 -0.105,-0.023 -0.14,-0.066 L 0.003,0.58 Z"
               style="fill:#41b8bc;fill-opacity:1;fill-rule:nonzero;stroke:none"
               id="path134" /></g><g
             id="g136"
             transform="translate(-14.6016,447.9973)"><path
               d="M 0,0 8.361,10.132 42.542,6.174 -0.074,-14.857 -0.076,-15.27 43.266,6.119 c 0.073,0.037 0.113,0.117 0.1,0.198 -0.014,0.082 -0.078,0.144 -0.159,0.153 L 8.305,10.512 c -0.007,10e-4 -0.013,10e-4 -0.02,10e-4 -0.053,0 -0.105,-0.023 -0.14,-0.066 L 0.003,0.58 Z"
               style="fill:none;stroke:#41b8bc;stroke-width:0.375;stroke-linecap:butt;stroke-linejoin:miter;stroke-miterlimit:10;stroke-dasharray:none;stroke-opacity:1"
               id="path138" /></g><g
             id="g140"
             transform="translate(147.9241,556.7981)"><path
               d="m 0,0 c 0.039,0 0.077,-0.013 0.11,-0.037 l 21.393,-16.337 c 0.073,-0.055 0.094,-0.156 0.051,-0.237 -0.043,-0.081 -0.14,-0.118 -0.224,-0.087 l -33.961,12.53 c -0.074,0.027 -0.122,0.1 -0.12,0.18 0.002,0.081 0.055,0.15 0.131,0.173 l 12.567,3.807 C -0.036,-0.002 -0.018,0 0,0 M 20.302,-15.922 -0.037,-0.391 -11.984,-4.01 Z"
               style="fill:#41b8bc;fill-opacity:1;fill-rule:nonzero;stroke:none"
               id="path142" /></g><g
             id="g144"
             transform="translate(147.9241,556.7981)"><path
               d="m 0,0 c 0.039,0 0.077,-0.013 0.11,-0.037 l 21.393,-16.337 c 0.073,-0.055 0.094,-0.156 0.051,-0.237 -0.043,-0.081 -0.14,-0.118 -0.224,-0.087 l -33.961,12.53 c -0.074,0.027 -0.122,0.1 -0.12,0.18 0.002,0.081 0.055,0.15 0.131,0.173 l 12.567,3.807 C -0.036,-0.002 -0.018,0 0,0 Z M 20.302,-15.922 -0.037,-0.391 -11.984,-4.01 Z"
               style="fill:none;stroke:#41b8bc;stroke-width:0.375;stroke-linecap:butt;stroke-linejoin:miter;stroke-miterlimit:10;stroke-dasharray:none;stroke-opacity:1"
               id="path146" /></g><g
             id="g148"
             transform="translate(135.4331,553.0649)"><path
               d="m 0,0 c 0.02,0 0.041,-0.004 0.061,-0.011 l 33.656,-12.434 c 0.073,-0.027 0.121,-0.098 0.12,-0.176 -0.002,-0.079 -0.052,-0.148 -0.126,-0.173 l -44.314,-14.591 c -0.065,-0.023 -0.14,-0.003 -0.189,0.05 -0.048,0.052 -0.062,0.128 -0.036,0.195 L -0.17,-0.116 C -0.141,-0.044 -0.073,0 0,0 M 33.096,-12.608 0.102,-0.419 -10.346,-26.912 Z"
               style="fill:#41b8bc;fill-opacity:1;fill-rule:nonzero;stroke:none"
               id="path150" /></g><g
             id="g152"
             transform="translate(135.4331,553.0649)"><path
               d="m 0,0 c 0.02,0 0.041,-0.004 0.061,-0.011 l 33.656,-12.434 c 0.073,-0.027 0.121,-0.098 0.12,-0.176 -0.002,-0.079 -0.052,-0.148 -0.126,-0.173 l -44.314,-14.591 c -0.065,-0.023 -0.14,-0.003 -0.189,0.05 -0.048,0.052 -0.062,0.128 -0.036,0.195 L -0.17,-0.116 C -0.141,-0.044 -0.073,0 0,0 Z M 33.096,-12.608 0.102,-0.419 -10.346,-26.912 Z"
               style="fill:none;stroke:#41b8bc;stroke-width:0.375;stroke-linecap:butt;stroke-linejoin:miter;stroke-miterlimit:10;stroke-dasharray:none;stroke-opacity:1"
               id="path154" /></g><g
             id="g156"
             transform="translate(151.1777,614.2783)"><path
               d="M 0,0 C 0.009,0 0.018,-0.001 0.027,-0.002 0.121,-0.016 0.188,-0.099 0.183,-0.194 L -3.02,-57.977 c -0.004,-0.076 -0.057,-0.143 -0.132,-0.165 l -12.616,-3.753 c -0.063,-0.019 -0.132,-0.002 -0.18,0.044 -0.048,0.045 -0.067,0.113 -0.051,0.177 l 15.82,61.536 C -0.158,-0.055 -0.083,0 0,0 m -3.381,-57.827 3.092,55.786 -15.272,-59.41 z"
               style="fill:#41b8bc;fill-opacity:1;fill-rule:nonzero;stroke:none"
               id="path158" /></g><g
             id="g160"
             transform="translate(151.1777,614.2783)"><path
               d="M 0,0 C 0.009,0 0.018,-0.001 0.027,-0.002 0.121,-0.016 0.188,-0.099 0.183,-0.194 L -3.02,-57.977 c -0.004,-0.076 -0.057,-0.143 -0.132,-0.165 l -12.616,-3.753 c -0.063,-0.019 -0.132,-0.002 -0.18,0.044 -0.048,0.045 -0.067,0.113 -0.051,0.177 l 15.82,61.536 C -0.158,-0.055 -0.083,0 0,0 Z m -3.381,-57.827 3.092,55.786 -15.272,-59.41 z"
               style="fill:none;stroke:#41b8bc;stroke-width:0.375;stroke-linecap:butt;stroke-linejoin:miter;stroke-miterlimit:10;stroke-dasharray:none;stroke-opacity:1"
               id="path162" /></g><g
             id="g164"
             transform="translate(48.2681,557.3098)"><path
               d="m 0,0 h 0.008 l 87.409,-4.289 c 0.059,-0.003 0.112,-0.034 0.144,-0.085 0.032,-0.05 0.038,-0.112 0.016,-0.168 L 76.93,-31.523 c -0.018,-0.045 -0.053,-0.082 -0.097,-0.101 -0.044,-0.019 -0.094,-0.02 -0.139,-0.001 l -76.763,31.27 c -0.082,0.033 -0.128,0.122 -0.109,0.21 C -0.16,-0.06 -0.085,0 0,0 M 87.145,-4.645 1.068,-0.421 76.661,-31.215 Z"
               style="fill:#41b8bc;fill-opacity:1;fill-rule:nonzero;stroke:none"
               id="path166" /></g><g
             id="g168"
             transform="translate(48.2681,557.3098)"><path
               d="m 0,0 h 0.008 l 87.409,-4.289 c 0.059,-0.003 0.112,-0.034 0.144,-0.085 0.032,-0.05 0.038,-0.112 0.016,-0.168 L 76.93,-31.523 c -0.018,-0.045 -0.053,-0.082 -0.097,-0.101 -0.044,-0.019 -0.094,-0.02 -0.139,-0.001 l -76.763,31.27 c -0.082,0.033 -0.128,0.122 -0.109,0.21 C -0.16,-0.06 -0.085,0 0,0 Z M 87.145,-4.645 1.068,-0.421 76.661,-31.215 Z"
               style="fill:none;stroke:#41b8bc;stroke-width:0.375;stroke-linecap:butt;stroke-linejoin:miter;stroke-miterlimit:10;stroke-dasharray:none;stroke-opacity:1"
               id="path170" /></g><g
             id="g172"
             transform="translate(125.0364,526.3601)"><path
               d="M 0,0 C 0.022,0 0.045,-0.004 0.066,-0.013 0.127,-0.037 0.171,-0.094 0.179,-0.16 l 8.967,-69.979 c 0.01,-0.074 -0.026,-0.146 -0.09,-0.183 -0.064,-0.037 -0.143,-0.031 -0.202,0.015 l -47.85,37.665 c -0.043,0.034 -0.069,0.086 -0.07,0.142 0,0.055 0.024,0.108 0.066,0.144 L -0.116,-0.042 C -0.083,-0.014 -0.042,0 0,0 m 8.729,-69.744 -8.868,69.209 -38.455,-31.959 z"
               style="fill:#41b8bc;fill-opacity:1;fill-rule:nonzero;stroke:none"
               id="path174" /></g><g
             id="g176"
             transform="translate(125.0364,526.3601)"><path
               d="M 0,0 C 0.022,0 0.045,-0.004 0.066,-0.013 0.127,-0.037 0.171,-0.094 0.179,-0.16 l 8.967,-69.979 c 0.01,-0.074 -0.026,-0.146 -0.09,-0.183 -0.064,-0.037 -0.143,-0.031 -0.202,0.015 l -47.85,37.665 c -0.043,0.034 -0.069,0.086 -0.07,0.142 0,0.055 0.024,0.108 0.066,0.144 L -0.116,-0.042 C -0.083,-0.014 -0.042,0 0,0 Z m 8.729,-69.744 -8.868,69.209 -38.455,-31.959 z"
               style="fill:none;stroke:#41b8bc;stroke-width:0.375;stroke-linecap:butt;stroke-linejoin:miter;stroke-miterlimit:10;stroke-dasharray:none;stroke-opacity:1"
               id="path178" /></g><g
             id="g180"
             transform="translate(86.1533,494.1946)"><path
               d="m 0,0 c 0.039,0 0.078,-0.013 0.111,-0.039 l 47.85,-37.706 c 0.05,-0.039 0.076,-0.103 0.069,-0.166 -0.008,-0.064 -0.048,-0.12 -0.106,-0.146 L 6.24,-56.935 c -0.053,-0.025 -0.114,-0.021 -0.164,0.008 -0.051,0.029 -0.084,0.081 -0.091,0.139 l -6.167,56.585 c -0.007,0.073 0.029,0.144 0.092,0.18 C -0.061,-0.008 -0.031,0 0,0 M 47.5,-37.847 0.227,-0.595 6.32,-56.497 Z"
               style="fill:#41b8bc;fill-opacity:1;fill-rule:nonzero;stroke:none"
               id="path182" /></g><g
             id="g184"
             transform="translate(86.1533,494.1946)"><path
               d="m 0,0 c 0.039,0 0.078,-0.013 0.111,-0.039 l 47.85,-37.706 c 0.05,-0.039 0.076,-0.103 0.069,-0.166 -0.008,-0.064 -0.048,-0.12 -0.106,-0.146 L 6.24,-56.935 c -0.053,-0.025 -0.114,-0.021 -0.164,0.008 -0.051,0.029 -0.084,0.081 -0.091,0.139 l -6.167,56.585 c -0.007,0.073 0.029,0.144 0.092,0.18 C -0.061,-0.008 -0.031,0 0,0 Z M 47.5,-37.847 0.227,-0.595 6.32,-56.497 Z"
               style="fill:none;stroke:#41b8bc;stroke-width:0.375;stroke-linecap:butt;stroke-linejoin:miter;stroke-miterlimit:10;stroke-dasharray:none;stroke-opacity:1"
               id="path186" /></g><g
             id="g188"
             transform="translate(92.5251,437.9326)"><path
               d="m 0,0 c 0.01,0 0.02,-0.001 0.03,-0.003 0.071,-0.012 0.128,-0.066 0.145,-0.138 l 19.837,-83.18 c 0.011,-0.048 0.003,-0.099 -0.023,-0.141 -0.027,-0.042 -0.07,-0.071 -0.118,-0.081 l -83.973,-16.8 c -0.07,-0.013 -0.145,0.016 -0.185,0.078 -0.041,0.06 -0.042,0.14 -0.002,0.202 L -0.153,-0.084 C -0.119,-0.031 -0.061,0 0,0 M 19.615,-83.221 -0.078,-0.64 -63.752,-99.899 Z"
               style="fill:#41b8bc;fill-opacity:1;fill-rule:nonzero;stroke:none"
               id="path190" /></g><g
             id="g192"
             transform="translate(92.5251,437.9326)"><path
               d="m 0,0 c 0.01,0 0.02,-0.001 0.03,-0.003 0.071,-0.012 0.128,-0.066 0.145,-0.138 l 19.837,-83.18 c 0.011,-0.048 0.003,-0.099 -0.023,-0.141 -0.027,-0.042 -0.07,-0.071 -0.118,-0.081 l -83.973,-16.8 c -0.07,-0.013 -0.145,0.016 -0.185,0.078 -0.041,0.06 -0.042,0.14 -0.002,0.202 L -0.153,-0.084 C -0.119,-0.031 -0.061,0 0,0 Z M 19.615,-83.221 -0.078,-0.64 -63.752,-99.899 Z"
               style="fill:none;stroke:#41b8bc;stroke-width:0.375;stroke-linecap:butt;stroke-linejoin:miter;stroke-miterlimit:10;stroke-dasharray:none;stroke-opacity:1"
               id="path194" /></g><g
             id="g196"
             transform="translate(86.4226,494.1946)"><path
               d="m 0,0 c 0.031,0 0.062,-0.008 0.09,-0.024 0.05,-0.029 0.084,-0.081 0.09,-0.139 l 6.178,-56.585 c 0.008,-0.079 -0.034,-0.154 -0.106,-0.187 -0.072,-0.033 -0.156,-0.015 -0.21,0.044 l -38.093,42.202 c -0.04,0.043 -0.056,0.103 -0.044,0.16 0.012,0.058 0.051,0.106 0.104,0.13 L -0.075,-0.016 C -0.051,-0.005 -0.026,0 0,0 M 5.935,-56.227 -0.154,-0.454 -31.613,-14.63 Z"
               style="fill:#41b8bc;fill-opacity:1;fill-rule:nonzero;stroke:none"
               id="path198" /></g><g
             id="g200"
             transform="translate(86.4226,494.1946)"><path
               d="m 0,0 c 0.031,0 0.062,-0.008 0.09,-0.024 0.05,-0.029 0.084,-0.081 0.09,-0.139 l 6.178,-56.585 c 0.008,-0.079 -0.034,-0.154 -0.106,-0.187 -0.072,-0.033 -0.156,-0.015 -0.21,0.044 l -38.093,42.202 c -0.04,0.043 -0.056,0.103 -0.044,0.16 0.012,0.058 0.051,0.106 0.104,0.13 L -0.075,-0.016 C -0.051,-0.005 -0.026,0 0,0 Z M 5.935,-56.227 -0.154,-0.454 -31.613,-14.63 Z"
               style="fill:none;stroke:#41b8bc;stroke-width:0.375;stroke-linecap:butt;stroke-linejoin:miter;stroke-miterlimit:10;stroke-dasharray:none;stroke-opacity:1"
               id="path202" /></g><g
             id="g204"
             transform="translate(54.6384,479.8936)"><path
               d="M 0,0 H 0.005 C 0.054,-0.002 0.1,-0.023 0.133,-0.06 l 37.963,-42.283 c 0.054,-0.06 0.063,-0.148 0.021,-0.218 -0.042,-0.07 -0.121,-0.104 -0.2,-0.084 l -64.338,16.73 c -0.063,0.017 -0.113,0.067 -0.13,0.132 -0.017,0.065 0.003,0.133 0.05,0.179 L -0.126,-0.051 C -0.092,-0.018 -0.047,0 0,0 M 37.419,-42.135 -0.01,-0.447 -26.014,-25.641 Z"
               style="fill:#41b8bc;fill-opacity:1;fill-rule:nonzero;stroke:none"
               id="path206" /></g><g
             id="g208"
             transform="translate(54.6384,479.8936)"><path
               d="M 0,0 H 0.005 C 0.054,-0.002 0.1,-0.023 0.133,-0.06 l 37.963,-42.283 c 0.054,-0.06 0.063,-0.148 0.021,-0.218 -0.042,-0.07 -0.121,-0.104 -0.2,-0.084 l -64.338,16.73 c -0.063,0.017 -0.113,0.067 -0.13,0.132 -0.017,0.065 0.003,0.133 0.05,0.179 L -0.126,-0.051 C -0.092,-0.018 -0.047,0 0,0 Z M 37.419,-42.135 -0.01,-0.447 -26.014,-25.641 Z"
               style="fill:none;stroke:#41b8bc;stroke-width:0.375;stroke-linecap:butt;stroke-linejoin:miter;stroke-miterlimit:10;stroke-dasharray:none;stroke-opacity:1"
               id="path210" /></g><g
             id="g212"
             transform="translate(28.2639,454.5352)"><path
               d="m 0,0 c 0.015,0 0.03,-0.002 0.044,-0.006 l 64.337,-16.649 c 0.057,-0.014 0.103,-0.055 0.124,-0.11 0.022,-0.055 0.015,-0.117 -0.017,-0.166 L 0.277,-116.865 c -0.043,-0.068 -0.125,-0.099 -0.204,-0.076 -0.076,0.023 -0.13,0.094 -0.13,0.175 L -0.182,-0.183 c 0,0.056 0.026,0.11 0.07,0.145 C -0.08,-0.013 -0.04,0 0,0 M 64.047,-16.946 0.181,-0.419 0.305,-116.148 Z"
               style="fill:#41b8bc;fill-opacity:1;fill-rule:nonzero;stroke:none"
               id="path214" /></g><g
             id="g216"
             transform="translate(28.2639,454.5352)"><path
               d="m 0,0 c 0.015,0 0.03,-0.002 0.044,-0.006 l 64.337,-16.649 c 0.057,-0.014 0.103,-0.055 0.124,-0.11 0.022,-0.055 0.015,-0.117 -0.017,-0.166 L 0.277,-116.865 c -0.043,-0.068 -0.125,-0.099 -0.204,-0.076 -0.076,0.023 -0.13,0.094 -0.13,0.175 L -0.182,-0.183 c 0,0.056 0.026,0.11 0.07,0.145 C -0.08,-0.013 -0.04,0 0,0 Z M 64.047,-16.946 0.181,-0.419 0.305,-116.148 Z"
               style="fill:none;stroke:#41b8bc;stroke-width:0.375;stroke-linecap:butt;stroke-linejoin:miter;stroke-miterlimit:10;stroke-dasharray:none;stroke-opacity:1"
               id="path218" /></g><g
             id="g220"
             transform="translate(151.1807,614.2783)"><path
               d="M 0,0 C 0.049,0 0.097,-0.021 0.131,-0.058 0.174,-0.104 0.19,-0.168 0.175,-0.229 L -15.39,-61.764 c -0.015,-0.059 -0.057,-0.106 -0.112,-0.127 -0.055,-0.021 -0.119,-0.013 -0.166,0.021 l -66.028,46.144 c -0.06,0.042 -0.089,0.117 -0.074,0.189 0.015,0.073 0.072,0.129 0.144,0.142 L -0.034,-0.003 C -0.023,-0.001 -0.011,0 0,0 m -15.677,-61.419 15.43,61.003 -80.884,-15.258 z"
               style="fill:#41b8bc;fill-opacity:1;fill-rule:nonzero;stroke:none"
               id="path222" /></g><g
             id="g224"
             transform="translate(151.1807,614.2783)"><path
               d="M 0,0 C 0.049,0 0.097,-0.021 0.131,-0.058 0.174,-0.104 0.19,-0.168 0.175,-0.229 L -15.39,-61.764 c -0.015,-0.059 -0.057,-0.106 -0.112,-0.127 -0.055,-0.021 -0.119,-0.013 -0.166,0.021 l -66.028,46.144 c -0.06,0.042 -0.089,0.117 -0.074,0.189 0.015,0.073 0.072,0.129 0.144,0.142 L -0.034,-0.003 C -0.023,-0.001 -0.011,0 0,0 Z m -15.677,-61.419 15.43,61.003 -80.884,-15.258 z"
               style="fill:none;stroke:#41b8bc;stroke-width:0.375;stroke-linecap:butt;stroke-linejoin:miter;stroke-miterlimit:10;stroke-dasharray:none;stroke-opacity:1"
               id="path226" /></g><g
             id="g228"
             transform="translate(69.6675,598.9674)"><path
               d="m 0,0 c 0.036,0 0.072,-0.011 0.102,-0.032 l 66.01,-46.225 c 0.067,-0.046 0.095,-0.132 0.069,-0.21 -0.026,-0.078 -0.103,-0.125 -0.18,-0.124 l -87.191,4.274 c -0.061,0.003 -0.117,0.038 -0.148,0.092 -0.031,0.054 -0.032,0.12 -0.005,0.176 L -0.162,-0.1 c 0.024,0.047 0.066,0.081 0.117,0.095 C -0.03,-0.001 -0.015,0 0,0 M 65.384,-46.193 0.066,-0.454 -20.892,-41.964 Z"
               style="fill:#41b8bc;fill-opacity:1;fill-rule:nonzero;stroke:none"
               id="path230" /></g><g
             id="g232"
             transform="translate(69.6675,598.9674)"><path
               d="m 0,0 c 0.036,0 0.072,-0.011 0.102,-0.032 l 66.01,-46.225 c 0.067,-0.046 0.095,-0.132 0.069,-0.21 -0.026,-0.078 -0.103,-0.125 -0.18,-0.124 l -87.191,4.274 c -0.061,0.003 -0.117,0.038 -0.148,0.092 -0.031,0.054 -0.032,0.12 -0.005,0.176 L -0.162,-0.1 c 0.024,0.047 0.066,0.081 0.117,0.095 C -0.03,-0.001 -0.015,0 0,0 Z M 65.384,-46.193 0.066,-0.454 -20.892,-41.964 Z"
               style="fill:none;stroke:#41b8bc;stroke-width:0.375;stroke-linecap:butt;stroke-linejoin:miter;stroke-miterlimit:10;stroke-dasharray:none;stroke-opacity:1"
               id="path234" /></g><g
             id="g236"
             transform="translate(69.9114,598.9674)"><path
               d="m 0,0 c 0.047,0 0.093,-0.019 0.127,-0.054 0.056,-0.056 0.07,-0.142 0.034,-0.214 l -21.254,-41.979 c -0.024,-0.048 -0.069,-0.083 -0.122,-0.095 -0.053,-0.012 -0.107,0 -0.15,0.034 l -23.818,18.525 c -0.049,0.038 -0.076,0.099 -0.07,0.162 0.005,0.063 0.043,0.118 0.098,0.147 L -0.084,-0.02 C -0.058,-0.006 -0.029,0 0,0 m -21.317,-41.882 20.897,41.273 -44.314,-23.06 z"
               style="fill:#41b8bc;fill-opacity:1;fill-rule:nonzero;stroke:none"
               id="path238" /></g><g
             id="g240"
             transform="translate(69.9114,598.9674)"><path
               d="m 0,0 c 0.047,0 0.093,-0.019 0.127,-0.054 0.056,-0.056 0.07,-0.142 0.034,-0.214 l -21.254,-41.979 c -0.024,-0.048 -0.069,-0.083 -0.122,-0.095 -0.053,-0.012 -0.107,0 -0.15,0.034 l -23.818,18.525 c -0.049,0.038 -0.076,0.099 -0.07,0.162 0.005,0.063 0.043,0.118 0.098,0.147 L -0.084,-0.02 C -0.058,-0.006 -0.029,0 0,0 Z m -21.317,-41.882 20.897,41.273 -44.314,-23.06 z"
               style="fill:none;stroke:#41b8bc;stroke-width:0.375;stroke-linecap:butt;stroke-linejoin:miter;stroke-miterlimit:10;stroke-dasharray:none;stroke-opacity:1"
               id="path242" /></g><g
             id="g252"
             transform="translate(69.9116,598.9674)"><path
               d="M 0,0 C 0.072,0 0.139,-0.044 0.167,-0.116 0.202,-0.204 0.165,-0.306 0.082,-0.349 L -44.9,-23.943 c -0.041,-0.021 -0.085,-0.026 -0.131,-0.014 l -17.158,4.671 c -0.078,0.022 -0.133,0.093 -0.134,0.176 -10e-4,0.083 0.051,0.157 0.129,0.18 L -0.053,-0.008 C -0.035,-0.002 -0.017,0 0,0 m -45.004,-23.582 43.181,22.649 -59.653,-18.164 z"
               style="fill:#41b8bc;fill-opacity:1;fill-rule:nonzero;stroke:none"
               id="path254" /></g><g
             id="g256"
             transform="translate(69.9116,598.9674)"><path
               d="M 0,0 C 0.072,0 0.139,-0.044 0.167,-0.116 0.202,-0.204 0.165,-0.306 0.082,-0.349 L -44.9,-23.943 c -0.041,-0.021 -0.085,-0.026 -0.131,-0.014 l -17.158,4.671 c -0.078,0.022 -0.133,0.093 -0.134,0.176 -10e-4,0.083 0.051,0.157 0.129,0.18 L -0.053,-0.008 C -0.035,-0.002 -0.017,0 0,0 Z m -45.004,-23.582 43.181,22.649 -59.653,-18.164 z"
               style="fill:none;stroke:#41b8bc;stroke-width:0.375;stroke-linecap:butt;stroke-linejoin:miter;stroke-miterlimit:10;stroke-dasharray:none;stroke-opacity:1"
               id="path258" /></g><g
             id="g268"
             transform="translate(274.9792,610.9272)"><path
               d="m 0,0 c 0.005,0 0.011,0 0.016,-0.001 0.059,-0.005 0.113,-0.041 0.142,-0.093 l 10.695,-19.279 c 0.028,-0.052 0.031,-0.114 0.006,-0.168 -0.024,-0.053 -0.073,-0.092 -0.13,-0.104 l -31.927,-6.426 c -0.075,-0.015 -0.153,0.02 -0.192,0.087 -0.04,0.067 -0.033,0.153 0.017,0.213 L -0.141,-0.066 C -0.106,-0.024 -0.054,0 0,0 M 10.411,-19.332 -0.031,-0.508 -20.762,-25.607 Z"
               style="fill:#41b8bc;fill-opacity:1;fill-rule:nonzero;stroke:none"
               id="path270" /></g><g
             id="g272"
             transform="translate(274.9792,610.9272)"><path
               d="m 0,0 c 0.005,0 0.011,0 0.016,-0.001 0.059,-0.005 0.113,-0.041 0.142,-0.093 l 10.695,-19.279 c 0.028,-0.052 0.031,-0.114 0.006,-0.168 -0.024,-0.053 -0.073,-0.092 -0.13,-0.104 l -31.927,-6.426 c -0.075,-0.015 -0.153,0.02 -0.192,0.087 -0.04,0.067 -0.033,0.153 0.017,0.213 L -0.141,-0.066 C -0.106,-0.024 -0.054,0 0,0 Z M 10.411,-19.332 -0.031,-0.508 -20.762,-25.607 Z"
               style="fill:none;stroke:#41b8bc;stroke-width:0.375;stroke-linecap:butt;stroke-linejoin:miter;stroke-miterlimit:10;stroke-dasharray:none;stroke-opacity:1"
               id="path274" /></g><g
             id="g276"
             transform="translate(185.6465,482.6541)"><path
               d="m 0,0 c 0.015,0 0.031,-0.002 0.046,-0.006 0.1,-0.025 0.159,-0.126 0.133,-0.224 l -10.241,-38.963 c -0.026,-0.098 -0.126,-0.158 -0.227,-0.131 -0.1,0.025 -0.159,0.125 -0.134,0.224 L -0.181,-0.138 C -0.159,-0.054 -0.083,0 0,0"
               style="fill:#41b8bc;fill-opacity:1;fill-rule:nonzero;stroke:none"
               id="path278" /></g><g
             id="g280"
             transform="translate(185.6465,482.6541)"><path
               d="m 0,0 c 0.015,0 0.031,-0.002 0.046,-0.006 0.1,-0.025 0.159,-0.126 0.133,-0.224 l -10.241,-38.963 c -0.026,-0.098 -0.126,-0.158 -0.227,-0.131 -0.1,0.025 -0.159,0.125 -0.134,0.224 L -0.181,-0.138 C -0.159,-0.054 -0.083,0 0,0 Z"
               style="fill:none;stroke:#41b8bc;stroke-width:0.375;stroke-linecap:butt;stroke-linejoin:miter;stroke-miterlimit:10;stroke-dasharray:none;stroke-opacity:1"
               id="path282" /></g><g
             id="g284"
             transform="translate(185.6509,482.6541)"><path
               d="M 0,0 C 0.041,0 0.081,-0.014 0.114,-0.041 0.169,-0.086 0.193,-0.16 0.175,-0.23 l -9.991,-38.963 c -0.012,-0.048 -0.043,-0.089 -0.086,-0.114 -0.043,-0.025 -0.095,-0.03 -0.142,-0.016 l -41.978,12.797 c -0.072,0.021 -0.123,0.085 -0.129,0.16 -0.006,0.075 0.033,0.147 0.1,0.18 L -0.082,-0.019 C -0.055,-0.006 -0.028,0 0,0 m -10.12,-38.915 9.843,38.387 -51.202,-25.78 z"
               style="fill:#41b8bc;fill-opacity:1;fill-rule:nonzero;stroke:none"
               id="path286" /></g><g
             id="g288"
             transform="translate(185.6509,482.6541)"><path
               d="M 0,0 C 0.041,0 0.081,-0.014 0.114,-0.041 0.169,-0.086 0.193,-0.16 0.175,-0.23 l -9.991,-38.963 c -0.012,-0.048 -0.043,-0.089 -0.086,-0.114 -0.043,-0.025 -0.095,-0.03 -0.142,-0.016 l -41.978,12.797 c -0.072,0.021 -0.123,0.085 -0.129,0.16 -0.006,0.075 0.033,0.147 0.1,0.18 L -0.082,-0.019 C -0.055,-0.006 -0.028,0 0,0 Z m -10.12,-38.915 9.843,38.387 -51.202,-25.78 z"
               style="fill:none;stroke:#41b8bc;stroke-width:0.375;stroke-linecap:butt;stroke-linejoin:miter;stroke-miterlimit:10;stroke-dasharray:none;stroke-opacity:1"
               id="path290" /></g><g
             id="g292"
             transform="translate(170.8643,531.7283)"><path
               d="M 0,0 C 0.079,0 0.149,-0.052 0.173,-0.13 L 14.96,-49.526 c 0.022,-0.076 -0.005,-0.157 -0.068,-0.203 -0.063,-0.046 -0.148,-0.046 -0.211,0 l -60.877,43.993 c -0.061,0.044 -0.089,0.121 -0.07,0.195 0.018,0.073 0.08,0.128 0.154,0.136 l 46.09,5.404 C -0.014,0 -0.007,0 0,0 M 14.458,-49.117 -0.131,-0.384 -45.602,-5.715 Z"
               style="fill:#41b8bc;fill-opacity:1;fill-rule:nonzero;stroke:none"
               id="path294" /></g><g
             id="g296"
             transform="translate(170.8643,531.7283)"><path
               d="M 0,0 C 0.079,0 0.149,-0.052 0.173,-0.13 L 14.96,-49.526 c 0.022,-0.076 -0.005,-0.157 -0.068,-0.203 -0.063,-0.046 -0.148,-0.046 -0.211,0 l -60.877,43.993 c -0.061,0.044 -0.089,0.121 -0.07,0.195 0.018,0.073 0.08,0.128 0.154,0.136 l 46.09,5.404 C -0.014,0 -0.007,0 0,0 Z M 14.458,-49.117 -0.131,-0.384 -45.602,-5.715 Z"
               style="fill:none;stroke:#41b8bc;stroke-width:0.375;stroke-linecap:butt;stroke-linejoin:miter;stroke-miterlimit:10;stroke-dasharray:none;stroke-opacity:1"
               id="path298" /></g><g
             id="g300"
             transform="translate(124.7747,526.3601)"><path
               d="m 0,0 c 0.037,0 0.073,-0.011 0.104,-0.034 l 60.877,-43.908 c 0.052,-0.038 0.081,-0.1 0.076,-0.164 -0.006,-0.064 -0.044,-0.121 -0.101,-0.15 L 9.034,-70.326 c -0.052,-0.028 -0.114,-0.026 -0.166,0.002 -0.052,0.028 -0.087,0.079 -0.095,0.138 l -8.954,69.979 c -0.009,0.073 0.025,0.144 0.087,0.181 C -0.065,-0.009 -0.032,0 0,0 M 60.524,-44.063 0.232,-0.577 9.101,-69.884 Z"
               style="fill:#41b8bc;fill-opacity:1;fill-rule:nonzero;stroke:none"
               id="path302" /></g><g
             id="g304"
             transform="translate(124.7747,526.3601)"><path
               d="m 0,0 c 0.037,0 0.073,-0.011 0.104,-0.034 l 60.877,-43.908 c 0.052,-0.038 0.081,-0.1 0.076,-0.164 -0.006,-0.064 -0.044,-0.121 -0.101,-0.15 L 9.034,-70.326 c -0.052,-0.028 -0.114,-0.026 -0.166,0.002 -0.052,0.028 -0.087,0.079 -0.095,0.138 l -8.954,69.979 c -0.009,0.073 0.025,0.144 0.087,0.181 C -0.065,-0.009 -0.032,0 0,0 Z M 60.524,-44.063 0.232,-0.577 9.101,-69.884 Z"
               style="fill:none;stroke:#41b8bc;stroke-width:0.375;stroke-linecap:butt;stroke-linejoin:miter;stroke-miterlimit:10;stroke-dasharray:none;stroke-opacity:1"
               id="path306" /></g><g
             id="g308"
             transform="translate(202.4526,566.1003)"><path
               d="M 0,0 C 0.05,0 0.099,-0.021 0.134,-0.061 0.198,-0.132 0.197,-0.24 0.133,-0.309 l -31.814,-34.693 c -0.047,-0.05 -0.116,-0.071 -0.183,-0.052 -0.065,0.019 -0.115,0.072 -0.129,0.14 l -1.871,9.135 c -0.014,0.069 0.012,0.141 0.069,0.184 L -0.11,-0.037 C -0.077,-0.012 -0.038,0 0,0 m -31.708,-34.489 30.197,32.928 -31.973,-24.258 z"
               style="fill:#41b8bc;fill-opacity:1;fill-rule:nonzero;stroke:none"
               id="path310" /></g><g
             id="g312"
             transform="translate(202.4526,566.1003)"><path
               d="M 0,0 C 0.05,0 0.099,-0.021 0.134,-0.061 0.198,-0.132 0.197,-0.24 0.133,-0.309 l -31.814,-34.693 c -0.047,-0.05 -0.116,-0.071 -0.183,-0.052 -0.065,0.019 -0.115,0.072 -0.129,0.14 l -1.871,9.135 c -0.014,0.069 0.012,0.141 0.069,0.184 L -0.11,-0.037 C -0.077,-0.012 -0.038,0 0,0 Z m -31.708,-34.489 30.197,32.928 -31.973,-24.258 z"
               style="fill:none;stroke:#41b8bc;stroke-width:0.375;stroke-linecap:butt;stroke-linejoin:miter;stroke-miterlimit:10;stroke-dasharray:none;stroke-opacity:1"
               id="path314" /></g><g
             id="g316"
             transform="translate(202.4534,566.1003)"><path
               d="M 0,0 C 0.071,0 0.137,-0.043 0.166,-0.112 0.199,-0.19 0.175,-0.281 0.108,-0.333 l -33.561,-25.641 c -0.066,-0.049 -0.155,-0.048 -0.219,0 l -21.172,16.222 c -0.058,0.045 -0.084,0.12 -0.067,0.191 0.016,0.072 0.074,0.126 0.146,0.139 l 54.734,9.419 C -0.021,-0.001 -0.01,0 0,0 m -33.563,-25.595 32.855,25.101 -53.581,-9.221 z"
               style="fill:#41b8bc;fill-opacity:1;fill-rule:nonzero;stroke:none"
               id="path318" /></g><g
             id="g320"
             transform="translate(202.4534,566.1003)"><path
               d="M 0,0 C 0.071,0 0.137,-0.043 0.166,-0.112 0.199,-0.19 0.175,-0.281 0.108,-0.333 l -33.561,-25.641 c -0.066,-0.049 -0.155,-0.048 -0.219,0 l -21.172,16.222 c -0.058,0.045 -0.084,0.12 -0.067,0.191 0.016,0.072 0.074,0.126 0.146,0.139 l 54.734,9.419 C -0.021,-0.001 -0.01,0 0,0 Z m -33.563,-25.595 32.855,25.101 -53.581,-9.221 z"
               style="fill:none;stroke:#41b8bc;stroke-width:0.375;stroke-linecap:butt;stroke-linejoin:miter;stroke-miterlimit:10;stroke-dasharray:none;stroke-opacity:1"
               id="path322" /></g><g
             id="g324"
             transform="translate(150.8767,614.2783)"><path
               d="m 0,0 c 0.045,0 0.089,-0.017 0.123,-0.049 l 51.576,-48.448 c 0.051,-0.048 0.07,-0.12 0.051,-0.187 -0.02,-0.067 -0.076,-0.117 -0.144,-0.128 l -54.734,-9.355 c -0.053,-0.01 -0.11,0.008 -0.152,0.044 -0.041,0.038 -0.063,0.092 -0.06,0.147 l 3.158,57.803 c 0.004,0.071 0.048,0.133 0.113,0.16 C -0.046,-0.004 -0.023,0 0,0 M 51.183,-48.513 0.159,-0.584 -2.965,-57.767 Z"
               style="fill:#41b8bc;fill-opacity:1;fill-rule:nonzero;stroke:none"
               id="path326" /></g><g
             id="g328"
             transform="translate(150.8767,614.2783)"><path
               d="m 0,0 c 0.045,0 0.089,-0.017 0.123,-0.049 l 51.576,-48.448 c 0.051,-0.048 0.07,-0.12 0.051,-0.187 -0.02,-0.067 -0.076,-0.117 -0.144,-0.128 l -54.734,-9.355 c -0.053,-0.01 -0.11,0.008 -0.152,0.044 -0.041,0.038 -0.063,0.092 -0.06,0.147 l 3.158,57.803 c 0.004,0.071 0.048,0.133 0.113,0.16 C -0.046,-0.004 -0.023,0 0,0 Z M 51.183,-48.513 0.159,-0.584 -2.965,-57.767 Z"
               style="fill:none;stroke:#41b8bc;stroke-width:0.375;stroke-linecap:butt;stroke-linejoin:miter;stroke-miterlimit:10;stroke-dasharray:none;stroke-opacity:1"
               id="path330" /></g><g
             id="g332"
             transform="translate(-14.2529,516.8418)"><path
               d="M 0,0 62.769,39.882 42.501,-37.429 -0.097,-19.263 -0.099,-19.66 42.552,-37.849 c 0.049,-0.02 0.104,-0.019 0.151,0.005 0.047,0.023 0.082,0.066 0.096,0.118 l 20.439,77.964 c 0.018,0.073 -0.009,0.15 -0.069,0.194 -0.031,0.024 -0.069,0.036 -0.106,0.036 -0.034,0 -0.068,-0.009 -0.098,-0.028 L 0.002,0.434 Z"
               style="fill:#41b8bc;fill-opacity:1;fill-rule:nonzero;stroke:none"
               id="path334" /></g><g
             id="g336"
             transform="translate(-14.2529,516.8418)"><path
               d="M 0,0 62.769,39.882 42.501,-37.429 -0.097,-19.263 -0.099,-19.66 42.552,-37.849 c 0.049,-0.02 0.104,-0.019 0.151,0.005 0.047,0.023 0.082,0.066 0.096,0.118 l 20.439,77.964 c 0.018,0.073 -0.009,0.15 -0.069,0.194 -0.031,0.024 -0.069,0.036 -0.106,0.036 -0.034,0 -0.068,-0.009 -0.098,-0.028 L 0.002,0.434 Z"
               style="fill:none;stroke:#41b8bc;stroke-width:0.375;stroke-linecap:butt;stroke-linejoin:miter;stroke-miterlimit:10;stroke-dasharray:none;stroke-opacity:1"
               id="path338" /></g><g
             id="g340"
             transform="translate(-14.0859,550.0872)"><path
               d="M 0,0 62.152,6.77 -0.166,-33.098 -0.168,-33.535 63.009,6.882 c 0.072,0.046 0.103,0.136 0.075,0.217 -0.025,0.074 -0.094,0.123 -0.17,0.124 -0.007,0 -0.014,-10e-4 -0.021,-10e-4 L 0.002,0.371 Z"
               style="fill:#41b8bc;fill-opacity:1;fill-rule:nonzero;stroke:none"
               id="path342" /></g><g
             id="g344"
             transform="translate(-14.0859,550.0872)"><path
               d="M 0,0 62.152,6.77 -0.166,-33.098 -0.168,-33.535 63.009,6.882 c 0.072,0.046 0.103,0.136 0.075,0.217 -0.025,0.074 -0.094,0.123 -0.17,0.124 -0.007,0 -0.014,-10e-4 -0.021,-10e-4 L 0.002,0.371 Z"
               style="fill:none;stroke:#41b8bc;stroke-width:0.375;stroke-linecap:butt;stroke-linejoin:miter;stroke-miterlimit:10;stroke-dasharray:none;stroke-opacity:1"
               id="path346" /></g><g
             id="g348"
             transform="translate(-14.3516,497.5044)"><path
               d="m 0,0 41.978,-18.089 -42.056,2.529 -0.002,-0.373 43.097,-2.592 c 0.099,-0.008 0.168,0.055 0.189,0.143 0.02,0.089 -0.025,0.179 -0.107,0.215 L 0.002,0.404 Z"
               style="fill:#41b8bc;fill-opacity:1;fill-rule:nonzero;stroke:none"
               id="path350" /></g><g
             id="g352"
             transform="translate(-14.3516,497.5044)"><path
               d="m 0,0 41.978,-18.089 -42.056,2.529 -0.002,-0.373 43.097,-2.592 c 0.099,-0.008 0.168,0.055 0.189,0.143 0.02,0.089 -0.025,0.179 -0.107,0.215 L 0.002,0.404 Z"
               style="fill:none;stroke:#41b8bc;stroke-width:0.375;stroke-linecap:butt;stroke-linejoin:miter;stroke-miterlimit:10;stroke-dasharray:none;stroke-opacity:1"
               id="path354" /></g><g
             id="g356"
             transform="translate(275.0872,610.9272)"><path
               d="M 0,0 C 0.056,0 0.111,-0.027 0.146,-0.076 0.195,-0.145 0.192,-0.238 0.138,-0.303 l -21.173,-25.704 c -0.034,-0.041 -0.085,-0.065 -0.139,-0.066 l -41.85,-0.149 h -0.002 c -0.087,0.001 -0.161,0.063 -0.177,0.149 -0.017,0.087 0.029,0.174 0.11,0.207 L -0.069,-0.013 C -0.047,-0.004 -0.023,0 0,0 m -21.26,-25.703 20.653,25.07 -61.474,-25.216 z"
               style="fill:#41b8bc;fill-opacity:1;fill-rule:nonzero;stroke:none"
               id="path358" /></g><g
             id="g360"
             transform="translate(275.0872,610.9272)"><path
               d="M 0,0 C 0.056,0 0.111,-0.027 0.146,-0.076 0.195,-0.145 0.192,-0.238 0.138,-0.303 l -21.173,-25.704 c -0.034,-0.041 -0.085,-0.065 -0.139,-0.066 l -41.85,-0.149 h -0.002 c -0.087,0.001 -0.161,0.063 -0.177,0.149 -0.017,0.087 0.029,0.174 0.11,0.207 L -0.069,-0.013 C -0.047,-0.004 -0.023,0 0,0 Z m -21.26,-25.703 20.653,25.07 -61.474,-25.216 z"
               style="fill:none;stroke:#41b8bc;stroke-width:0.375;stroke-linecap:butt;stroke-linejoin:miter;stroke-miterlimit:10;stroke-dasharray:none;stroke-opacity:1"
               id="path362" /></g><g
             id="g372"
             transform="translate(254.252,585.542)"><path
               d="M 0,0 C 0.087,-0.001 0.163,-0.064 0.178,-0.152 0.194,-0.241 0.145,-0.328 0.063,-0.359 l -52.12,-19.76 c -0.071,-0.027 -0.151,-0.007 -0.201,0.051 -0.05,0.058 -0.059,0.141 -0.024,0.209 l 10.167,19.61 c 0.031,0.061 0.093,0.099 0.16,0.099 L -0.001,0 Z M -51.737,-19.602 -1.021,-0.375 -41.844,-0.52 Z"
               style="fill:#41b8bc;fill-opacity:1;fill-rule:nonzero;stroke:none"
               id="path374" /></g><g
             id="g376"
             transform="translate(254.252,585.542)"><path
               d="M 0,0 C 0.087,-0.001 0.163,-0.064 0.178,-0.152 0.194,-0.241 0.145,-0.328 0.063,-0.359 l -52.12,-19.76 c -0.071,-0.027 -0.151,-0.007 -0.201,0.051 -0.05,0.058 -0.059,0.141 -0.024,0.209 l 10.167,19.61 c 0.031,0.061 0.093,0.099 0.16,0.099 L -0.001,0 Z M -51.737,-19.602 -1.021,-0.375 -41.844,-0.52 Z"
               style="fill:none;stroke:#41b8bc;stroke-width:0.375;stroke-linecap:butt;stroke-linejoin:miter;stroke-miterlimit:10;stroke-dasharray:none;stroke-opacity:1"
               id="path378" /></g><g
             id="g388"
             transform="translate(150.7019,614.2783)"><path
               d="m 0,0 c 0.025,0 0.052,-0.005 0.076,-0.017 l 61.819,-29.077 c 0.045,-0.021 0.08,-0.06 0.095,-0.108 0.017,-0.048 0.012,-0.099 -0.011,-0.144 L 51.833,-48.769 c -0.027,-0.051 -0.075,-0.086 -0.131,-0.096 -0.054,-0.01 -0.112,0.008 -0.154,0.047 l -51.673,48.5 C -0.19,-0.256 -0.202,-0.156 -0.152,-0.081 -0.117,-0.029 -0.059,0 0,0 M 61.568,-29.346 0.967,-0.842 51.622,-48.385 Z"
               style="fill:#41b8bc;fill-opacity:1;fill-rule:nonzero;stroke:none"
               id="path390" /></g><g
             id="g392"
             transform="translate(150.7019,614.2783)"><path
               d="m 0,0 c 0.025,0 0.052,-0.005 0.076,-0.017 l 61.819,-29.077 c 0.045,-0.021 0.08,-0.06 0.095,-0.108 0.017,-0.048 0.012,-0.099 -0.011,-0.144 L 51.833,-48.769 c -0.027,-0.051 -0.075,-0.086 -0.131,-0.096 -0.054,-0.01 -0.112,0.008 -0.154,0.047 l -51.673,48.5 C -0.19,-0.256 -0.202,-0.156 -0.152,-0.081 -0.117,-0.029 -0.059,0 0,0 Z M 61.568,-29.346 0.967,-0.842 51.622,-48.385 Z"
               style="fill:none;stroke:#41b8bc;stroke-width:0.375;stroke-linecap:butt;stroke-linejoin:miter;stroke-miterlimit:10;stroke-dasharray:none;stroke-opacity:1"
               id="path394" /></g><g
             id="g396"
             transform="translate(-13.8938,588.1389)"><path
               d="m 0,0 21.554,-8.188 -21.658,-12.677 -0.002,-0.432 22.181,12.983 c 0.062,0.036 0.097,0.106 0.092,0.178 -0.006,0.072 -0.052,0.134 -0.119,0.16 L 0.002,0.398 Z"
               style="fill:#41b8bc;fill-opacity:1;fill-rule:nonzero;stroke:none"
               id="path398" /></g><g
             id="g400"
             transform="translate(-13.8938,588.1389)"><path
               d="m 0,0 21.554,-8.188 -21.658,-12.677 -0.002,-0.432 22.181,12.983 c 0.062,0.036 0.097,0.106 0.092,0.178 -0.006,0.072 -0.052,0.134 -0.119,0.16 L 0.002,0.398 Z"
               style="fill:none;stroke:#41b8bc;stroke-width:0.375;stroke-linecap:butt;stroke-linejoin:miter;stroke-miterlimit:10;stroke-dasharray:none;stroke-opacity:1"
               id="path402" /></g><g
             id="g404"
             transform="translate(175.7222,444.0125)"><path
               d="M 0,0 C 0.058,0 0.115,-0.029 0.15,-0.082 0.206,-0.166 0.184,-0.281 0.1,-0.338 l -42.009,-28.491 c -0.083,-0.057 -0.196,-0.034 -0.252,0.05 -0.056,0.085 -0.034,0.2 0.05,0.256 L -0.102,-0.031 C -0.071,-0.01 -0.035,0 0,0"
               style="fill:#41b8bc;fill-opacity:1;fill-rule:nonzero;stroke:none"
               id="path406" /></g><g
             id="g408"
             transform="translate(175.7222,444.0125)"><path
               d="M 0,0 C 0.058,0 0.115,-0.029 0.15,-0.082 0.206,-0.166 0.184,-0.281 0.1,-0.338 l -42.009,-28.491 c -0.083,-0.057 -0.196,-0.034 -0.252,0.05 -0.056,0.085 -0.034,0.2 0.05,0.256 L -0.102,-0.031 C -0.071,-0.01 -0.035,0 0,0 Z"
               style="fill:none;stroke:#41b8bc;stroke-width:0.375;stroke-linecap:butt;stroke-linejoin:miter;stroke-miterlimit:10;stroke-dasharray:none;stroke-opacity:1"
               id="path410" /></g><g
             id="g412"
             transform="translate(133.6819,456.7031)"><path
               d="m 0,0 c 0.017,0 0.034,-0.002 0.052,-0.008 l 42.04,-12.79 c 0.067,-0.021 0.117,-0.078 0.127,-0.149 0.01,-0.07 -0.02,-0.14 -0.078,-0.18 L 0.132,-41.52 c -0.056,-0.038 -0.128,-0.041 -0.187,-0.01 -0.059,0.032 -0.096,0.094 -0.096,0.163 l -0.032,41.183 c 0,0.059 0.027,0.113 0.074,0.148 C -0.077,-0.012 -0.039,0 0,0 M 41.618,-13.038 0.181,-0.431 0.212,-41.023 Z"
               style="fill:#41b8bc;fill-opacity:1;fill-rule:nonzero;stroke:none"
               id="path414" /></g><g
             id="g416"
             transform="translate(133.6819,456.7031)"><path
               d="m 0,0 c 0.017,0 0.034,-0.002 0.052,-0.008 l 42.04,-12.79 c 0.067,-0.021 0.117,-0.078 0.127,-0.149 0.01,-0.07 -0.02,-0.14 -0.078,-0.18 L 0.132,-41.52 c -0.056,-0.038 -0.128,-0.041 -0.187,-0.01 -0.059,0.032 -0.096,0.094 -0.096,0.163 l -0.032,41.183 c 0,0.059 0.027,0.113 0.074,0.148 C -0.077,-0.012 -0.039,0 0,0 Z M 41.618,-13.038 0.181,-0.431 0.212,-41.023 Z"
               style="fill:none;stroke:#41b8bc;stroke-width:0.375;stroke-linecap:butt;stroke-linejoin:miter;stroke-miterlimit:10;stroke-dasharray:none;stroke-opacity:1"
               id="path418" /></g><g
             id="g420"
             transform="translate(134.0032,456.7031)"><path
               d="m 0,0 c 0.034,0 0.068,-0.01 0.098,-0.029 0.051,-0.034 0.083,-0.092 0.083,-0.155 l 0.031,-41.183 c 0,-0.064 -0.033,-0.124 -0.087,-0.158 -0.055,-0.033 -0.123,-0.035 -0.179,-0.005 l -41.756,22.265 c -0.061,0.033 -0.099,0.098 -0.097,0.169 0.002,0.07 0.044,0.133 0.107,0.161 L -0.075,-0.016 C -0.051,-0.005 -0.026,0 0,0 M -0.152,-41.062 -0.183,-0.467 -41.31,-19.115 Z"
               style="fill:#41b8bc;fill-opacity:1;fill-rule:nonzero;stroke:none"
               id="path422" /></g><g
             id="g424"
             transform="translate(134.0032,456.7031)"><path
               d="m 0,0 c 0.034,0 0.068,-0.01 0.098,-0.029 0.051,-0.034 0.083,-0.092 0.083,-0.155 l 0.031,-41.183 c 0,-0.064 -0.033,-0.124 -0.087,-0.158 -0.055,-0.033 -0.123,-0.035 -0.179,-0.005 l -41.756,22.265 c -0.061,0.033 -0.099,0.098 -0.097,0.169 0.002,0.07 0.044,0.133 0.107,0.161 L -0.075,-0.016 C -0.051,-0.005 -0.026,0 0,0 Z M -0.152,-41.062 -0.183,-0.467 -41.31,-19.115 Z"
               style="fill:none;stroke:#41b8bc;stroke-width:0.375;stroke-linecap:butt;stroke-linejoin:miter;stroke-miterlimit:10;stroke-dasharray:none;stroke-opacity:1"
               id="path426" /></g><g
             id="g428"
             transform="translate(92.2791,437.9326)"><path
               d="M 0,0 C 0.029,0 0.057,-0.007 0.084,-0.021 L 41.84,-22.199 c 0.08,-0.042 0.117,-0.138 0.086,-0.224 L 20.084,-83.48 c -0.027,-0.076 -0.103,-0.131 -0.181,-0.121 -0.08,0.005 -0.148,0.062 -0.167,0.141 L -0.177,-0.226 c -0.017,0.07 0.008,0.143 0.065,0.187 C -0.08,-0.013 -0.04,0 0,0 M 41.53,-22.448 0.27,-0.534 19.948,-82.781 Z"
               style="fill:#41b8bc;fill-opacity:1;fill-rule:nonzero;stroke:none"
               id="path430" /></g><g
             id="g432"
             transform="translate(92.2791,437.9326)"><path
               d="M 0,0 C 0.029,0 0.057,-0.007 0.084,-0.021 L 41.84,-22.199 c 0.08,-0.042 0.117,-0.138 0.086,-0.224 L 20.084,-83.48 c -0.027,-0.076 -0.103,-0.131 -0.181,-0.121 -0.08,0.005 -0.148,0.062 -0.167,0.141 L -0.177,-0.226 c -0.017,0.07 0.008,0.143 0.065,0.187 C -0.08,-0.013 -0.04,0 0,0 Z M 41.53,-22.448 0.27,-0.534 19.948,-82.781 Z"
               style="fill:none;stroke:#41b8bc;stroke-width:0.375;stroke-linecap:butt;stroke-linejoin:miter;stroke-miterlimit:10;stroke-dasharray:none;stroke-opacity:1"
               id="path434" /></g><g
             id="g444"
             transform="translate(-13.7932,608.1532)"><path
               d="m 0,0 21.343,-27.951 -21.442,8.129 -0.002,-0.397 21.921,-8.31 c 0.076,-0.029 0.163,-0.003 0.211,0.064 0.049,0.067 0.047,0.159 -0.003,0.225 L 0.003,0.604 Z"
               style="fill:#41b8bc;fill-opacity:1;fill-rule:nonzero;stroke:none"
               id="path446" /></g><g
             id="g448"
             transform="translate(-13.7932,608.1532)"><path
               d="m 0,0 21.343,-27.951 -21.442,8.129 -0.002,-0.397 21.921,-8.31 c 0.076,-0.029 0.163,-0.003 0.211,0.064 0.049,0.067 0.047,0.159 -0.003,0.225 L 0.003,0.604 Z"
               style="fill:none;stroke:#41b8bc;stroke-width:0.375;stroke-linecap:butt;stroke-linejoin:miter;stroke-miterlimit:10;stroke-dasharray:none;stroke-opacity:1"
               id="path450" /></g></g></g></g><path
       id="path1049"
       d="m 79.520779,479.58732 309.340781,13.55894 -258.65268,-1.49944 80.96953,-17.24351 21.74182,17.99323"
       style="fill:none;stroke:#41b8bc;stroke-width:1.12500003;stroke-linecap:butt;stroke-linejoin:miter;stroke-opacity:1;stroke-miterlimit:4;stroke-dasharray:none" /><path
       id="path1051"
       d="m 454.08701,492.39654 118.45546,-5.24802 135.69893,5.24802"
       style="fill:none;stroke:#41b8bc;stroke-width:1.12500003;stroke-linecap:butt;stroke-linejoin:miter;stroke-opacity:1;stroke-miterlimit:4;stroke-dasharray:none" /><path
       id="path1053"
       d="m 1165.5388,407.49795 -1.392,15.77732 2.055,10.07627 -20.9481,41.56462 19.8211,-3.0494 -9.4133,-17.16943 0.8617,29.76477 -11.1369,-9.47965 6.0988,18.09752 5.0753,-8.19543 9.0089,-13.4801 0.7498,22.49154 -9.7464,-8.99662 -54.024,8.20002"
       style="fill:none;stroke:#41b8bc;stroke-width:1.12500003;stroke-linecap:butt;stroke-linejoin:bevel;stroke-opacity:1;stroke-miterlimit:4;stroke-dasharray:none" /><path
       id="path1055"
       d="m 1145.2537,474.91616 -22.4727,23.26824 -19.8873,-12.72793 -33.1457,7.55721 -2.9168,-3.0494 -3.5798,2.65165 39.2973,0.48345"
       style="fill:none;stroke:#41b8bc;stroke-width:1.12500003;stroke-linecap:butt;stroke-linejoin:miter;stroke-opacity:1;stroke-miterlimit:4;stroke-dasharray:none" /></g></svg>
